<?xml version="1.0" encoding="utf-8"?>
<!-- Generator: Adobe Illustrator 16.0.4, SVG Export Plug-In . SVG Version: 6.00 Build 0)  -->
<!DOCTYPE svg PUBLIC "-//W3C//DTD SVG 1.1//EN" "http://www.w3.org/Graphics/SVG/1.1/DTD/svg11.dtd">
<svg version="1.1" id="Layer_1" xmlns="http://www.w3.org/2000/svg" xmlns:xlink="http://www.w3.org/1999/xlink" x="0px" y="0px"
	 width="563.93px" height="751.906px" viewBox="0 0 563.93 751.906" enable-background="new 0 0 563.93 751.906"
	 xml:space="preserve">
<g id="cabin">
	<path fill-rule="evenodd" clip-rule="evenodd" fill="#543629" d="M303.966,296.074c6.656,2.32,13.815,3.164,20.021,6.811
		c-0.739,1.248-2.013,0.972-3.143,1.102c-5.73-0.789-10.824-4.298-16.824-3.937c-0.724-0.451-1.448-0.902-2.173-1.352
		C302.598,297.858,304.306,297.793,303.966,296.074z"/>
	<path fill-rule="evenodd" clip-rule="evenodd" fill="#452F1C" d="M288.945,315.958c-1.791-0.775-2.318-1.623-1.188-3.672
		c2.18-3.95,4.974-7.331,8.132-10.474c0.382,0.403,0.764,0.806,1.146,1.209c-1.931,3.031-7.214,5.023-3.077,9.933
		c2.305,0.271,4.059-1.12,5.987-1.983c-0.001,4.164-3.393,3.377-5.826,3.993c-0.789-1.183-1.853-1.492-3.169-0.992
		c-0.006-0.223-0.014-0.444-0.021-0.667c-0.195,0.067-0.392,0.134-0.587,0.2c0.207,0.152,0.415,0.305,0.622,0.456
		c-0.071,0.332-0.143,0.663-0.214,0.994C290.148,315.289,289.547,315.624,288.945,315.958z"/>
	<path fill-rule="evenodd" clip-rule="evenodd" fill="#1D1714" d="M320.845,303.987c1.13-0.13,2.403,0.146,3.143-1.102
		c4.378,4.601,4.309,5.217-1.436,12.753c-0.291-0.293-0.581-0.584-0.872-0.877c-0.311-0.264-0.621-0.527-0.931-0.792
		c-0.127-1.041,2.2-2.74-0.808-3.007c-0.188-0.282-0.257-0.591-0.207-0.927c0.364-0.341,0.729-0.681,1.094-1.021
		c0.059-0.848,0.003-1.645-0.913-2.061C320.524,306.059,321.443,305.261,320.845,303.987z"/>
	<path fill-rule="evenodd" clip-rule="evenodd" fill="#2E281B" d="M294.118,314.963c2.434-0.615,5.825,0.171,5.826-3.993
		c0.68-0.001,1.359-0.002,2.038-0.003c-0.004,0.662-0.007,1.325-0.011,1.988c-0.332,1.011-0.664,2.021-0.996,3.031
		c-5.483,4.741-5.483,4.741-12.03-0.027c0.602-0.335,1.203-0.669,1.805-1.004C291.871,315.86,292.987,318.348,294.118,314.963z"/>
	<path fill-rule="evenodd" clip-rule="evenodd" fill="#4B3F32" d="M300.976,315.986c0.332-1.01,0.664-2.02,0.996-3.031
		c0.842-0.042,1.655-0.141,2.048-1.056c0.957,0.382,1.914,0.765,2.872,1.146c0.747,0.85,1.463,1.086,2.108-0.104
		c0.927,0.118,1.667-0.119,2.033-1.068c0.366,0.172,0.732,0.343,1.099,0.514c-0.001-0.002,0.045,0.045,0.045,0.045
		c0.06,1.215,0.906,1.449,1.889,1.514l0.446-0.01l0.445,0.023c0.405,0.406,0.811,0.813,1.216,1.221
		c0.009,0.244-0.036,0.478-0.135,0.702c-0.34,0.431-0.679,0.861-1.019,1.293c0.065,0.183,0.067,0.365,0.006,0.55
		C310.401,316.66,306.013,313.698,300.976,315.986z"/>
	<path fill-rule="evenodd" clip-rule="evenodd" fill="#271609" d="M297.034,303.02c-0.382-0.403-0.764-0.806-1.146-1.209
		c2.604-2.036,3.659-6.254,8.077-5.737c0.34,1.719-1.368,1.784-2.118,2.625C300.243,300.139,298.639,301.58,297.034,303.02z"/>
	<path fill-rule="evenodd" clip-rule="evenodd" fill="#1D1714" d="M315.025,317.724c0.062-0.185,0.06-0.367-0.006-0.553
		c0.339-0.432,0.679-0.861,1.019-1.29c0.099-0.224,0.144-0.458,0.134-0.704c1.886,0.533,3.729,0.494,5.508-0.417
		c0.291,0.293,0.581,0.584,0.872,0.877C321.252,320.699,317.645,317.429,315.025,317.724z"/>
	<path fill-rule="evenodd" clip-rule="evenodd" fill="#8F614A" d="M297.034,303.02c1.604-1.44,3.209-2.881,4.813-4.321
		c0.725,0.449,1.449,0.9,2.173,1.351c0.041,0.521,0.082,1.042,0.121,1.564c0.136,2.224-2.174,2.106-3.136,3.277
		c-4.35,0.938-5.318,4.833-7.049,8.062C289.82,308.043,295.104,306.051,297.034,303.02z"/>
	<path fill-rule="evenodd" clip-rule="evenodd" fill="#DAAD76" d="M304.143,301.613c-0.04-0.521-0.081-1.042-0.122-1.562
		c6-0.361,11.094,3.148,16.824,3.937c0.599,1.273-0.32,2.071-0.93,2.966c-1.862-0.805-3.724-1.61-5.588-2.412
		c-1.155-0.641-2.344-1.608-3.208,0.358c-0.597,0.018-1.193,0.035-1.791,0.053C309.472,300.932,305.609,303.133,304.143,301.613z"/>
	<path fill-rule="evenodd" clip-rule="evenodd" fill="#452820" d="M293.957,312.953c1.73-3.229,2.699-7.123,7.049-8.061
		c-0.01,0.671-0.02,1.343-0.029,2.014c-1.21,2.216,0.775,2.371,1.961,3.042c-0.007,0.342-0.014,0.683-0.021,1.024
		c-0.311-0.04-0.622-0.042-0.934-0.006c-0.679,0.001-1.358,0.002-2.038,0.003C298.016,311.833,296.262,313.224,293.957,312.953z"/>
	<path fill-rule="evenodd" clip-rule="evenodd" fill="#F1ECE1" d="M294.118,314.963c-1.131,3.385-2.247,0.897-3.368-0.009
		c0.071-0.331,0.143-0.662,0.214-0.994l-0.015,0.011C292.266,313.471,293.329,313.78,294.118,314.963z"/>
	<path fill-rule="evenodd" clip-rule="evenodd" fill="#F1ECE1" d="M290.964,313.96c-0.207-0.151-0.415-0.304-0.622-0.456
		c0.195-0.066,0.392-0.133,0.587-0.2c0.007,0.223,0.015,0.444,0.021,0.667L290.964,313.96z"/>
	<path fill-rule="evenodd" clip-rule="evenodd" fill="#D4A87E" d="M319.734,310.035c-0.05,0.336,0.02,0.645,0.207,0.927
		c-0.076,0.273-0.111,0.551-0.106,0.835c-1.229-0.001-2.458-0.003-3.688-0.004c-0.382,0.015-0.765,0.03-1.147,0.046
		c-0.574-0.093-1.148-0.186-1.729-0.271c0.156-0.296,0.114-0.565-0.133-0.801c-0.106-0.566-0.212-1.135-0.318-1.703
		c0.307-1.059,1.125-0.976,1.953-0.875c0.648,0.328,1.296,0.657,1.943,0.986C317.547,310.075,318.605,310.176,319.734,310.035z"/>
	<path fill-rule="evenodd" clip-rule="evenodd" fill="#65370F" d="M314.328,304.538c1.863,0.805,3.725,1.61,5.587,2.415
		c0.916,0.416,0.972,1.213,0.913,2.061c-0.261-0.04-0.523-0.056-0.788-0.046c-1.682-1.704-3.784-2.562-6.079-3.037
		c-0.008-0.322-0.01-0.644-0.004-0.966C314.084,304.826,314.208,304.684,314.328,304.538z"/>
	<path fill-rule="evenodd" clip-rule="evenodd" fill="#5E3D27" d="M321.68,314.761c-1.778,0.911-3.622,0.95-5.508,0.417
		c-0.404-0.405-0.81-0.812-1.215-1.219c0.505-0.026,1.009-0.053,1.514-0.079c1.116-0.013,2.232-0.026,3.349-0.039
		c0.312,0.026,0.622,0.069,0.93,0.128C321.059,314.233,321.369,314.497,321.68,314.761z"/>
	<path fill-rule="evenodd" clip-rule="evenodd" fill="#865B30" d="M320.04,308.968c0.265-0.01,0.527,0.006,0.788,0.046
		c-0.364,0.34-0.729,0.68-1.094,1.021c-1.129,0.142-2.188,0.04-3.018-0.86c0.142-0.211,0.216-0.443,0.222-0.697
		C317.973,308.641,319.006,308.804,320.04,308.968z"/>
	<path fill-rule="evenodd" clip-rule="evenodd" fill="#674C35" d="M320.749,313.969c-0.308-0.059-0.617-0.102-0.929-0.127
		c0.006-0.682,0.01-1.363,0.015-2.046c-0.005-0.283,0.03-0.562,0.106-0.834C322.949,311.229,320.622,312.928,320.749,313.969z"/>
	<path fill-rule="evenodd" clip-rule="evenodd" fill="#1F0C06" d="M301.982,310.967c0.312-0.036,0.623-0.034,0.935,0.006
		c0.397,0.263,0.795,0.526,1.192,0.79l-0.09,0.137c-0.393,0.915-1.206,1.014-2.048,1.056
		C301.976,312.292,301.979,311.629,301.982,310.967z"/>
	<path fill-rule="evenodd" clip-rule="evenodd" fill="#B19677" d="M312.133,312.388c-0.367-0.172-0.733-0.343-1.1-0.515
		c-0.201-1.181-0.682-2.057-2.092-1.922c-0.234-0.065-0.473-0.079-0.713-0.039c-0.031-0.554-0.062-1.107-0.095-1.66
		c0,0.001-0.048,0.029-0.048,0.029c1.374-0.195,2.688-0.067,3.876,0.728l-0.043-0.031c0.18,0.732,0.36,1.465,0.54,2.198
		C312.351,311.579,312.241,311.983,312.133,312.388z"/>
	<path fill-rule="evenodd" clip-rule="evenodd" fill="#271609" d="M308.941,309.951c1.41-0.135,1.891,0.741,2.092,1.922
		c-0.366,0.949-1.106,1.187-2.033,1.068c-0.334-0.338-0.668-0.676-1.002-1.013l0.038-0.028
		C308.338,311.251,308.64,310.601,308.941,309.951z"/>
	<path fill-rule="evenodd" clip-rule="evenodd" fill="#B9A696" d="M306.892,313.046c-0.958-0.382-1.915-0.765-2.872-1.146
		l0.09-0.137c0.302-0.29,0.604-0.581,0.904-0.871c0.643,0.144,1.286,0.286,1.929,0.429c0.364,0.193,0.729,0.386,1.094,0.579
		l-0.038,0.028C307.629,312.301,307.261,312.674,306.892,313.046z"/>
	<path fill-rule="evenodd" clip-rule="evenodd" fill="#3D1C07" d="M316.471,313.88c-0.505,0.026-1.009,0.053-1.514,0.079
		l-0.445-0.023c0,0-0.446,0.01-0.447,0.01c-0.383-0.512-0.765-1.022-1.146-1.534c0.052-0.312,0.172-0.596,0.359-0.851
		c0.573,0.093,1.147,0.186,1.722,0.278c0.363,0.334,0.726,0.668,1.089,1.002C316.217,313.188,316.344,313.534,316.471,313.88z"/>
	<path fill-rule="evenodd" clip-rule="evenodd" fill="#8B7F75" d="M306.892,313.046c0.369-0.372,0.737-0.745,1.106-1.117
		c0.334,0.337,0.668,0.675,1.002,1.013C308.354,314.132,307.639,313.896,306.892,313.046z"/>
	<path fill-rule="evenodd" clip-rule="evenodd" fill="#674C35" d="M312.919,312.411c0.381,0.512,0.763,1.022,1.146,1.534
		c-0.981-0.064-1.828-0.299-1.889-1.511c-0.002,0.003,0.373,0.078,0.373,0.078L312.919,312.411z"/>
	<path fill-rule="evenodd" clip-rule="evenodd" fill="#271609" d="M312.919,312.411l-0.37,0.102c0,0-0.375-0.075-0.373-0.078
		c0.001-0.003-0.045-0.05-0.044-0.048c0.109-0.403,0.219-0.808,0.326-1.213c0.282-0.042,0.51-0.177,0.681-0.409
		c0.247,0.237,0.289,0.506,0.133,0.801C313.091,311.815,312.971,312.1,312.919,312.411z"/>
	<path fill-rule="evenodd" clip-rule="evenodd" fill="#5E3D27" d="M316.038,315.881c-0.34,0.429-0.68,0.858-1.019,1.29
		C315.359,316.743,315.698,316.312,316.038,315.881z"/>
	<path fill-rule="evenodd" clip-rule="evenodd" fill="#976745" d="M300.977,306.906c0.01-0.671,0.02-1.343,0.029-2.014
		c0.962-1.172,3.271-1.054,3.136-3.278c1.468,1.519,5.33-0.683,5.185,3.337c-0.117,0.354-0.234,0.706-0.352,1.059
		c0-0.001,0.057-0.043,0.057-0.043c-1.175,0.136-2.581-0.43-3.299,1.09c-1.048-0.062-2.157-0.312-2.784,0.913l-0.072,0.077
		C302.242,307.667,301.609,307.287,300.977,306.906z"/>
	<path fill-rule="evenodd" clip-rule="evenodd" fill="#D4A87E" d="M308.975,306.011c0.117-0.353,0.234-0.705,0.352-1.059
		c0.6-0.018,1.196-0.035,1.793-0.053c0.55,0.092,1.1,0.185,1.649,0.277c-0.644,0.333-1.288,0.666-1.932,0.999
		C310.216,306.12,309.595,306.065,308.975,306.011z"/>
	<path fill-rule="evenodd" clip-rule="evenodd" fill="#65370F" d="M312.769,305.177c-0.55-0.093-1.1-0.186-1.649-0.277
		c0.864-1.966,2.053-0.999,3.208-0.358c-0.119,0.143-0.243,0.285-0.37,0.425C313.561,305.036,313.164,305.106,312.769,305.177z"/>
	<path fill-rule="evenodd" clip-rule="evenodd" fill="#876C5F" d="M305.014,310.892c-0.301,0.29-0.603,0.581-0.904,0.871
		c-0.397-0.264-0.795-0.526-1.192-0.79c0.007-0.342,0.014-0.683,0.021-1.024c-0.021-0.634-0.041-1.268-0.062-1.901l0.072-0.077
		C305.164,307.865,304.865,309.537,305.014,310.892z"/>
	<path fill-rule="evenodd" clip-rule="evenodd" fill="#1F0C06" d="M302.876,308.047c0.021,0.634,0.041,1.268,0.062,1.901
		c-1.186-0.672-3.171-0.826-1.961-3.042C301.609,307.287,302.242,307.667,302.876,308.047z"/>
	<path fill-rule="evenodd" clip-rule="evenodd" fill="#8F614A" d="M316.471,313.88c-0.127-0.346-0.254-0.692-0.383-1.038
		c0.02-0.35,0.04-0.699,0.06-1.049c1.229,0.001,2.459,0.003,3.688,0.004c-0.005,0.682-0.009,1.363-0.015,2.045
		C318.703,313.854,317.587,313.867,316.471,313.88z"/>
	<path fill-rule="evenodd" clip-rule="evenodd" fill="#A4784D" d="M312.769,305.177c0.396-0.07,0.792-0.141,1.188-0.211
		c-0.006,0.322-0.004,0.644,0.004,0.966c0.411,0.579,0.822,1.158,1.233,1.737c-0.141,0.175-0.281,0.349-0.423,0.521
		c-0.826-0.103-1.645-0.186-1.95,0.873c-0.298-0.065-0.598-0.094-0.902-0.086l0.043,0.031c-0.375-0.944-0.75-1.888-1.125-2.833
		C311.48,305.843,312.125,305.51,312.769,305.177z"/>
	<path fill-rule="evenodd" clip-rule="evenodd" fill="#674C35" d="M311.919,308.977c0.305-0.008,0.604,0.021,0.902,0.086
		c0.105,0.568,0.211,1.137,0.317,1.703c-0.171,0.23-0.398,0.366-0.681,0.408C312.279,310.442,312.099,309.709,311.919,308.977z"/>
	<path fill-rule="evenodd" clip-rule="evenodd" fill="#A4784D" d="M316.717,309.174c-0.647-0.329-1.295-0.658-1.943-0.986
		c0.14-0.171,0.28-0.345,0.418-0.517c0.581,0.271,1.164,0.538,1.747,0.806C316.933,308.731,316.858,308.963,316.717,309.174z"/>
	<path fill-rule="evenodd" clip-rule="evenodd" fill="#5E3D27" d="M316.147,311.793c-0.02,0.35-0.04,0.699-0.06,1.049
		c-0.362-0.335-0.725-0.669-1.088-1.003C315.383,311.823,315.766,311.808,316.147,311.793z"/>
	<path fill-rule="evenodd" clip-rule="evenodd" fill="#D4A87E" d="M316.938,308.477c-0.583-0.268-1.166-0.535-1.747-0.806
		c-0.408-0.582-0.819-1.161-1.23-1.74c2.295,0.475,4.397,1.333,6.079,3.037C319.006,308.804,317.973,308.641,316.938,308.477z"/>
	<path fill-rule="evenodd" clip-rule="evenodd" fill="#6F4B2A" d="M305.014,310.892c-0.148-1.355,0.15-3.027-2.065-2.922
		c0.627-1.224,1.736-0.975,2.786-0.914c1.005-0.011,1.096,1.81,2.4,1.195c0.031,0.553,0.062,1.106,0.092,1.66
		c-0.43,0.471-0.857,0.94-1.284,1.41C306.3,311.178,305.656,311.036,305.014,310.892z"/>
	<path fill-rule="evenodd" clip-rule="evenodd" fill="#65411B" d="M310.837,306.176c0.375,0.944,0.75,1.888,1.125,2.833
		c-1.188-0.795-2.502-0.923-3.875-0.728c0.315-0.771,0.63-1.542,0.944-2.313c0,0-0.057,0.042-0.057,0.043
		C309.595,306.065,310.216,306.12,310.837,306.176z"/>
	<path fill-rule="evenodd" clip-rule="evenodd" fill="#C3986D" d="M309.031,305.968c-0.314,0.771-0.629,1.542-0.944,2.313
		c-0.001,0,0.047-0.028,0.047-0.029c-1.304,0.615-1.395-1.206-2.399-1.195C306.45,305.538,307.856,306.104,309.031,305.968z"/>
	<path fill-rule="evenodd" clip-rule="evenodd" fill="#876C5F" d="M306.942,311.321c0.427-0.469,0.854-0.939,1.284-1.41
		c0.242-0.04,0.48-0.026,0.715,0.039c-0.302,0.65-0.604,1.3-0.905,1.95C307.672,311.707,307.307,311.515,306.942,311.321z"/>
</g>
</svg>
