<?xml version="1.0" encoding="utf-8"?>
<!-- Generator: Adobe Illustrator 16.0.4, SVG Export Plug-In . SVG Version: 6.00 Build 0)  -->
<!DOCTYPE svg PUBLIC "-//W3C//DTD SVG 1.1//EN" "http://www.w3.org/Graphics/SVG/1.1/DTD/svg11.dtd">
<svg version="1.1" id="Layer_1" xmlns="http://www.w3.org/2000/svg" xmlns:xlink="http://www.w3.org/1999/xlink" x="0px" y="0px"
	 width="563.93px" height="751.906px" viewBox="0 0 563.93 751.906" enable-background="new 0 0 563.93 751.906"
	 xml:space="preserve">
<g id="farmhouse">
	<path fill-rule="evenodd" clip-rule="evenodd" fill="#1A1414" d="M321.896,433.896c-0.44,1.385-2.044,1.208-2.841,2.116
		c-1.414,0.007-1.726-3.685-3.891-1.159c-0.987-0.086-1.862,0.09-2.141,1.2c-0.192,0.771-0.202,1.536,0.927,1.58
		c-0.014,0.379-0.026,0.758-0.039,1.137c-1.312,0.73-2.624,1.46-3.937,2.189c-1.476-3.412-1.476-3.412-5.435-2.021
		c0.055-0.567,0.108-1.136,0.162-1.704c0.338-0.819,0.172-1.939,1.346-2.26c0.119,0.604-0.442,1.79,0.998,1.306
		c1.184-0.399,2.359-0.882,3.021-2.073c0.767-0.213,1.638-0.208,2.119-1.016c1.469-0.385,2.844-0.965,4.019-1.954
		c0.855-0.259,1.727-0.487,2.298-1.264c0.741,0.136,1.315-0.128,1.745-0.733c0.347-0.332,0.693-0.663,1.039-0.995
		c1.081-0.059,2.108-0.232,2.737-1.269c0.918,0.367,0.927,1.085,0.728,1.884c-0.28,0.292-0.562,0.584-0.842,0.876
		c-0.379,1.667-2.038,0.628-2.861,1.354c-1.642,1.537-1.483,2.531,0.863,2.865L321.896,433.896z"/>
	<path fill-rule="evenodd" clip-rule="evenodd" fill="#271810" d="M306.986,441.979c-1.222,2.592-3.054,1.369-4.101,0.216
		c-1.557-1.719-2.692-3.855-3.82-5.916c-0.761-1.392-1.18-2.958-0.089-4.469c1.561-2.164,1.035-5.503,3.904-6.93
		c0.927,0.365,0.954,1.204,1.055,2.003c0.31,0.429,0.619,0.857,0.929,1.286c0.044,0.596,0.088,1.192,0.132,1.788
		c-0.051,0.313-0.05,0.628,0.004,0.941c-0.014,0.685-0.028,1.37-0.043,2.056c-0.119,0.46-0.343,0.824-0.855,0.919
		c-1.49,1.89-1.515,3.065-0.135,6.433C304.685,441.386,306.432,440.604,306.986,441.979z M302.468,429.414
		c-0.317,1.152-1.313,2.224-0.503,3.516c0.311,0.493,0.982,0.427,1.184,0.076c0.736-1.286,1.183-2.638-0.333-3.764
		c-0.085-0.234-0.17-0.469-0.254-0.703C302.001,428.774,302.361,429.107,302.468,429.414z"/>
	<path fill-rule="evenodd" clip-rule="evenodd" fill="#3E2618" d="M307.975,422.11c3.151-3.395,8.055-3.429,11.662-6.047
		c0.974-0.706,1.856,0.819,2.406,1.809l-0.062,0.056c-5.128,0.621-9.054,4.358-14.018,5.406
		C307.967,422.927,307.971,422.519,307.975,422.11z"/>
	<path fill-rule="evenodd" clip-rule="evenodd" fill="#3E2618" d="M322.043,417.872c1.551,1.335,1.748,3.476,2.978,5.002
		c-0.472,0.986-1.271,1.856-1.086,3.074l0.024-0.025c-1.336-0.32-2.672-0.64-4.007-0.959c0.003-0.34,0.006-0.678,0.008-1.017
		l0.001-0.001c0.245-0.169,0.489-0.339,0.734-0.508c-0.268-0.119-0.534-0.237-0.802-0.356c0.352-0.901-0.811-2.532,0.892-2.693
		c2.106-0.199,0.511-1.804,1.195-2.461L322.043,417.872z"/>
	<path fill-rule="evenodd" clip-rule="evenodd" fill="#4D4746" d="M306.986,441.979c-0.555-1.374-2.302-0.593-3.02-1.673
		c0.191-0.456,0.383-0.912,0.573-1.368c3.959-1.391,3.959-1.391,5.435,2.021C309.31,442.27,308.065,441.881,306.986,441.979z"/>
	<path fill-rule="evenodd" clip-rule="evenodd" fill="#4D4746" d="M313.911,438.77c0.013-0.379,0.025-0.758,0.039-1.137
		c0.526-0.874,1.235-1.668,1.214-2.78c2.165-2.525,2.477,1.166,3.891,1.159C317.914,438.002,316.084,438.705,313.911,438.77z"/>
	<path fill-rule="evenodd" clip-rule="evenodd" fill="#65462A" d="M307.975,422.11c-0.004,0.408-0.008,0.816-0.012,1.224
		c-1.343,1.184-2.685,2.366-4.027,3.549c-0.101-0.799-0.128-1.638-1.055-2.003C304.641,424.07,305.684,421.943,307.975,422.11z"/>
	<path fill-rule="evenodd" clip-rule="evenodd" fill="#4E2F21" d="M324.752,428.859c0.199-0.799,0.19-1.517-0.728-1.884
		c-0.021-0.351-0.044-0.702-0.065-1.053l-0.024,0.025c1.081,0.114,1.922-0.518,2.837-0.918c0.018,0.944,0.036,1.887,0.054,2.831
		c-0.519,0.364-1.036,0.728-1.555,1.092C325.093,428.947,324.92,428.917,324.752,428.859z"/>
	<path fill-rule="evenodd" clip-rule="evenodd" fill="#AB9CA5" d="M325.271,428.953c0.519-0.364,1.036-0.728,1.555-1.092
		c0.785,1.33,2.016,2.641,0.179,4.085C326.426,430.948,325.849,429.95,325.271,428.953z"/>
	<path fill-rule="evenodd" clip-rule="evenodd" fill="#3E2618" d="M325.271,428.953c0.578,0.997,1.155,1.995,1.733,2.993
		c-0.225,1.171-1.218,0.908-1.986,1.064l-0.021-0.023c-0.786-0.942,0.913-2.715-1.086-3.252c0.28-0.292,0.562-0.584,0.842-0.876
		C324.92,428.917,325.093,428.947,325.271,428.953z"/>
	<path fill-rule="evenodd" clip-rule="evenodd" fill="#7A5F58" d="M326.771,425.03c-0.915,0.4-1.756,1.032-2.837,0.918
		c-0.186-1.218,0.614-2.088,1.086-3.074C325.911,423.344,326.658,423.93,326.771,425.03z"/>
	<path fill-rule="evenodd" clip-rule="evenodd" fill="#3E2618" d="M325.018,433.011c-0.636,1.718-2.056,0.68-3.122,0.885
		l0.017,0.059c0.116-0.247,0.178-0.508,0.184-0.781c0.956-0.231,1.888-0.851,2.9-0.186L325.018,433.011z"/>
	<path fill-rule="evenodd" clip-rule="evenodd" fill="#7A5F58" d="M323.959,425.923c0.021,0.351,0.044,0.702,0.065,1.053
		c-0.629,1.036-1.656,1.21-2.737,1.269c-0.127-0.111-0.253-0.225-0.376-0.34c-0.363-1.02-0.671-0.791-0.951,0.042
		c-1.009,0.111-2.017,0.223-3.025,0.334c0.362-0.756,0.726-1.511,1.088-2.267c0.837-0.021,1.68-0.033,1.959-1.073l-0.029,0.023
		C321.287,425.283,322.623,425.603,323.959,425.923z"/>
	<path fill-rule="evenodd" clip-rule="evenodd" fill="#AB9CA5" d="M324.996,432.987c-1.013-0.665-1.944-0.046-2.9,0.186
		c-1.121-0.307-1.146-1.163-1.047-2.084c0.823-0.726,2.482,0.313,2.861-1.354C325.909,430.272,324.21,432.045,324.996,432.987z"/>
	<path fill-rule="evenodd" clip-rule="evenodd" fill="#AB9CA5" d="M304.54,438.938c-0.19,0.456-0.382,0.912-0.573,1.368
		c-1.38-3.367-1.355-4.543,0.135-6.433c0.084,1.141-0.524,2.405,0.601,3.36C304.648,437.802,304.595,438.37,304.54,438.938z"/>
	<path fill-rule="evenodd" clip-rule="evenodd" fill="#4E2F21" d="M304.702,437.233c-1.125-0.955-0.517-2.22-0.601-3.36
		c0.513-0.095,0.736-0.459,0.855-0.919c0.231-0.001,0.463,0.002,0.694,0.007c0.477,1.035,1.439,0.904,2.321,0.969
		c-0.324,0.933-1.119,0.998-1.925,1.044C304.874,435.294,305.04,436.414,304.702,437.233z"/>
	<path fill-rule="evenodd" clip-rule="evenodd" fill="#A68F80" d="M316.205,431.236c-1.175,0.989-2.55,1.569-4.019,1.954
		l-0.226-0.244c0.169-0.502,0.338-1.003,0.507-1.505c1.1-0.245,2.198-0.489,3.298-0.733
		C315.912,430.884,316.059,431.06,316.205,431.236z"/>
	<path fill-rule="evenodd" clip-rule="evenodd" fill="#7A5F58" d="M306.048,434.974c0.806-0.046,1.601-0.111,1.925-1.044
		l-0.038,0.029c0.622-0.013,1.245-0.025,1.867-0.039l0.266,0.286c-0.662,1.191-1.838,1.674-3.021,2.073
		C305.605,436.764,306.167,435.577,306.048,434.974z"/>
	<path fill-rule="evenodd" clip-rule="evenodd" fill="#AB9CA5" d="M315.164,434.853c0.021,1.112-0.688,1.906-1.214,2.78
		c-1.129-0.044-1.119-0.81-0.927-1.58C313.302,434.942,314.177,434.767,315.164,434.853z"/>
	<path fill-rule="evenodd" clip-rule="evenodd" fill="#7A5F58" d="M321.049,431.089c-0.1,0.921-0.074,1.777,1.047,2.084
		c-0.006,0.273-0.067,0.534-0.184,0.781C319.565,433.62,319.407,432.626,321.049,431.089z"/>
	<path fill-rule="evenodd" clip-rule="evenodd" fill="#7A5F58" d="M320.248,429.239c-0.43,0.605-1.004,0.869-1.745,0.733
		c-0.514-0.006-1.026-0.013-1.539-0.02c-0.014-0.374-0.026-0.747-0.04-1.121c0.96-0.014,1.921-0.027,2.882-0.041
		C319.954,428.938,320.102,429.089,320.248,429.239z"/>
	<path fill-rule="evenodd" clip-rule="evenodd" fill="#A68F80" d="M312.187,433.19c-0.481,0.808-1.353,0.803-2.119,1.016
		l-0.266-0.286c0.066-0.605,0.477-0.903,0.99-1.11c0.39,0.046,0.779,0.091,1.169,0.137L312.187,433.19z"/>
	<path fill-rule="evenodd" clip-rule="evenodd" fill="#A68F80" d="M316.964,429.953c0.513,0.007,1.025,0.014,1.539,0.02
		c-0.571,0.776-1.442,1.005-2.298,1.264c-0.146-0.177-0.293-0.353-0.439-0.528C316.165,430.456,316.564,430.205,316.964,429.953z"/>
	<path fill-rule="evenodd" clip-rule="evenodd" fill="#7A5F58" d="M321.287,428.244c-0.346,0.332-0.692,0.663-1.039,0.995
		c-0.146-0.15-0.294-0.301-0.442-0.448c0.037-0.284,0.088-0.565,0.154-0.845c0.316-0.033,0.633-0.048,0.951-0.042
		C321.034,428.02,321.16,428.133,321.287,428.244z"/>
	<path fill-rule="evenodd" clip-rule="evenodd" fill="#A06855" d="M303.936,426.883c1.343-1.183,2.685-2.365,4.027-3.549
		c4.964-1.048,8.89-4.785,14.018-5.406c-0.685,0.657,0.911,2.262-1.195,2.461c-1.702,0.161-0.54,1.792-0.892,2.693
		c0.01,0.289,0.032,0.577,0.067,0.864l-0.001,0.001c-0.309-0.019-0.616-0.017-0.925,0.009c-0.71-1.599-1.485-1.009-2.271-0.069
		c-1.645,0.003-3.173,0.221-3.814,2.07l0.025-0.018c-1.127-0.009-2.417-0.503-3.028,1.018l0.03-0.021
		c-0.881-0.065-1.746-0.101-2.029,1.021c0,0,0.029-0.021,0.029-0.021c-1.037,0.077-2.075,0.155-3.112,0.232
		C304.555,427.74,304.245,427.312,303.936,426.883z"/>
	<path fill-rule="evenodd" clip-rule="evenodd" fill="#A06855" d="M305,430.898c-0.054-0.313-0.055-0.628-0.004-0.941
		c0.937-0.758,2.405-0.731,2.98-2.021l-0.029,0.021c0.87,0.045,1.704,0.019,2.029-1.021l-0.03,0.021
		c1.107-0.049,2.355,0.321,3.028-1.018l-0.025,0.018c1.08-0.013,2.16-0.025,3.24-0.038c-1.912,2.236-5.346,1.738-7.232,4.021
		C307.638,430.259,306.318,430.579,305,430.898z"/>
	<path fill-rule="evenodd" clip-rule="evenodd" fill="#AB9CA5" d="M302.815,429.242c1.516,1.126,1.069,2.478,0.333,3.764
		c-0.201,0.351-0.873,0.417-1.184-0.076c-0.811-1.292,0.186-2.363,0.503-3.516L302.815,429.242z"/>
	<path fill-rule="evenodd" clip-rule="evenodd" fill="#5C2B1C" d="M305,430.898c1.318-0.319,2.638-0.64,3.957-0.959l-0.003-0.002
		c-0.289,1.895-2.492,1.699-3.303,3.023c-0.231-0.005-0.463-0.008-0.694-0.007C304.972,432.269,304.986,431.583,305,430.898z"/>
	<path fill-rule="evenodd" clip-rule="evenodd" fill="#65331F" d="M307.977,427.937c-0.575,1.289-2.044,1.263-2.98,2.021
		c-0.044-0.596-0.088-1.192-0.132-1.788C305.901,428.092,306.939,428.014,307.977,427.937z"/>
	<path fill-rule="evenodd" clip-rule="evenodd" fill="#65331F" d="M302.815,429.242l-0.348,0.172
		c-0.106-0.307-0.467-0.64,0.094-0.875C302.646,428.773,302.73,429.008,302.815,429.242z"/>
	<path fill-rule="evenodd" clip-rule="evenodd" fill="#835544" d="M319.035,423.956c0.309-0.025,0.616-0.027,0.925-0.009
		c-0.002,0.339-0.005,0.677-0.008,1.017l0.029-0.023c-0.671,0.084-1.342,0.169-2.014,0.253c-0.003-0.419-0.006-0.839-0.009-1.258
		C318.317,423.942,318.677,423.949,319.035,423.956z"/>
	<path fill-rule="evenodd" clip-rule="evenodd" fill="#835544" d="M319.961,423.946c-0.035-0.287-0.058-0.575-0.067-0.864
		c0.268,0.119,0.534,0.237,0.802,0.356C320.45,423.607,320.206,423.777,319.961,423.946z"/>
	<path fill-rule="evenodd" clip-rule="evenodd" fill="#5C2B1C" d="M308.957,429.939c1.887-2.282,5.32-1.784,7.232-4.021
		c0.589,0.008,1.177,0.016,1.766,0.023l0.067,0.071c-0.362,0.756-0.726,1.511-1.088,2.267c-0.004,0.184-0.008,0.367-0.011,0.552
		c0.014,0.374,0.026,0.747,0.04,1.121c-0.399,0.252-0.799,0.503-1.198,0.755c-1.1,0.244-2.198,0.488-3.298,0.733
		c0.383-0.646,0.765-1.291,1.252-2.114c-1.82-0.286-3.172,1.214-4.766,0.61L308.957,429.939z"/>
	<path fill-rule="evenodd" clip-rule="evenodd" fill="#65331F" d="M316.924,428.832c0.003-0.185,0.007-0.368,0.011-0.552
		c1.009-0.111,2.017-0.223,3.025-0.334c-0.066,0.279-0.117,0.561-0.154,0.845C318.845,428.805,317.884,428.818,316.924,428.832z"/>
	<path fill-rule="evenodd" clip-rule="evenodd" fill="#5C2B1C" d="M317.968,425.193c0.672-0.084,1.343-0.169,2.014-0.253
		c-0.279,1.04-1.122,1.052-1.959,1.073l-0.067-0.071C317.971,425.692,317.976,425.443,317.968,425.193z"/>
	<path fill-rule="evenodd" clip-rule="evenodd" fill="#65331F" d="M320.911,427.904c-0.318-0.006-0.635,0.009-0.951,0.042
		C320.24,427.113,320.548,426.885,320.911,427.904z"/>
	<path fill-rule="evenodd" clip-rule="evenodd" fill="#926254" d="M308.954,429.938c1.594,0.604,2.945-0.896,4.766-0.61
		c-0.487,0.823-0.869,1.469-1.252,2.114c-0.169,0.502-0.338,1.003-0.507,1.505c-0.39-0.046-0.779-0.091-1.169-0.137
		c-1.843-1.831-2.095,0.296-2.857,1.149l0.038-0.029c-0.882-0.064-1.845,0.066-2.321-0.969
		C306.462,431.637,308.665,431.832,308.954,429.938z"/>
	<path fill-rule="evenodd" clip-rule="evenodd" fill="#4E2F21" d="M307.935,433.959c0.763-0.854,1.015-2.98,2.857-1.149
		c-0.514,0.207-0.924,0.505-0.99,1.11C309.18,433.934,308.557,433.946,307.935,433.959z"/>
	<path fill-rule="evenodd" clip-rule="evenodd" fill="#65331F" d="M317.968,425.193c0.008,0.25,0.003,0.499-0.013,0.749
		c-0.589-0.008-1.177-0.016-1.766-0.023c-1.08,0.013-2.16,0.025-3.24,0.038c0.642-1.85,2.17-2.067,3.814-2.07
		c0.398,0.017,0.796,0.032,1.195,0.049C317.962,424.354,317.965,424.774,317.968,425.193z"/>
	<path fill-rule="evenodd" clip-rule="evenodd" fill="#65331F" d="M312.975,425.939c-0.673,1.339-1.921,0.969-3.028,1.018
		C310.558,425.437,311.848,425.931,312.975,425.939z"/>
	<path fill-rule="evenodd" clip-rule="evenodd" fill="#3E2618" d="M317.959,423.936c-0.399-0.017-0.797-0.032-1.195-0.049
		c0.786-0.939,1.562-1.529,2.271,0.069C318.677,423.949,318.317,423.942,317.959,423.936z"/>
	<path fill-rule="evenodd" clip-rule="evenodd" fill="#65331F" d="M309.977,426.937c-0.325,1.039-1.159,1.065-2.029,1.021
		C308.23,426.836,309.096,426.871,309.977,426.937z"/>
</g>
</svg>
