<?xml version="1.0" encoding="utf-8"?>
<!-- Generator: Adobe Illustrator 16.0.4, SVG Export Plug-In . SVG Version: 6.00 Build 0)  -->
<!DOCTYPE svg PUBLIC "-//W3C//DTD SVG 1.1//EN" "http://www.w3.org/Graphics/SVG/1.1/DTD/svg11.dtd">
<svg version="1.1" id="Layer_1" xmlns="http://www.w3.org/2000/svg" xmlns:xlink="http://www.w3.org/1999/xlink" x="0px" y="0px"
	 width="267.121px" height="312.24px" viewBox="0 0 267.121 312.24" enable-background="new 0 0 267.121 312.24"
	 xml:space="preserve">
<g>
	<path fill-rule="evenodd" clip-rule="evenodd" fill="#6A5057" d="M69.355,0.916c-5.911,0-11.823-0.001-17.734-0.001
		c0.153-0.225,0.306-0.45,0.458-0.674c6,0,12,0,18,0C69.838,0.465,69.597,0.691,69.355,0.916z"/>
	<path fill-rule="evenodd" clip-rule="evenodd" fill="#5C4544" d="M98.4,0.24c0.094,0.58-0.153,0.734-0.728,0.729
		c-4.076-0.035-8.152-0.034-12.228-0.045c0.079-0.229,0.157-0.457,0.236-0.685C89.92,0.24,94.16,0.24,98.4,0.24z"/>
	<path fill-rule="evenodd" clip-rule="evenodd" fill="#7B684D" d="M85.68,0.24c-0.079,0.228-0.158,0.456-0.236,0.685
		c-3.681-0.003-7.361-0.006-11.041-0.009c0.319-0.225,0.638-0.45,0.957-0.675C78.8,0.24,82.24,0.24,85.68,0.24z"/>
	<path fill-rule="evenodd" clip-rule="evenodd" fill="#5C4544" d="M39.844,0.924c-2.638,0.011-5.276,0.005-7.914,0.045
		c-0.575,0.009-0.823-0.147-0.73-0.729c3.12,0,6.24,0,9.36,0C40.602,0.762,40.042,0.653,39.844,0.924z"/>
	<path fill-rule="evenodd" clip-rule="evenodd" fill="#6A5057" d="M39.844,0.924c0.198-0.271,0.758-0.162,0.716-0.684
		c2.8,0,5.6,0,8.4,0c-0.082,0.222-0.165,0.444-0.247,0.666C45.757,0.912,42.8,0.918,39.844,0.924z"/>
	<path fill-rule="evenodd" clip-rule="evenodd" fill="#7B5E81" d="M69.355,0.916c0.242-0.225,0.483-0.451,0.725-0.676
		c1.04,0,2.08,0,3.12,0c0.06,0.369-0.288,0.461-0.458,0.674C71.613,0.915,70.484,0.916,69.355,0.916z"/>
	<path fill-rule="evenodd" clip-rule="evenodd" fill="#7B5E81" d="M48.713,0.906c0.082-0.222,0.165-0.444,0.247-0.666
		c1.04,0,2.08,0,3.12,0c-0.153,0.225-0.306,0.45-0.458,0.674C50.652,0.912,49.683,0.909,48.713,0.906z"/>
	<path fill-rule="evenodd" clip-rule="evenodd" fill="#554B30" d="M72.742,0.914c0.17-0.212,0.518-0.305,0.458-0.674
		c0.72,0,1.44,0,2.16,0c-0.319,0.225-0.638,0.45-0.957,0.675C73.849,0.915,73.296,0.915,72.742,0.914z"/>
	<g id="musroom1">
		<path fill-rule="evenodd" clip-rule="evenodd" fill="#88734C" d="M4.583,205.873c-0.702,0.14-1.304,0.013-1.71-0.638
			c-0.084-0.091-0.169-0.182-0.254-0.273l0.006,0.028c-0.335-1.436,0.091-2.781,0.485-4.13l-0.013,0.018
			c0.86-0.444,1.679-1.307,2.683-0.26c-0.757,0.637,0.511,1.157,0.088,1.801c-0.176-0.133-0.347-0.262-0.518-0.391
			c0.397,0.884,0.026,2.222,1.461,2.448c0.274,0.528,0.054,1.105,0.163,1.649c-0.739-0.001-1.502,0.283-2.203-0.182
			c1.126-0.667,0.011-1.482,0.202-2.211C4.525,204.479,4.525,204.479,4.583,205.873z"/>
		<path fill-rule="evenodd" clip-rule="evenodd" fill="#3F3129" d="M5.781,200.618c-1.004-1.047-1.823-0.185-2.683,0.26
			c0.099-0.468-0.189-0.585-0.521-0.446c-0.291,0.122-0.572,0.207-0.879,0.229c0,0-0.024-0.027-0.024-0.027
			c0.145-0.983,1.005-0.778,1.579-0.834c1.401-0.136,2.817-0.124,4.227-0.171c0.892-0.144,1.787-0.266,2.673-0.438
			c0.505-0.098,1.065-0.218,0.834-0.976c0.03-0.629-0.689-0.398-0.884-0.77c-2.519-0.647-5.046-1.192-7.663-0.604l-0.066-0.064
			c0.213-0.432,0.679-0.717,1.035-0.667c2.384,0.334,4.878-0.017,7.141,1.049c0.566,0.267,1.348,0.548,1.132,1.423
			c-0.208,0.843-0.876,1.102-1.713,1.116c-1.296,0.021-2.531,0.564-3.835,0.473c0.041,0.331,0.079,0.636,0.117,0.94l-0.004,0.005
			C5.953,201.079,5.964,200.758,5.781,200.618z"/>
		<path fill-rule="evenodd" clip-rule="evenodd" fill="#3F3129" d="M1.698,200.66c-0.176,0.496-0.502,0.361-0.828,0.191
			c-0.264-0.137-0.483-0.356-0.379-0.658c0.353-1.032,0.384-2.225,1.405-2.938c0.032,0.029,0.065,0.058,0.098,0.086
			c-0.006,0.132-0.013,0.264-0.019,0.396c-0.295,0.679-0.746,1.28-0.943,2.013c-0.165,0.61-0.017,0.911,0.642,0.882L1.698,200.66z"
			/>
		<path fill-rule="evenodd" clip-rule="evenodd" fill="#3F3129" d="M6.975,206.124c-0.109-0.544,0.111-1.121-0.164-1.649
			c-0.108-0.959-0.217-1.919-0.325-2.879l0.011-0.013c0.646,1.24,0.89,2.576,0.942,3.957C7.453,205.863,7.262,206.034,6.975,206.124
			z"/>
		<path fill-rule="evenodd" clip-rule="evenodd" fill="#423726" d="M3.11,200.859c-0.395,1.35-0.821,2.695-0.485,4.13
			C1.711,203.981,1.954,201.913,3.11,200.859z"/>
		<path fill-rule="evenodd" clip-rule="evenodd" fill="#3F3129" d="M4.583,205.873c-0.058-1.395-0.058-1.395,0.391-2.142
			c-0.191,0.729,0.925,1.544-0.202,2.211C4.71,205.917,4.647,205.894,4.583,205.873z"/>
		<path fill-rule="evenodd" clip-rule="evenodd" fill="#3F3129" d="M1.895,197.256c0.16-0.16,0.319-0.32,0.479-0.48
			c0,0,0.066,0.064,0.064,0.063c0.04,0.333-0.157,0.458-0.445,0.503C1.96,197.314,1.927,197.285,1.895,197.256z"/>
		<path fill-rule="evenodd" clip-rule="evenodd" fill="#3F3129" d="M6.25,201.11c0.295,0.046,0.213,0.29,0.248,0.473l-0.011,0.013
			c-0.307-0.047-0.286-0.257-0.24-0.48L6.25,201.11z"/>
		<path fill-rule="evenodd" clip-rule="evenodd" fill="#423726" d="M2.619,204.961c0.084,0.091,0.169,0.182,0.254,0.273
			C2.789,205.144,2.704,205.053,2.619,204.961z"/>
		<path fill-rule="evenodd" clip-rule="evenodd" fill="#B39662" d="M6.247,201.116c-0.046,0.223-0.067,0.434,0.24,0.48
			c0.108,0.959,0.216,1.919,0.325,2.879c-1.435-0.226-1.063-1.564-1.46-2.448c0.171,0.129,0.342,0.258,0.518,0.391
			c0.423-0.644-0.845-1.164-0.088-1.801C5.964,200.758,5.953,201.079,6.247,201.116z"/>
		<path fill-rule="evenodd" clip-rule="evenodd" fill="#B65E36" d="M1.993,197.342c0.288-0.045,0.485-0.17,0.445-0.503
			c2.618-0.587,5.146-0.042,7.665,0.606c-0.301,0.333-0.502,0.784-1.113,0.654c-0.353-0.075-0.837,0.081-0.777,0.489
			c0.092,0.624,0.566,0.169,0.838,0.112c0.65-0.135,1.246-0.493,1.935-0.486c0.23,0.758-0.33,0.877-0.834,0.976
			c-0.886,0.172-1.781,0.294-2.673,0.438c-0.104-1.373-2.819-2.661-3.999-1.799c-0.648,0.473-1.032,0.43-1.506-0.091
			C1.98,197.605,1.987,197.474,1.993,197.342z"/>
		<path fill-rule="evenodd" clip-rule="evenodd" fill="#7C472B" d="M1.974,197.738c0.474,0.521,0.858,0.564,1.506,0.091
			c1.18-0.862,3.895,0.427,3.999,1.799c-1.41,0.047-2.826,0.035-4.227,0.171c-0.574,0.056-1.434-0.149-1.579,0.834
			c-0.659,0.029-0.807-0.272-0.642-0.882C1.229,199.018,1.679,198.417,1.974,197.738z"/>
		<path fill-rule="evenodd" clip-rule="evenodd" fill="#E57F42" d="M10.986,198.214c-0.689-0.007-1.285,0.352-1.935,0.486
			c-0.272,0.057-0.747,0.512-0.838-0.112c-0.06-0.408,0.424-0.563,0.777-0.489c0.61,0.129,0.812-0.322,1.113-0.654
			C10.297,197.815,11.016,197.585,10.986,198.214z"/>
	</g>
	<g id="mushroom6">
		<path fill-rule="evenodd" clip-rule="evenodd" fill="#3F3129" d="M197.496,265.895c-0.209-0.146-0.399-0.353-0.631-0.422
			c-0.383-0.115-0.902,0.061-1.02-0.535c-0.117-0.594,0.233-0.932,0.699-1.194c0.217,0.154,0.072,0.33,0.03,0.5
			c-0.285,0.184-0.365,0.333-0.012,0.569c1.031,0.688,2.192,0.867,3.387,0.947c2.175,0.505,2.6,0.172,2.379-1.864
			c-0.013-0.118-0.008-0.237-0.007-0.355c0.009-0.778-0.348-0.89-0.964-0.53c-0.234-0.007-0.468-0.013-0.703-0.02
			c-0.179-0.192-0.347-0.19-0.503,0.027l0.014,0.084c-0.554,0.006-1.108,0.012-1.662,0.018c-0.426-0.107-0.74,0.048-0.968,0.41
			l-0.007,0.007c-0.214-0.009-0.387,0.055-0.479,0.266c-0.172,0.02-0.358,0.151-0.502-0.062c0.584-0.833,1.392-1.194,2.401-1.177
			c0.996,0.016,1.993,0.008,2.988-0.013c0.586-0.012,0.92,0.192,0.865,0.83c-0.014,0.158-0.015,0.319-0.004,0.478
			c0.165,2.375,0.034,2.515-2.392,2.543c-0.066-0.002-0.133-0.007-0.2-0.013c-0.396,0-0.793,0-1.19,0
			c-0.414-0.333-0.865-0.523-1.406-0.369C197.572,265.978,197.535,265.937,197.496,265.895z"/>
		<path fill-rule="evenodd" clip-rule="evenodd" fill="#937B4E" d="M199.017,266.389c0.396,0,0.793,0,1.19,0
			c-0.114,0.294-0.644,0.713,0.213,0.719c0,0-0.007-0.005-0.007-0.005c0.138,1.024,0.129,1.004-0.726,1.384
			c-0.289,0.129-0.505,0.396-0.475,0.769c-0.526,0.1-1.081,0.127-1.567,0.324c-0.389,0.158-0.477-0.021-0.613-0.265
			c0.029-0.105,0.058-0.21,0.086-0.315c0.787,0.099,1.193-0.213,1.116-1.04C198.168,267.273,198.496,266.784,199.017,266.389z"/>
		<path fill-rule="evenodd" clip-rule="evenodd" fill="#423726" d="M199.211,269.256c-0.03-0.373,0.187-0.64,0.475-0.769
			c0.855-0.38,0.864-0.36,0.726-1.384c0.713,0.315,0.417,1.075,0.682,1.594c0.149,0.292-0.203,0.378-0.433,0.326
			C200.139,268.905,199.703,269.242,199.211,269.256z"/>
		<path fill-rule="evenodd" clip-rule="evenodd" fill="#3F3129" d="M196.78,269.062c-0.669-0.536-0.674-1.627-0.009-2.45
			c0.064,0.058,0.128,0.116,0.191,0.174c-0.368,0.73-0.103,1.507-0.166,2.26L196.78,269.062z"/>
		<path fill-rule="evenodd" clip-rule="evenodd" fill="#3F3129" d="M196.771,266.612c0.032-0.452,0.262-0.703,0.726-0.717
			c0.039,0.042,0.076,0.083,0.112,0.122c-0.217,0.255-0.431,0.512-0.646,0.77C196.898,266.729,196.834,266.67,196.771,266.612z"/>
		<path fill-rule="evenodd" clip-rule="evenodd" fill="#423726" d="M200.419,267.108c-0.857-0.005-0.327-0.424-0.213-0.719
			c0.066,0.006,0.133,0.01,0.2,0.013C200.411,266.637,200.415,266.873,200.419,267.108z"/>
		<path fill-rule="evenodd" clip-rule="evenodd" fill="#3F3129" d="M197.116,269c-0.028,0.105-0.057,0.21-0.086,0.315
			c-0.083-0.084-0.167-0.169-0.25-0.254l0.016-0.016C196.902,269.031,197.009,269.016,197.116,269z"/>
		<path fill-rule="evenodd" clip-rule="evenodd" fill="#BC6337" d="M200.654,262.991c0.234,0.006,0.468,0.013,0.703,0.02
			c0.033,0.867-0.007,0.897-1.537,1.089c0.513,0.532-0.016,1.109,0.129,1.66c-1.195-0.08-2.356-0.26-3.387-0.947
			c-0.353-0.236-0.272-0.386,0.012-0.569c1.602,0.895,2.47-0.522,3.591-1.141l-0.014-0.084
			C200.319,263.01,200.487,263,200.654,262.991z"/>
		<path fill-rule="evenodd" clip-rule="evenodd" fill="#744329" d="M199.949,265.76c-0.145-0.551,0.384-1.128-0.129-1.66
			c1.53-0.192,1.57-0.222,1.537-1.089c0.616-0.359,0.973-0.248,0.964,0.53c-0.001,0.118-0.006,0.238,0.007,0.355
			C202.549,265.932,202.124,266.266,199.949,265.76z"/>
		<path fill-rule="evenodd" clip-rule="evenodd" fill="#D8A959" d="M197.116,269c-0.107,0.015-0.214,0.031-0.321,0.046
			c0.063-0.753-0.202-1.53,0.166-2.26c0.215-0.257,0.43-0.514,0.646-0.769c0.543-0.151,0.995,0.039,1.408,0.372
			c-0.521,0.395-0.848,0.884-0.784,1.572C198.31,268.787,197.903,269.099,197.116,269z"/>
		<path fill-rule="evenodd" clip-rule="evenodd" fill="#E57F42" d="M200.165,263.103c-1.121,0.619-1.989,2.036-3.591,1.141
			c0.042-0.17,0.188-0.346-0.03-0.5l0.003-0.003c0.144,0.213,0.33,0.082,0.502,0.062c0.376,0.302,0.433,0.026,0.479-0.266
			l0.007-0.007c0.365-0.036,0.81,0.117,0.968-0.41C199.057,263.114,199.611,263.108,200.165,263.103z"/>
		<path fill-rule="evenodd" clip-rule="evenodd" fill="#BC6337" d="M198.503,263.12c-0.158,0.527-0.603,0.374-0.968,0.41
			C197.763,263.168,198.077,263.013,198.503,263.12z"/>
		<path fill-rule="evenodd" clip-rule="evenodd" fill="#BC6337" d="M197.528,263.537c-0.046,0.292-0.102,0.568-0.479,0.266
			C197.142,263.592,197.314,263.527,197.528,263.537z"/>
		<path fill-rule="evenodd" clip-rule="evenodd" fill="#744329" d="M200.654,262.991c-0.167,0.009-0.335,0.019-0.503,0.027
			C200.308,262.801,200.476,262.799,200.654,262.991z"/>
	</g>
	<g id="mushroom2">
		<path fill-rule="evenodd" clip-rule="evenodd" fill="#9B8359" d="M18.961,205.229c-0.078,0.135-0.167,0.264-0.23,0.404
			c-0.36,0.809-0.722,0.95-1.139,0.031c-0.068-0.149-0.058-0.416-0.352-0.407c-0.633,0.272,0.454,0.928-0.202,1.104
			c-0.359,0.097-0.848,0.259-1.199-0.148c-0.021-0.155-0.064-0.289-0.258-0.288l0.007,0.013c0.16-0.425-0.151-0.754-0.24-1.126
			c-0.375-1.57,0.04-1.997,1.649-2.12c0.67-0.051,1.154,0.281,1.74,0.337l-0.009-0.007c-0.021,0.188,0.057,0.277,0.25,0.25
			l-0.006-0.008C18.969,203.918,18.965,204.573,18.961,205.229z"/>
		<path fill-rule="evenodd" clip-rule="evenodd" fill="#744329" d="M13.666,201.578c0.417-0.216,0.667-0.708,1.203-0.73
			c-0.113,0.578-0.09,0.992,0.647,0.534c0.27-0.167,0.535-0.342,0.802-0.514c0.162-0.01,0.325-0.02,0.487-0.03
			c0.153-0.001,0.306-0.002,0.459-0.003c0.315,0.124,0.499,0.582,0.925,0.411c0.988-0.396,1.163,0.257,1.299,0.977
			c-1.786,0.038-3.571,0.075-5.356,0.113l0.02,0.02C13.99,202.096,13.828,201.836,13.666,201.578z"/>
		<path fill-rule="evenodd" clip-rule="evenodd" fill="#3F3129" d="M14.132,202.335c1.785-0.038,3.57-0.075,5.355-0.112
			c0.578,0.173,0.696-0.149,0.684-0.626c-0.013-0.476-0.015-0.952-0.021-1.428l0.035-0.035c0.859,0.621,0.427,1.503,0.365,2.255
			c-0.021,0.269-0.577,0.573-1.056,0.224c-0.043-0.032-1.002-0.613-0.757,0.417c-0.586-0.056-1.069-0.388-1.74-0.337
			c-1.609,0.123-2.024,0.55-1.649,2.12c0.089,0.372,0.4,0.701,0.24,1.126c-0.695-0.387-0.713-1.051-0.72-1.728
			C14.862,203.495,15.147,202.657,14.132,202.335z"/>
		<path fill-rule="evenodd" clip-rule="evenodd" fill="#BC6337" d="M17.264,200.834c-0.153,0.001-0.306,0.003-0.459,0.004
			c-0.175-0.21-0.337-0.198-0.487,0.029c-0.267,0.171-0.532,0.346-0.802,0.514c-0.737,0.458-0.761,0.044-0.647-0.534
			c0,0-0.004,0.022-0.004,0.021c0.177,0.014,0.259-0.067,0.245-0.245l-0.004,0.005c0.176,0.014,0.262-0.064,0.244-0.244
			l-0.004,0.004c0.169,0.024,0.259-0.071,0.316-0.213c0.103-0.081,0.207-0.163,0.31-0.244c0.994-0.118,1.935-0.869,2.992-0.253
			C18.576,200.328,17.499,199.962,17.264,200.834z"/>
		<path fill-rule="evenodd" clip-rule="evenodd" fill="#3F3129" d="M18.963,199.679c-1.057-0.616-1.998,0.135-2.992,0.253
			c1.054-0.929,2.5-1.036,3.733-0.275l-0.031,0.032C19.437,199.685,19.2,199.682,18.963,199.679z"/>
		<path fill-rule="evenodd" clip-rule="evenodd" fill="#3F3129" d="M18.961,205.229c0.003-0.655,0.007-1.31,0.011-1.965
			C19.681,203.922,19.691,204.578,18.961,205.229z"/>
		<path fill-rule="evenodd" clip-rule="evenodd" fill="#3F3129" d="M13.666,201.578c0.162,0.259,0.324,0.518,0.485,0.777
			C13.76,202.239,13.204,202.227,13.666,201.578z"/>
		<path fill-rule="evenodd" clip-rule="evenodd" fill="#3F3129" d="M19.705,199.657c0.08,0.08,0.16,0.16,0.24,0.24l-0.031,0.029
			c-0.153-0.005-0.233-0.085-0.24-0.237L19.705,199.657z"/>
		<path fill-rule="evenodd" clip-rule="evenodd" fill="#3F3129" d="M19.945,199.896c0.08,0.079,0.16,0.158,0.24,0.237l-0.035,0.035
			c-0.162,0-0.235-0.086-0.236-0.243L19.945,199.896z"/>
		<path fill-rule="evenodd" clip-rule="evenodd" fill="#744329" d="M15.661,200.176c-0.057,0.143-0.146,0.237-0.316,0.213
			C15.375,200.206,15.486,200.143,15.661,200.176z"/>
		<path fill-rule="evenodd" clip-rule="evenodd" fill="#744329" d="M15.349,200.385c0.018,0.18-0.068,0.258-0.244,0.244
			C15.117,200.479,15.199,200.397,15.349,200.385z"/>
		<path fill-rule="evenodd" clip-rule="evenodd" fill="#744329" d="M15.109,200.625c0.014,0.178-0.068,0.259-0.245,0.245
			C14.874,200.715,14.955,200.634,15.109,200.625z"/>
		<path fill-rule="evenodd" clip-rule="evenodd" fill="#3F3129" d="M15.582,205.925c0.194-0.001,0.238,0.133,0.258,0.288
			C15.754,206.117,15.668,206.021,15.582,205.925z"/>
		<path fill-rule="evenodd" clip-rule="evenodd" fill="#3F3129" d="M18.979,203.271c-0.194,0.027-0.271-0.062-0.25-0.25
			C18.812,203.104,18.896,203.188,18.979,203.271z"/>
		<path fill-rule="evenodd" clip-rule="evenodd" fill="#9F592F" d="M19.914,199.926c0.001,0.156,0.074,0.243,0.236,0.243
			c0.006,0.476,0.009,0.953,0.021,1.428c0.012,0.477-0.106,0.8-0.684,0.626c-0.136-0.72-0.311-1.374-1.298-0.978
			c-0.426,0.171-0.609-0.287-0.925-0.411c0.234-0.873,1.312-0.507,1.699-1.156c0.237,0.003,0.474,0.006,0.711,0.01
			C19.681,199.841,19.761,199.92,19.914,199.926z"/>
		<path fill-rule="evenodd" clip-rule="evenodd" fill="#9F592F" d="M16.318,200.868c0.149-0.228,0.312-0.24,0.487-0.029
			C16.643,200.848,16.48,200.858,16.318,200.868z"/>
	</g>
	<g id="mushroom7">
		<path fill-rule="evenodd" clip-rule="evenodd" fill="#653A26" d="M249.858,217.401c0.156,0.16,0.313,0.32,0.47,0.48
			c0.089,0.09,0.178,0.18,0.267,0.27l-0.024-0.025c0.088,0.088,0.177,0.176,0.265,0.263l-0.016-0.021
			c-0.057,0.33,0.05,0.625,0.167,0.926c0.317,0.816,0.39,1.321-0.853,1.206c-2.029-0.189-4.097-0.509-6.085,0.321
			c0,0,0.01,0.01,0.01,0.009c0.001-0.159,0.002-0.318,0.004-0.477c1.964-0.439,3.483-1.888,5.419-2.393
			C249.75,217.891,249.794,217.629,249.858,217.401z"/>
		<path fill-rule="evenodd" clip-rule="evenodd" fill="#977C4E" d="M244.035,224.889c-0.212-0.079-0.363-0.217-0.439-0.434
			c0.07-0.42-0.109-0.874,0.173-1.265c1.008-0.048,2.752-1.464,2.95-2.395c0.686-0.441,1.009,0.219,1.463,0.481l-0.012-0.014
			c0,0.811,0.001,1.623,0.002,2.434l0.008-0.005c-0.52,0.034-0.809,0.692-1.404,0.519c-0.035-0.031-0.069-0.062-0.104-0.093
			c0.037-0.497-0.304-0.819-0.625-1.069c-0.179-0.14-0.456,0.147-0.495,0.386C245.411,224.315,244.643,224.512,244.035,224.889z
			 M244.452,223.799c-0.03,0.028-0.082,0.057-0.078,0.077c0.01,0.066,0.041,0.129,0.063,0.193c0.027-0.024,0.081-0.052,0.078-0.071
			C244.504,223.93,244.475,223.866,244.452,223.799z"/>
		<path fill-rule="evenodd" clip-rule="evenodd" fill="#9F592F" d="M249.858,217.401c-0.063,0.229-0.108,0.49-0.375,0.56
			c-1.937,0.505-3.455,1.954-5.419,2.393c-0.076-0.077-0.153-0.154-0.229-0.231c-0.067-0.268-0.172-0.533-0.193-0.805
			c-0.03-0.392,0.336-0.505,0.587-0.679c0.168-0.116,0.26-0.033,0.329,0.164c0.421,1.205,1.483,0.221,1.524,0.114
			c0.473-1.242,1.49-1.5,2.911-1.568c-1.472-0.841-2.552-0.044-3.668,0.114c-0.017-0.093-0.033-0.187-0.05-0.28
			c1.314-0.99,2.683-1.021,4.099-0.235c-0.223,0.551,0.196,0.449,0.486,0.478L249.858,217.401z"/>
		<path fill-rule="evenodd" clip-rule="evenodd" fill="#423726" d="M248.183,221.277c-0.455-0.262-0.777-0.923-1.463-0.481
			c-1.548-0.128-2.094,0.315-2.95,2.395c-0.282,0.391-0.103,0.845-0.173,1.265c-0.515-0.755-0.223-1.463,0.084-2.199
			c0.189-0.453,0.781-0.824,0.369-1.436c1.988-0.83,4.056-0.51,6.085-0.321c1.242,0.116,1.169-0.39,0.853-1.206
			c-0.117-0.302-0.224-0.597-0.167-0.926c0.916,0.465,0.724,1.314,0.69,2.083c-0.027,0.613-0.52,0.554-0.966,0.601
			C249.757,221.135,248.925,220.759,248.183,221.277z"/>
		<path fill-rule="evenodd" clip-rule="evenodd" fill="#423726" d="M244.035,224.889c0.607-0.377,1.376-0.574,1.518-1.455
			c0.039-0.238,0.316-0.526,0.495-0.386c0.32,0.25,0.661,0.573,0.625,1.07c-0.132,0.117-0.395,0.29-0.221,0.413
			c0.217,0.153,0.255-0.162,0.325-0.321c0.596,0.173,0.885-0.485,1.404-0.519C247.546,225.506,245.854,225.995,244.035,224.889z"/>
		<path fill-rule="evenodd" clip-rule="evenodd" fill="#4C332B" d="M245.274,217.183c0.017,0.094,0.033,0.187,0.049,0.28
			c-0.241,0.298-0.64,0.288-0.929,0.465c-0.698,0.429-1.588,0.775-1.243,1.902c-0.096,0.006-0.191,0.013-0.287,0.021
			c-0.272,0-0.544,0-0.906,0C242.798,218.522,243.666,217.396,245.274,217.183z"/>
		<path fill-rule="evenodd" clip-rule="evenodd" fill="#423726" d="M248.173,223.697c0-0.812-0.001-1.623-0.002-2.434
			C248.858,222.074,248.842,222.885,248.173,223.697z"/>
		<path fill-rule="evenodd" clip-rule="evenodd" fill="#423726" d="M242.865,219.851c0.096-0.007,0.191-0.014,0.287-0.021
			c0.228,0.097,0.455,0.194,0.683,0.292c0.076,0.077,0.153,0.154,0.229,0.231c-0.001,0.159-0.002,0.318-0.004,0.477
			C243.708,220.447,243.125,220.346,242.865,219.851z"/>
		<path fill-rule="evenodd" clip-rule="evenodd" fill="#653A26" d="M249.859,217.426c-0.29-0.029-0.709,0.073-0.486-0.478
			C249.589,217.053,249.781,217.182,249.859,217.426z"/>
		<path fill-rule="evenodd" clip-rule="evenodd" fill="#423726" d="M250.835,218.389c-0.088-0.087-0.177-0.175-0.265-0.263
			C250.659,218.213,250.747,218.301,250.835,218.389z"/>
		<path fill-rule="evenodd" clip-rule="evenodd" fill="#423726" d="M250.594,218.15c-0.089-0.09-0.178-0.18-0.267-0.27
			C250.417,217.971,250.505,218.061,250.594,218.15z"/>
		<path fill-rule="evenodd" clip-rule="evenodd" fill="#E4B05E" d="M243.769,223.19c0.856-2.079,1.402-2.522,2.95-2.395
			C246.521,221.727,244.777,223.142,243.769,223.19z"/>
		<path fill-rule="evenodd" clip-rule="evenodd" fill="#423726" d="M244.452,223.799c0.023,0.067,0.053,0.131,0.063,0.199
			c0.003,0.02-0.05,0.047-0.078,0.071c-0.022-0.064-0.053-0.127-0.063-0.193C244.37,223.855,244.422,223.827,244.452,223.799z"/>
		<path fill-rule="evenodd" clip-rule="evenodd" fill="#D57536" d="M243.834,220.122c-0.228-0.098-0.455-0.195-0.683-0.292
			c-0.346-1.126,0.545-1.473,1.243-1.902c0.289-0.177,0.688-0.167,0.929-0.465c1.117-0.159,2.196-0.955,3.668-0.114
			c-1.421,0.068-2.438,0.326-2.911,1.568c-0.041,0.106-1.103,1.09-1.524-0.114c-0.069-0.197-0.161-0.28-0.329-0.164
			c-0.251,0.174-0.617,0.287-0.587,0.679C243.662,219.589,243.767,219.854,243.834,220.122z"/>
		<path fill-rule="evenodd" clip-rule="evenodd" fill="#977C4E" d="M246.776,224.211c-0.069,0.159-0.108,0.474-0.325,0.321
			c-0.174-0.123,0.089-0.296,0.221-0.413C246.707,224.149,246.742,224.18,246.776,224.211z"/>
	</g>
	<g id="mushroom5">
		<path fill-rule="evenodd" clip-rule="evenodd" fill="#3F3129" d="M189.194,262.348c0.266-0.207,0.188-0.437-0.03-0.576
			c-0.357-0.228-0.726-0.408-1.188-0.432c-0.607-0.031-1.511,0.344-1.754-0.232c-0.241-0.572,0.623-1.076,1.023-1.519
			c1.062-1.177,1.989-2.521,3.446-3.301c1.708-0.914,2.636-0.613,3.188,1.184c0.125,0.407,0.392,0.655,0.556,0.996
			c-0.626,0.096-0.896-0.181-1.019-0.799c-0.127-0.642-0.358-1.293-1.208-1.322c-0.508-0.103-0.891,0.146-1.322,0.379
			c-1.447,0.781-2.167,2.292-3.396,3.288c-0.405,0.328-0.134,0.548,0.233,0.632c0.268,0.062,0.551,0.06,0.827,0.086
			c0.11,0.05,0.221,0.1,0.332,0.15l0.118,0.021l0.12-0.002c0.78,0.602,1.717,0.637,2.638,0.731c1.49,0.859,4.305,0.549,5.523-0.598
			c0.346-0.325,0.59-0.647,0.236-1.11c-0.833-0.703-1.844-0.712-2.853-0.729c-0.082-0.246-0.164-0.493-0.246-0.739
			c0.972,0.385,2.084,0.081,3.028,0.712c1.004,0.671,1.111,1.751,0.088,2.42c-0.952,0.623-1.967,1.074-3.171,1
			c-0.458-0.028-1.022-0.289-1.417,0.231c-0.644-0.116-1.164-0.676-1.882-0.523C190.43,261.87,189.812,262.1,189.194,262.348z"/>
		<path fill-rule="evenodd" clip-rule="evenodd" fill="#937B4E" d="M191.066,262.296c0.718-0.153,1.238,0.407,1.882,0.523
			c0.043,0.044,0.048,0.092,0.015,0.144c0.022,0.157,0.047,0.31,0.256,0.312l-0.005-0.011c-0.126,0.357,0.049,0.68,0.098,1.021
			c0.125,0.869,0.339,1.753-0.107,2.603c-0.472-0.151-0.851,0.146-1.285,0.415c0.042-0.384,0.035-0.63,0.102-0.853
			c0.118-0.391,0.303-0.848-0.131-1.075c-0.56-0.292-0.559,0.393-0.816,0.628c-0.2,0.183-0.346,0.425-0.516,0.641
			c-0.074-0.582,0.225-1.352-0.748-1.479c-0.253-0.718,0.165-1.241,0.651-1.576C190.972,263.236,191.019,262.797,191.066,262.296z"
			/>
		<path fill-rule="evenodd" clip-rule="evenodd" fill="#E4B05E" d="M191.066,262.296c-0.047,0.5-0.094,0.94-0.605,1.291
			c-0.487,0.334-0.905,0.858-0.651,1.576c-0.332,0.692-0.006,1.93-1.426,1.72l0.012,0.012c-0.074-0.404-0.147-0.809-0.221-1.214
			c-0.062-0.922,0.634-1.714,0.453-2.657l-0.004,0.005c0.292,0.127,0.301-0.031,0.251-0.249l-0.013,0.018
			c0.279,0.019,0.267-0.177,0.267-0.363l0.003-0.07c0,0,0.064-0.019,0.064-0.018C189.812,262.1,190.43,261.87,191.066,262.296z"/>
		<path fill-rule="evenodd" clip-rule="evenodd" fill="#554B30" d="M190.558,266.643c0.17-0.216,0.316-0.458,0.516-0.641
			c0.257-0.235,0.257-0.92,0.816-0.628c0.434,0.227,0.249,0.684,0.131,1.075c-0.067,0.223-0.06,0.469-0.102,0.853
			c0.435-0.268,0.813-0.565,1.285-0.415c0.008,0.271-0.05,0.567,0.264,0.729c-1.104,0.594-2.098-0.188-3.148-0.256l-0.003-0.004
			c0.083-0.239,0.165-0.479,0.247-0.718L190.558,266.643z"/>
		<path fill-rule="evenodd" clip-rule="evenodd" fill="#554B30" d="M188.383,266.884c1.42,0.21,1.094-1.028,1.426-1.72
			c0.973,0.127,0.674,0.897,0.748,1.479l0.005-0.006c-0.374,0.101-0.461,0.394-0.487,0.728c-0.046,0.052-0.077,0.112-0.095,0.179
			c-0.341-0.265-0.743-0.195-1.124-0.179C188.493,267.379,188.375,267.208,188.383,266.884z"/>
		<path fill-rule="evenodd" clip-rule="evenodd" fill="#3F3129" d="M193.468,267.615c-0.314-0.161-0.255-0.457-0.264-0.729
			c0.446-0.85,0.232-1.733,0.107-2.603c-0.049-0.341-0.224-0.664-0.098-1.021C194.055,264.569,194.183,266.75,193.468,267.615z"/>
		<path fill-rule="evenodd" clip-rule="evenodd" fill="#423726" d="M188.627,263.025c0.182,0.942-0.515,1.735-0.453,2.657
			c-0.073-0.001-0.146-0.002-0.219-0.002C187.907,264.726,187.752,263.746,188.627,263.025z"/>
		<path fill-rule="evenodd" clip-rule="evenodd" fill="#554B30" d="M187.955,265.68c0.073,0,0.146,0.001,0.219,0.002
			c0.074,0.405,0.147,0.81,0.221,1.214C187.799,266.653,187.878,266.166,187.955,265.68z"/>
		<path fill-rule="evenodd" clip-rule="evenodd" fill="#554B30" d="M190.319,267.359c-0.027,0.219-0.155,0.254-0.339,0.184
			c0.018-0.067,0.049-0.127,0.095-0.179c0.08-0.003,0.16-0.006,0.24-0.009L190.319,267.359z"/>
		<path fill-rule="evenodd" clip-rule="evenodd" fill="#3F3129" d="M193.219,263.274c-0.209-0.002-0.234-0.155-0.256-0.312
			C193.048,263.067,193.133,263.17,193.219,263.274z"/>
		<path fill-rule="evenodd" clip-rule="evenodd" fill="#423726" d="M188.874,262.782c0.049,0.217,0.04,0.375-0.251,0.249
			C188.707,262.948,188.791,262.865,188.874,262.782z"/>
		<path fill-rule="evenodd" clip-rule="evenodd" fill="#423726" d="M189.127,262.436c0,0.187,0.012,0.382-0.267,0.363
			C188.95,262.678,189.039,262.557,189.127,262.436z"/>
		<path fill-rule="evenodd" clip-rule="evenodd" fill="#82492D" d="M197.517,259.924c0.354,0.462,0.109,0.785-0.236,1.11
			c-1.219,1.146-4.033,1.457-5.523,0.598c0.399-1.023,0.163-1.664-1.032-1.763c-0.306-0.025-0.605-0.122-0.908-0.185
			c0.003-0.41,0.352-0.625,0.53-0.937c0.192-0.025,0.369-0.074,0.422-0.297c0.009-0.066,0.023-0.131,0.043-0.195
			c0.521,0.027,0.763-0.212,0.701-0.738c0.436-0.269,0.772-0.596,0.693-1.17c0.851,0.029,1.082,0.68,1.209,1.322
			c0.123,0.618,0.393,0.896,1.019,0.799l-0.016-0.012c0.082,0.247,0.164,0.493,0.245,0.739c-0.953,0.289-0.24,0.682,0.021,0.81
			C195.621,260.468,196.596,260.695,197.517,259.924z"/>
		<path fill-rule="evenodd" clip-rule="evenodd" fill="#E57F42" d="M190.813,258.255c-0.02,0.064-0.034,0.129-0.042,0.195
			c-0.191,0.028-0.367,0.077-0.422,0.297c-0.179,0.312-0.527,0.526-0.53,0.937c-0.233,0.406-0.466,0.811-0.699,1.217l-0.12,0.002
			l-0.118-0.021c-0.11-0.05-0.221-0.1-0.332-0.15c-0.276-0.026-0.559-0.025-0.827-0.086c-0.368-0.084-0.638-0.305-0.233-0.632
			c1.229-0.996,1.949-2.507,3.396-3.288c0.431-0.232,0.814-0.482,1.322-0.379c0.079,0.574-0.257,0.901-0.693,1.17
			C191.195,257.682,190.946,257.913,190.813,258.255z"/>
		<path fill-rule="evenodd" clip-rule="evenodd" fill="#B65E36" d="M189.119,260.901c0.233-0.406,0.466-0.811,0.699-1.217
			c0.302,0.063,0.602,0.16,0.908,0.185c1.194,0.099,1.431,0.739,1.032,1.763C190.836,261.538,189.899,261.503,189.119,260.901z"/>
		<path fill-rule="evenodd" clip-rule="evenodd" fill="#653A26" d="M197.517,259.924c-0.921,0.771-1.896,0.543-2.833,0.081
			c-0.261-0.128-0.973-0.521-0.021-0.81C195.673,259.212,196.684,259.221,197.517,259.924z"/>
		<path fill-rule="evenodd" clip-rule="evenodd" fill="#B65E36" d="M188.549,260.732c0.11,0.05,0.221,0.1,0.332,0.15
			C188.771,260.833,188.66,260.782,188.549,260.732z"/>
		<path fill-rule="evenodd" clip-rule="evenodd" fill="#937B4E" d="M190.316,267.355c-0.08,0.003-0.16,0.006-0.24,0.009
			c0.026-0.334,0.114-0.626,0.487-0.728C190.48,266.876,190.398,267.116,190.316,267.355z"/>
		<path fill-rule="evenodd" clip-rule="evenodd" fill="#B65E36" d="M190.813,258.255c0.133-0.342,0.382-0.573,0.701-0.738
			C191.576,258.043,191.334,258.282,190.813,258.255z"/>
		<path fill-rule="evenodd" clip-rule="evenodd" fill="#B65E36" d="M190.348,258.748c0.056-0.22,0.231-0.269,0.422-0.297
			C190.717,258.673,190.541,258.722,190.348,258.748z"/>
	</g>
	<g id="mushroom4">
		<path fill-rule="evenodd" clip-rule="evenodd" fill="#937B4E" d="M21.036,260.646c-0.052-0.053-0.104-0.106-0.156-0.16
			c-0.035-0.149-0.068-0.299-0.259-0.324l0.009,0.017c-0.03-0.231-0.04-0.468-0.094-0.694c-0.492-2.061-0.109-2.529,2.02-2.456
			c-0.495,1.074,0.562,1.898,0.466,2.908C22.13,259.527,21.86,260.865,21.036,260.646z"/>
		<path fill-rule="evenodd" clip-rule="evenodd" fill="#3F3129" d="M22.557,257.03c-2.129-0.074-2.512,0.395-2.02,2.456
			c0.054,0.226,0.063,0.462,0.094,0.694c-0.679-0.501-0.876-1.146-0.581-1.939c0.335-0.899,0.111-1.32-0.932-1.219
			c-0.847,0.082-1.386-0.436-1.715-1.17c-0.33-0.737,0.026-1.262,0.574-1.715l0.038,0.038c0.177,0.545-0.608,1.035,0.093,1.698
			c1.128,1.067,2.28,0.752,3.5,0.438c0.235-0.002,0.47-0.004,0.704-0.005c0.601,0.233,1.197,0.423,1.705-0.188l0.018-0.016
			c0.247-0.003,0.503,0.022,0.683-0.204c0.149-0.015,0.297-0.03,0.446-0.046c-0.287,0.521-0.617,0.979-1.304,0.956
			c-0.343-0.012-0.363,0.202-0.312,0.461C23.121,257.593,22.959,256.809,22.557,257.03z"/>
		<path fill-rule="evenodd" clip-rule="evenodd" fill="#F39D41" d="M25.164,255.851c-0.148,0.016-0.297,0.031-0.446,0.046
			c-0.246,0.007-0.539-0.145-0.683,0.204l-0.018,0.016c-0.566,0.083-1.182-0.286-1.705,0.188c-0.234,0.001-0.469,0.003-0.704,0.005
			c-0.111-0.155-0.223-0.31-0.334-0.464c0.603-0.337,1.32-0.616,1.886-0.827c1.136-0.422,2.054-0.927,2.787-1.849
			c0.994,0.649-0.089,1.307,0.008,1.96C25.859,255.554,25.347,255.522,25.164,255.851z"/>
		<path fill-rule="evenodd" clip-rule="evenodd" fill="#D8A959" d="M22.557,257.03c0.403-0.221,0.564,0.563,0.991,0.238
			c0,0-0.018-0.005-0.018-0.005c-0.114,0.28-0.01,0.341,0.248,0.248l-0.002-0.004c-0.242,0.324-0.066,0.442,0.244,0.493
			l-0.012-0.017c0.074,0.991,0.147,1.981,0.221,2.972c-0.173,0.242-0.281,0.646-0.696,0.273c0.16-0.56-0.731-0.705-0.509-1.29
			C23.119,258.928,22.062,258.104,22.557,257.03z"/>
		<path fill-rule="evenodd" clip-rule="evenodd" fill="#3F3129" d="M25.956,255.13c-0.098-0.653,0.985-1.311-0.008-1.96
			c-1.02-0.685-2.304-0.375-3.367-0.897c-0.385-0.292-0.775-0.369-1.146,0.011c-0.353,0.361-0.773,0.5-1.267,0.444l-0.031-0.031
			c0.296-0.237,0.58-0.492,0.892-0.708c0.554-0.383,1.021-0.658,1.785-0.172c0.715,0.455,1.632,0.708,2.543,0.652
			c0.638-0.039,1.163,0.175,1.237,0.808C26.673,253.947,26.942,254.786,25.956,255.13z"/>
		<path fill-rule="evenodd" clip-rule="evenodd" fill="#554B30" d="M23.023,259.938c-0.222,0.584,0.669,0.729,0.509,1.29
			c-0.528-0.21-1.076-0.091-1.616-0.096c-0.388-0.003-0.799,0.064-0.88-0.484C21.86,260.865,22.13,259.527,23.023,259.938z"/>
		<path fill-rule="evenodd" clip-rule="evenodd" fill="#3F3129" d="M24.228,260.954c-0.074-0.991-0.147-1.981-0.221-2.972
			C24.874,258.914,24.525,259.936,24.228,260.954z"/>
		<path fill-rule="evenodd" clip-rule="evenodd" fill="#3F3129" d="M18.936,253.177c0.239-0.564,0.754-0.438,1.202-0.48l0.031,0.031
			c0.001,0.081,0.002,0.161,0.003,0.241c-0.401,0.081-0.801,0.163-1.202,0.244L18.936,253.177z"/>
		<path fill-rule="evenodd" clip-rule="evenodd" fill="#3F3129" d="M17.977,254.136c0.159-0.161,0.318-0.322,0.478-0.482
			l0.039,0.037c-0.009,0.311-0.166,0.474-0.479,0.483L17.977,254.136z"/>
		<path fill-rule="evenodd" clip-rule="evenodd" fill="#3F3129" d="M24.02,257.999c-0.31-0.051-0.486-0.168-0.244-0.493
			C24.072,257.564,23.989,257.81,24.02,257.999z"/>
		<path fill-rule="evenodd" clip-rule="evenodd" fill="#3F3129" d="M18.694,253.416c0.08-0.08,0.161-0.159,0.241-0.239l0.034,0.036
			c-0.08,0.079-0.16,0.158-0.24,0.237L18.694,253.416z"/>
		<path fill-rule="evenodd" clip-rule="evenodd" fill="#3F3129" d="M18.455,253.654c0.08-0.079,0.16-0.158,0.24-0.238l0.035,0.034
			c-0.079,0.08-0.158,0.161-0.236,0.241L18.455,253.654z"/>
		<path fill-rule="evenodd" clip-rule="evenodd" fill="#3F3129" d="M23.778,257.51c-0.258,0.093-0.362,0.033-0.248-0.248
			C23.613,257.345,23.695,257.428,23.778,257.51z"/>
		<path fill-rule="evenodd" clip-rule="evenodd" fill="#3F3129" d="M20.621,260.163c0.19,0.025,0.224,0.175,0.259,0.324
			C20.794,260.379,20.708,260.271,20.621,260.163z"/>
		<path fill-rule="evenodd" clip-rule="evenodd" fill="#653A26" d="M18.493,253.69c0.079-0.08,0.158-0.161,0.236-0.241
			c0.08-0.079,0.16-0.158,0.24-0.237c0.4-0.082,0.801-0.163,1.202-0.245c0.609,0.412,1.155,0.869,1.198,1.684
			c-0.264,0.331-0.634,0.204-0.969,0.226c-0.109-0.208-0.222-0.432-0.507-0.372c-0.075,0.016-0.177,0.166-0.174,0.25
			c0.016,0.439,0.301,0.589,0.701,0.589c0.285,0.167,0.57,0.333,0.855,0.5c0.111,0.155,0.223,0.31,0.334,0.464
			c-1.221,0.314-2.372,0.629-3.5-0.438c-0.702-0.664,0.083-1.153-0.093-1.698C18.328,254.165,18.484,254.001,18.493,253.69z"/>
		<path fill-rule="evenodd" clip-rule="evenodd" fill="#653A26" d="M22.312,256.305c0.523-0.474,1.139-0.105,1.705-0.188
			C23.509,256.728,22.914,256.538,22.312,256.305z"/>
		<path fill-rule="evenodd" clip-rule="evenodd" fill="#653A26" d="M24.035,256.101c0.144-0.349,0.438-0.197,0.683-0.204
			C24.538,256.123,24.282,256.097,24.035,256.101z"/>
		<path fill-rule="evenodd" clip-rule="evenodd" fill="#BC6337" d="M21.274,255.846c-0.285-0.167-0.57-0.333-0.855-0.5
			c-0.007-0.156-0.013-0.312-0.02-0.468c0.335-0.022,0.706,0.104,0.969-0.227c1.115-0.143,2.036-0.703,2.991-1.337
			c-0.705-0.266-1.451-0.305-1.779-1.042c1.062,0.522,2.347,0.212,3.367,0.897c-0.733,0.922-1.651,1.426-2.787,1.849
			C22.594,255.229,21.877,255.509,21.274,255.846z"/>
		<path fill-rule="evenodd" clip-rule="evenodd" fill="#82492D" d="M22.581,252.273c0.328,0.736,1.074,0.775,1.779,1.042
			c-0.956,0.634-1.876,1.194-2.991,1.337c-0.043-0.814-0.589-1.271-1.198-1.683c-0.001-0.08-0.002-0.16-0.003-0.241
			c0.494,0.056,0.914-0.083,1.267-0.444C21.806,251.904,22.196,251.981,22.581,252.273z"/>
		<path fill-rule="evenodd" clip-rule="evenodd" fill="#82492D" d="M20.399,254.878c0.006,0.156,0.013,0.312,0.02,0.468
			c-0.399,0-0.685-0.15-0.7-0.589c-0.003-0.085,0.099-0.235,0.174-0.25C20.178,254.446,20.29,254.67,20.399,254.878z"/>
	</g>
	<g id="mushroom3">
		<path fill-rule="evenodd" clip-rule="evenodd" fill="#3F3129" d="M11.73,249.333c-0.026-0.271,0.476-0.66-0.323-0.735
			c-0.791-0.075-1.537-0.47-2.382-0.473c-0.399-0.001-1.238-0.143-0.733-0.885c0.891-1.311,1.537-2.799,2.724-3.903
			c0,0,0.078,0.07,0.077,0.069c-0.023,0.3-0.046,0.602-0.068,0.903l0.005-0.007c-0.082-0.001-0.164-0.003-0.245-0.005
			c-0.595,0.893-1.204,1.777-1.777,2.685c-0.16,0.252-0.543,0.613,0.197,0.719c1.806,0.258,3.558,0.912,5.425,0.712
			c0.694-0.026,1.325,0.245,1.968,0.439c0.965,0.292,1.924,0.498,2.905,0.075c0.985-0.21,1.958-0.228,2.954,0.016
			c1.33,0.326,1.337,0.291,1.275-1.146c-0.005-0.117,0.016-0.235,0.025-0.354l0.013-0.013c0.575,0.56,0.721,1.307,0.315,1.905
			c-0.358,0.526-1.039,0.245-1.629,0.111c-1.006-0.228-1.996-0.489-3.068,0.027c-0.952,0.458-2.019,0.083-2.987-0.205
			c-0.437-0.13-0.579-0.186-0.54,0.313l-0.014,0.013c-0.433,0.067-0.481-0.64-0.962-0.477c-0.237-0.022-0.475-0.044-0.712-0.067
			c-0.874-0.439-1.636-0.005-2.414,0.306L11.73,249.333z"/>
		<path fill-rule="evenodd" clip-rule="evenodd" fill="#554B30" d="M15.848,253.693c-1.062,0.745-2.268,0.461-3.418,0.418
			c-0.636-0.023-0.967-0.579-1.152-1.169c-0.021-0.042-0.026-0.087-0.014-0.135c0.308-0.23,0.386-0.585,0.509-0.917
			c0.107-0.292,0.347-0.393,0.521-0.139c0.751,1.099,1.986,1.099,3.082,1.419c0.158,0.049,0.316,0.099,0.474,0.147
			C15.85,253.443,15.849,253.568,15.848,253.693z M12.366,252.827c-0.029,0.058-0.065,0.115-0.084,0.176
			c-0.005,0.016,0.045,0.049,0.07,0.074c0.03-0.058,0.066-0.114,0.084-0.176C12.441,252.885,12.391,252.853,12.366,252.827z"/>
		<path fill-rule="evenodd" clip-rule="evenodd" fill="#4C332B" d="M15.627,240.691c0.142,0.132,0.394,0.253,0.408,0.397
			c0.234,2.359,2.011,3.102,3.883,3.752c-0.071,0.064-0.142,0.128-0.213,0.193c-0.496-0.021-0.991-0.041-1.486-0.061
			c-1.083-0.525-1.828-1.354-2.2-2.498c-0.182-0.559-0.316-1.132-0.473-1.699L15.627,240.691z"/>
		<path fill-rule="evenodd" clip-rule="evenodd" fill="#3F3129" d="M19.705,245.034c0.071-0.064,0.142-0.129,0.213-0.193
			c1.586-0.038,2.6,0.846,3.38,2.103l-0.024,0.024C22.065,246.358,21.07,245.354,19.705,245.034z"/>
		<path fill-rule="evenodd" clip-rule="evenodd" fill="#4C332B" d="M11.733,242.39c0.194-1.21,0.699-2.168,1.981-2.546
			c0.505-0.149,0.911-0.136,1.192,0.368c0,0-0.071,0.091-0.07,0.09c-1.723-0.344-2.238,0.974-2.891,2.104
			C11.874,242.402,11.803,242.397,11.733,242.39z"/>
		<path fill-rule="evenodd" clip-rule="evenodd" fill="#3F3129" d="M15.848,253.693c0-0.125,0.001-0.25,0.002-0.375
			c0.083-0.195,0.167-0.391,0.25-0.586c0.576-1.099-0.296-2.08-0.255-3.136l0.014-0.013
			C16.842,250.716,16.836,252.66,15.848,253.693z"/>
		<path fill-rule="evenodd" clip-rule="evenodd" fill="#3F3129" d="M11.264,252.809c-0.012,0.046-0.007,0.091,0.014,0.134
			c-0.957-1.113-0.305-2.117,0.214-3.128l0.024,0.024C11.51,250.835,11.064,251.794,11.264,252.809z"/>
		<path fill-rule="evenodd" clip-rule="evenodd" fill="#3F3129" d="M11.016,243.337c0.01-0.342,0.182-0.575,0.486-0.716l0.027,0.028
			c0.061,0.371-0.05,0.643-0.436,0.758L11.016,243.337z"/>
		<path fill-rule="evenodd" clip-rule="evenodd" fill="#4C332B" d="M14.906,240.211c0.353-0.009,0.578,0.174,0.721,0.479
			c0,0-0.081,0.085-0.08,0.084c-0.309-0.05-0.553-0.196-0.712-0.472L14.906,240.211z"/>
		<path fill-rule="evenodd" clip-rule="evenodd" fill="#3F3129" d="M11.493,249.814c0.028-0.186-0.017-0.407,0.238-0.481
			l0.027,0.024c0.091,0.246,0.045,0.423-0.24,0.48L11.493,249.814z"/>
		<path fill-rule="evenodd" clip-rule="evenodd" fill="#3F3129" d="M11.733,242.39c0.07,0.007,0.141,0.012,0.212,0.015
			c-0.071,0.196-0.207,0.282-0.416,0.244l-0.027-0.028C11.579,242.544,11.656,242.467,11.733,242.39z"/>
		<path fill-rule="evenodd" clip-rule="evenodd" fill="#3F3129" d="M23.298,246.943c0.08,0.08,0.16,0.16,0.24,0.239l-0.046,0.046
			c-0.185,0.007-0.246-0.091-0.218-0.262L23.298,246.943z"/>
		<path fill-rule="evenodd" clip-rule="evenodd" fill="#3F3129" d="M23.538,247.183c0.077,0.083,0.153,0.166,0.23,0.249
			c0,0-0.012,0.013-0.012,0.013c-0.186,0.049-0.263-0.037-0.264-0.215L23.538,247.183z"/>
		<path fill-rule="evenodd" clip-rule="evenodd" fill="#993B2E" d="M14.629,248.413c-1.867,0.2-3.619-0.454-5.425-0.712
			c-0.74-0.106-0.356-0.466-0.197-0.719c0.573-0.907,1.182-1.792,1.777-2.685c0.079,0.154,0.159,0.214,0.245,0.005l-0.005,0.007
			c0.957-0.525,1.128-1.728,1.998-2.324c0.439-0.301,0.934-0.878,1.433-0.27c0.372,0.454,0.699,1.122-0.054,1.641
			c-0.506-0.304-0.982-0.281-1.269,0.266c-0.274,0.523,0.144,0.653,0.547,0.738c0.159,0.272,0.386,0.428,0.711,0.414
			c0.419,0.07,0.621-0.304,0.931-0.457c0.909,0.06,0.691,1.256,1.466,1.451c0.318,0.377,0.86,0.182,1.212,0.475
			c-0.001,0.079-0.002,0.157-0.002,0.236c-0.043,0.228-0.377,0.442-0.032,0.688c0.021,0.17,0.042,0.341,0.063,0.511l-0.002,0.077
			c-0.461-0.048-0.993-0.265-1.368-0.108C15.989,247.927,15.053,247.525,14.629,248.413z M12.486,247.7
			c0.682-0.029,1.491,0.115,1.416-0.871c-0.075-0.979-1.026-0.906-1.659-1.004c-0.656-0.101-1.382,0.26-1.308,1.03
			C11.019,247.739,11.892,247.615,12.486,247.7z"/>
		<path fill-rule="evenodd" clip-rule="evenodd" fill="#F1703A" d="M23.492,247.229c0.001,0.178,0.078,0.264,0.264,0.215
			c-0.009,0.118-0.031,0.236-0.025,0.354c0.062,1.437,0.055,1.471-1.275,1.146c-0.995-0.243-1.968-0.226-2.954-0.016
			c-0.716-0.051-1.394-0.229-2.032-0.597c0.163-0.238,0.565-0.212,0.556-0.577c0,0,0.002-0.077,0.002-0.077
			c0.441,0.119,0.876,0.281,1.348,0.205c0.315,0.005,0.634,0.041,0.945,0.008c0.358-0.039,0.523-0.318,0.623-0.638
			c0.043-0.139-0.011-0.229-0.143-0.268c-0.329-0.096-0.692-0.321-0.874,0.207c-0.091-0.067-0.182-0.134-0.273-0.201
			c0.069-0.137,0.116-0.293,0.212-0.408c0.176-0.21,0.759,0.038,0.633-0.483c-0.09-0.369-0.506-0.286-0.807-0.36
			c-0.519-0.128-1.126-0.097-1.433-0.681l-0.042-0.085c0.496,0.021,0.991,0.041,1.487,0.061c1.365,0.321,2.36,1.324,3.569,1.934
			C23.246,247.138,23.307,247.236,23.492,247.229z"/>
		<path fill-rule="evenodd" clip-rule="evenodd" fill="#B24033" d="M16.787,245.768c-0.774-0.195-0.557-1.392-1.465-1.451
			c0.124-0.733-0.284-0.956-0.92-0.96c0.753-0.519,0.426-1.187,0.054-1.641c-0.499-0.608-0.994-0.031-1.433,0.27
			c-0.87,0.597-1.041,1.799-1.998,2.324c0.022-0.301,0.045-0.603,0.068-0.903c0.386-0.114,0.498-0.386,0.437-0.757
			c0.209,0.038,0.345-0.048,0.416-0.244c0.652-1.13,1.167-2.447,2.89-2.104c0.158,0.277,0.403,0.423,0.711,0.473
			c0.155,0.568,0.29,1.142,0.472,1.7c0.372,1.144,1.117,1.973,2.2,2.498c0,0,0.042,0.084,0.042,0.084
			C17.713,245.179,17.112,245.187,16.787,245.768z"/>
		<path fill-rule="evenodd" clip-rule="evenodd" fill="#937B4E" d="M11.517,249.838c0.286-0.057,0.332-0.234,0.24-0.48
			c0.778-0.312,1.541-0.746,2.414-0.306c0,0.759-0.027,1.519,0.01,2.275c0.039,0.809,0.331,1.266,1.188,0.669
			c0.006,0.151,0.012,0.303,0.019,0.455c-0.004,0.239-0.008,0.479-0.012,0.719c-1.096-0.32-2.33-0.32-3.082-1.418
			c-0.174-0.254-0.414-0.153-0.521,0.139c-0.123,0.332-0.201,0.688-0.509,0.917C11.064,251.794,11.51,250.835,11.517,249.838z"/>
		<path fill-rule="evenodd" clip-rule="evenodd" fill="#CD5234" d="M18.026,247.754c0.009,0.364-0.393,0.338-0.556,0.577
			c0.638,0.368,1.315,0.545,2.032,0.597c-0.98,0.422-1.939,0.216-2.904-0.075c-0.644-0.194-1.274-0.465-1.968-0.439
			c0.424-0.888,1.36-0.486,2.029-0.767C17.033,247.489,17.564,247.706,18.026,247.754z"/>
		<path fill-rule="evenodd" clip-rule="evenodd" fill="#B39662" d="M15.37,251.997c-0.857,0.597-1.15,0.139-1.188-0.669
			c-0.037-0.756-0.009-1.516-0.01-2.275c0.237,0.022,0.475,0.044,0.712,0.066C14.969,250.091,15.555,250.979,15.37,251.997z"/>
		<path fill-rule="evenodd" clip-rule="evenodd" fill="#E4B05E" d="M15.37,251.997c0.186-1.018-0.401-1.906-0.486-2.878
			c0.48-0.163,0.529,0.544,0.962,0.477c-0.041,1.056,0.831,2.037,0.255,3.136c-0.238-0.093-0.475-0.187-0.712-0.28
			C15.382,252.3,15.375,252.148,15.37,251.997z"/>
		<path fill-rule="evenodd" clip-rule="evenodd" fill="#B24033" d="M11.029,244.303c-0.086,0.209-0.167,0.149-0.245-0.005
			C10.866,244.299,10.948,244.301,11.029,244.303z"/>
		<path fill-rule="evenodd" clip-rule="evenodd" fill="#B39662" d="M15.388,252.452c0.237,0.093,0.475,0.187,0.712,0.28
			c-0.083,0.195-0.167,0.391-0.25,0.586c-0.158-0.048-0.316-0.098-0.474-0.147C15.38,252.931,15.384,252.691,15.388,252.452z"/>
		<path fill-rule="evenodd" clip-rule="evenodd" fill="#937B4E" d="M12.366,252.828c0.025,0.025,0.076,0.058,0.071,0.073
			c-0.019,0.062-0.055,0.118-0.084,0.176c-0.025-0.025-0.075-0.058-0.07-0.074C12.3,252.941,12.336,252.885,12.366,252.828z"/>
		<path fill-rule="evenodd" clip-rule="evenodd" fill="#CD5234" d="M16.787,245.768c0.325-0.581,0.926-0.589,1.473-0.71
			c0.307,0.584,0.915,0.553,1.433,0.681c0.301,0.074,0.717-0.009,0.807,0.36c0.126,0.521-0.458,0.273-0.633,0.483
			c-0.097,0.115-0.144,0.271-0.212,0.408c-0.555,0.134-1.214-0.73-1.689,0.176c-0.346-0.246-0.011-0.46,0.032-0.688
			c0.17-0.077,0.174-0.156,0.002-0.236C17.647,245.95,17.105,246.145,16.787,245.768z"/>
		<path fill-rule="evenodd" clip-rule="evenodd" fill="#4C332B" d="M12.486,247.7c-0.594-0.085-1.467,0.039-1.551-0.845
			c-0.074-0.771,0.652-1.131,1.308-1.03c0.633,0.098,1.584,0.024,1.659,1.004C13.977,247.815,13.168,247.671,12.486,247.7z
			 M12.453,247.24c0.322-0.066,0.88,0.055,0.813-0.414c-0.064-0.447-0.636-0.541-1.064-0.538c-0.332,0.002-0.858,0.086-0.813,0.471
			C11.453,247.309,12.046,247.17,12.453,247.24z"/>
		<path fill-rule="evenodd" clip-rule="evenodd" fill="#4C332B" d="M14.401,243.356c0.637,0.004,1.044,0.227,0.92,0.96
			c-0.311,0.153-0.512,0.527-0.931,0.458c0.034-0.301,0.569-0.508,0.306-0.783c-0.197-0.205-0.659-0.276-0.968-0.219
			c-0.335,0.061-0.059,0.381-0.049,0.588c-0.403-0.085-0.821-0.214-0.547-0.738C13.419,243.076,13.896,243.053,14.401,243.356z"/>
		<path fill-rule="evenodd" clip-rule="evenodd" fill="#554B30" d="M17.965,247.166c0.475-0.906,1.134-0.042,1.689-0.176
			c0.091,0.067,0.182,0.134,0.272,0.202c0.024,0.396-0.325,0.494-0.551,0.69c-0.471,0.077-0.906-0.085-1.348-0.205
			C18.007,247.507,17.986,247.336,17.965,247.166z"/>
		<path fill-rule="evenodd" clip-rule="evenodd" fill="#88734C" d="M13.68,244.36c-0.01-0.208-0.286-0.527,0.049-0.588
			c0.31-0.057,0.771,0.015,0.968,0.219c0.264,0.275-0.271,0.482-0.306,0.783C14.065,244.788,13.839,244.632,13.68,244.36z"/>
		<path fill-rule="evenodd" clip-rule="evenodd" fill="#B24033" d="M17.999,246.242c0.172,0.08,0.168,0.159-0.002,0.236
			C17.997,246.399,17.998,246.321,17.999,246.242z"/>
		<path fill-rule="evenodd" clip-rule="evenodd" fill="#CD5234" d="M19.375,247.882c0.226-0.196,0.576-0.294,0.551-0.69
			c0.182-0.529,0.545-0.303,0.874-0.208c0.131,0.038,0.186,0.128,0.143,0.268c-0.1,0.319-0.265,0.599-0.623,0.638
			C20.009,247.923,19.691,247.887,19.375,247.882z"/>
		<path fill-rule="evenodd" clip-rule="evenodd" fill="#937B4E" d="M12.453,247.24c-0.407-0.07-1,0.069-1.064-0.48
			c-0.045-0.385,0.481-0.469,0.813-0.471c0.428-0.003,1,0.091,1.064,0.538C13.333,247.294,12.775,247.173,12.453,247.24z"/>
	</g>
</g>
</svg>
