<?xml version="1.0" encoding="utf-8"?>
<!-- Generator: Adobe Illustrator 16.0.4, SVG Export Plug-In . SVG Version: 6.00 Build 0)  -->
<!DOCTYPE svg PUBLIC "-//W3C//DTD SVG 1.1//EN" "http://www.w3.org/Graphics/SVG/1.1/DTD/svg11.dtd">
<svg version="1.1" id="Layer_1" xmlns="http://www.w3.org/2000/svg" xmlns:xlink="http://www.w3.org/1999/xlink" x="0px" y="0px"
	 width="267.623px" height="312.503px" viewBox="0 0 267.623 312.503" enable-background="new 0 0 267.623 312.503"
	 xml:space="preserve">
<g>
	<g id="birdBottom">
		<path fill-rule="evenodd" clip-rule="evenodd" fill="#505575" d="M89.508,222.73c-0.242-0.014-0.484-0.028-0.726-0.041
			c-0.173-0.143-0.479-0.061-0.576-0.335c-0.169-0.251-0.541-0.26-0.671-0.558c-0.082-0.291,0.041-0.534,0.173-0.777
			c0.087-0.143,0.196-0.267,0.328-0.371c0.411-0.291,0.814-0.14,1.076,0.166c0.447,0.522,0.328-0.316,0.574-0.203
			c0.455-0.213,0.808-0.578,1.24-0.827c0.898-0.466,1.781-0.968,2.789-1.176c0.55-0.056,1.099-0.085,1.642,0.047
			c0.381,0.13,0.779,0.333,0.922,0.684c0.397,0.979,1.265,0.942,2.062,1.046c0.45,0.059,0.499-0.813,1.093-0.538
			c0.611,0.086,1.195,0.254,1.737,0.555c0.699,0.436,0.709,1.102,0.603,1.806c0.098,0.425-0.259,0.834-0.048,1.265
			c-0.083,0.228-0.243,0.377-0.469,0.458c-0.665,0.623-1.277-0.344-1.931-0.059c-0.149,0.062-0.343,0.178-0.453,0.114
			c-1.244-0.734-2.316-0.287-3.355,0.451c-0.518,0.076-1.035,0.223-1.559,0.044c-0.273-0.075-0.554-0.14-0.655-0.456
			c0.375-0.589-0.471-0.302-0.46-0.632c-0.105-0.211,0.326-0.297,0.123-0.533c-0.037-0.135-0.042-0.27-0.015-0.406
			c0.031-0.123,0.094-0.234,0.124-0.353c-0.843-0.1-1.678-0.202-2.47,0.205c-0.218,0.135-0.458,0.229-0.671,0.375
			C89.797,222.76,89.662,222.837,89.508,222.73z"/>
		<path fill-rule="evenodd" clip-rule="evenodd" fill="#B44F3B" d="M95.597,224.179c0.98-0.974,2.022-1.402,3.259-0.408
			c0.084,0.068,0.302-0.03,0.458-0.05c0.583,0.15,1.349,0.13,1.035,1.114c-0.68,0.154-0.973,0.967-1.718,1.01
			c-0.073,0.075-0.148,0.147-0.225,0.218c-0.229,0.159-0.47,0.224-0.735,0.096c-0.134-0.443-0.647-0.195-0.873-0.475
			c-0.4-0.5-1.173-0.595-1.399-1.285C95.414,224.279,95.479,224.206,95.597,224.179z"/>
		<path fill-rule="evenodd" clip-rule="evenodd" fill="#C1ACA9" d="M95.736,226.292c-0.324-0.257-0.646,0.108-0.969,0.004
			c-0.437-0.259-0.965,0.072-1.397-0.215c-0.091-0.009-0.182-0.019-0.272-0.028c-0.296-0.774-1.179-0.777-1.684-1.276
			c-0.479-0.463-0.976-0.912-1.253-1.54c-0.036-0.258,0.078-0.441,0.288-0.576c0.244-0.065,0.441,0.042,0.635,0.167
			c0.799,0.537,1.597,1.078,2.481,1.473c0.199,0.086,0.421,0.103,0.615,0.203c0.217,0.278,1.233-0.058,0.649,0.852
			c-0.086,0.134,0.089,0.035,0.12,0.032c0.41-0.044,0.784-0.023,0.958,0.442C95.922,226.01,95.878,226.169,95.736,226.292z"/>
		<path fill-rule="evenodd" clip-rule="evenodd" fill="#353234" d="M91.474,224.69c0.189,0.025,0.479-0.02,0.551,0.085
			c0.336,0.488,0.637,0.877,1.048,0.041c0.416,0.526-0.112,0.86,0.024,1.235c-1.097,0.799-1.178,0.748-1.868-1.166
			C91.274,224.776,91.356,224.711,91.474,224.69z"/>
		<path fill-rule="evenodd" clip-rule="evenodd" fill="#34302E" d="M100.35,224.834c0.127-0.81-0.741-0.695-1.035-1.114
			c0.085-0.317,0.159-0.686,0.56-0.242c0.378,0.418,0.877,0.434,1.38,0.453c0,0.453,0,0.905,0,1.34
			C100.745,225.448,100.694,224.867,100.35,224.834z"/>
		<path fill-rule="evenodd" clip-rule="evenodd" fill="#93A6DD" d="M101.556,222.468c-0.054-0.657,0.242-1.413-0.531-1.865
			c-0.077-0.093-0.098-0.197-0.064-0.312c0.13-0.21,0.333-0.293,0.566-0.326c0.459-0.05,0.772,0.457,1.251,0.332
			c0.062,0.07,0.125,0.141,0.187,0.211c0.151,0.672-0.5,0.402-0.732,0.625c-0.078,0.078-0.136,0.168-0.176,0.271
			C101.913,221.77,102.13,222.305,101.556,222.468z"/>
		<path fill-rule="evenodd" clip-rule="evenodd" fill="#90A2D7" d="M96.68,218.619c0.301,0.46,0.778,0.493,1.258,0.52
			c0.28,0.303,0.996-0.212,1.032,0.55c-1.084,0.6-2.597,0.089-3.035-1.027C96.171,218.435,96.424,218.501,96.68,218.619z"/>
		<path fill-rule="evenodd" clip-rule="evenodd" fill="#DACAC8" d="M91.474,224.69c-0.082,0.065-0.163,0.13-0.245,0.196
			c-0.508-0.424-1.017-0.848-1.525-1.271c0.04-0.305,0.157-0.515,0.52-0.426C90.736,223.61,91.212,224.061,91.474,224.69z"/>
		<path fill-rule="evenodd" clip-rule="evenodd" fill="#95ACE7" d="M95.522,218.898c-0.642-0.01-1.284-0.021-1.926-0.032
			c-0.108-0.075-0.252-0.099-0.322-0.229c-0.029-0.093-0.004-0.171,0.066-0.236c0.026-0.144,0.102-0.229,0.258-0.222
			c0.536,0.223,1.096,0.048,1.643,0.104c0.25,0.007,0.52-0.029,0.621,0.292C95.852,218.792,95.777,218.941,95.522,218.898z"/>
		<path fill-rule="evenodd" clip-rule="evenodd" fill="#42383A" d="M97.683,226.103c0.238-0.074,0.477-0.148,0.715-0.223
			c0.221,0.371,0.197,0.675-0.234,0.871c-0.765,0.641-1.124-0.312-1.695-0.432C96.823,225.961,97.246,225.989,97.683,226.103z"/>
		<path fill-rule="evenodd" clip-rule="evenodd" fill="#DFD1D0" d="M97.683,226.103c-0.405,0.072-0.809,0.144-1.213,0.216
			c-0.24-0.144-0.485-0.12-0.733-0.027c0.01-0.147,0.019-0.294,0.029-0.44c0.348-0.337,0.721-0.549,1.201-0.248
			C97.082,225.947,97.851,225.353,97.683,226.103z"/>
		<path fill-rule="evenodd" clip-rule="evenodd" fill="#97ABDD" d="M101.041,220.318c-0.005,0.095-0.011,0.19-0.016,0.285
			c-0.559-0.113-0.981-0.619-1.601-0.556c-0.223-0.073-0.41-0.172-0.35-0.46c0.093-0.083,0.186-0.083,0.278,0
			c0.413,0.094,0.826,0.188,1.239,0.282C100.712,220.049,101.196,219.864,101.041,220.318z"/>
		<path fill-rule="evenodd" clip-rule="evenodd" fill="#93A8DD" d="M101.556,222.468c0.394-0.31,0.026-0.866,0.385-1.188
			c0.301,0.294,0.195,0.617,0.067,0.94c0.343,0.517-0.105,0.854-0.284,1.253C100.907,223.266,101.635,222.799,101.556,222.468z"/>
		<path fill-rule="evenodd" clip-rule="evenodd" fill="#6E7CA2" d="M102.778,220.297c-0.56,0.67-0.851-0.141-1.273-0.231
			c-0.076-0.052-0.099-0.101-0.071-0.148c0.028-0.046,0.055-0.069,0.082-0.069c0.083-0.087,0.166-0.174,0.25-0.261
			c0.575-0.334,0.507,0.305,0.739,0.489C102.596,220.15,102.687,220.223,102.778,220.297z"/>
		<path fill-rule="evenodd" clip-rule="evenodd" fill="#615657" d="M90.224,223.189c-0.173,0.142-0.346,0.284-0.52,0.426
			c-0.065-0.295-0.131-0.59-0.196-0.885c0.084-0.081,0.169-0.162,0.253-0.242c0.276-0.107,0.582-0.326,0.699,0.182
			C90.381,222.843,90.302,223.017,90.224,223.189z"/>
		<path fill-rule="evenodd" clip-rule="evenodd" fill="#3B3832" d="M93.341,218.402c-0.027,0.063-0.047,0.127-0.062,0.195
			c-0.553,0.396-1.104,0.796-1.845,0.513l0.004,0.02C91.853,218.312,92.607,218.386,93.341,218.402z"/>
		<path fill-rule="evenodd" clip-rule="evenodd" fill="#6B7699" d="M102.04,221.077c0.157-0.436,0.782-0.11,0.925-0.569
			c0.296,0.699,0.296,0.699-0.708,0.796C102.157,221.254,102.084,221.179,102.04,221.077z"/>
		<path fill-rule="evenodd" clip-rule="evenodd" fill="#302718" d="M95.786,218.624c-0.165-0.086-0.329-0.173-0.494-0.26
			c0-0.055-0.001-0.109-0.002-0.164c0.537-0.103,1.031-0.065,1.391,0.419c-0.223,0.011-0.446,0.022-0.668,0.033
			C95.921,218.764,95.847,218.749,95.786,218.624z"/>
		<path fill-rule="evenodd" clip-rule="evenodd" fill="#40434E" d="M99.353,219.587c-0.076,0.008-0.151,0.013-0.228,0.015
			c-0.079,0.098-0.15,0.087-0.214-0.016c-0.245-0.322-0.762-0.054-0.973-0.448C98.448,219.167,99.071,218.841,99.353,219.587z"/>
		<path fill-rule="evenodd" clip-rule="evenodd" fill="#45454C" d="M95.29,218.2c-0.001,0.055,0,0.109,0.002,0.164
			c-0.564-0.065-1.168,0.241-1.693-0.184C94.163,218.187,94.726,218.193,95.29,218.2z"/>
		<path fill-rule="evenodd" clip-rule="evenodd" fill="#403C3D" d="M98.165,226.751c0.176-0.265,0.267-0.551,0.234-0.871
			c0.076-0.021,0.154-0.033,0.233-0.036C98.604,226.212,99.042,226.82,98.165,226.751z"/>
		<path fill-rule="evenodd" clip-rule="evenodd" fill="#2A221E" d="M93.37,226.081c0.462,0.095,0.997-0.284,1.397,0.215
			C94.301,226.228,93.77,226.58,93.37,226.081z"/>
		<path fill-rule="evenodd" clip-rule="evenodd" fill="#38332E" d="M102.504,220.077c-0.258-0.145-0.354-0.535-0.739-0.488
			C102.372,219.202,102.424,219.236,102.504,220.077z"/>
		<path fill-rule="evenodd" clip-rule="evenodd" fill="#3E425F" d="M101.516,219.849c-0.008,0.072-0.011,0.145-0.01,0.217
			c-0.155,0.084-0.31,0.168-0.465,0.252c-0.149-0.149-0.299-0.299-0.449-0.448C100.9,219.863,101.208,219.855,101.516,219.849z"/>
		<path fill-rule="evenodd" clip-rule="evenodd" fill="#464A5B" d="M102.04,221.077c0.072,0.076,0.145,0.151,0.217,0.227
			c-0.144,0.289,0.217,0.715-0.249,0.917c-0.022-0.313-0.044-0.627-0.066-0.94C101.963,221.207,101.996,221.14,102.04,221.077z"/>
		<path fill-rule="evenodd" clip-rule="evenodd" fill="#586081" d="M98.911,219.586c0.073-0.011,0.144-0.005,0.214,0.016
			c0.1,0.148,0.199,0.296,0.298,0.444c-0.55-0.105-0.351,0.387-0.512,0.592c-0.259,0.328-2.518-0.183-2.585-0.603
			c-0.09-0.564-0.599-0.722-0.804-1.138c0.088-0.091,0.176-0.183,0.264-0.275c0.077-0.004,0.152,0.005,0.226,0.028
			C96.775,219.592,97.759,219.85,98.911,219.586z"/>
		<path fill-rule="evenodd" clip-rule="evenodd" fill="#C5AFA9" d="M98.387,221.499c0.334-0.651,0.887-0.664,1.4-0.345
			c0.525,0.325,0.344,0.834,0.07,1.257c-0.374,0.578-0.834,0.864-1.449,0.284c-0.18-0.264-0.21-0.514,0.072-0.731
			c0.204,0.035,0.39,0.261,0.634,0.056c-0.169-0.136-0.324,0.102-0.479,0.004C98.486,221.88,98.245,221.78,98.387,221.499z"/>
		<path fill-rule="evenodd" clip-rule="evenodd" fill="#62698C" d="M90.494,222.226c0.032-0.449,0.355-0.445,0.688-0.463
			c0.67-0.037,1.355,0.113,2.011-0.148c0.216-0.086,0.432-0.005,0.492,0.198c0.065,0.223-0.139,0.344-0.328,0.428
			C92.402,222.268,91.444,222.987,90.494,222.226z"/>
		<path fill-rule="evenodd" clip-rule="evenodd" fill="#9CB0E1" d="M91.434,219.11c0.615-0.171,1.23-0.342,1.846-0.513
			c0.105,0.09,0.211,0.18,0.316,0.27c-0.881,0.396-1.762,0.793-2.644,1.189c-0.112-0.041-0.194-0.114-0.246-0.221
			C90.949,219.593,91.191,219.352,91.434,219.11z"/>
		<path fill-rule="evenodd" clip-rule="evenodd" fill="#2F2F38" d="M93.517,224.436c-0.962-0.3-1.866-0.703-2.571-1.458
			c-0.091-0.215,0.042-0.305,0.209-0.376c0.514-0.063,0.813,0.312,1.172,0.568c0.306,0.297,0.755,0.41,1.011,0.773
			c0.189,0.232,0.468,0.21,0.723,0.255C94.053,224.673,93.749,224.472,93.517,224.436z"/>
		<path fill-rule="evenodd" clip-rule="evenodd" fill="#474754" d="M91.209,222.715c-0.088,0.088-0.176,0.176-0.264,0.263
			c-0.162-0.103-0.324-0.205-0.486-0.308c-0.182-0.256-0.45-0.184-0.699-0.182c0.169-0.297,0.465-0.24,0.733-0.263
			c0.953,0.275,1.911-0.449,2.863,0.015c-0.08,0.076-0.159,0.152-0.239,0.228C92.546,223.053,91.842,222.602,91.209,222.715z"/>
		<path fill-rule="evenodd" clip-rule="evenodd" fill="#6E77A2" d="M93.338,223.943c-0.391-0.176-0.781-0.353-1.171-0.529
			c-0.097-0.114-0.085-0.216,0.034-0.306c0.25-0.103,0.48-0.113,0.648,0.147c0.381,0.356,0.93,0.06,1.353,0.33
			C94.07,224.131,93.617,223.825,93.338,223.943z"/>
		<path fill-rule="evenodd" clip-rule="evenodd" fill="#636B90" d="M92.169,223.178c-0.004,0.079-0.005,0.157-0.002,0.235
			c-0.33-0.219-0.533-0.611-0.958-0.699c0.583-0.495,1.278-0.117,1.909-0.247c0,0.164,0.001,0.327,0.002,0.491
			C92.845,223.215,92.45,222.946,92.169,223.178z"/>
		<path fill-rule="evenodd" clip-rule="evenodd" fill="#483F33" d="M93.517,224.436c0.182-0.08,0.363-0.159,0.545-0.238
			c0.515,0.298,1.021-0.107,1.535-0.018c-0.022,0.088-0.045,0.177-0.069,0.265c-0.402,0.554-0.938,0.29-1.44,0.238
			C93.897,224.6,93.707,224.518,93.517,224.436z"/>
		<path fill-rule="evenodd" clip-rule="evenodd" fill="#A8BDE6" d="M90.707,219.835c0.082,0.074,0.164,0.147,0.246,0.221
			c-0.418,0.219-0.56,0.883-1.2,0.744C90.07,220.479,90.389,220.157,90.707,219.835z"/>
		<path fill-rule="evenodd" clip-rule="evenodd" fill="#C0A9A5" d="M98.387,221.499c0.108,0.185,0.216,0.37,0.324,0.555l0.002,0.002
			c-0.369,0.085-0.295,0.382-0.304,0.639C98.056,222.303,98.089,221.903,98.387,221.499z"/>
		<path fill-rule="evenodd" clip-rule="evenodd" fill="#31313F" d="M92.169,223.178c0.252-0.354,0.627-0.174,0.951-0.219
			c0.203,0.367-0.191,0.187-0.271,0.295C92.623,223.229,92.396,223.204,92.169,223.178z"/>
		<path fill-rule="evenodd" clip-rule="evenodd" fill="#BAA09A" d="M94.087,224.682c0.487-0.038,0.987,0.004,1.44-0.238
			c0.434,0.443,1.202,0.472,1.439,1.16c-0.4,0.083-0.801,0.165-1.201,0.248c-0.48-0.544-1.219-0.018-1.738-0.367
			c0.095-0.593,0.691-0.006,0.856-0.466C94.618,224.907,94.353,224.794,94.087,224.682z"/>
		<g id="birdBottomTail">
			<path fill-rule="evenodd" clip-rule="evenodd" fill="#383946" d="M89.752,220.8c-0.254,0.284-0.533,0.459-0.877,0.143
				c-0.26-0.238-0.528-0.335-0.852-0.137c-0.08,0.036-0.154,0.025-0.224-0.025c-0.055-0.061-0.095-0.13-0.125-0.206
				c-0.028-0.075-0.051-0.152-0.074-0.229c-0.042-0.113-0.086-0.226-0.104-0.347c0.003-0.04,0.008-0.08,0.012-0.12
				c0.017-0.036,0.035-0.072,0.051-0.107c0.144-0.129-0.091-0.172-0.067-0.277c-0.02-0.093-0.032-0.185-0.042-0.279
				c-0.063-0.315-0.308-0.519-0.467-0.774c-0.14-0.239-0.256-0.485-0.245-0.771c0.022-0.111,0.078-0.203,0.166-0.274
				c0.236,0.246,0.472,0.492,0.708,0.738c0.714,0.266,0.941,1.034,1.494,1.458c0.469,0.36,0.261-0.004,0.18-0.203
				c-0.27-0.607-0.651-1.172-0.659-1.869c0.176-0.549,0.469-0.323,0.761-0.117c0.084,0.064,0.16,0.139,0.23,0.219
				c0.18,0.235,0.28,0.528,0.51,0.73c0.121,0.081,0.228,0.176,0.319,0.289c0.184,0.46,0.578,0.494,0.991,0.488
				c0.017,0.051,0.033,0.102,0.05,0.153c-0.071,0.371-0.406,0.465-0.667,0.637C90.438,220.18,90.159,220.568,89.752,220.8z"/>
			<path fill-rule="evenodd" clip-rule="evenodd" fill="#484E6A" d="M85.415,215.781c0.1,0.096,0.199,0.191,0.299,0.287
				c0.223,0.194,0.431,0.401,0.554,0.678c0.13,0.222,0.292,0.43,0.296,0.705c-0.002,0.109-0.023,0.214-0.06,0.317
				c-0.144,0.215-0.221,0.53-0.596,0.4c-0.592-0.933-1.441-1.717-1.674-2.86c-0.139-0.214-0.138-0.445-0.082-0.683
				C85.053,214.485,84.932,215.464,85.415,215.781z"/>
			<path fill-rule="evenodd" clip-rule="evenodd" fill="#4B506D" d="M89.541,219.352c0.201,0.233,0.515,0.487,0.213,0.793
				c-0.337,0.341-0.582-0.036-0.766-0.253c-0.48-0.568-0.921-1.169-1.377-1.757c0.608-0.315-0.27-0.602-0.018-0.911
				c-0.165-0.241-0.114-0.435,0.128-0.587c0.583-0.05,0.651,0.418,0.848,0.799C88.897,218.072,88.863,218.895,89.541,219.352z"/>
			<path fill-rule="evenodd" clip-rule="evenodd" fill="#899ACC" d="M89.541,219.352c-0.22,0.759-0.364,0.208-0.461-0.041
				c-0.349-0.897-0.548-1.863-1.251-2.588c-0.168-0.099-0.311-0.216-0.305-0.437c0.051-0.147,0.153-0.234,0.307-0.26
				c0.164,0.15,0.329,0.299,0.493,0.449c0.353,0.246,0.374,0.641,0.453,1.01C89.032,218.107,89.286,218.729,89.541,219.352z"/>
			<path fill-rule="evenodd" clip-rule="evenodd" fill="#33343B" d="M87.571,219.788c0.009,0.095,0.018,0.19,0.026,0.285
				c0.033,0.044,0.066,0.088,0.099,0.133c-0.025,0.111-0.088,0.195-0.188,0.251c-0.486,0.167-0.832-0.132-1.199-0.362
				c-0.098-0.047-0.189-0.105-0.274-0.172c-0.206-0.236-0.534-0.42-0.358-0.823c0.155-0.008,0.311-0.016,0.466-0.024
				C86.81,218.928,87.166,219.408,87.571,219.788z"/>
			<path fill-rule="evenodd" clip-rule="evenodd" fill="#3A3B45" d="M88.777,217.484c-0.225-0.303-0.478-0.594-0.453-1.01
				c0.792,0.147-0.036-0.714,0.466-0.748c0.463-0.017,0.462,0.36,0.561,0.654c0.035,0.432,0.285,0.872-0.048,1.29
				C89.083,217.735,89.096,217.143,88.777,217.484z"/>
			<path fill-rule="evenodd" clip-rule="evenodd" fill="#322B2E" d="M86.246,219.843c0.064,0.011,0.129,0.017,0.194,0.018
				c0.201,0.461,0.592,0.698,1.033,0.877c0.092,0.047,0.178,0.105,0.259,0.17c0.036,0.038,0.07,0.076,0.105,0.114
				c0.07,0.293-0.058,0.521-0.239,0.733c-0.252,0.117-0.396-0.014-0.506-0.222c-0.16-0.54-0.748-0.725-0.988-1.199
				C86.039,220.139,86.004,219.951,86.246,219.843z"/>
			<path fill-rule="evenodd" clip-rule="evenodd" fill="#42424B" d="M88.311,222.272c0.157,0.139,0.314,0.278,0.471,0.417
				c-0.708,0.022-1.37-0.191-1.993-0.48c-0.484-0.224-0.426-0.497,0.087-0.649C87.328,221.851,87.835,222.029,88.311,222.272z"/>
			<path fill-rule="evenodd" clip-rule="evenodd" fill="#98ABD9" d="M85.415,215.781c-0.656-0.118-0.664-0.914-1.204-1.154
				c-0.198,0.008-0.277-0.105-0.29-0.286c0.087-0.218,0.251-0.33,0.484-0.344c0.27,0.085,0.376,0.334,0.532,0.535
				C85.139,214.932,85.42,215.302,85.415,215.781z"/>
			<path fill-rule="evenodd" clip-rule="evenodd" fill="#312E2D" d="M84.022,214.321c0.063,0.103,0.126,0.205,0.189,0.307
				c0.007,0.227,0.015,0.454,0.022,0.681c-0.496-0.606-0.831-1.263-0.704-2.085c0.067-0.433,0.211-0.438,0.455-0.116
				C83.795,213.519,84.396,213.904,84.022,214.321z"/>
			<path fill-rule="evenodd" clip-rule="evenodd" fill="#8391C2" d="M87.571,219.788c-0.673,0.157-0.845-0.691-1.43-0.712
				c0.02-0.079,0.04-0.159,0.059-0.238c0.107-0.194,0.245-0.331,0.493-0.26c0.318,0.164,0.579,0.403,0.837,0.646
				c0.024,0.044,0.047,0.089,0.071,0.134c0.008,0.087,0.016,0.175,0.024,0.262c0.049,0.084,0.037,0.158-0.037,0.221L87.571,219.788z
				"/>
			<path fill-rule="evenodd" clip-rule="evenodd" fill="#33303B" d="M86.624,218.67c-0.141,0.056-0.282,0.112-0.423,0.167
				c0.086-0.304-0.228-0.432-0.293-0.669c0.171-0.166,0.341-0.332,0.512-0.498c0.311,0.133,0.494,0.363,0.536,0.702
				C86.899,218.532,86.792,218.636,86.624,218.67z"/>
			<path fill-rule="evenodd" clip-rule="evenodd" fill="#363841" d="M87.624,216.234c0.068,0.163,0.137,0.326,0.205,0.488
				c-0.208,0.107-0.217,0.306-0.235,0.502c-0.501-0.371-0.463-0.935-0.524-1.463C87.506,215.623,87.631,215.851,87.624,216.234z"/>
			<path fill-rule="evenodd" clip-rule="evenodd" fill="#332C14" d="M88.973,215.274c0.918,0.246,0.72,1.033,0.814,1.678
				c-0.097,0.068-0.202,0.084-0.314,0.043c-0.194-0.223-0.183-0.522-0.284-0.78C89.233,215.875,88.929,215.615,88.973,215.274z"/>
			<path fill-rule="evenodd" clip-rule="evenodd" fill="#8FA2D1" d="M87.624,216.234c-0.187-0.156-0.226-0.484-0.555-0.473
				c-0.394-0.17,0.051-0.287,0.028-0.434c0.069-0.108,0.158-0.127,0.267-0.058c0.277,0.177,0.566,0.347,0.467,0.757
				C87.761,216.095,87.692,216.165,87.624,216.234z"/>
			<path fill-rule="evenodd" clip-rule="evenodd" fill="#8B9CD1" d="M88.311,222.272c-0.561-0.07-1.117-0.152-1.435-0.712
				c0.069-0.033,0.141-0.042,0.216-0.026c0.169,0.074,0.337,0.148,0.506,0.222C87.76,222.032,88.331,221.745,88.311,222.272z"/>
			<path fill-rule="evenodd" clip-rule="evenodd" fill="#8BA0CF" d="M86.246,219.843c-0.047,0.164-0.094,0.328-0.142,0.492
				c-0.328-0.172-0.54-0.447-0.694-0.774c-0.087-0.266-0.154-0.52,0.287-0.444l-0.021-0.017
				C85.866,219.347,86.056,219.595,86.246,219.843z"/>
			<path fill-rule="evenodd" clip-rule="evenodd" fill="#312C30" d="M86.413,217.505c-0.083-0.262-0.167-0.523-0.25-0.785
				c0.086-0.092,0.177-0.096,0.271-0.011c0.302,0.13,0.455,0.362,0.469,0.688c-0.01,0.105-0.021,0.211-0.031,0.316
				C86.64,217.819,86.547,217.617,86.413,217.505z"/>
			<path fill-rule="evenodd" clip-rule="evenodd" fill="#8D9BD0" d="M84.022,214.321c0.058-0.407-0.556-0.792-0.038-1.213
				c0.083,0.093,0.166,0.185,0.248,0.277c0.116,0.22,0.42,0.381,0.215,0.7C84.306,214.164,84.164,214.242,84.022,214.321z"/>
			<path fill-rule="evenodd" clip-rule="evenodd" fill="#26292B" d="M84.447,214.084c-0.072-0.233-0.143-0.466-0.215-0.7
				c0.537,0.197,0.647,0.656,0.705,1.148C84.656,214.512,84.59,214.256,84.447,214.084z"/>
			<path fill-rule="evenodd" clip-rule="evenodd" fill="#2D2E31" d="M87.363,215.269c-0.089,0.02-0.178,0.039-0.267,0.058
				c-0.189-0.078-0.547,0.003-0.417-0.386c0.046-0.136,0.252-0.352,0.301-0.332C87.251,214.724,87.417,214.944,87.363,215.269z"/>
			<path fill-rule="evenodd" clip-rule="evenodd" fill="#98ABEE" d="M88.973,215.274c0.106,0.317,0.212,0.634,0.319,0.952
				c0.125,0.251-0.005,0.271-0.206,0.228c-0.087-0.247,0.012-0.569-0.296-0.727C88.65,215.495,88.391,215.214,88.973,215.274z"/>
			<path fill-rule="evenodd" clip-rule="evenodd" fill="#2B2B26" d="M86.434,216.708c-0.09,0.004-0.181,0.008-0.271,0.011
				c-0.307-0.109-0.395-0.368-0.449-0.651C86.287,215.907,86.357,216.312,86.434,216.708z"/>
			<path fill-rule="evenodd" clip-rule="evenodd" fill="#3A351F" d="M90.447,218.642c-0.155-0.003-0.309-0.006-0.463-0.009
				c-0.129-0.207-0.119-0.444-0.15-0.673c0.025-0.117,0.084-0.215,0.172-0.295C90.299,217.924,90.508,218.222,90.447,218.642z"/>
			<path fill-rule="evenodd" clip-rule="evenodd" fill="#302C2D" d="M85.697,219.116c-0.275,0.033-0.324,0.21-0.287,0.444
				c-0.223-0.121-0.578-0.25-0.4-0.537C85.168,218.769,85.512,218.739,85.697,219.116z"/>
			<path fill-rule="evenodd" clip-rule="evenodd" fill="#434238" d="M90.005,217.665c-0.004,0.091-0.009,0.182-0.014,0.273
				c-0.355,0.085-0.317-0.232-0.417-0.407c-0.006-0.196-0.271-0.403,0.027-0.585c0.062-0.016,0.125-0.014,0.186,0.007
				C90.182,217.091,89.954,217.42,90.005,217.665z"/>
			<path fill-rule="evenodd" clip-rule="evenodd" fill="#0B0916" d="M87.842,220.795c0.06,0.013,0.121,0.017,0.182,0.011
				c0.025,0.147-0.061,0.199-0.187,0.216l0.007,0.02c-0.032-0.041-0.063-0.082-0.095-0.122
				C87.78,220.878,87.811,220.837,87.842,220.795z"/>
			<path fill-rule="evenodd" clip-rule="evenodd" fill="#7C8AB5" d="M89.602,216.945c0.037,0.172,0.075,0.345,0.112,0.518
				c-0.068,0.101-0.081,0.251-0.243,0.267c-0.056-0.02-0.112-0.039-0.168-0.058c-0.072-0.406-0.145-0.812-0.217-1.218
				c0.068-0.076,0.137-0.152,0.206-0.228C89.395,216.466,89.498,216.706,89.602,216.945z"/>
			<path fill-rule="evenodd" clip-rule="evenodd" fill="#8BA0CC" d="M86.413,217.505c0.153,0.069,0.306,0.139,0.459,0.208
				c0.085,0.219,0.171,0.438,0.256,0.657c0.064,0.063,0.088,0.129,0.071,0.196c-0.017,0.069-0.035,0.104-0.055,0.104
				c-0.213,0.045-0.331-0.019-0.3-0.258c-0.142-0.247-0.284-0.494-0.426-0.741C86.441,217.615,86.439,217.559,86.413,217.505z"/>
			<path fill-rule="evenodd" clip-rule="evenodd" fill="#99ADE7" d="M87.118,218.645c0.003-0.092,0.007-0.184,0.01-0.275
				c0.249,0.285,0.898,0.379,0.473,0.987l0.014,0.008C87.421,219.145,86.967,219.104,87.118,218.645z"/>
			<path fill-rule="evenodd" clip-rule="evenodd" fill="#90A3E2" d="M89.471,217.729c0.081-0.089,0.162-0.178,0.243-0.267
				c0.092,0.158,0.185,0.316,0.278,0.475c-0.003,0.231-0.006,0.463-0.008,0.695C89.624,218.439,89.586,218.062,89.471,217.729z"/>
			<path fill-rule="evenodd" clip-rule="evenodd" fill="#140C00" d="M87.589,219.84c-0.031-0.081-0.018-0.154,0.037-0.221
				c0.021,0.054,0.049,0.107,0.057,0.164C87.684,219.797,87.622,219.82,87.589,219.84z"/>
			<path fill-rule="evenodd" clip-rule="evenodd" fill="#080900" d="M87.836,220.604c-0.011,0.064-0.009,0.128,0.005,0.191
				l0.006-0.006c-0.084,0.098-0.181,0.108-0.289,0.042c-0.041-0.111-0.033-0.219,0.024-0.324
				C87.704,220.446,87.786,220.483,87.836,220.604z"/>
			<path fill-rule="evenodd" clip-rule="evenodd" fill="#59637C" d="M87.836,220.604c-0.085-0.025-0.171-0.05-0.256-0.075
				c-0.06-0.057-0.076-0.109-0.049-0.158c0.026-0.046,0.05-0.069,0.073-0.069l-0.003,0.017c0.075-0.074,0.153-0.076,0.233-0.008
				C87.834,220.409,87.836,220.507,87.836,220.604z"/>
			<path fill-rule="evenodd" clip-rule="evenodd" fill="#93B1ED" d="M87.833,220.312c-0.077,0.007-0.155,0.01-0.233,0.008
				c-0.001-0.083-0.002-0.165-0.003-0.248C87.748,220.082,87.835,220.152,87.833,220.312z"/>
			<path fill-rule="evenodd" clip-rule="evenodd" fill="#8798C5" d="M87.604,220.303c-0.043,0.072-0.051,0.147-0.023,0.227
				c0.007,0.09,0.014,0.18,0.021,0.27c0.074,0.053,0.094,0.097,0.061,0.132c-0.029,0.031-0.059,0.046-0.09,0.046
				c-0.638-0.108-1.167-0.326-1.131-1.117C86.783,220.126,87.127,220.39,87.604,220.303z"/>
			<path fill-rule="evenodd" clip-rule="evenodd" fill="#676E87" d="M87.571,220.978c0.008-0.06,0.018-0.119,0.03-0.178
				c0.082-0.003,0.165-0.007,0.247-0.01c-0.001,0.083-0.002,0.167-0.003,0.252C87.753,221.021,87.662,220.999,87.571,220.978z"/>
			<path fill-rule="evenodd" clip-rule="evenodd" fill="#232023" d="M87.118,218.645c0.166,0.24,0.332,0.48,0.497,0.72
				c-0.556,0.09-0.699-0.411-0.992-0.695c0.074-0.086,0.147-0.172,0.221-0.258C86.936,218.489,87.027,218.567,87.118,218.645z"/>
		</g>
		<path fill-rule="evenodd" clip-rule="evenodd" fill="#221F1E" d="M98.711,222.054c0.311-0.105,0-0.706,0.495-0.641
			c0.18,0.024,0.378,0.129,0.38,0.369c0.003,0.352-0.179,0.619-0.502,0.704c-0.316,0.083-0.377-0.171-0.372-0.429L98.711,222.054z"
			/>
	</g>
	<g id="birdRight">
		<path fill-rule="evenodd" clip-rule="evenodd" fill="#566191" d="M221.556,54.718c0.052-0.227-0.271-0.792,0.422-0.43
			c0.327,0.171,0.138-0.219,0.249-0.303c0.458-0.286,0.585,0.126,0.791,0.372c0.606,0.55,1.397,0.254,2.081,0.449
			c0.219,0.025,0.404,0.137,0.594,0.235c0.501,0.403,1.131,0.595,1.631,1c0.315,0.2,0.657,0.352,0.988,0.525
			c0.507,0.599,1.5,0.813,1.464,1.84c0.144,0.353,0.399,0.188,0.63,0.129c0.326-0.105,0.659-0.229,0.832,0.227
			c0.018,0.445-0.264,0.753-0.494,1.086c-0.22,0.215-0.458,0.369-0.78,0.227c-0.13-0.167-0.379-0.257-0.351-0.518
			c0.022,0.17-0.06-0.186,0.062-0.082c0.122,0.104,0.22-0.05,0.101-0.01c-0.291,0.097-0.69-0.407-0.876,0.156
			c-0.028-0.16,0.032,0.123-0.107,0.055c-0.1-0.049-0.135,0.071-0.052,0.069c0.438-0.006,0.879-0.051,1.213,0.327
			c-0.358,0.737-1.079,0.627-1.707,0.735c-0.291,0.022-0.569,0.134-0.865,0.117c-0.112-0.011-0.221-0.042-0.323-0.089
			c-0.438-0.267-0.523-0.945-1.155-0.989c-0.631-0.706-1.623-0.09-2.298-0.626c-0.184-0.448-0.464-0.038-0.694-0.072
			c-0.103,0.009-0.204,0-0.303-0.024c-0.372-0.173-0.752-0.195-1.141-0.063c-0.221-0.082-0.211-0.266-0.201-0.45
			c-0.067-0.101-0.083-0.209-0.051-0.326c0.096-1.011,0.025-2.049,0.484-3.001C221.765,55.068,221.705,54.882,221.556,54.718z"/>
		<path fill-rule="evenodd" clip-rule="evenodd" fill="#D6C1BD" d="M229.684,60.943c-0.013,0.485-0.106,0.913-0.701,0.983
			c-0.071,0.062-0.143,0.124-0.216,0.183c-0.204,0.134-0.379,0.317-0.624,0.386c-0.294-0.021-0.465,0.153-0.604,0.379
			c-0.469,0.294-0.448,1.002-1.021,1.209c-0.596-0.042-0.37-0.664-0.651-0.92c-0.428-0.205-0.069,0.283-0.251,0.294
			c-0.159,0.206-0.342,0.381-0.571,0.505c-1.173,0.366-1.986-0.687-3.045-0.771c-0.47-0.674-0.53-1.444-0.523-2.229
			c1.194,0.291,2.39,0.464,3.6,0.083c0.38-0.12,0.777-0.148,1.176-0.158c0.438-0.028,0.866,0.113,1.304,0.068
			C228.266,60.974,228.973,60.534,229.684,60.943z"/>
		<path fill-rule="evenodd" clip-rule="evenodd" fill="#B14F3C" d="M226.088,61.202c-1.214,0.216-2.409,0.432-3.677,0.325
			c-0.545-0.046-0.66-0.328-0.936-0.566c0.021-0.231,0.042-0.462,0.062-0.692c-0.173-0.964,0.223-1.375,1.193-1.227l-0.017-0.009
			c0.302,0.26,0.646-0.238,0.947,0.051c0.14,0.057,0.324,0.202,0.412,0.157c0.859-0.435,1.454-0.033,1.992,0.584
			c0.086,0.049,0.143,0.122,0.176,0.214c0.031,0.139,0.025,0.277-0.003,0.415c-0.036,0.173-0.044,0.348-0.033,0.525
			C226.197,61.069,226.158,61.144,226.088,61.202z"/>
		<path fill-rule="evenodd" clip-rule="evenodd" fill="#96AEDF" d="M225.619,55.161c-0.171-0.058-0.342-0.115-0.513-0.172
			c-0.769-0.279-1.6-0.139-2.377-0.356c0.019-0.36-0.018-0.677-0.501-0.647c0.242-0.35-0.494-0.938,0.283-1.158
			c0.193,0.271,0.299,0.582,0.416,0.889c0.012,0.083,0.023,0.167,0.035,0.25c0.412,0.378,0.978-0.041,1.403,0.271
			c0.581,0.07,1.052,0.369,1.499,0.718C225.809,55.058,225.729,55.128,225.619,55.161z"/>
		<path fill-rule="evenodd" clip-rule="evenodd" fill="#EDDDD2" d="M221.999,63.19c0.065-0.705,0.462-0.364,0.69-0.172
			c0.71,0.599,1.524,0.832,2.431,0.822c0.012,0.054,0.025,0.108,0.038,0.163c-0.214,0.278-0.463,0.246-0.726,0.08
			C223.402,64.383,222.684,63.833,221.999,63.19z"/>
		<path fill-rule="evenodd" clip-rule="evenodd" fill="#2A2A34" d="M222.73,59.042c-0.631,0.182-1.14,0.482-1.193,1.226
			c-0.201-0.031-0.621,0.265-0.488-0.277c0.08-0.324,0.275-0.62,0.418-0.928C221.873,58.037,222.305,58.776,222.73,59.042z"/>
		<path fill-rule="evenodd" clip-rule="evenodd" fill="#3E3638" d="M225.121,63.84c-0.049-0.356,0.018-0.585,0.451-0.41
			c0.319-0.042,0.006-0.451,0.296-0.51c0.864,0.026,0.069,0.979,0.649,1.163c-0.204,0.486-0.614,0.16-0.922,0.234
			C225.417,64.178,225.21,64.067,225.121,63.84L225.121,63.84z"/>
		<path fill-rule="evenodd" clip-rule="evenodd" fill="#5C5970" d="M229.684,60.943c-0.702,0.078-1.403,0.156-2.104,0.234
			c-0.131-0.053-0.268-0.097-0.375-0.194c-0.036-0.095-0.021-0.18,0.045-0.257c0.245-0.083,0.489-0.166,0.734-0.248
			c0.561,0.283,1.101,0.09,1.642-0.075c0.179,0.057,0.3,0.169,0.339,0.358C229.872,60.821,229.778,60.882,229.684,60.943z"/>
		<path fill-rule="evenodd" clip-rule="evenodd" fill="#5C638E" d="M231.99,59.274c0.121,0.005,0.241,0.01,0.361,0.015
			c-0.382,0.661-1.054,0.898-1.707,1.162c-0.085-0.07-0.131-0.159-0.135-0.27c0.034-0.216,0.244-0.344,0.276-0.561
			c0.215-0.252,0.278-0.734,0.797-0.527C231.718,59.154,231.854,59.214,231.99,59.274z"/>
		<path fill-rule="evenodd" clip-rule="evenodd" fill="#4A4E69" d="M221.316,58.256c-0.017,0.119-0.033,0.237-0.049,0.356
			c-0.562-1.346-0.151-2.621,0.289-3.893c0.148,0.068,0.297,0.137,0.446,0.205C221.45,55.968,221.391,57.113,221.316,58.256z"/>
		<path fill-rule="evenodd" clip-rule="evenodd" fill="#9DB4E4" d="M229.003,56.436c0.285,0.401,0.87,0.031,1.15,0.447
			c-0.046,0.185-0.159,0.301-0.346,0.343c-0.615,0.062-1.099-0.242-1.578-0.563c-0.345-0.118-0.714-0.192-0.968-0.492
			c0.021-0.149,0.156-0.168,0.257-0.227C228.008,56.124,228.438,56.482,229.003,56.436z"/>
		<path fill-rule="evenodd" clip-rule="evenodd" fill="#A9C7F2" d="M227.518,55.944c-0.085,0.076-0.171,0.151-0.257,0.227
			c-0.568-0.303-1.173-0.546-1.643-1.01c0.081-0.068,0.162-0.137,0.243-0.205C226.414,55.285,226.966,55.615,227.518,55.944z"/>
		<path fill-rule="evenodd" clip-rule="evenodd" fill="#322C30" d="M227.539,62.874c-0.29-0.775,0.021-0.865,0.661-0.58
			c0.265,0.27,0.261,0.545,0.021,0.828C227.945,63.17,227.714,63.099,227.539,62.874z"/>
		<path fill-rule="evenodd" clip-rule="evenodd" fill="#45312A" d="M228.221,63.122c-0.007-0.276-0.014-0.552-0.021-0.828
			c0.04-0.278,0.186-0.408,0.474-0.335c0.332,0.393-0.079,0.797,0.021,1.194C228.517,63.452,228.364,63.359,228.221,63.122z"/>
		<path fill-rule="evenodd" clip-rule="evenodd" fill="#DF9863" d="M228.694,63.153c-0.556-0.388,0.073-0.797-0.021-1.194
			c0.104-0.011,0.207-0.022,0.31-0.033C228.791,62.312,229.172,62.833,228.694,63.153z"/>
		<path fill-rule="evenodd" clip-rule="evenodd" fill="#748DB1" d="M224.363,54.238c-0.464-0.109-1.009,0.2-1.403-0.271
			C223.41,54.147,223.972,53.747,224.363,54.238z"/>
		<path fill-rule="evenodd" clip-rule="evenodd" fill="#D6C1BD" d="M225.121,63.84c0.158,0.159,0.316,0.318,0.475,0.478
			c-0.392-0.061-0.845,0.184-1.164-0.235C224.689,64.079,224.956,64.104,225.121,63.84z"/>
		<path fill-rule="evenodd" clip-rule="evenodd" fill="#393A56" d="M222.925,53.717c-0.264-0.238-0.351-0.558-0.416-0.889
			C222.919,52.998,223.055,53.295,222.925,53.717z"/>
		<path fill-rule="evenodd" clip-rule="evenodd" fill="#2A3242" d="M230.647,60.176c-0.001,0.092-0.002,0.184-0.003,0.276
			c-0.246,0.059-0.361,0.406-0.679,0.309c-0.09-0.082-0.181-0.164-0.271-0.246C229.966,60.272,230.239,60.032,230.647,60.176z"/>
		<path fill-rule="evenodd" clip-rule="evenodd" fill="#737FB9" d="M228.229,56.663c0.566,0.149,1.133,0.298,1.7,0.446
			c0.327-0.117,0.459,0.166,0.655,0.317c0.148,0.189,0.28,0.396,0.509,0.506c0.09,0.04,0.159,0.102,0.206,0.188
			c0.039,0.15,0.078,0.3,0.117,0.451c0.015,0.215-0.083,0.307-0.297,0.272c-0.208-0.438-0.468-0.111-0.709-0.047
			c-0.329,0.14-0.514-0.077-0.705-0.282C229.529,57.645,228.568,57.401,228.229,56.663z"/>
		<path fill-rule="evenodd" clip-rule="evenodd" fill="#D5C3BF" d="M224.168,55.964c0.889,0.218,1.16,0.782,0.916,1.635
			c-0.207,0.194-0.386,0.101-0.561-0.051c-0.293-0.486-0.756,0.027-1.097-0.183c-0.169-0.269-0.102-0.542-0.017-0.814
			c0.01-0.127,0.02-0.253,0.029-0.38C223.628,55.911,223.81,55.626,224.168,55.964z"/>
		<path fill-rule="evenodd" clip-rule="evenodd" fill="#D1C3BE" d="M224.631,57.335c0.089,0.196,0.256,0.256,0.453,0.264
			c-0.256,0.611-0.726,0.886-1.317,0.581c-0.702-0.361-0.669-0.989-0.357-1.629c0.047,0.284-0.033,0.609,0.266,0.811
			C223.989,57.151,224.306,57.094,224.631,57.335z"/>
		<path fill-rule="evenodd" clip-rule="evenodd" fill="#95ACE0" d="M221.316,58.256c-0.067-1.171-0.161-2.348,0.685-3.332
			C221.773,56.034,221.544,57.145,221.316,58.256z"/>
		<path fill-rule="evenodd" clip-rule="evenodd" fill="#4A5584" d="M222.728,54.633c0.823-0.088,1.646-0.17,2.377,0.356
			C224.296,54.982,223.453,55.2,222.728,54.633z"/>
		<path fill-rule="evenodd" clip-rule="evenodd" fill="#838AC6" d="M230.647,60.176c-0.317,0.113-0.635,0.226-0.953,0.339
			c-0.572,0.093-1.152,0.527-1.71-0.037c0.684-0.014,1.377,0.009,1.945-0.478l-0.007,0.009c0.238-0.082,0.475-0.163,0.713-0.245
			c0.096-0.138,0.177-0.129,0.242,0.026C230.8,59.918,230.724,60.047,230.647,60.176z"/>
		<path fill-rule="evenodd" clip-rule="evenodd" fill="#707AB6" d="M229.929,60c-0.583-0.073-1.232,0.173-1.732-0.351
			c0.235-0.229,0.522-0.084,0.774-0.142c0.243-0.146,0.477-0.182,0.69,0.053c0.087,0.149,0.174,0.299,0.261,0.448L229.929,60z"/>
		<path fill-rule="evenodd" clip-rule="evenodd" fill="#140F12" d="M224.168,55.964c-0.243,0.069-0.486,0.138-0.729,0.207
			c0.21-0.944,0.748-0.659,1.429-0.357C224.546,55.883,224.357,55.923,224.168,55.964z"/>
		<path fill-rule="evenodd" clip-rule="evenodd" fill="#3B3C4C" d="M230.877,59.789c-0.081-0.008-0.162-0.017-0.242-0.025
			c-0.045-0.416,0.381-0.584,0.484-0.921c0.099-0.09,0.197-0.181,0.296-0.271c0.499,0.033,0.215,0.315,0.167,0.523
			C231.231,59.208,231.044,59.489,230.877,59.789z"/>
		<path fill-rule="evenodd" clip-rule="evenodd" fill="#3C3D4E" d="M229.661,59.56c-0.23-0.018-0.46-0.035-0.69-0.053
			c-0.081-0.083-0.195-0.153-0.236-0.252c-0.113-0.275,0.114-0.205,0.23-0.179c0.404,0.088,0.804,0.197,1.417,0.351
			C230.012,59.495,229.837,59.528,229.661,59.56z"/>
		<path fill-rule="evenodd" clip-rule="evenodd" fill="#232935" d="M223.66,59.083c-0.318,0.036-0.655,0.411-0.947-0.051
			c0.235-0.115,0.475-0.221,0.703-0.349c0.14-0.078,0.311-0.155,0.383-0.005C223.844,58.769,223.712,58.945,223.66,59.083z"/>
		<path fill-rule="evenodd" clip-rule="evenodd" fill="#698AD2" d="M226.065,59.956c0.003-0.044,0.002-0.088-0.001-0.131
			c0.691-0.148,0.818,0.362,0.977,0.836c-0.062,0.097-0.147,0.143-0.263,0.129C226.368,60.659,226.285,60.249,226.065,59.956z"/>
		<path fill-rule="evenodd" clip-rule="evenodd" fill="#D7561D" d="M226.774,60.668c0.089-0.003,0.177-0.005,0.266-0.008
			c0.068,0.027,0.138,0.049,0.21,0.066c0.015,0.075,0.02,0.152,0.014,0.229c-0.431,0.186-0.862,0.183-1.292-0.002
			c-0.151-0.234-0.08-0.401,0.157-0.518C226.394,60.375,226.554,60.605,226.774,60.668z"/>
		<path fill-rule="evenodd" clip-rule="evenodd" fill="#424A64" d="M229.705,58.514c0.235,0.094,0.47,0.188,0.705,0.282
			C230.028,59.067,229.754,59.072,229.705,58.514z"/>
		<path fill-rule="evenodd" clip-rule="evenodd" fill="#E4CECC" d="M225.868,62.92c-0.087,0.23,0.196,0.554-0.181,0.702
			c-0.011,0.005-0.076-0.125-0.116-0.192c0.063-0.225-0.427-0.283-0.181-0.537C225.515,62.766,225.724,62.672,225.868,62.92z"/>
		<path fill-rule="evenodd" clip-rule="evenodd" fill="#D3C0B7" d="M225.972,60.953c0.431,0.001,0.862,0.001,1.292,0.002
			c0.105,0.074,0.21,0.148,0.315,0.223c-0.497,0.008-0.994,0.016-1.492,0.024C226.05,61.119,226.011,61.036,225.972,60.953z"/>
		<path fill-rule="evenodd" clip-rule="evenodd" fill="#5D2B24" d="M226.774,60.668c-0.27,0.074-0.447-0.11-0.646-0.233
			c-0.021-0.16-0.042-0.319-0.063-0.479C226.302,60.193,226.539,60.43,226.774,60.668z"/>
		<path fill-rule="evenodd" clip-rule="evenodd" fill="#41455B" d="M231.299,58.12c-0.053-0.021-0.107-0.04-0.162-0.055
			c-0.258-0.166-0.428-0.407-0.573-0.67c-0.035-0.103-0.011-0.189,0.071-0.261c0.17-0.276,0.347-0.024,0.521-0.007
			c0.191,0.089,0.362,0.198,0.404,0.429C231.591,57.799,231.535,58.001,231.299,58.12z"/>
		<path fill-rule="evenodd" clip-rule="evenodd" fill="#BBCBFB" d="M230.635,57.134c0,0.064,0.011,0.126,0.031,0.187
			c0.09,0.245-0.031,0.291-0.24,0.253c-0.166-0.155-0.332-0.31-0.497-0.465c0.075-0.076,0.149-0.151,0.224-0.227
			C230.313,56.967,230.474,57.05,230.635,57.134z"/>
		<path fill-rule="evenodd" clip-rule="evenodd" fill="#5B669C" d="M231.554,56.881c0.091-0.004,0.183-0.008,0.273-0.011
			c0.156,0.317-0.09,0.497-0.244,0.707c0,0-0.022-0.021-0.023-0.021c-0.135-0.144-0.27-0.287-0.404-0.429
			C231.289,57.045,231.421,56.963,231.554,56.881z"/>
		<g id="birdRightTail">
			<path fill-rule="evenodd" clip-rule="evenodd" fill="#434863" d="M231.354,55.408c0.551-1.061,0.351-2.391,1.197-3.345
				c0.147,0.214,0.458,0.151,0.61,0.358c0.058,0.157,0.06,0.317,0.03,0.481c-0.233,1.055-0.575,2.074-1.012,3.061
				c-0.114,0.317-0.234,0.63-0.417,0.916c-0.131,0.179-0.295,0.312-0.515,0.365c-0.237,0.022-0.469-0.124-0.712-0.029
				c-0.208-0.015-0.391-0.106-0.58-0.182c-0.306-0.216-0.897,0.016-0.953-0.598c0.379-0.02,0.758-0.039,1.137-0.058
				c0.177-0.121,0.395-0.079,0.583-0.151C230.977,55.986,231.067,55.62,231.354,55.408z"/>
			<path fill-rule="evenodd" clip-rule="evenodd" fill="#40455E" d="M233.799,57.612c-0.03,0.062-0.054,0.125-0.073,0.19
				c-0.577,0.487-1.047,1.085-1.639,1.556c-0.222,0.104-0.404,0.048-0.552-0.14c-0.012-0.24,0.085-0.527-0.259-0.634
				c-0.08-0.134-0.096-0.279-0.073-0.431c0.033-0.147,0.094-0.282,0.173-0.41c0.055-0.081,0.122-0.151,0.202-0.21
				c0.092-0.035,0.187-0.054,0.284-0.06c0.253-0.051,0.422-0.25,0.641-0.363c0.303-0.225,0.707-0.229,1.005-0.463l-0.007-0.062
				C234.201,56.754,233.907,57.21,233.799,57.612z"/>
			<path fill-rule="evenodd" clip-rule="evenodd" fill="#8FA4E1" d="M234.479,52.355c-0.319,0.955-0.667,1.9-0.941,2.868
				c-0.094,0.333-0.2,0.579-0.521,0.708c-0.109,0.056-0.208,0.044-0.293-0.048c-0.137-0.276-0.041-0.55,0.008-0.825
				c0.084-0.433,0.209-0.854,0.363-1.268c0.156-0.347,0.321-0.69,0.437-1.055c0.135-0.31,0.25-0.639,0.635-0.731
				C234.352,52.049,234.456,52.166,234.479,52.355z"/>
			<path fill-rule="evenodd" clip-rule="evenodd" fill="#7C8FC5" d="M233.043,52.799c-0.008-0.151-0.017-0.303-0.025-0.454
				c-0.271-0.838-0.039-1.623,0.255-2.401c0.078-0.161-0.001-0.412,0.268-0.462c0.6,0.585,0.308,1.274,0.226,1.938
				c-0.014,0.077-0.027,0.154-0.041,0.23c-0.071,0.287,0.099,0.598-0.084,0.874c-0.073,0.139-0.165,0.26-0.309,0.333
				C233.228,52.883,233.131,52.865,233.043,52.799z"/>
			<path fill-rule="evenodd" clip-rule="evenodd" fill="#5C699B" d="M233.273,49.944c-0.002,0.809,0.053,1.624-0.254,2.401
				c-0.28,0.111-0.49,0.107-0.467-0.282C232.561,51.277,232.48,50.462,233.273,49.944z"/>
			<path fill-rule="evenodd" clip-rule="evenodd" fill="#898BC6" d="M231.99,59.274c0.562-0.511,0.761-1.449,1.736-1.472
				c-0.144,0.786-0.62,1.265-1.375,1.487C232.226,59.39,232.105,59.385,231.99,59.274z"/>
			<path fill-rule="evenodd" clip-rule="evenodd" fill="#3D3852" d="M230.215,56.132c-0.018-1.026-0.044-2.052-0.045-3.078
				c0-0.251-0.079-0.761,0.429-0.273c-0.016,0.796,0.19,1.581,0.123,2.38C230.645,55.533,230.797,56.025,230.215,56.132z"/>
			<path fill-rule="evenodd" clip-rule="evenodd" fill="#B89EBC" d="M233.799,57.612c-0.122-0.335,0.188-0.796-0.298-1.025
				c0.152-0.148,0.304-0.295,0.456-0.443c0.095,0.034,0.15-0.002,0.169-0.099c0.021-0.086,0.068-0.153,0.144-0.199
				c0.043,0,0.085,0.001,0.128,0.002c0.03,0.03,0.061,0.06,0.092,0.09C234.588,56.631,234.417,57.213,233.799,57.612z"/>
			<path fill-rule="evenodd" clip-rule="evenodd" fill="#7788B6" d="M230.435,55.185c0.071-0.8-0.279-1.628,0.164-2.403
				c0.208,0.29,0.354,0.597,0.285,0.968c0.125,0.138,0.114,0.3,0.086,0.466c-0.138,0.305-0.031,0.672-0.244,0.958
				C230.632,55.256,230.535,55.256,230.435,55.185z"/>
			<path fill-rule="evenodd" clip-rule="evenodd" fill="#6B7BB4" d="M232.765,55.923c0.084,0.002,0.168,0.005,0.252,0.008
				c-0.005,0.165-0.01,0.33-0.016,0.494c-0.017,0.374-0.235,0.652-0.444,0.936c-0.281-0.035-0.344,0.597-0.731,0.238
				c-0.185-0.486,0.172-0.827,0.324-1.225C232.308,56.161,232.405,55.861,232.765,55.923z"/>
			<path fill-rule="evenodd" clip-rule="evenodd" fill="#332F3A" d="M230.846,54.264c0.013-0.171,0.025-0.343,0.038-0.515
				c0.608,0.425-0.144,1.236,0.471,1.659c-0.059,0.445-0.168,0.871-0.454,1.232c-0.097-0.1-0.172-0.215-0.225-0.344
				C230.59,55.607,230.763,54.939,230.846,54.264z"/>
			<path fill-rule="evenodd" clip-rule="evenodd" fill="#87A0D9" d="M234.03,55.93c-0.153-0.677,0.604-0.704,0.699-1.207
				c0.337,0.563,0.04,0.886-0.239,1.214l-0.067-0.078l-0.113-0.019l-0.077,0.086l0.009-0.012
				C234.178,56.022,234.108,56.027,234.03,55.93z"/>
			<path fill-rule="evenodd" clip-rule="evenodd" fill="#403631" d="M233.768,51.42c-0.111-0.642,0.142-1.326-0.226-1.938
				C234.464,50.029,233.989,50.739,233.768,51.42z"/>
			<path fill-rule="evenodd" clip-rule="evenodd" fill="#272325" d="M233.482,52.515c0.082-0.289,0.164-0.577,0.245-0.865
				c0.109,0.241,0.315,0.17,0.503,0.158c0.07,0.101,0.067,0.202,0.002,0.303c-0.398,0.06-0.309,0.466-0.485,0.684
				C233.52,52.833,233.386,52.783,233.482,52.515z"/>
			<path fill-rule="evenodd" clip-rule="evenodd" fill="#382C31" d="M232.557,57.36c0.101-0.334,0.168-0.684,0.444-0.936
				c0.087,0.262,0.315,0.2,0.507,0.223C233.359,57.109,232.879,57.13,232.557,57.36z"/>
			<path fill-rule="evenodd" clip-rule="evenodd" fill="#626A96" d="M230.846,56.361c0.018,0.093,0.036,0.187,0.054,0.28
				c-0.253-0.087-0.506-0.175-0.76-0.263c0.025-0.082,0.05-0.164,0.075-0.246c0.291-0.266,0.132-0.635,0.22-0.948
				c0.061,0.011,0.121,0.022,0.182,0.032C230.935,55.549,230.608,56.012,230.846,56.361z"/>
			<path fill-rule="evenodd" clip-rule="evenodd" fill="#35343F" d="M234.232,52.111c-0.001-0.101-0.001-0.202-0.002-0.303
				c0.02-0.221,0.079-0.583,0.331-0.383c0.273,0.218,0.335,0.652-0.082,0.93C234.396,52.274,234.314,52.193,234.232,52.111z"/>
			<path fill-rule="evenodd" clip-rule="evenodd" fill="#3F518F" d="M234.03,55.93c0.07-0.015,0.14-0.02,0.211-0.015
				c-0.15,0.007,0.154,0.581-0.285,0.228C233.999,56.078,234.023,56.007,234.03,55.93z"/>
			<path fill-rule="evenodd" clip-rule="evenodd" fill="#6573A6" d="M233.043,52.799c0.072-0.003,0.145-0.005,0.217-0.007
				c0.238,0.176,0.183,0.41,0.127,0.643c-0.26,0.446-0.379,0.94-0.48,1.44c-0.169,0.471-0.282,0.968-0.649,1.343
				c-0.215,0.041-0.295-0.103-0.361-0.265C232.278,54.902,232.661,53.851,233.043,52.799z"/>
			<path fill-rule="evenodd" clip-rule="evenodd" fill="#7285C2" d="M231.896,55.953c0.073,0.078,0.146,0.156,0.218,0.233
				c0.063,0.085,0.087,0.18,0.072,0.285c-0.05,0.21-0.178,0.364-0.35,0.487c-0.105,0.014-0.2-0.01-0.283-0.078
				C231.668,56.572,231.782,56.263,231.896,55.953z"/>
			<path fill-rule="evenodd" clip-rule="evenodd" fill="#41455B" d="M231.583,57.577c0.081-0.235,0.163-0.472,0.244-0.707
				c0.098-0.153,0.195-0.306,0.293-0.458c0.073-0.098,0.151-0.101,0.232-0.01c-0.175,0.399-0.351,0.798-0.526,1.197
				C231.745,57.592,231.664,57.584,231.583,57.577z"/>
			<path fill-rule="evenodd" clip-rule="evenodd" fill="#485174" d="M232.352,56.402c-0.077,0.002-0.155,0.005-0.232,0.01
				c-0.01-0.075-0.012-0.15-0.006-0.225c0.225-0.414,0.449-0.827,0.673-1.241c0.102,0.043,0.159,0.121,0.178,0.229
				c-0.067,0.25-0.133,0.499-0.201,0.749C232.627,56.083,232.49,56.242,232.352,56.402z"/>
			<path fill-rule="evenodd" clip-rule="evenodd" fill="#40405E" d="M232.965,55.174c-0.059-0.076-0.118-0.152-0.178-0.229
				c0.043-0.523,0.195-1.011,0.469-1.459c0.083,0.052,0.115,0.107,0.093,0.168c-0.022,0.062-0.046,0.093-0.072,0.093
				C233.353,54.262,233.051,54.694,232.965,55.174z"/>
			<path fill-rule="evenodd" clip-rule="evenodd" fill="#34374B" d="M233.277,53.748c-0.006-0.087-0.013-0.174-0.02-0.261
				c0.001-0.231,0.002-0.463,0.003-0.694c0.074-0.093,0.147-0.185,0.222-0.277c0.088,0.093,0.177,0.186,0.265,0.28
				C233.665,53.149,233.666,53.544,233.277,53.748z"/>
			<path fill-rule="evenodd" clip-rule="evenodd" fill="#476890" d="M234.233,55.927c0.036-0.1,0.058-0.242,0.19-0.067
				C234.357,55.876,234.294,55.898,234.233,55.927z"/>
			<path fill-rule="evenodd" clip-rule="evenodd" fill="#91A7E4" d="M230.846,56.361c-0.353-0.326-0.13-0.768-0.229-1.145
				c0.08-0.316-0.084-0.692,0.229-0.953C230.846,54.963,230.846,55.662,230.846,56.361z"/>
		</g>
		<path fill-rule="evenodd" clip-rule="evenodd" fill="#99AAE6" d="M230.426,57.575c0.08-0.084,0.16-0.169,0.24-0.253
			c0.284,0.167,0.442,0.415,0.471,0.744C230.594,58.346,230.627,57.79,230.426,57.575z"/>
		<path fill-rule="evenodd" clip-rule="evenodd" fill="#232023" d="M224.631,57.335c-0.318,0.009-0.636,0.018-0.955,0.026
			c0.138-0.268,0.265-0.582,0.634-0.535C224.568,56.859,224.666,57.075,224.631,57.335z"/>
	</g>
	<g id="birdLeft">
		<path fill-rule="evenodd" clip-rule="evenodd" fill="#566191" d="M57.13,55.431c0.074,0.355,0.564,0.532,0.421,0.98
			c-0.196,0.144-0.433,0.246-0.524,0.5c-0.106,0.678-0.185,1.359-0.398,2.015c-0.012,0.111-0.043,0.216-0.093,0.316
			c-0.174,0.247-0.428,0.339-0.712,0.37c-0.107-0.015-0.196-0.064-0.262-0.151c-0.172-0.284-0.146-0.686-0.509-0.858
			c-0.175-0.106-0.353-0.209-0.404-0.43c0.021-0.104,0.066-0.196,0.13-0.279c0.239-0.412,1.034-0.743,0.182-1.303
			c-0.189,0.038-0.375,0.083-0.55,0.161c-0.428,0.396-0.458,0.75,0.106,1.044c0.066,0.087,0.094,0.185,0.084,0.293
			c0,0.271-0.07,0.517-0.266,0.716c-0.251,0.156-0.578,0.154-0.798,0.379c-0.384,0.27-0.785,0.514-1.152,0.809
			c-0.274,0.218-0.554,0.423-0.928,0.419c-0.614-0.175-1.338,0.081-1.858-0.466c-0.283-0.412,0.205-0.625,0.248-0.956
			c0.034-0.278-0.265-0.371-0.33-0.595c0.045-1.328,1.105-1.704,2.058-2.143c0.496-0.229,1.062-0.288,1.57-0.509
			c0.688-0.232,1.255-0.724,1.961-0.914c0.337-0.159,0.717,0.145,1.048-0.098c0.242,0.087,0.483,0.175,0.725,0.262
			C56.932,55.156,56.942,55.344,57.13,55.431z"/>
		<path fill-rule="evenodd" clip-rule="evenodd" fill="#B85F4E" d="M52.322,59.773c0.374-0.321,0.722-0.688,1.266-0.702
			c0.384-0.131,0.624,0.037,0.781,0.376c0.048,0.243,0.072,0.502,0.36,0.605c0.445,0.192,0.952,0.322,0.967,0.949
			c-0.092,0.151-0.183,0.302-0.275,0.453c-0.111,0.172-0.232,0.333-0.459,0.354c-0.254,0.013-0.479,0.131-0.717,0.203
			c-0.214,0.026-0.408-0.054-0.607-0.111c-0.544-0.005-1.074-0.045-1.371-0.603c-0.309-0.115-0.592,0.148-0.899,0.063
			c-0.171-0.054-0.288-0.157-0.317-0.343c0.053-0.242,0.222-0.385,0.423-0.5C51.877,60.407,52.101,60.091,52.322,59.773z"/>
		<path fill-rule="evenodd" clip-rule="evenodd" fill="#94A8DB" d="M53.343,55.961c-0.797,0.301-1.618,0.553-2.385,0.919
			c-0.673,0.321-1.271,0.781-1.312,1.644c-0.042,0.101-0.109,0.182-0.198,0.245c-0.199,0.096-0.399,0.189-0.587-0.021
			c-0.049-0.1-0.071-0.204-0.068-0.315c0.06-0.461,0.479-0.715,0.646-1.114c0.225-0.564,0.769-0.703,1.243-0.936
			c0.392-0.335,0.916-0.363,1.357-0.581c0.321-0.101,0.645-0.188,0.982-0.209C53.19,55.662,53.305,55.778,53.343,55.961z"/>
		<path fill-rule="evenodd" clip-rule="evenodd" fill="#E0CDC9" d="M52.325,61.184c0.413,0.366,0.957,0.347,1.445,0.49
			c-0.125,0.856-1.097,0.477-1.453,1c-0.533,0.235-1.073,0.409-1.662,0.229c-0.004-0.079-0.009-0.159-0.014-0.239
			c-0.21-0.391,0.145-0.587,0.292-0.856c0.13-0.171,0.25-0.354,0.453-0.452C51.706,61.338,52.003,61.198,52.325,61.184z"/>
		<path fill-rule="evenodd" clip-rule="evenodd" fill="#4D3739" d="M50.655,62.903c0.564-0.158,1.201-0.063,1.689-0.486
			c0.671-0.028,1.319-0.184,1.967-0.343c0.205-0.153,0.384-0.36,0.676-0.336c0.145-0.094,0.29-0.188,0.434-0.283
			c0.152,0.512-0.107,0.956-0.507,1.08C53.532,62.964,52.121,63.328,50.655,62.903z"/>
		<path fill-rule="evenodd" clip-rule="evenodd" fill="#444965" d="M48.01,61.929c-0.223-0.097-0.249-0.297-0.268-0.502
			c0.01-0.327,0.02-0.654,0.03-0.98c0.383-0.27,0.413-0.667,0.474-1.095c0.117-0.822,0.456-1.555,1.192-2.032
			c0.017,0.479-0.426,0.761-0.514,1.195c-0.032,0.503-0.068,1.007-0.159,1.504c-0.018,0.173-0.051,0.343-0.095,0.512
			c-0.172,0.438-0.064,0.947-0.341,1.358C48.232,61.976,48.125,61.986,48.01,61.929z"/>
		<path fill-rule="evenodd" clip-rule="evenodd" fill="#5F587C" d="M55.696,61.001c-0.289-0.455-0.802-0.559-1.235-0.79
			c-0.267-0.389,0.059-0.557,0.283-0.764c0.122-0.095,0.252-0.177,0.396-0.235c0.239-0.067,0.382,0.06,0.496,0.246l0.048,0.054
			c0.158,0.125,0.232,0.285,0.201,0.489C55.891,60.347,56.09,60.73,55.696,61.001z"/>
		<path fill-rule="evenodd" clip-rule="evenodd" fill="#A58F6C" d="M55.886,60c-0.199-0.108-0.212-0.293-0.201-0.489
			c0.25-0.091,0.499-0.182,0.748-0.273c0.327-0.012,0.55,0.324,0.891,0.265c-0.109,0.298,0.832,0.251,0.254,0.561
			c-0.245,0.132-0.884,0.65-1.137,0.1C56.234,59.715,56.116,59.896,55.886,60z"/>
		<path fill-rule="evenodd" clip-rule="evenodd" fill="#E2D1D4" d="M48.01,61.929c0.073-0.026,0.145-0.053,0.217-0.08
			c0.173-0.11,0.332-0.254,0.554-0.26c0.998,0.247,1.034,0.323,0.553,1.159c-0.441-0.061-0.964,0.221-1.287-0.315
			c-0.093-0.076-0.187-0.152-0.28-0.228C47.848,62.113,47.929,62.021,48.01,61.929z"/>
		<path fill-rule="evenodd" clip-rule="evenodd" fill="#2E2827" d="M48.046,62.433c0.442,0.235,0.912,0.229,1.389,0.161
			c0.344-0.26-0.196-1.033,0.599-1.032c0.243,0.061,0.347,0.252,0.432,0.461c0.122,0.356-0.212,0.543-0.308,0.819
			c-0.596,0.015-1.193,0.023-1.789,0.046C48.013,62.902,47.997,62.696,48.046,62.433z"/>
		<path fill-rule="evenodd" clip-rule="evenodd" fill="#9CB0DD" d="M53.343,55.961c-0.1-0.078-0.2-0.156-0.3-0.233
			c0.119-0.492,0.667-0.444,0.938-0.745c0.247-0.098,0.494-0.195,0.74-0.293c0.213,0.036,0.427,0.07,0.522,0.307
			C54.609,55.319,53.976,55.64,53.343,55.961z"/>
		<path fill-rule="evenodd" clip-rule="evenodd" fill="#221F2B" d="M53.98,54.983c-0.122,0.489-0.676,0.432-0.938,0.745
			c-0.319,0.053-0.637,0.106-0.956,0.16c-0.09-0.043-0.12-0.089-0.093-0.136c0.028-0.048,0.057-0.073,0.085-0.073
			C52.68,55.354,53.311,55.116,53.98,54.983z"/>
		<path fill-rule="evenodd" clip-rule="evenodd" fill="#7382B8" d="M56.422,59.16c0.104-0.842,0.141-1.696,0.432-2.506
			c0.402,0.318,0.213,0.77,0.265,1.167c0.001,0.175,0.005,0.351,0.017,0.526c-0.12,0.252-0.241,0.505-0.361,0.757
			C56.667,59.188,56.543,59.164,56.422,59.16z"/>
		<path fill-rule="evenodd" clip-rule="evenodd" fill="#201C1A" d="M50.159,62.843c-0.307-0.361,0.188-0.467,0.229-0.718
			c-0.015-0.406,0.043-0.76,0.56-0.791c0.282,0.13,0.364,0.321,0.18,0.592c-0.162,0.246-0.324,0.492-0.486,0.738
			C50.48,62.724,50.32,62.783,50.159,62.843z"/>
		<path fill-rule="evenodd" clip-rule="evenodd" fill="#BAD1FD" d="M55.243,54.998c-0.201-0.057-0.426-0.071-0.522-0.307
			c0.489-0.403,0.961-0.207,1.432,0.04C56.048,55.498,55.547,54.914,55.243,54.998z"/>
		<path fill-rule="evenodd" clip-rule="evenodd" fill="#454860" d="M56.916,58.079c-0.021-0.475-0.041-0.95-0.062-1.425
			c0.172-0.255,0.437-0.243,0.698-0.243c-0.076,0.24-0.151,0.48-0.227,0.72C57.054,57.389,57.517,57.963,56.916,58.079z"/>
		<path fill-rule="evenodd" clip-rule="evenodd" fill="#363B4E" d="M52.08,55.679c0.011,0.069,0.014,0.139,0.007,0.209
			c-0.469,0.165-0.938,0.331-1.406,0.496C50.921,55.699,51.615,55.915,52.08,55.679z"/>
		<path fill-rule="evenodd" clip-rule="evenodd" fill="#AA8E41" d="M56.422,59.16c0.118-0.019,0.235-0.037,0.353-0.055
			c0.098,0.25,0.545,0.02,0.548,0.398c-0.434,0.374-0.663,0.057-0.89-0.264C56.433,59.238,56.422,59.16,56.422,59.16z"/>
		<path fill-rule="evenodd" clip-rule="evenodd" fill="#3F3544" d="M56.916,58.079c0.136-0.316,0.272-0.632,0.409-0.949
			c-0.007,0.414,0.219,0.865-0.188,1.217C57.062,58.258,56.989,58.168,56.916,58.079z"/>
		<path fill-rule="evenodd" clip-rule="evenodd" fill="#A7C3F3" d="M57.13,55.431c-0.129,0.052-0.34,0.181-0.374,0.145
			c-0.206-0.225,0.139-0.371,0.121-0.583c0.083,0.078,0.167,0.156,0.25,0.233c0.047,0.052,0.062,0.103,0.043,0.152
			c-0.018,0.049-0.035,0.073-0.052,0.073L57.13,55.431z"/>
		<path fill-rule="evenodd" clip-rule="evenodd" fill="#212320" d="M57.119,55.45c0.008-0.074,0.011-0.149,0.008-0.225
			c0.06,0.021,0.12,0.041,0.179,0.062C57.244,55.342,57.181,55.396,57.119,55.45z"/>
		<path fill-rule="evenodd" clip-rule="evenodd" fill="#4A5580" d="M48.475,60.476c0.01-0.176,0.021-0.352,0.031-0.528
			c0.27-0.673,0.631-0.886,1.164-0.231c0.546,0.583,1.41,0.026,1.972,0.551c0.05,0.11,0.026,0.205-0.06,0.287
			c-0.207,0.066-0.412,0.145-0.635,0.125c-0.577,0.041-1.153-0.018-1.73-0.008c-0.161,0.022-0.321,0.022-0.481-0.012
			C48.63,60.625,48.544,60.562,48.475,60.476z"/>
		<path fill-rule="evenodd" clip-rule="evenodd" fill="#D7CCC4" d="M54.474,57.857c-0.229,0.056-0.514,0.401-0.672-0.009
			c-0.214-0.555-0.077-1.058,0.472-1.388c0.488,0.115,1.19,0.077,0.662,0.919c-0.064,0.167-0.493-0.265-0.368,0.225
			C54.57,57.703,54.541,57.787,54.474,57.857z"/>
		<path fill-rule="evenodd" clip-rule="evenodd" fill="#445180" d="M54.96,56.285c0.41-0.162,0.746-0.13,0.707,0.41
			c-0.046,0.637-0.097,1.316-0.999,1.331C54.9,57.469,55.27,56.934,54.96,56.285z"/>
		<path fill-rule="evenodd" clip-rule="evenodd" fill="#8191C1" d="M49.67,59.716c-0.465-0.31-0.847-0.201-1.164,0.232
			c-0.006-0.521,0.13-1,0.418-1.435c0.015,0.111,0.03,0.222,0.045,0.333c0.17,0.134,0.353,0.064,0.533,0.033
			c0.15-0.011,0.288,0.019,0.4,0.126c0.155,0.022,0.309,0.046,0.48,0.071C50.26,59.431,49.605,59.18,49.67,59.716z"/>
		<path fill-rule="evenodd" clip-rule="evenodd" fill="#DBD6D7" d="M54.96,56.285c0.593,0.696,0.234,1.232-0.291,1.741
			c0,0,0.009,0.013,0.009,0.013c-0.043,0.121-0.107,0.141-0.198,0.043c-0.003-0.075-0.005-0.15-0.006-0.225
			c0.01-0.065,0.014-0.13,0.013-0.195c-0.002-0.181,0.096-0.271,0.267-0.296c0.594-0.703-0.271-0.629-0.481-0.905
			C54.502,56.402,54.731,56.344,54.96,56.285z"/>
		<path fill-rule="evenodd" clip-rule="evenodd" fill="#B89240" d="M54.226,59.466c-0.213-0.132-0.426-0.263-0.638-0.395
			c-0.08-0.805,0.411-0.287,0.676-0.291c0.117-0.048,0.22-0.03,0.308,0.065c0.088,0.165,0.099,0.336,0.043,0.513
			C54.516,59.504,54.422,59.67,54.226,59.466z"/>
		<path fill-rule="evenodd" clip-rule="evenodd" fill="#29211A" d="M55.636,59.458c-0.146-0.057-0.291-0.114-0.436-0.171
			c-0.194-0.109-0.283-0.289-0.331-0.496c-0.01-0.249,0.166-0.353,0.352-0.448C55.817,58.545,55.68,59.019,55.636,59.458z"/>
		<path fill-rule="evenodd" clip-rule="evenodd" fill="#43486C" d="M55.221,58.344c-0.098,0.155-0.197,0.31-0.295,0.464
			c-0.154,0.126-0.314,0.137-0.48,0.023c-0.062-0.015-0.123-0.032-0.183-0.052c0.072-0.232,0.145-0.465,0.217-0.698
			c0.062-0.031,0.128-0.045,0.198-0.043C54.79,58.264,54.998,58.318,55.221,58.344z"/>
		<path fill-rule="evenodd" clip-rule="evenodd" fill="#453744" d="M51.594,60.467c0.01-0.068,0.026-0.134,0.047-0.2
			c0.227-0.165,0.454-0.33,0.681-0.495c-0.021,0.484-0.327,0.741-0.731,0.92c-0.083-0.052-0.109-0.102-0.081-0.152
			C51.538,60.492,51.566,60.467,51.594,60.467z"/>
		<path fill-rule="evenodd" clip-rule="evenodd" fill="#3C4561" d="M49.903,59.006c-0.154,0.014-0.308,0.027-0.461,0.041
			c-0.151-0.158-0.134-0.313,0.006-0.468c0.062-0.032,0.128-0.05,0.198-0.055C49.953,58.565,50.146,58.669,49.903,59.006z"/>
		<path fill-rule="evenodd" clip-rule="evenodd" fill="#F2E2DC" d="M54.493,62.179c-0.669,0.507-1.405,0.412-2.149,0.238
			c0.376-0.437,1.077-0.253,1.426-0.743c0.143,0.068,0.285,0.135,0.428,0.203C54.448,61.829,54.543,61.932,54.493,62.179z"/>
		<path fill-rule="evenodd" clip-rule="evenodd" fill="#2C3347" d="M51.594,60.467c0,0.075-0.001,0.15-0.003,0.226
			c-0.153,0.101-0.307,0.201-0.46,0.302c-0.15,0.156-0.345,0.24-0.532,0.338c-0.096,0.053-0.198,0.086-0.306,0.102
			c-0.275-0.006-0.553,0.021-0.821-0.066c-0.318-0.129-0.623-0.279-0.812-0.587c-0.04-0.117-0.013-0.216,0.08-0.297
			c0.141,0.003,0.282,0.006,0.422,0.01c0.576,0.038,1.153,0.236,1.728-0.009C51.125,60.479,51.359,60.473,51.594,60.467z"/>
		<path fill-rule="evenodd" clip-rule="evenodd" fill="#4960A3" d="M54.226,59.466c0.098-0.053,0.196-0.106,0.294-0.159
			c0.264-0.196,0.442-0.19,0.458,0.196c-0.137,0.262-0.519,0.345-0.516,0.708C53.615,60.206,54.198,59.748,54.226,59.466z"/>
		<path fill-rule="evenodd" clip-rule="evenodd" fill="#D2A6A1" d="M52.325,61.184c-0.215,0.365-0.586,0.234-0.9,0.282
			c-0.086-0.034-0.117-0.073-0.094-0.118c0.024-0.047,0.049-0.071,0.076-0.071C51.736,61.481,51.939,60.425,52.325,61.184z"/>
		<path fill-rule="evenodd" clip-rule="evenodd" fill="#836866" d="M51.406,61.276c-0.013,0.065-0.006,0.127,0.019,0.189
			c-0.099,0.154-0.198,0.307-0.297,0.461c-0.014-0.196,0.051-0.431-0.244-0.485c-0.107-0.08-0.261-0.117-0.264-0.292
			c0.171-0.052,0.341-0.104,0.512-0.155C51.223,61.088,51.314,61.183,51.406,61.276z"/>
		<path fill-rule="evenodd" clip-rule="evenodd" fill="#E7BDB3" d="M54.493,62.179c-0.099-0.101-0.197-0.201-0.296-0.302
			c0.234-0.211,0.439-0.582,0.79-0.141C54.823,61.884,54.658,62.031,54.493,62.179z"/>
		<path fill-rule="evenodd" clip-rule="evenodd" fill="#566191" d="M49.448,58.579c-0.002,0.156-0.004,0.312-0.006,0.468
			c-0.331,0.34-0.418,0.108-0.472-0.2C49.129,58.758,49.289,58.668,49.448,58.579z"/>
		<g id="birdLeftTail">
			<path fill-rule="evenodd" clip-rule="evenodd" fill="#586397" d="M45.828,59.048c-0.923-0.534-1.167-1.547-1.676-2.373
				c-0.276-0.633-0.807-1.161-0.784-1.917c0.983-0.236,1.09,0.74,1.488,1.194c0.472,0.538,0.858,1.206,1.176,1.88
				c0.21,0.324,0.201,0.82,0.712,0.913c0.511,0.481,0.567,1.233,1.041,1.735l-0.012-0.035c0.229,0.249,0.265,0.535,0.162,0.846
				c-0.361,0.413-0.728,0.504-0.927-0.108c-0.127-0.392-0.382-0.677-0.595-1C46.068,59.881,46.028,59.424,45.828,59.048z"/>
			<path fill-rule="evenodd" clip-rule="evenodd" fill="#49547F" d="M46.591,59.99c0.384,0.479,0.768,0.957,1.151,1.436
				c0.215,0.11,0.309,0.299,0.344,0.527c-0.031,0.179-0.106,0.303-0.319,0.252c-0.402-0.033-0.803-0.065-1.205-0.098
				c-0.104-0.142-0.242-0.242-0.399-0.319c-0.214-0.098-0.454-0.149-0.612-0.345c-0.018-0.103,0.004-0.197,0.063-0.282
				c0.087-0.182,0.475-0.081,0.385-0.42c-0.354-0.251-0.708-0.494-0.776-0.963c0.014-0.111,0.062-0.207,0.142-0.286
				c0.079,0.02,0.158,0.04,0.237,0.06C45.97,59.612,46.229,59.918,46.591,59.99z"/>
			<path fill-rule="evenodd" clip-rule="evenodd" fill="#495681" d="M43.888,57.589c0.021,0.074,0.037,0.148,0.045,0.224
				c0.208,0.51,0.92,0.752,0.77,1.452c-0.611,0.161-0.719-0.437-1.051-0.697c-0.581-0.52-1.214-0.989-1.61-1.686
				c0.167-0.252,0.4-0.399,0.702-0.434c0.178-0.008,0.333,0.055,0.477,0.155l0.033,0.051l-0.04,0.047
				C43.65,56.837,43.684,57.278,43.888,57.589z"/>
			<path fill-rule="evenodd" clip-rule="evenodd" fill="#4E5473" d="M45.621,61.176c-0.008,0.08-0.017,0.161-0.025,0.24
				c-0.559,0.575-1.286,0.394-1.963,0.438c-0.358-0.032-0.637-0.249-0.944-0.4l0.026,0.014c-0.104-0.149-0.369-0.216-0.241-0.481
				c1.018-0.25-0.296-0.483-0.005-0.729c-0.1-0.101-0.103-0.205-0.007-0.31c0.663-0.209,1.081,0.298,1.589,0.542
				c0.36,0.505,0.981,0.351,1.454,0.573C45.543,61.101,45.583,61.138,45.621,61.176z"/>
			<path fill-rule="evenodd" clip-rule="evenodd" fill="#5A6698" d="M42.722,56.639c-0.226,0.082-0.453,0.163-0.679,0.244
				c-0.349-0.457-0.811-0.833-1.012-1.397c-0.117-0.322-0.461-0.577-0.292-0.984C41.978,54.677,42.341,55.666,42.722,56.639z"/>
			<path fill-rule="evenodd" clip-rule="evenodd" fill="#9BB1E7" d="M45.853,58.071c-0.739-1.167-1.207-2.528-2.418-3.354
				c-0.372-0.308-0.373-0.369-0.009-0.504c0.087,0.014,0.175,0.028,0.263,0.042c0.283,0.17,0.522,0.386,0.688,0.675
				c0.094,0.182,0.188,0.364,0.282,0.545c0.399,0.168,0.558,0.51,0.654,0.898c0.294,0.079,0.291,0.328,0.32,0.559
				c0.38,0.19,0.625,0.467,0.592,0.923C46.155,58.021,46.065,58.152,45.853,58.071z"/>
			<path fill-rule="evenodd" clip-rule="evenodd" fill="#373B4A" d="M46.103,57.804c-0.157-0.291-0.314-0.581-0.471-0.871
				c0.268-0.113,0.498,0.005,0.594,0.221c0.501,1.117,1.275,2.108,1.558,3.327c-0.725-0.339-0.665-1.219-1.174-1.708
				C46.196,58.579,46.225,58.152,46.103,57.804z"/>
			<path fill-rule="evenodd" clip-rule="evenodd" fill="#393843" d="M42.461,60.049c-0.025,0.071-0.022,0.141,0.007,0.209
				c-0.558-0.277-1.126-0.571-1.388-1.163c-0.092-0.208-0.472-0.438-0.192-0.7c0.229-0.213,0.481-0.003,0.734,0.119
				c0.361,0.174,0.682,0.35,0.83,0.743C41.877,59.529,42.893,59.781,42.461,60.049z"/>
			<path fill-rule="evenodd" clip-rule="evenodd" fill="#A0B7EB" d="M42.461,60.049c-0.307-0.28-0.613-0.561-0.939-0.858
				c0.39-0.259,0.623,0.214,0.93,0.067c0.602,0.63,1.455,0.777,2.195,1.139c0.101,0.119,0.106,0.242,0.017,0.369
				c-0.269,0.155-0.517,0.153-0.734-0.094C43.473,60.389,43.026,60.079,42.461,60.049z"/>
			<path fill-rule="evenodd" clip-rule="evenodd" fill="#9BB2E3" d="M42.722,56.639c-0.623-0.738-1.095-1.607-1.901-2.186
				c-0.143-0.16-0.143-0.32,0-0.48c0.969,0.175,1.159,1.108,1.676,1.724c0.292,0.171,0.515,0.409,0.692,0.694
				c0.029,0.068,0.041,0.14,0.033,0.214C43.055,56.616,42.889,56.627,42.722,56.639z"/>
			<path fill-rule="evenodd" clip-rule="evenodd" fill="#393747" d="M42.688,61.454c0.314,0.08,0.628,0.16,0.941,0.239
				c0.891,0.182,1.776-0.098,2.666-0.026c0.309,0.014,0.448,0.13,0.266,0.44C45.25,62.015,43.806,62.701,42.688,61.454z"/>
			<path fill-rule="evenodd" clip-rule="evenodd" fill="#343545" d="M43.653,58.569c0.331,0.234,0.662,0.468,0.993,0.702
				c0.456-0.119,0.518,0.291,0.708,0.528c0.191,0.426,0.649,0.563,0.945,0.876c-0.461,0.41-0.815,0.218-1.128-0.2
				c-0.053-0.483-0.384-0.741-0.772-0.953C44.013,59.311,43.663,59.073,43.653,58.569z"/>
			<path fill-rule="evenodd" clip-rule="evenodd" fill="#3D3A45" d="M43.425,54.213c-0.351,0.175-0.084,0.338,0.009,0.504
				c0.063,0.717,0.702,1.224,0.717,1.958c-0.679-0.511-0.857-1.319-1.171-2.038c-0.095-0.218-0.093-0.58,0.232-0.704
				C43.446,53.844,43.391,54.088,43.425,54.213z"/>
			<path fill-rule="evenodd" clip-rule="evenodd" fill="#8094C3" d="M45.17,60.475c0.384,0.021,0.706,0.396,1.128,0.2
				c0.158,0.077,0.425,0.043,0.392,0.322c-0.024,0.201-0.226,0.183-0.369,0.19c-0.233,0.011-0.467-0.005-0.7-0.01
				c0,0-0.006,0.009-0.006,0.009c-0.185-0.44-0.991,0.316-0.977-0.507c0.003-0.093,0.006-0.187,0.009-0.281
				C44.822,60.423,44.996,60.449,45.17,60.475z"/>
			<path fill-rule="evenodd" clip-rule="evenodd" fill="#58649B" d="M45.354,59.799c-0.236-0.176-0.472-0.352-0.708-0.528
				c0.019-0.611-0.786-0.82-0.712-1.458c0.808,0.277,0.92,1.149,1.432,1.678C45.362,59.594,45.357,59.696,45.354,59.799z"/>
			<path fill-rule="evenodd" clip-rule="evenodd" fill="#3A3F52" d="M40.821,53.972c0,0.16,0,0.32,0,0.481
				c0.07,0.344,0.14,0.688,0.21,1.033c-0.526-0.339-0.716-0.849-0.732-1.446c-0.093-0.275,0.036-0.336,0.278-0.287
				C40.658,53.826,40.739,53.899,40.821,53.972z"/>
			<path fill-rule="evenodd" clip-rule="evenodd" fill="#393B49" d="M46.591,59.99c-0.5,0.238-0.743-0.104-0.988-0.439
				c0.263-0.083,0.248-0.292,0.225-0.503C46.082,59.362,46.336,59.676,46.591,59.99z"/>
			<path fill-rule="evenodd" clip-rule="evenodd" fill="#36374C" d="M43.888,57.589c-0.429-0.141-0.409-0.622-0.674-0.888
				C43.946,56.613,43.98,57.053,43.888,57.589z"/>
			<path fill-rule="evenodd" clip-rule="evenodd" fill="#302B26" d="M42.474,60.987c0.081,0.16,0.161,0.32,0.241,0.481
				c-0.495-0.097-0.842-0.343-0.985-1.029C42.061,60.683,42.268,60.835,42.474,60.987z"/>
			<path fill-rule="evenodd" clip-rule="evenodd" fill="#4F4463" d="M40.576,53.752c-0.093,0.096-0.185,0.191-0.278,0.287
				c-0.379-0.305-0.319-0.719,0.047-0.829C40.729,53.097,40.46,53.575,40.576,53.752z"/>
			<path fill-rule="evenodd" clip-rule="evenodd" fill="#515479" d="M45.312,56.374c-0.218-0.3-0.437-0.599-0.655-0.898
				C45.349,55.431,45.432,55.829,45.312,56.374z"/>
			<path fill-rule="evenodd" clip-rule="evenodd" fill="#373443" d="M44.376,54.93c-0.302-0.151-0.573-0.334-0.688-0.675
				C44.164,54.228,44.417,54.429,44.376,54.93z"/>
			<path fill-rule="evenodd" clip-rule="evenodd" fill="#33313A" d="M43.189,56.39c-0.374-0.089-0.484-0.44-0.692-0.694
				C42.997,55.659,43.228,55.89,43.189,56.39z"/>
			<path fill-rule="evenodd" clip-rule="evenodd" fill="#8A9CD5" d="M46.103,57.804c0.169,0.323,0.338,0.646,0.508,0.969
				c-0.662,0.208-0.514-0.458-0.758-0.702C45.936,57.982,46.02,57.893,46.103,57.804z"/>
			<path fill-rule="evenodd" clip-rule="evenodd" fill="#8CA3DD" d="M46.295,61.667c-0.885,0.356-1.773,0.411-2.665,0.026
				c0.655-0.092,1.311-0.185,1.966-0.277C45.836,61.479,46.149,61.34,46.295,61.667z"/>
			<path fill-rule="evenodd" clip-rule="evenodd" fill="#49547F" d="M44.638,60.679c0.17,0.468,0.856-0.057,0.977,0.507
				c-0.59-0.078-1.326,0.322-1.685-0.514C44.166,60.674,44.402,60.677,44.638,60.679z"/>
		</g>
		<path fill-rule="evenodd" clip-rule="evenodd" fill="#545E8F" d="M48.74,60.484c0,0.068,0,0.136,0.003,0.204
			c0.11,0.217,0.208,0.438,0.186,0.69c-0.019,0.125-0.076,0.229-0.169,0.315c-0.148,0.152-0.324,0.209-0.533,0.155
			c0.088-0.457-0.166-0.975,0.249-1.373C48.563,60.479,48.651,60.481,48.74,60.484z"/>
		<path fill-rule="evenodd" clip-rule="evenodd" fill="#6F6660" d="M54.978,59.503c-0.101-0.185-0.27-0.214-0.458-0.196
			c-0.024-0.159-0.048-0.317-0.073-0.476c0.16-0.008,0.32-0.016,0.48-0.023c0.258,0.064,0.263,0.273,0.273,0.479
			C55.126,59.359,55.052,59.431,54.978,59.503z"/>
		<path fill-rule="evenodd" clip-rule="evenodd" fill="#DBC8C3" d="M48.76,61.694c-0.006-0.06-0.011-0.12-0.016-0.18
			c0.093-0.341,0.325-0.463,0.661-0.42c0.331,0.045,0.663,0.09,0.994,0.135c0.088,0.269-0.041,0.421-0.276,0.518
			c-0.861-0.229-0.196,0.777-0.687,0.848C49.695,61.93,49.025,61.964,48.76,61.694z"/>
		<path fill-rule="evenodd" clip-rule="evenodd" fill="#E5D5CF" d="M50.123,61.746c0.092-0.172,0.184-0.345,0.276-0.518
			c0.069-0.039,0.143-0.065,0.221-0.079c0.088,0.097,0.176,0.194,0.264,0.292c-0.166,0.228-0.331,0.456-0.496,0.684
			C50.155,62.099,50.143,61.92,50.123,61.746z"/>
		<path fill-rule="evenodd" clip-rule="evenodd" fill="#90A2DA" d="M50.89,60.485c-0.574,0.419-1.149,0.373-1.728,0.009
			C49.737,60.247,50.314,60.505,50.89,60.485z"/>
		<path fill-rule="evenodd" clip-rule="evenodd" fill="#4B4245" d="M54.754,57.366c-0.089,0.099-0.178,0.197-0.267,0.296
			c-0.194-0.007-0.458-0.005-0.36-0.285c0.08-0.228,0.206-0.552,0.565-0.433C54.753,56.964,54.736,57.219,54.754,57.366z"/>
		<path fill-rule="evenodd" clip-rule="evenodd" fill="#4A5580" d="M49.405,61.093c-0.313-0.007-0.463,0.245-0.661,0.42
			c0-0.275,0-0.55-0.001-0.825C48.964,60.823,49.184,60.958,49.405,61.093z"/>
	</g>
</g>
</svg>
