<?xml version="1.0" encoding="utf-8"?>
<!-- Generator: Adobe Illustrator 16.0.4, SVG Export Plug-In . SVG Version: 6.00 Build 0)  -->
<!DOCTYPE svg PUBLIC "-//W3C//DTD SVG 1.1//EN" "http://www.w3.org/Graphics/SVG/1.1/DTD/svg11.dtd">
<svg version="1.1" id="Layer_1" xmlns="http://www.w3.org/2000/svg" xmlns:xlink="http://www.w3.org/1999/xlink" x="0px" y="0px"
	 width="563.93px" height="751.906px" viewBox="0 0 563.93 751.906" enable-background="new 0 0 563.93 751.906"
	 xml:space="preserve">
<g>
	<g id="boat1">
		<path fill-rule="evenodd" clip-rule="evenodd" fill="#211715" d="M19.058,505.954c-0.402,0.995-0.804,1.99-1.206,2.985
			c-1.317,2.15-2.999,3.583-5.746,2.915c1.326-4.112,0.564-8.055-0.966-11.937c-0.367-2.299-0.28-4.455,1.855-5.977
			c0.042,1.611,0.085,3.223,0.127,4.833c-0.116,1.62-0.167,3.22,1.333,4.285c1.085-0.51-0.006-2.812,2.145-2.526
			C17.382,502.414,16.403,505.037,19.058,505.954z"/>
		<path fill-rule="evenodd" clip-rule="evenodd" fill="#1D1A19" d="M19.096,481.891c1.746,4.259,0.532,8.673,0.691,13.016
			c-1.216-0.006-2.431-0.012-3.646-0.018c-0.09-2.261-0.18-4.522-0.271-6.783C17.832,486.494,14.833,482.308,19.096,481.891z"/>
		<path fill-rule="evenodd" clip-rule="evenodd" fill="#3B3536" d="M16.141,494.889c1.215,0.006,2.43,0.012,3.646,0.018
			c-0.076,3.693,1.052,7.467-0.729,11.048c-2.655-0.917-1.676-3.54-2.458-5.421c-2.15-0.286-1.06,2.017-2.145,2.526
			c-1.5-1.065-1.448-2.665-1.333-4.285C16.967,499.685,15.543,496.502,16.141,494.889z"/>
		<path fill-rule="evenodd" clip-rule="evenodd" fill="#8E7D89" d="M16.141,494.889c-0.597,1.613,0.827,4.796-3.019,3.886
			c-0.042-1.61-0.084-3.222-0.127-4.833c0.374-2.024,0.747-4.05,1.12-6.073c0.585,0.079,1.17,0.158,1.755,0.237
			C15.96,490.366,16.051,492.628,16.141,494.889z"/>
		<path fill-rule="evenodd" clip-rule="evenodd" fill="#454441" d="M11.14,499.918c1.531,3.882,2.292,7.824,0.965,11.938
			c-0.052,0.397-0.102,0.794-0.153,1.189C8.825,508.847,9.511,504.412,11.14,499.918z"/>
		<path fill-rule="evenodd" clip-rule="evenodd" fill="#3D3131" d="M15.87,488.105c-0.585-0.079-1.17-0.158-1.755-0.237
			c-0.775-3.123,1.078-5.928,1.081-8.956c1.223,0.005,2.445,0.009,3.667,0.014c0.078,0.988,0.155,1.978,0.232,2.965
			C14.833,482.308,17.832,486.494,15.87,488.105z"/>
		<path fill-rule="evenodd" clip-rule="evenodd" fill="#312F2B" d="M11.952,513.045c0.051-0.396,0.101-0.792,0.153-1.189
			c2.748,0.667,4.43-0.766,5.747-2.916c0.521,2.246,0.099,4.243-1.958,5.473C14.206,515.421,13.103,513.993,11.952,513.045z"/>
		<path fill-rule="evenodd" clip-rule="evenodd" fill="#1D1A19" d="M18.863,478.926c-1.223-0.005-2.445-0.009-3.667-0.014
			c-0.004-0.981-0.009-1.964-0.013-2.946c0.312,0.001,0.622-0.025,0.928-0.081C17.263,476.686,18.429,477.475,18.863,478.926z"/>
		<path fill-rule="evenodd" clip-rule="evenodd" fill="#3D3131" d="M16.111,475.885c-0.307,0.056-0.616,0.082-0.928,0.081
			c0.042-0.262,0.083-0.523,0.124-0.785C15.575,475.415,15.843,475.65,16.111,475.885z"/>
	</g>
	<g id="boat3">
		<path fill-rule="evenodd" clip-rule="evenodd" fill="#48393A" d="M75.008,196.039c-3.281,5.34-7.923,9.324-12.915,12.958
			c-1.152-0.199-2.303-0.397-3.454-0.595c1.196-1.365,2.472-2.671,3.565-4.117c1.312-1.734,4.355-2.264,3.771-5.333l-0.007,0.01
			c0.669-0.007,1.04-0.312,1.016-1.014l-0.018,0.018c0.709,0.032,1.049-0.305,1.016-1.016c0,0-0.012,0.016-0.012,0.016
			c0.715,0.038,1.019-0.339,1.028-1.016l-0.038,0.03c1.947-0.21,3.762-0.598,4.062-3.021
			C74.438,193.5,74.975,194.607,75.008,196.039z"/>
		<path fill-rule="evenodd" clip-rule="evenodd" fill="#2D2220" d="M75.008,196.039c-0.033-1.432-0.569-2.539-1.986-3.079
			c-1.008-0.316-2.017-0.633-3.026-0.949c0.002-0.355,0.004-0.711,0.006-1.065c2.943,0.997,3.278-1.889,4.575-3.209
			c0.833-0.848,0.958-2.894,2.432-2.536c1.924,0.467,0.832,2.452,0.966,3.749C78.271,191.795,77.775,194.423,75.008,196.039z"/>
		<path fill-rule="evenodd" clip-rule="evenodd" fill="#35382C" d="M59.104,189.973c-0.687-2.139-1.373-4.277-1.953-6.083
			c4.653-4.414,8.285,0.503,12.368,1.324c1.15,0.231,0.353,2.388,0.316,3.672c-1.09-1.849-2.422-3.319-4.838-3.095
			c-2.167-1.221-4.302-2.429-4.038,1.82C61.038,188.869,60.577,189.857,59.104,189.973z"/>
		<path fill-rule="evenodd" clip-rule="evenodd" fill="#564A37" d="M59.104,189.973c1.473-0.115,1.934-1.104,1.855-2.362
			c-0.264-4.249,1.871-3.041,4.038-1.818c-0.481,2.761,0.226,5.202,1.979,7.362C64.018,192.92,61.758,190.958,59.104,189.973z"/>
		<path fill-rule="evenodd" clip-rule="evenodd" fill="#8C8166" d="M66.976,193.155c-1.753-2.16-2.46-4.601-1.979-7.362
			c2.416-0.226,3.748,1.245,4.838,3.093c0.056,0.687,0.111,1.373,0.167,2.06c-0.002,0.354-0.004,0.71-0.006,1.064
			c-0.012,0.329-0.017,0.658-0.014,0.986c-0.666-0.009-1.332-0.018-1.997-0.026c-0.36,0.019-0.72,0.038-1.081,0.057L66.976,193.155z
			"/>
		<path fill-rule="evenodd" clip-rule="evenodd" fill="#1A1816" d="M58.638,208.401c1.152,0.199,2.303,0.397,3.455,0.597
			c-2.44,2.665-5.058,4.907-9.077,3.832c-0.228-1.673,0.296-2.809,2.141-3.002C56.317,209.353,57.477,208.876,58.638,208.401z"/>
		<path fill-rule="evenodd" clip-rule="evenodd" fill="#313136" d="M55.158,209.827c-1.845,0.193-2.37,1.329-2.142,3.002
			c-1.794-1.21-2.16-2.481-1.156-4.663c1.1-2.391,2.338-3.75,5.049-3.28l0.063,0.07C57.43,206.976,54.099,207.584,55.158,209.827z"
			/>
		<path fill-rule="evenodd" clip-rule="evenodd" fill="#313136" d="M61.387,200.396c1.415-2.406,4.002-3.433,6.026-5.123
			c0.157,0.264,0.349,0.497,0.577,0.701c-0.017,0.33-0.023,0.661-0.02,0.992l0.012-0.016c-0.339,0.339-0.677,0.678-1.016,1.016
			l0.018-0.018c-0.339,0.338-0.677,0.676-1.016,1.014l0.007-0.01c-1.493,0.351-2.041,2.501-3.943,2.074
			C61.837,200.796,61.622,200.586,61.387,200.396z"/>
		<path fill-rule="evenodd" clip-rule="evenodd" fill="#313136" d="M67.985,192.97c0.665,0.009,1.331,0.018,1.997,0.026
			c-0.34,0.995-0.681,1.99-1.021,2.985c0,0,0.038-0.03,0.038-0.029c-0.336,0.008-0.672,0.015-1.008,0.022
			c-0.228-0.204-0.42-0.438-0.577-0.701c0.185-0.424,0.37-0.848,0.556-1.271C67.975,193.659,67.98,193.315,67.985,192.97z"/>
		<path fill-rule="evenodd" clip-rule="evenodd" fill="#313136" d="M57.938,203.925c0.68-0.655,1.361-1.311,2.042-1.966l0.01,0.013
			c0.17,1.513-0.423,2.253-2.01,1.987L57.938,203.925z"/>
		<path fill-rule="evenodd" clip-rule="evenodd" fill="#313136" d="M59.979,201.959c0.47-0.52,0.939-1.042,1.408-1.563
			c0.234,0.19,0.449,0.4,0.643,0.631c-0.375,0.975-1.1,1.193-2.041,0.945L59.979,201.959z"/>
		<path fill-rule="evenodd" clip-rule="evenodd" fill="#564A37" d="M67.985,192.97c-0.005,0.345-0.011,0.689-0.017,1.033
			c-0.354-0.326-0.708-0.651-1.063-0.977C67.265,193.008,67.625,192.989,67.985,192.97z"/>
		<path fill-rule="evenodd" clip-rule="evenodd" fill="#313136" d="M56.909,204.887c0.343-0.32,0.686-0.641,1.029-0.962l0.042,0.034
			c0.031,0.703-0.312,1.029-1.007,0.998L56.909,204.887z"/>
		<path fill-rule="evenodd" clip-rule="evenodd" fill="#7E6E74" d="M56.972,204.957c0.696,0.031,1.039-0.295,1.007-0.998
			c1.587,0.266,2.181-0.475,2.01-1.987c0.941,0.248,1.667,0.03,2.041-0.945c1.903,0.428,2.451-1.723,3.944-2.073
			c0.584,3.069-2.459,3.598-3.771,5.333c-1.093,1.445-2.369,2.751-3.565,4.117c-1.162,0.474-2.321,0.95-3.481,1.424
			C54.099,207.584,57.43,206.976,56.972,204.957z"/>
		<path fill-rule="evenodd" clip-rule="evenodd" fill="#7E6E74" d="M68.96,195.981c0.341-0.995,0.681-1.99,1.021-2.985
			c-0.003-0.328,0.002-0.657,0.014-0.986c1.009,0.317,2.018,0.634,3.026,0.95C72.722,195.384,70.908,195.771,68.96,195.981z"/>
		<path fill-rule="evenodd" clip-rule="evenodd" fill="#7E6E74" d="M67.99,195.975c0.336-0.008,0.672-0.015,1.008-0.022
			c-0.009,0.676-0.313,1.053-1.028,1.015C67.967,196.636,67.974,196.305,67.99,195.975z"/>
		<path fill-rule="evenodd" clip-rule="evenodd" fill="#7E6E74" d="M66.966,197.967c0.339-0.338,0.677-0.677,1.016-1.016
			C68.015,197.662,67.676,198,66.966,197.967z"/>
		<path fill-rule="evenodd" clip-rule="evenodd" fill="#7E6E74" d="M65.968,198.963c0.339-0.338,0.677-0.676,1.016-1.014
			C67.007,198.651,66.637,198.957,65.968,198.963z"/>
	</g>
	<g id="boat4">
		<path fill-rule="evenodd" clip-rule="evenodd" fill="#2F2520" d="M283.957,73.969c5.276-4.491,12.207-5.576,18.157-8.715
			c2.292-1.208,2.193,1.625,1.689,2.667c-1.013,2.095-2.308,4.183-4.711,5.11c-1.491-0.006-3.114-0.207-3.057,2.072l0.041-0.034
			c-1.379-0.369-2.757-0.739-4.135-1.108c0.361-0.64,0.723-1.278,1.084-1.918c0.132-0.162,0.264-0.323,0.396-0.484
			c-0.169,0.125-0.338,0.25-0.507,0.374c-2.003,0.458-3.957,0.992-4.941,3.083l0.007-0.006c-0.697-0.007-1.394-0.015-2.091-0.021
			c-0.635,0.017-1.271,0.033-1.906,0.05C283.976,74.682,283.967,74.326,283.957,73.969z M296.781,71.106
			c0.522-0.44,1.273-0.76,1.392-1.237c0.269-1.078-0.742-0.824-1.187-0.659c-0.528,0.197-0.932,0.732-1.389,1.122
			C295.942,70.558,296.287,70.783,296.781,71.106z"/>
		<path fill-rule="evenodd" clip-rule="evenodd" fill="#1C1311" d="M291.942,73.961c1.378,0.369,2.756,0.739,4.135,1.108
			c-1.774,1.313-3.789,1.902-5.974,1.982c-1.564,0.167-3.641-0.862-4.151,1.772c-0.333-0.004-0.667-0.008-1-0.012
			c-0.745-1.149-1.093-2.401-0.968-3.774c0.636-0.017,1.271-0.033,1.907-0.05c0.686,1.077,1.381,1.22,2.09,0.021l-0.007,0.006
			C289.46,75.276,290.682,74.547,291.942,73.961z"/>
		<path fill-rule="evenodd" clip-rule="evenodd" fill="#29221F" d="M283.984,75.039c-0.125,1.373,0.223,2.625,0.968,3.774
			c-1.568,0.354-3.42,0.21-3.805-1.324c-0.443-1.767,1.409-2.684,2.81-3.519C283.967,74.326,283.976,74.682,283.984,75.039z"/>
		<path fill-rule="evenodd" clip-rule="evenodd" fill="#29221F" d="M285.952,78.824c0.511-2.635,2.587-1.605,4.151-1.772
			C289.121,78.582,287.112,77.711,285.952,78.824z"/>
		<path fill-rule="evenodd" clip-rule="evenodd" fill="#1C1311" d="M296.036,75.104c-0.058-2.279,1.565-2.078,3.057-2.072
			C298.452,74.282,297.484,75.048,296.036,75.104z"/>
		<path fill-rule="evenodd" clip-rule="evenodd" fill="#5B3D38" d="M291.942,73.961c-1.261,0.586-2.482,1.314-3.968,1.055
			c0.984-2.092,2.938-2.625,4.941-3.083l0.111,0.111C292.665,72.684,292.304,73.322,291.942,73.961z"/>
		<path fill-rule="evenodd" clip-rule="evenodd" fill="#5B3D38" d="M296.781,71.106c-0.494-0.323-0.839-0.549-1.184-0.774
			c0.457-0.39,0.86-0.925,1.389-1.122c0.444-0.165,1.455-0.419,1.187,0.659C298.055,70.347,297.304,70.666,296.781,71.106z"/>
		<path fill-rule="evenodd" clip-rule="evenodd" fill="#5B3D38" d="M287.981,75.01c-0.709,1.199-1.404,1.056-2.09-0.021
			C286.588,74.996,287.284,75.003,287.981,75.01z"/>
		<path fill-rule="evenodd" clip-rule="evenodd" fill="#5B3D38" d="M292.916,71.933c0.169-0.124,0.338-0.249,0.507-0.374
			c-0.133,0.161-0.265,0.322-0.396,0.484C293.027,72.044,292.916,71.933,292.916,71.933z"/>
	</g>
	<g id="boat2">
		<path fill-rule="evenodd" clip-rule="evenodd" fill="#312F2B" d="M7.943,292.933c0.848-1.511,1.557-3.065,2.902-4.3
			c2.669-2.448,4.886-5.08,0.195-7.787c0.453-0.808,1.229-0.907,2.04-0.931c3.941,2.39,5.253,0.09,5.936-3.331
			c0.465-2.333-0.683-4.424-1-6.641l0.047-0.053c3.684,0.189,2.548,2.66,2.03,4.981c2.532,0.123,2.272-2.684,3.864-3.212
			c0.36,1.887-1.452,5.287,3.009,4.32c0.076,1.124,0.1,2.234-0.886,3.05c-2.993-1.062-4.725,0.001-5.045,3.137
			c-0.14,1.371-0.172,2.649-1.966,2.771c-1.333-0.029-2.385-0.016-3.151,1.606c-1.389,2.938-3.233,5.66-4.888,8.474
			c-0.018,0.538-0.035,1.076-0.053,1.615c-0.346,0.041-0.691,0.082-1.037,0.124C8.984,295.635,9.34,293.826,7.943,292.933z"/>
		<path fill-rule="evenodd" clip-rule="evenodd" fill="#312F2B" d="M25.752,269.748c0.591-1.703,2.155-3.378-0.382-4.989
			c-0.755-0.479-0.612-1.858,0.082-2.698c0.501-0.606,1.088-1.188,2.066-1.037c2.998,0.464,6.531,9.562,4.639,11.997
			c-0.709-0.018-1.419-0.035-2.129-0.053c-0.948,0.272-1.896,0.544-2.845,0.816C28.667,271.744,29.58,269.906,25.752,269.748z"/>
		<path fill-rule="evenodd" clip-rule="evenodd" fill="#93846B" d="M5.141,270.014c0.016-0.702,0.032-1.405,0.047-2.108
			c2.07-0.386,3.877,0.671,5.807,1.056c0.016,2.459,0.038,4.917,0.042,7.374c0.002,0.992,0.981,2.456-1.025,2.568
			c-1.484,0.083-1.643-1.032-2.015-2.229C7.283,274.376,8.388,271.228,5.141,270.014z"/>
		<path fill-rule="evenodd" clip-rule="evenodd" fill="#504937" d="M5.141,270.014c3.247,1.214,2.142,4.362,2.857,6.661
			c0.372,1.197,0.531,2.312,2.015,2.229c2.006-0.112,1.027-1.576,1.025-2.568c-0.004-2.458-0.027-4.915-0.042-7.374
			c0.242-0.055,0.488-0.08,0.737-0.077c0.532,3.667,0.106,7.45,1.349,11.03c-0.811,0.023-1.587,0.123-2.041,0.931
			c-1.792,0-3.585,0-5.757,0C7.266,277.064,5.113,273.593,5.141,270.014z"/>
		<path fill-rule="evenodd" clip-rule="evenodd" fill="#7A707D" d="M9.941,296.757c0.346-0.042,0.691-0.083,1.037-0.123
			c0.68,0.423,1.36,0.846,2.041,1.268c-2.587,2.927-4.417,6.812-9.046,7.158c-0.363-0.064-0.725-0.129-1.088-0.193
			c0.755-0.994,1.511-1.988,2.266-2.981C8.738,302.035,7.934,298.082,9.941,296.757z"/>
		<path fill-rule="evenodd" clip-rule="evenodd" fill="#20302D" d="M9.941,296.757c-2.008,1.325-1.203,5.278-4.791,5.128
			c0.198-3.212,0.62-6.356,2.792-8.952C9.34,293.826,8.984,295.635,9.941,296.757z"/>
		<path fill-rule="evenodd" clip-rule="evenodd" fill="#3D3229" d="M2.885,304.866c0.363,0.064,0.725,0.129,1.088,0.193
			c-0.771,5.202,2.847,2.782,5.013,2.884l0.089,0.087c-1.427,2.069-3.212,3.685-6.066,4.655
			C3.691,309.917,1.668,307.504,2.885,304.866z"/>
		<path fill-rule="evenodd" clip-rule="evenodd" fill="#7E6E74" d="M25.752,269.748c3.828,0.158,2.916,1.996,1.429,4.038
			c-0.071,0.731-0.143,1.463-0.213,2.193c-4.46,0.968-2.649-2.432-3.009-4.319c0.244-0.242,0.488-0.484,0.732-0.727
			c0.654-0.101,1.153-0.376,1.245-1.108L25.752,269.748z"/>
		<path fill-rule="evenodd" clip-rule="evenodd" fill="#312F2B" d="M11.731,268.884c-0.248-0.002-0.494,0.023-0.736,0.078
			c-1.93-0.385-3.737-1.442-5.807-1.056c-0.567-2.646,1.449-1.712,2.655-1.926c2.468-0.438,4.598,0.741,6.836,1.402
			c-0.262,0.245-0.524,0.49-0.787,0.735C13.087,268.133,12.25,268.062,11.731,268.884z"/>
		<path fill-rule="evenodd" clip-rule="evenodd" fill="#272219" d="M30.027,272.968c0.709,0.018,1.419,0.035,2.129,0.053
			c-0.6,3.14-1.541,6.163-3.096,8.973c-0.454-0.015-0.907-0.029-1.357-0.044C28.479,278.956,29.253,275.962,30.027,272.968z"/>
		<path fill-rule="evenodd" clip-rule="evenodd" fill="#3D3229" d="M27.699,281.95c0.454,0.014,0.907,0.028,1.36,0.043
			c-1.65,3.026-3.3,6.053-4.949,9.079l-0.126-0.117C23.742,287.342,25.374,284.502,27.699,281.95z"/>
		<path fill-rule="evenodd" clip-rule="evenodd" fill="#3D3229" d="M21.119,296.077c-1.134,3.107-3.102,5.598-5.667,7.645
			c-0.206-0.298-0.412-0.595-0.616-0.892c1.52-2.768,2.707-5.833,6.155-6.874L21.119,296.077z"/>
		<path fill-rule="evenodd" clip-rule="evenodd" fill="#3D3229" d="M14.912,304.279c-1.182,1.668-2.945,2.326-4.829,2.771
			l-0.097-0.1c0.089-2.548,2.802-1.81,3.89-3.105C14.221,303.99,14.566,304.135,14.912,304.279z"/>
		<path fill-rule="evenodd" clip-rule="evenodd" fill="#3D3229" d="M24.11,291.072c0.099,1.719-0.295,3.191-2.014,3.996
			l-0.113-0.114c-0.101-1.718,0.129-3.268,2-3.999L24.11,291.072z"/>
		<path fill-rule="evenodd" clip-rule="evenodd" fill="#312F2B" d="M14.679,267.383c1.176,0.771,2.904,0.8,3.385,2.508
			c0,0-0.047,0.053-0.047,0.054c-1.751,0.242-2.84-1.015-4.125-1.827C14.155,267.873,14.417,267.628,14.679,267.383z"/>
		<path fill-rule="evenodd" clip-rule="evenodd" fill="#3D3229" d="M10.083,307.051c-0.336,0.326-0.673,0.652-1.008,0.979
			c0.001,0.001-0.088-0.086-0.088-0.086c0.333-0.331,0.667-0.662,1-0.993L10.083,307.051z"/>
		<path fill-rule="evenodd" clip-rule="evenodd" fill="#3D3229" d="M15.453,303.722c-0.096,0.267-0.276,0.453-0.541,0.558
			c-0.346-0.145-0.691-0.289-1.035-0.433c0.32-0.339,0.639-0.679,0.958-1.019C15.041,303.126,15.247,303.424,15.453,303.722z"/>
		<path fill-rule="evenodd" clip-rule="evenodd" fill="#3D3229" d="M22.097,295.068c-0.327,0.336-0.652,0.671-0.979,1.008
			c0.001,0.001-0.126-0.12-0.126-0.12c0.331-0.334,0.662-0.668,0.992-1.002L22.097,295.068z"/>
		<path fill-rule="evenodd" clip-rule="evenodd" fill="#312F2B" d="M25.935,269.825c-0.092,0.732-0.59,1.008-1.245,1.108
			C25.108,270.566,24.876,269.471,25.935,269.825z"/>
		<path fill-rule="evenodd" clip-rule="evenodd" fill="#735147" d="M21.984,294.954c-0.331,0.334-0.661,0.668-0.992,1.002
			c-3.448,1.041-4.635,4.106-6.155,6.874c-0.321,0.338-0.64,0.678-0.96,1.017c-1.089,1.295-3.802,0.557-3.891,3.104
			c-0.333,0.331-0.666,0.662-1,0.993c-2.166-0.103-5.784,2.317-5.013-2.884c4.629-0.347,6.458-4.231,9.046-7.157
			c2.298-1.445,5.57-2.083,4.938-5.958l0.014-0.014c0.331-0.331,0.663-0.662,0.994-0.992l-0.001-0.005
			c3.693-3.179,4.658-7.988,7.118-11.905c0.985-0.816,0.961-1.927,0.885-3.05c0.071-0.731,0.142-1.463,0.213-2.194
			c0.949-0.273,1.897-0.545,2.846-0.817c-0.773,2.994-1.547,5.988-2.324,8.981c-2.329,2.553-3.961,5.393-3.718,9.006
			C22.113,291.686,21.883,293.236,21.984,294.954z"/>
		<path fill-rule="evenodd" clip-rule="evenodd" fill="#968163" d="M13.893,268.118c1.285,0.812,2.373,2.069,4.125,1.827
			c0.317,2.215,1.465,4.306,1,6.64c-0.683,3.42-1.995,5.72-5.936,3.331c-1.242-3.58-0.816-7.363-1.348-11.03
			C12.25,268.062,13.087,268.133,13.893,268.118z"/>
		<path fill-rule="evenodd" clip-rule="evenodd" fill="#7E6E7A" d="M11.031,295.018c1.655-2.813,3.5-5.536,4.888-8.474
			c0.767-1.622,1.818-1.636,3.151-1.606c1.942,2.034-0.739,3.986-0.106,5.997l0.001,0.005c-0.68-0.019-0.944,0.38-0.994,0.992
			l-0.014,0.014C16.031,293.832,14.21,295.957,11.031,295.018z"/>
		<path fill-rule="evenodd" clip-rule="evenodd" fill="#4B2D31" d="M18.964,290.935c-0.633-2.011,2.048-3.962,0.106-5.997
			c1.794-0.122,1.826-1.4,1.966-2.771c0.32-3.136,2.053-4.199,5.045-3.137C23.622,282.946,22.657,287.756,18.964,290.935z"/>
		<path fill-rule="evenodd" clip-rule="evenodd" fill="#4B2D31" d="M11.031,295.018c3.18,0.939,5-1.187,6.926-3.073
			c0.632,3.875-2.64,4.512-4.938,5.958c-0.68-0.423-1.36-0.846-2.041-1.269C10.996,296.094,11.013,295.556,11.031,295.018z"/>
		<path fill-rule="evenodd" clip-rule="evenodd" fill="#4B2D31" d="M17.971,291.931c0.05-0.612,0.314-1.01,0.994-0.992
			C18.634,291.27,18.302,291.601,17.971,291.931z"/>
	</g>
</g>
</svg>
