<?xml version="1.0" encoding="utf-8"?>
<!-- Generator: Adobe Illustrator 16.0.4, SVG Export Plug-In . SVG Version: 6.00 Build 0)  -->
<!DOCTYPE svg PUBLIC "-//W3C//DTD SVG 1.1//EN" "http://www.w3.org/Graphics/SVG/1.1/DTD/svg11.dtd">
<svg version="1.1" id="Layer_1" xmlns="http://www.w3.org/2000/svg" xmlns:xlink="http://www.w3.org/1999/xlink" x="0px" y="0px"
	 width="563.93px" height="751.906px" viewBox="0 0 563.93 751.906" enable-background="new 0 0 563.93 751.906"
	 xml:space="preserve">
<g id="church">
	<path fill-rule="evenodd" clip-rule="evenodd" fill="#2A2024" d="M396.963,442.728c-8.279,3.726-16.496,7.599-24.869,11.1
		c-3.171,1.325-6.524,1.285-8.177-2.781c-0.422-0.677-0.709-1.413-0.976-2.159c-0.363-1.548-0.307-3.059,0.414-4.503
		c2.37,0.385,2.996-0.501,1.887-2.628c-0.323-0.862-0.662-1.724-0.464-2.678c0.351-0.882,0.927-1.616,1.521-2.342
		c0.31-0.362,0.661-0.678,1.042-0.964c4.529-1.029,8.156-4.799,13.172-4.366c1.193,0.911,0.531,1.742-0.253,2.345
		c-1.334,1.023-2.387,2.206-2.909,3.822c-0.28,0.345-0.633,0.586-1.063,0.716c-0.22-0.001-0.44-0.007-0.659-0.002
		c-1.63-0.381-2.36,0.437-2.572,1.94c-0.152,0.657-0.396,1.271-0.825,1.803c-0.366,0.267-0.774,0.437-1.21,0.539
		c-1.001,0.168-1.729,0.665-1.872,1.73c-0.193,1.436,0.485,0.436,0.87,0.272c1.108-0.465,2.112-0.188,3.089,0.353
		c0.955,0.954,1.854,2.082,3.417,1.001c0.874-0.208,1.746-0.384,2.626-0.544c0.454-0.084,0.911-0.127,1.37-0.153
		c4.581-0.782,8.397-3.882,13.043-4.344C394.868,440.755,397.523,439.061,396.963,442.728z"/>
	<path fill-rule="evenodd" clip-rule="evenodd" fill="#1A1716" d="M396.963,442.728c-4.222-2.212-7.53,0.892-11.145,2.008
		c-1.924,0.595-3.478,2.589-5.82,1.318c-0.418-1.961,3.662-1.709,2.076-4.249c-0.045-2.485-0.915-5.452,3.206-5.497
		c2.136,4.707,2.136,4.707,4.883,1.679c0.517-0.445,1.116-0.676,1.797-0.684c0.415,0.047,0.813,0.172,1.186,0.354
		c0.766,0.389,1.517,0.29,2.256-0.114c1.696-1.858,1.836-3.863,0.622-5.997c-0.229-0.335-0.439-0.689-0.65-1.034
		c-0.336-0.486-0.665-0.984-1.126-1.364c-1.478-0.343-2.402,0.352-3.05,1.573c-0.188,0.39-0.417,0.757-0.665,1.111
		c-0.272,0.34-0.597,0.622-0.96,0.861c-0.553,0.349-1.137,0.637-1.756,0.857c-0.429,0.121-0.865,0.169-1.31,0.156
		c-0.441-0.061-0.848-0.221-1.225-0.457c-1.13-2.475,2.347-2.795,2.236-4.799c0.851-1.704,2.619-2.205,4.07-3.124
		c1.191-0.59,2.011-1.546,2.645-2.69c0.434-0.556,0.938-0.943,1.701-0.716c1.182,0.735,1.924,1.849,2.609,3.012
		c0.434,0.933,0.767,1.953,1.973,2.207c0.431,0.098,0.83,0.256,1.217,0.46c0.992,0.756,1.251,1.797,1.167,2.964
		c0.009,0.452-0.248,0.925,0.073,1.369c-0.023-0.337-0.052-0.668,0.079-1c0.326-0.824,0.92-1.319,1.777-1.518
		c0.467,0.014,0.872,0.179,1.216,0.492c3.969,2.189,3.758,4.77,0.316,7.084C403.324,439.033,400.54,441.55,396.963,442.728z"/>
	<path fill-rule="evenodd" clip-rule="evenodd" fill="#34241A" d="M395.914,421.931c-0.388,0.427-0.775,0.854-1.163,1.28
		c-1.071,0.113-1.805-0.449-2.439-1.211c-1.601-3.712-4.081-4.731-7.726-2.658c-1.257,0.716-2.72,1.049-3.963,1.836
		c-1.323,0.998-2.713,1.852-4.406,2.046c-3.255,0.692-6.521,0.896-9.805,0.195c-0.168-0.169-0.335-0.339-0.502-0.51
		c0.016-1.494-0.16-3.021,0.09-4.476c0.429-2.497,1.745-1.751,3.031-0.604c-0.001,1.321-0.635,3.19,1.962,2.27
		c3.514-1.065,7.215-1.749,9.444-5.203c0.568-0.881,1.728-1.396,2.643-0.926c5.478,2.812,5.217-1.171,4.857-4.341
		c-0.486-4.288,1.574-8.85-1.466-12.957c-0.431-0.581,1.58-0.381,2.388-0.761c1.604-0.609,2.062,0.449,2.424,1.654
		c-0.703,1.901-0.795,3.896-0.84,5.895c-1.712,5.858,1.709,10.308,4.135,15.023c0.472,0.971,1.278,1.763,1.565,2.838
		C396.068,421.524,395.991,421.728,395.914,421.931z"/>
	<path fill-rule="evenodd" clip-rule="evenodd" fill="#644133" d="M398.994,370.902c2.718,1.844,1.322,4.708,1.766,7.117
		c0.012,3.842-0.961,6.99-5.416,7.685c-0.676,0.09-1.283-0.084-1.829-0.493c0.997,0.811,2.289,1.286,2.909,2.53
		c0.504,0.977,0.794,2.027,1.033,3.096c0.065,0.435,0.051,0.868-0.016,1.302c-0.373,1.242-0.641,2.559-2.023,3.156
		c-1.494,0.192-3.008,0.497-4.339-0.577c-3.992-1.252-0.625-4.637-1.937-6.672c-0.222-0.891-0.256-1.718,0.747-2.192
		c1.604-2.011,2.562-4.229,2.199-6.868c-0.194-0.646,0.146-0.935,0.715-1.069c0.333-0.271,0.686-0.512,1.06-0.721
		c0.598-0.204,1.224-0.295,1.828-0.445C397.794,375.361,396.469,372.036,398.994,370.902z"/>
	<path fill-rule="evenodd" clip-rule="evenodd" fill="#221411" d="M389.143,388.045c0.053,1.22,3.364,1.302,0.896,3.647
		c-1.562,1.482,1.985,0.984,1.946,2.425c0.314,2.672,1.751,1.398,2.982,0.849c0.654-0.993,1.31-1.987,1.965-2.98
		c0.907-0.993,2.018-1.117,3.238-0.765c0.427,0.182,0.757,0.482,1.001,0.876c-0.09,1.197-0.94,1.591-1.94,1.85
		c-0.388,0.1-0.833-0.008-1.162,0.309c0.479,0.116,0.939,0.271,1.347,0.562c2.168,2.453,4.419-1.051,6.601,0.091
		c1.299,0.461,4.6,0.15,0.973,2.513c-1.739,1.135-0.627,3.035-1.22,4.475c-1.229-0.197-2.396-0.021-3.491,0.594
		c-1.518,0.352-2.805,1.423-4.437,1.419c-0.715,0.004-1.396-0.143-2.046-0.439c-1.996-1.608-4.324-2.946-4.812-5.807
		c-0.708-0.583-1.416-1.167-2.123-1.751C388.087,393.259,387.625,390.616,389.143,388.045z"/>
	<path fill-rule="evenodd" clip-rule="evenodd" fill="#412518" d="M406.016,394.908c-1.106,0.629-2.283,1.161-3.305,1.906
		c-2.487,1.812-3.402,0.609-3.771-1.828c-1.133-2.17,3.216-0.797,1.966-3.042l0.029,0.05c-0.836-1.144-0.183-2.896-1.478-3.868
		c-1.423,0.559,1.117,4.269-2.46,2.93c-1.356-0.718-1.006-2.033-1.116-3.188c-0.451-0.931-1.46-1.65-1.097-2.892
		c4.292-0.344,4.166-4.482,5.975-6.958C402.512,383.647,404.264,389.277,406.016,394.908z"/>
	<path fill-rule="evenodd" clip-rule="evenodd" fill="#302B21" d="M363.819,448.651c0.033,0.799,0.065,1.597,0.098,2.395
		c-8.183-3.193-7.386-10.897-8.676-17.506c-0.08-0.412,1.088-1.068,1.675-1.611c1.858-0.321,1.782,1.245,2.25,2.285
		c0.117,2.422,2.711,3.137,3.528,5.08C364.035,442.298,361.824,445.726,363.819,448.651z"/>
	<path fill-rule="evenodd" clip-rule="evenodd" fill="#232228" d="M402.161,431.255c-0.308-1.226-0.038-2.698-1.47-3.444
		c-0.09-0.36-0.373-0.679-0.627-0.542c-0.188,0.102-0.122,0.583-0.093,0.902c-3.785,0.936-1.212-2.204-2.031-3.169
		c1.218-2.26,3.064-4.165,3.561-6.876c-0.743-0.296-1.816,0.649-2.739-0.099c-0.418-0.631-0.458-1.296-0.183-1.992
		c1.321-1.476,3.234-1.747,4.948-2.431c0.482-0.076,0.913,0.038,1.281,0.366c0.438,5.31-0.437,10.722,1.237,15.936
		c-0.366,0.014-0.731,0.026-1.098,0.04C403.311,428.875,403.465,431.616,402.161,431.255z"/>
	<path fill-rule="evenodd" clip-rule="evenodd" fill="#46341F" d="M358.055,435.134c-0.13-1.156,0.104-2.442-1.139-3.205
		c3.047-2.958,3.208-8.793,8.994-9.02l0.082,0.042c1.075,0.87,4.944,0.184,1.845,3.38c-1.563,1.611-0.726,3.452-0.13,5.118
		c0.729,2.04,0.698,3.852-0.763,5.53l-0.255,0.093c-3.086-1.226-2.507-4.737-4.35-6.931c-1.684,0.561-1.642,2.137-1.963,3.469
		C360.073,434.866,359.634,435.852,358.055,435.134z"/>
	<path fill-rule="evenodd" clip-rule="evenodd" fill="#3D2A19" d="M394.009,377.956c-0.401-0.014-0.803-0.027-1.205-0.041
		c0.22-3.719,2.806-6.898,2.369-10.808c-0.144-1.283,1.005-2.066,2.262-2.136c1.984-0.111,1.252,1.487,1.365,2.478
		c0.131,1.144,0.135,2.302,0.194,3.453c-0.422,2.021-1.375,3.923-1.117,6.098c0.199,1.683-0.862,1.279-1.809,0.893
		C395.291,374.991,394.68,377.431,394.009,377.956z"/>
	<path fill-rule="evenodd" clip-rule="evenodd" fill="#3F3A46" d="M404.809,413.971l-0.389-0.012l-0.389,0.019
		c-1.944-1.514-0.8-3.799-1.444-5.607c-0.627-0.104-1.249,0.003-1.843-0.171c-0.602-0.327-1.035-0.8-1.289-1.435
		c-0.09-0.434-0.088-0.867,0.014-1.3c0.262-0.623,0.741-1.047,1.268-1.454c0.696-0.54,2.83-0.199,1.363-2.129
		c1.227-0.849,2.454-2.188,3.669,0.014C404.688,405.86,405.005,409.936,404.809,413.971z"/>
	<path fill-rule="evenodd" clip-rule="evenodd" fill="#422713" d="M392.089,378.984c1.762,2.815-0.645,4.845-1.379,7.187
		c-0.016,0.052-0.32,0.067-0.456,0.014c-0.143-0.057-0.244-0.217-0.364-0.332C390.623,383.563,391.355,381.273,392.089,378.984z"/>
	<path fill-rule="evenodd" clip-rule="evenodd" fill="#60624E" d="M370.993,420.099c-1.245,0.838-2.767,2.167-3.896,0.444
		c-1.016-1.549,0.501-2.342,1.934-2.714C369.686,418.586,370.339,419.342,370.993,420.099z"/>
	<path fill-rule="evenodd" clip-rule="evenodd" fill="#87503D" d="M366.944,436.979c0.642-1.991-0.136-3.747-0.609-5.659
		c-0.497-2.013-2.529-4.697,1.104-6.225c0.726-0.305,0.558-0.673-1.446-2.145c3.33-0.339,6.659-0.677,9.99-1.015
		c2.158,1.142,2.892,3.462,4.292,5.798c1.92-3.059-1.383-5.316-0.282-7.76c1.658-0.688,3.412-1.206,4.954-2.095
		c4.427-2.553,6.968-1.191,8.054,3.59c0.927,1.824,0.646,3.396-0.98,4.687c-1.466,0.92-2.933,1.841-4.398,2.762
		c-1.647,2.242-3.871,3.171-6.619,2.904C376.315,433.542,371.63,435.26,366.944,436.979z"/>
	<path fill-rule="evenodd" clip-rule="evenodd" fill="#C5B9A0" d="M358.055,435.134c1.623-2.571,1.706-5.981,4.657-8.274
		c1.358,3.487,2.668,6.851,3.978,10.213c0.19,1.381-0.501,1.903-1.792,1.842c-0.207-0.038-0.413-0.076-0.616-0.107
		c-0.503-0.179-0.994-0.441-1.55-0.299c-0.245,0.221-0.527,0.381-0.831,0.502C360.663,437.674,357.482,438.267,358.055,435.134z"/>
	<path fill-rule="evenodd" clip-rule="evenodd" fill="#42393E" d="M381.002,431.822c2.209-0.968,4.417-1.937,6.622-2.904
		c1.525,0.756,1.274,1.372-0.005,2.244c-0.627,0.428-2.507,0.198-1.496,1.961c-2.012,3.252-5.354,4.223-8.75,5.102
		c-0.191-0.141-0.383-0.283-0.575-0.427C375.213,433.705,379.777,433.938,381.002,431.822z"/>
	<path fill-rule="evenodd" clip-rule="evenodd" fill="#E3DDDC" d="M361.9,439.01c0.022-0.449,0.044-0.898,0.066-1.349
		c1.283-0.189,2.066,0.734,2.988,1.347l-0.058-0.094c0.409,0.624,0.818,1.248,1.228,1.872c1.409,2.39-2.074,1.781-2.04,3.329
		c-0.088,1.512-0.177,3.024-0.266,4.536C360.445,445.981,362.964,442.14,361.9,439.01z"/>
	<path fill-rule="evenodd" clip-rule="evenodd" fill="#0F0E18" d="M377.098,446.925c-1.443,0.231-2.983,0.859-3.921-0.964
		c-0.71-0.461-0.873-1.23-1.108-1.959c-0.045-1.291,0.242-2.469,1.188-3.415c2.056-0.777,3.109,0.172,3.222,2.134
		C376.559,444.155,377.21,445.48,377.098,446.925z"/>
	<path fill-rule="evenodd" clip-rule="evenodd" fill="#97909C" d="M364.085,444.115c-1.046-2.167,1.883-1.898,2.04-3.328
		c1.784,2.635,0.509,5.384,1.152,8.848C364.28,447.962,365.625,445.33,364.085,444.115z"/>
	<path fill-rule="evenodd" clip-rule="evenodd" fill="#9B9AAF" d="M370.155,445.031c-0.612,1.17,0.504,2.972-1.616,4.011
		c-1.072-2.155-0.716-4.3-0.578-6.287c0.151-2.201,1.337-2.499,2.855-0.818C371.138,443.083,370.854,444.102,370.155,445.031z"/>
	<path fill-rule="evenodd" clip-rule="evenodd" fill="#42393E" d="M377.098,446.925c-2.969-1.05,0.222-5.381-3.275-6.149
		c-0.063-1.413,0.875-2.072,1.967-2.616c0.337-0.12,0.674-0.239,1.01-0.36c-0.001-0.001,0.209,0.188,0.209,0.188
		c1.687,1.685,0.856,4.037,1.598,5.972c0.182,0.431,0.303,0.878,0.379,1.338c0.006,0.232,0.007,0.465,0.008,0.697
		C378.609,446.811,377.875,446.91,377.098,446.925z"/>
	<path fill-rule="evenodd" clip-rule="evenodd" fill="#8C8C9F" d="M375.789,438.159c0.57,1.794-1.286,1.763-1.967,2.616
		c-1.142,0.682-0.752,1.935-1.092,2.917c-1.709,0.104-1.265-0.915-0.969-1.856c0.065-0.641,0.131-1.281,0.195-1.922
		c1.006-1.199,1.581-3.332,3.857-1.78L375.789,438.159z"/>
	<path fill-rule="evenodd" clip-rule="evenodd" fill="#42393E" d="M375.814,438.134c-1.568-0.019-2.656,1.005-3.857,1.78
		c-0.121-1.563,0.241-2.864,1.957-3.317C375.193,436.258,375.539,437.177,375.814,438.134z"/>
	<path fill-rule="evenodd" clip-rule="evenodd" fill="#474759" d="M371.762,441.836c0.322,0.619,0.646,1.237,0.969,1.856
		c0.147,0.756,0.295,1.512,0.444,2.269c-1.006-0.31-2.013-0.62-3.02-0.93c-0.152-1.111-0.392-2.241,0.661-3.095
		C371.13,441.894,371.445,441.86,371.762,441.836z"/>
	<path fill-rule="evenodd" clip-rule="evenodd" fill="#42393E" d="M382.682,442.892c1.218,2.849-1.992,1.936-2.684,3.161
		c-0.336-0.02-0.671-0.04-1.006-0.06c0,0.001-0.104-0.173-0.104-0.173c-0.339-2.029,1.256-2.461,2.574-3.127
		C381.897,442.58,382.303,442.656,382.682,442.892z"/>
	<path fill-rule="evenodd" clip-rule="evenodd" fill="#8F91A2" d="M382.682,442.892l-0.421-0.029l-0.386,0.17
		c-2.425-1.944-2.857,0.862-4.106,1.722c-1.673-2.097-0.482-4.514-0.761-6.767c3.039-1.622,6.077-3.244,9.115-4.865
		c0.181,0.034,0.357,0.024,0.533-0.028c1.422,0.972,1.604,2.398,1.299,3.906c-0.186,0.914-0.502,2.062-1.742,1.838
		c-0.862-0.156-0.708-1.363-1.223-1.973C381.55,437.851,383.703,440.979,382.682,442.892z"/>
	<path fill-rule="evenodd" clip-rule="evenodd" fill="#9793B5" d="M398.972,417.913c1.455-0.105,2.853-1.871,4.372-0.152
		c-2.487,1.324-0.371,4.734-2.743,6.079c-0.837,0.475-1.77,0.779-2.659,1.162c-1.221-0.664-1.916-1.676-2.027-3.071l0.222,0.08
		C396.62,420.325,394.794,417.042,398.972,417.913z"/>
	<path fill-rule="evenodd" clip-rule="evenodd" fill="#242129" d="M395.154,428.933c0.268,0.334,0.535,0.668,0.803,1.001
		c-0.467,0.458-0.867,0.953-0.918,1.535c0.117-0.544,0.445-1.081,0.925-1.529c3.275,3.021,3.212,6.003-0.106,8.946
		c-0.737-0.918-2.089,0.1-2.803-0.892l-0.151-0.166c-0.797-0.869-1.148-1.915-1.231-3.071c-0.115-1.433-0.086-2.858,0.241-4.27
		C392.513,428.972,393.317,427.869,395.154,428.933z"/>
	<path fill-rule="evenodd" clip-rule="evenodd" fill="#242128" d="M384.99,436.865c0.609-0.563,1.388,2.764,1.819-0.045
		c0.186-1.206-0.088-2.482-0.153-3.727c0.383-0.06,0.766-0.118,1.148-0.178c1.066,0.599,1.138,1.732,1.481,2.718
		c0.24,1.027,1.319,1.467,1.703,2.396c-0.236,0.439-0.59,0.854-0.688,1.323c-0.376,1.798-1.322,3.364-3.201,3.132
		c-1.755-0.215-1.321-2.398-1.965-3.651C384.858,438.294,385.025,437.527,384.99,436.865z"/>
	<path fill-rule="evenodd" clip-rule="evenodd" fill="#9291A2" d="M392.863,431.042c-0.004,1.254-0.009,2.508-0.013,3.761
		c-0.666,1.074-1.247,2.959-2.779,1.966c-1.846-1.196-1.161-3.185-0.28-4.888c0.088-0.271,0.174-0.542,0.259-0.813
		C390.979,430.121,391.917,430.135,392.863,431.042z"/>
	<path fill-rule="evenodd" clip-rule="evenodd" fill="#413C46" d="M389.791,431.881c0.061,0.648,0.072,1.307,0.191,1.944
		c0.164,0.876-0.626,2.241,0.607,2.497c0.622,0.129,1.499-0.974,2.261-1.52c0.018,1.01,0.036,2.02,0.054,3.027
		c-0.64,0.064-1.277,0.132-1.915,0.199c-1.104-0.128-2.41,0.191-2.897-1.306c0.892-1.438-0.131-3.183,0.739-4.625
		C389.147,432.011,389.468,431.938,389.791,431.881z"/>
	<path fill-rule="evenodd" clip-rule="evenodd" fill="#42393E" d="M392.863,431.042c-0.938,0.009-1.875,0.017-2.813,0.025
		c-0.108-3.449,2.85-3.14,4.866-3.73c0.662-0.194,0.195,1.022,0.235,1.596C393.741,428.931,392.937,429.589,392.863,431.042z"/>
	<path fill-rule="evenodd" clip-rule="evenodd" fill="#A39DA2" d="M402.161,431.255c0.989-0.307-0.007-4.842,2.787-1.309
		C403.943,430.221,403.975,432.703,402.161,431.255z"/>
	<path fill-rule="evenodd" clip-rule="evenodd" fill="#877164" d="M392.02,426.156c0.327-1.561,0.654-3.12,0.98-4.684
		c0.584,0.577,1.169,1.156,1.752,1.737C395.198,425.452,393.623,425.817,392.02,426.156z"/>
	<path fill-rule="evenodd" clip-rule="evenodd" fill="#9D9AAF" d="M399.972,428.171c-1.518-0.677-1.222-1.645-0.324-2.571
		c0.257-0.265,1.021-0.442,1.243-0.268c1.077,0.853-0.071,1.644-0.199,2.479C400.399,427.826,400.159,427.946,399.972,428.171z"/>
	<path fill-rule="evenodd" clip-rule="evenodd" fill="#474040" d="M393.055,437.994c0.987,0.133,2.165-0.334,2.803,0.893
		C395.201,437.712,392.786,442.072,393.055,437.994z"/>
	<path fill-rule="evenodd" clip-rule="evenodd" fill="#6A6977" d="M388.831,432.099c-0.005,1.582,0.682,3.273-0.739,4.627
		c-0.095-1.271-0.19-2.54-0.286-3.81C388.146,432.644,388.489,432.371,388.831,432.099z"/>
	<path fill-rule="evenodd" clip-rule="evenodd" fill="#C8BAAC" d="M394.092,419.765c-2.079-4.744-6.798-8.575-5.089-14.624
		c0.212-0.749,0.658-1.433,0.996-2.146c0.162,0.16,0.325,0.321,0.49,0.479c0.153,0.647,0.04-0.221,0.221,0.417
		c0.381,1.35-0.146,3.817,2.701,2.309c1.131,2.291,0.917,5.03,2.441,7.188C396.032,415.727,397.429,418.405,394.092,419.765z"/>
	<path fill-rule="evenodd" clip-rule="evenodd" fill="#CBBCA9" d="M390.982,397.662c1.498,1.952,3.985,2.948,5.097,5.273
		c0.875,1.323,1.265,2.776-0.161,3.835c-1.202,0.894-1.967-0.422-2.787-1.096c-1.714-0.181-2.386-1.573-3.219-2.777l0.087,0.098
		C390.206,401.195,387.091,398.782,390.982,397.662z"/>
	<path fill-rule="evenodd" clip-rule="evenodd" fill="#6D3927" d="M379.992,419.975c0.857,1.778,1.708,3.56,2.574,5.333
		c0.926,1.894-0.602,2.88-1.698,3.593c-1.63,1.061-1.721-0.859-2.196-1.688c-0.981-1.71-1.804-3.512-2.69-5.275
		C377.846,422.359,378.781,420.885,379.992,419.975z"/>
	<path fill-rule="evenodd" clip-rule="evenodd" fill="#535562" d="M394.092,419.765c1.78-2.088,0.435-4.562,0.841-6.82
		c-0.709-2.075-2.588-4.604,1.815-4.71c1.056,0.809,1.383,2.021,1.759,3.203c0.184,0.654,0.242,1.326,0.209,2.001
		c-0.031,0.821,0.012,1.645,0.184,2.458c0.024,0.673,0.049,1.345,0.072,2.017c-2.831,0.061-1.536,2.977-2.836,4.098
		C395.455,421.262,394.773,420.514,394.092,419.765z"/>
	<path fill-rule="evenodd" clip-rule="evenodd" fill="#7B4E3E" d="M396.998,391.056c0.299-0.13,0.866-0.29,0.855-0.386
		c-0.169-1.508-2.072-3.125,0.204-4.447c0.837-0.486,2.024-0.562,2.668,0.369c1.178,1.701,1.652,3.545,0.21,5.402
		c-1.334-0.003-2.669-0.006-4.003-0.009C396.94,391.675,396.963,391.364,396.998,391.056z"/>
	<path fill-rule="evenodd" clip-rule="evenodd" fill="#7B625A" d="M394.967,394.966c-0.354,0.745-0.103,2.332-1.586,1.646
		c-1.012-0.468-2.572-0.605-2.645-2.241c-0.003-0.067,0.812-0.171,1.248-0.256C392.584,395.785,394.295,393.55,394.967,394.966z"/>
	<path fill-rule="evenodd" clip-rule="evenodd" fill="#5E483C" d="M394.009,377.956c0.421-1.461,0.842-2.922,1.363-4.732
		c1.811,1.683-0.058,3.336,0.694,4.668C395.382,377.913,394.695,377.935,394.009,377.956z"/>
	<path fill-rule="evenodd" clip-rule="evenodd" fill="#895F58" d="M394.785,384.977c0.557,0.893,1.291,1.717,1.098,2.892
		C395.139,387.049,392.578,386.917,394.785,384.977z"/>
	<path fill-rule="evenodd" clip-rule="evenodd" fill="#343134" d="M396.779,408.854c-3.663-0.013-1.043,2.812-1.847,4.09
		c-3.916-1.492-1.232-4.784-1.949-7.149c-0.014-0.196-0.027-0.393-0.041-0.589c3.076,2.049,3.052-0.187,3.137-2.271
		c0.713,0.07,1.427,0.14,2.141,0.209c0.317,0.959,1.038,1.642,1.651,2.398c0.017,0.403,0.033,0.808,0.05,1.211
		C399.564,408.487,398.369,408.966,396.779,408.854z"/>
	<path fill-rule="evenodd" clip-rule="evenodd" fill="#A2A4B6" d="M399.871,405.543c-0.887-0.021-1.987,0.714-2.582-0.376
		c-0.469-0.86,0.482-1.401,0.93-2.022c1.636,0.628,2.21-2.002,3.881-1.263C405.677,405.731,399.84,403.852,399.871,405.543z"/>
	<path fill-rule="evenodd" clip-rule="evenodd" fill="#825C54" d="M400.906,391.944c1.226,0.218,2.014,0.647,0.593,1.711
		c-0.765,0.572-2.02,0.269-2.559,1.331c-1.562-0.235-2.214-0.755-0.494-1.832C399.217,392.672,400.083,392.343,400.906,391.944z"/>
	<path fill-rule="evenodd" clip-rule="evenodd" fill="#918C9E" d="M396.779,408.854c1.048-0.7,2.095-1.4,3.142-2.101
		c0.458,0.413,0.915,0.826,1.373,1.239c0.658,0.818,0.549,1.83,0.694,2.778c-0.145-1.313,0.182-2.532,0.731-3.707
		c0.865-1.096,1.299-0.692,1.323,0.451c0.046,2.153-0.003,4.308-0.012,6.462c-1.333,1.648-3.096,2.15-5.132,1.92
		c-1.545,0.052-2.686-0.124-1.054-1.866c0.955-0.769,2.195-1.546-0.074-2.206C396.726,411.074,397.073,409.857,396.779,408.854z"/>
	<path fill-rule="evenodd" clip-rule="evenodd" fill="#1A1525" d="M402.72,407.064c0.104,2.166,0.948,4.452-0.95,6.833
		c-1.742-2.219-0.641-4.097-0.476-5.904C401.769,407.684,402.244,407.374,402.72,407.064z"/>
	<path fill-rule="evenodd" clip-rule="evenodd" fill="#5A5644" d="M364.955,439.008c-0.996-0.448-1.992-0.896-2.988-1.346
		c-0.23-0.417-0.683-0.858-0.641-1.245c0.076-0.698,0.785-0.483,1.065-0.229C363.333,437.04,364.763,437.475,364.955,439.008z"/>
	<path fill-rule="evenodd" clip-rule="evenodd" fill="#15141F" d="M377.769,444.754c0.401-2.071,0.167-4.398,2.041-5.972
		c1.904,1.114,0.296,3.426,2.065,4.25c-0.995,0.931-1.99,1.861-2.985,2.79C378.516,445.465,378.142,445.109,377.769,444.754z"/>
	<path fill-rule="evenodd" clip-rule="evenodd" fill="#9B98A6" d="M395.964,429.939c-0.094,1.885,0.435,3.849-1.102,5.552
		c-0.19-1.921-3.3-4.206,1.095-5.558L395.964,429.939z"/>
	<path fill-rule="evenodd" clip-rule="evenodd" fill="#34241A" d="M392.942,405.206c-0.021,0.198-0.007,0.396,0.041,0.589
		c-2.199,1.227-0.009,3.763-1.629,5.256c-2.752-2.327-0.792-5.486-1.442-8.153C390.922,403.667,391.932,404.437,392.942,405.206z"/>
	<path fill-rule="evenodd" clip-rule="evenodd" fill="#1C1729" d="M397.771,411.825c0.569-0.858-0.395-2.716,1.338-2.672
		c1.259,0.032,1.247,1.696,0.939,2.37c-0.435,0.951,1.082,4.036-2.203,2.508C397.821,413.296,397.797,412.561,397.771,411.825z"/>
</g>
</svg>
