<?xml version="1.0" encoding="utf-8"?>
<!-- Generator: Adobe Illustrator 16.0.4, SVG Export Plug-In . SVG Version: 6.00 Build 0)  -->
<!DOCTYPE svg PUBLIC "-//W3C//DTD SVG 1.1//EN" "http://www.w3.org/Graphics/SVG/1.1/DTD/svg11.dtd">
<svg version="1.1" id="Layer_1" xmlns="http://www.w3.org/2000/svg" xmlns:xlink="http://www.w3.org/1999/xlink" x="0px" y="0px"
	 width="267.121px" height="312.24px" viewBox="0 0 267.121 312.24" enable-background="new 0 0 267.121 312.24"
	 xml:space="preserve">
<g id="couldron">
	<path fill-rule="evenodd" clip-rule="evenodd" fill="#D5854F" d="M126.801,243.648c1.749-0.177,3.338-0.867,4.938-1.525
		c0.223,0.074,0.238,0.248,0.211,0.441c-1.494,1.062-3.291,1.133-4.99,1.523c-0.04-0.081-0.08-0.161-0.121-0.241
		c-0.004-0.08-0.027-0.152-0.071-0.219L126.801,243.648z"/>
	<path fill-rule="evenodd" clip-rule="evenodd" fill="#4E4541" d="M125.956,243.573c0.202-0.22,0.478-0.225,0.745-0.252
		c0.034,0.109,0.067,0.218,0.101,0.327c0,0-0.032-0.021-0.032-0.021C126.498,243.609,126.227,243.591,125.956,243.573z"/>
	<path fill-rule="evenodd" clip-rule="evenodd" fill="#B37747" d="M106.09,242.109c0.01,0.067,0.012,0.135,0.005,0.203
		c0,0.105,0,0.209,0,0.313c-0.028,0.031-0.056,0.062-0.084,0.094c-0.135-0.106-0.271-0.213-0.406-0.32
		c0.025-0.062,0.046-0.125,0.065-0.189C105.811,242.176,105.951,242.143,106.09,242.109z"/>
	<path fill-rule="evenodd" clip-rule="evenodd" fill="#332E2C" d="M105.605,242.399c0.135,0.106,0.271,0.213,0.406,0.319
		c0.506,0.21,1.011,0.42,1.517,0.631c-1.427,0.282-2.549-0.363-3.612-1.188C104.479,242.241,105.042,242.32,105.605,242.399z"/>
	<path fill-rule="evenodd" clip-rule="evenodd" fill="#58504C" d="M119.997,245.993c-0.918,1.256-2.238,0.69-3.377,0.646
		c-1.337-0.051-2.662-0.42-4.015-0.391c-0.585,0.013-1.131-0.091-1.584-0.435c-0.947-0.72-1.966-1.311-3.038-1.885
		c2.36,0.799,4.851,0.786,7.233,1.363c-0.078,0.722,0.406,0.712,0.905,0.708C117.413,245.992,118.705,245.995,119.997,245.993z"/>
	<path fill-rule="evenodd" clip-rule="evenodd" fill="#B37747" d="M126.961,244.087c-0.833,0.709-1.831,0.915-2.886,0.943
		c-0.343-0.002-0.688-0.008-0.736,0.461c-1.03,0.077-2.06,0.154-3.09,0.232c-0.011-0.347,0.322-0.431,0.49-0.641
		c1.461-0.199,2.929-0.37,4.325-0.89c0.593-0.116,1.185-0.231,1.777-0.346C126.881,243.927,126.921,244.007,126.961,244.087z"/>
	<path fill-rule="evenodd" clip-rule="evenodd" fill="#7F634E" d="M120.739,245.083c-0.168,0.21-0.501,0.294-0.49,0.641
		c-0.084,0.089-0.168,0.18-0.252,0.27c-1.292,0.002-2.583-0.001-3.875,0.008c-0.499,0.003-0.983,0.014-0.905-0.708
		C117.078,245.753,118.912,245.5,120.739,245.083z"/>
	<path fill-rule="evenodd" clip-rule="evenodd" fill="#D5854F" d="M110.428,243.991c0.048-0.103,0.111-0.301,0.141-0.296
		c1.465,0.235,3.009-0.086,4.408,0.613c0.151,0.017,0.302,0.034,0.453,0.05c-0.001,0.114-0.002,0.229-0.003,0.342
		C113.742,244.592,112.057,244.493,110.428,243.991z"/>
	<path fill-rule="evenodd" clip-rule="evenodd" fill="#332E2C" d="M124.804,243.84c0.158-0.081,0.315-0.162,0.472-0.243
		c0.227-0.008,0.454-0.016,0.68-0.024c0.271,0.018,0.542,0.036,0.813,0.054c0.043,0.067,0.067,0.14,0.071,0.219
		c-0.592,0.115-1.184,0.229-1.777,0.346C124.977,244.075,124.89,243.958,124.804,243.84z"/>
	<path fill-rule="evenodd" clip-rule="evenodd" fill="#7F634E" d="M123.339,245.492c0.047-0.469,0.393-0.463,0.736-0.461
		c0.003,0.206-0.046,0.387-0.241,0.498C123.669,245.516,123.504,245.504,123.339,245.492z"/>
	<path fill-rule="evenodd" clip-rule="evenodd" fill="#C07548" d="M118.802,244.664c0.244-0.032,0.488-0.064,0.732-0.096
		C119.312,244.769,119.068,244.805,118.802,244.664z"/>
	<path fill-rule="evenodd" clip-rule="evenodd" fill="#C07548" d="M117.823,244.75c0.16-0.205,0.33-0.205,0.51-0.027
		C118.163,244.732,117.993,244.741,117.823,244.75z"/>
	<path fill-rule="evenodd" clip-rule="evenodd" fill="#D5854F" d="M107.979,242.136c0.459,0.569,0.159,0.8-0.396,0.697
		c-0.495-0.092-0.981-0.208-1.488-0.208c0-0.104,0-0.208,0-0.313c0.217,0.011,0.434,0.022,0.651,0.034
		c0.099-0.055,0.197-0.11,0.295-0.166C107.354,242.166,107.667,242.15,107.979,242.136z"/>
	<path fill-rule="evenodd" clip-rule="evenodd" fill="#B37747" d="M107.042,242.181c-0.098,0.055-0.197,0.11-0.295,0.166
		C106.845,242.291,106.943,242.236,107.042,242.181z"/>
	<g id="couldronBottom">
		<path fill-rule="evenodd" clip-rule="evenodd" fill="#443B38" d="M99.573,261.866c-1.504-1.532-1.661-3.577-1.851-5.503
			c-0.266-2.692-0.067-5.401,0.909-7.986c0.002,0.164,0.005,0.328,0.008,0.492c-0.133,0.86-0.305,1.716-0.391,2.581
			c-0.138,1.394-0.162,2.783,0.639,4.028c-0.054-1.155,0.08-2.278,0.149-3.414c0.072-1.174,0.81-2.218,0.538-3.418
			c0.008-1.022,0.877-1.82,0.745-2.878c0.057-0.508,0.273-0.456,0.635-0.231c0.57,0.355,1.167,0.67,1.768,0.97
			c2.699,1.347,5.608,1.972,8.565,2.339c2.358,0.293,4.725,0.644,7.112,0.5c1.658-0.099,3.31-0.305,4.964-0.462
			c0.035,0.487,0.313,0.725,0.784,0.708c0.712-0.025,1.422,0.072,2.138-0.12c1.687-0.452,3.406-0.771,4.973-1.623
			c0.428-0.233,1.023-0.561,1.538-0.127c0.369,0.312,0.345,3.022-0.026,3.372c-0.64,0.602-0.95,1.341-0.733,2.157
			c0.295,1.108,0.143,2.219,0.215,3.327c0,0.074-0.001,0.148-0.003,0.223c-0.552,1.337-1.844,0.58-2.771,0.933
			c0.563,0.248,1.111,0.371,1.66,0.495c0.122,0.027,0.209,0.091,0.097,0.21c-0.046,0.049-0.146,0.048-0.222,0.07
			c-0.272-0.009-0.546-0.034-0.817-0.021c-0.311,0.015-0.708,0.042-0.7,0.437c0.008,0.387,0.407,0.241,0.653,0.275
			c0.35,0.048,0.84-0.166,0.86,0.476c-0.827-0.35-1.43,0.286-2.133,0.484c-0.686-1.21-1.538-0.654-2.379-0.225
			c-0.133-1.026-0.313-1.054-1.458-0.228c-0.231,0-0.463-0.001-0.694-0.002c-0.789-0.087-1.591-0.432-2.286,0.337
			c-0.237,0.263-0.709,0.076-0.855-0.165c-0.485-0.802-0.836-0.386-1.22,0.057c-0.917,0.192-1.404-1.077-2.376-0.7
			c-0.09-0.092-0.18-0.185-0.271-0.276c0.008-0.433,0.055-0.87,0.013-1.298c-0.036-0.375,0.257-1.012-0.411-1.02
			c-0.583-0.006-0.513,0.581-0.521,1.008c-0.004,0.196,0.015,0.393,0.023,0.589c-0.312-0.015-0.432-0.484-0.806-0.354
			c-0.143,0.355,0.461,0.686,0.082,0.971c-0.336,0.253-0.758,0.098-1.13-0.083c-0.281-0.137-0.546-0.215-0.901-0.159
			c-1.493,0.236-2.997,0.402-4.497,0.594c-0.222-0.082-0.438-0.212-0.665-0.234c-0.453-0.042-1.027,0.016-0.935,0.592
			c0.078,0.486,0.592-0.051,0.892,0.095c0.093,0.091,0.186,0.183,0.279,0.274c-0.018,0.076-0.027,0.152-0.026,0.23
			c-0.576-0.001-0.727,0.416-0.804,0.862c-0.135,0.784-0.662,0.853-1.316,0.824c-0.292-0.013-0.575-0.323-0.906-0.03
			c0.427,0.839,1.406,0.234,1.991,0.711c-0.248,0.277-0.455,0.509-0.662,0.741c-0.932-0.3-1.927-0.48-2.777-0.934
			c-0.894-0.476-2.001-0.286-2.778-1.105c-1.073-1.132-1.343-1.018-1.873,0.601L99.573,261.866z M99.358,258.723
			c0,0.315,0.167,0.469,0.474,0.486c0.192,0.308,0.395,0.589,0.824,0.332c-0.168-0.393-0.51-0.321-0.811-0.347
			c-0.161-0.158-0.322-0.316-0.483-0.475c-0.142-0.251-0.282-0.506-0.645-0.549C98.753,258.623,99.042,258.69,99.358,258.723z
			 M100.766,256.938c-0.103-0.404-0.176-0.833-0.327-1.233c-0.083-0.219-0.467-0.404-0.501-0.099c-0.075,0.67-0.19,1.15-1.003,1.105
			c-0.052-0.002-0.201,0.332-0.163,0.371c0.393,0.403,0.873,0.678,1.451,0.637C100.666,257.688,100.779,257.347,100.766,256.938z
			 M105.286,257.725c-0.921-0.323-1.432-0.153-1.875,0.28c-0.042,0.041-0.004,0.262,0.054,0.293
			C104.135,258.661,104.52,258.106,105.286,257.725z M104.243,260.616c0.013,0.532,0.251,0.854,0.73,0.944
			c0.083,0.016,0.274-0.101,0.271-0.148C105.207,260.812,104.623,260.835,104.243,260.616z"/>
		<path fill-rule="evenodd" clip-rule="evenodd" fill="#332E2C" d="M98.638,248.869c-0.002-0.164-0.005-0.328-0.008-0.492
			c0.014-0.393,0.082-0.756,0.23-1.14c0.458-1.184,1.125-2.288,1.026-3.674c-0.057-0.793,0.437-1.562,1.054-2.123
			c0.435-0.395,0.95-0.757,1.543-0.2c0.478,0.308,0.956,0.617,1.434,0.925c-0.587,0.057-1.105-0.121-1.556-0.487
			c-0.331-0.269-0.617-0.253-0.963,0c-1.448,1.057-1.353,2.937,0.199,3.766c1.837,0.982,3.824,1.522,5.813,2.099
			c3.552,1.031,7.213,1.135,10.839,1.228c2.3,0.059,4.652-0.307,6.943-0.837c2.629-0.608,5.312-1.014,7.708-2.379
			c0.415-0.236,0.958-0.365,0.526-1.02c-0.049-0.761-0.354-1.437-0.703-2.097c-0.222-0.421-0.479-0.761-0.983-0.315
			c-1.6,0.658-3.19,1.349-4.938,1.525c-0.034-0.109-0.067-0.218-0.101-0.328c1.324-0.461,2.776-0.557,3.973-1.383
			c0.618-0.322,1.724-0.208,1.299-1.458c0.006-0.07,0.018-0.139,0.037-0.206c0.662,0.316,0.722,1.027,1.008,1.58
			c0.691,1.334,0.675,1.343,1.874,1.71c0.225,0.726,0.671,1.402,0.504,2.217c-0.009,0.311-0.019,0.622-0.028,0.933l-0.008,0.001
			c-0.315-0.16-0.298-0.653-0.714-0.71c-0.672-0.299-1.261-0.125-1.894,0.206c-2.94,1.541-6.09,2.375-9.387,2.673
			c-1.655,0.158-3.306,0.363-4.964,0.462c-2.387,0.143-4.754-0.208-7.112-0.5c-2.958-0.368-5.867-0.993-8.565-2.339
			c-0.601-0.3-1.198-0.615-1.768-0.97c-0.362-0.225-0.579-0.277-0.635,0.231c-1.011,0.784-1.181,1.964-1.457,3.094
			C98.787,248.865,98.712,248.868,98.638,248.869z"/>
		<path fill-rule="evenodd" clip-rule="evenodd" fill="#8C5344" d="M108.958,266.373c-1.632-0.388-3.29-0.681-4.832-1.383
			c0.315-0.153,0.07-0.328,0.02-0.496c0.275-0.5,2.636-1.109,3.047-0.784c0.028,0.022,0.042,0.065,0.057,0.102
			c0.25,0.652,0.823,0.61,1.375,0.687c0.568,0.079,1.2,0.098,1.535,0.712C109.724,265.561,108.917,265.528,108.958,266.373z"/>
		<path fill-rule="evenodd" clip-rule="evenodd" fill="#884D37" d="M126.992,266.34c-0.785,0.568-1.702,0.171-2.543,0.349
			c-3.848,0.812-7.706,1.027-11.595,0.243c-1.035-0.208-2.109-0.218-3.166-0.32c-0.029-0.346-0.114-0.733,0.466-0.629
			c1.038,0.707,2.253,0.295,3.372,0.528c2.311,0.479,4.643,0.526,6.989,0.187c2.135-0.309,4.281-0.536,6.422-0.799
			C126.955,266.046,126.974,266.193,126.992,266.34z"/>
		<path fill-rule="evenodd" clip-rule="evenodd" fill="#8A5A4D" d="M135.867,260.66c-0.1,0.236-0.2,0.473-0.3,0.708
			c-0.578,0.08-0.75,0.439-0.672,0.972l0.005-0.006c-0.846-0.227-1.061,0.779-1.734,0.888c-0.12-0.273,0.333-1.171-0.543-0.628
			c-1.181,0.732-2.499,1.104-3.741,1.668c-0.602-0.263-1.069,0.483-1.671,0.223c-0.083,0.077-0.167,0.155-0.25,0.232
			c-0.104,0.191-0.281,0.226-0.477,0.222c-0.001-0.229-0.003-0.459-0.005-0.688c1.315-0.406,2.674-0.712,3.934-1.249
			c1.147-0.489,2.431-0.811,3.267-1.871c0.758-0.097,1.117-0.984,1.93-0.973C135.604,260.373,135.645,260.563,135.867,260.66z"/>
		<path fill-rule="evenodd" clip-rule="evenodd" fill="#42392C" d="M135.867,260.66c-0.222-0.097-0.263-0.287-0.26-0.5l-0.011,0.01
			c0.08-0.083,0.159-0.165,0.239-0.247c0.363-0.398,0.353-0.799,0.012-1.205c0.001-0.08-0.001-0.159-0.007-0.239
			c0.463-0.909-0.004-2.051,0.724-2.894c0.241-0.121,0.361-0.364,0.329-0.583c-0.19-1.311,0.03-2.675-0.496-3.942
			c-0.267-1.286-0.533-2.572-0.8-3.858l0.021-0.02c1.699,3.457,2.026,7.049,1.239,10.812
			C136.655,258.962,136.539,259.895,135.867,260.66z M136.5,256.807c-0.018-0.032-0.035-0.064-0.052-0.097
			c-0.023,0.028-0.062,0.055-0.064,0.085c-0.003,0.03,0.03,0.064,0.048,0.096C136.454,256.863,136.477,256.835,136.5,256.807z"/>
		<path fill-rule="evenodd" clip-rule="evenodd" fill="#52423A" d="M126.992,266.34c-0.019-0.147-0.037-0.294-0.056-0.44
			c0.64-0.301,1.28-0.603,1.92-0.904c0.569-0.085,1.139-0.171,1.709-0.256c0.088,0.079,0.177,0.157,0.266,0.235
			C129.638,265.67,128.3,265.964,126.992,266.34z"/>
		<path fill-rule="evenodd" clip-rule="evenodd" fill="#332E2C" d="M130.832,264.975c-0.089-0.079-0.178-0.157-0.266-0.235
			c0.866-0.506,1.733-1.011,2.599-1.517c0.674-0.109,0.889-1.115,1.735-0.888C133.903,263.769,132.293,264.257,130.832,264.975z"/>
		<path fill-rule="evenodd" clip-rule="evenodd" fill="#443B38" d="M101.732,263.792c-0.929-0.407-1.793-0.887-2.159-1.925
			l0.034-0.032c0.866,0.475,1.774,0.903,2.158,1.92L101.732,263.792z"/>
		<path fill-rule="evenodd" clip-rule="evenodd" fill="#B37747" d="M135.395,245.78c0.167-0.815-0.279-1.491-0.504-2.217
			C136.227,244.36,136.309,244.716,135.395,245.78z"/>
		<path fill-rule="evenodd" clip-rule="evenodd" fill="#443B38" d="M104.146,264.494c0.05,0.167,0.295,0.343-0.02,0.496
			c-0.844-0.308-1.77-0.453-2.395-1.198l0.033-0.037C102.705,263.532,103.242,264.604,104.146,264.494z"/>
		<path fill-rule="evenodd" clip-rule="evenodd" fill="#ECA455" d="M110.154,265.983c-0.58-0.104-0.495,0.283-0.466,0.629
			c-0.309,0.12-0.493-0.141-0.73-0.239c-0.042-0.845,0.766-0.812,1.203-1.163c0.05,0.059,0.108,0.105,0.177,0.139
			c0.004,0.187,0.007,0.374,0.011,0.561C110.275,265.911,110.21,265.936,110.154,265.983z"/>
		<path fill-rule="evenodd" clip-rule="evenodd" fill="#332E2C" d="M134.895,262.34c-0.078-0.533,0.095-0.893,0.672-0.972
			C135.65,261.905,135.222,262.088,134.895,262.34z"/>
		<path fill-rule="evenodd" clip-rule="evenodd" fill="#42392C" d="M135.367,246.713c0.305,0.038,0.221,0.285,0.252,0.469
			l-0.021,0.02c-0.285-0.062-0.256-0.277-0.239-0.487L135.367,246.713z"/>
		<path fill-rule="evenodd" clip-rule="evenodd" fill="#52443E" d="M136.564,255.585c-0.728,0.843-0.261,1.985-0.724,2.894
			c-0.197,0.008-0.379,0.045-0.485,0.237c-0.08,0.08-0.16,0.16-0.241,0.239c-0.08,0.079-0.16,0.158-0.24,0.237
			c-0.192,0.105-0.236,0.284-0.241,0.482c-0.08,0.079-0.161,0.157-0.241,0.235c-0.104,0.036-0.208,0.071-0.312,0.107
			c0.022,0.03,0.061,0.088,0.063,0.086c0.091-0.055,0.178-0.116,0.265-0.176c0.079-0.08,0.157-0.161,0.236-0.241
			c0.188-0.105,0.237-0.282,0.243-0.48c0.079-0.08,0.158-0.16,0.237-0.24c0.08-0.08,0.16-0.16,0.239-0.241
			c0.161-0.002,0.322-0.005,0.483-0.008c0.34,0.405,0.351,0.807-0.012,1.205c-0.08,0.083-0.159,0.165-0.239,0.247l0.011-0.01
			c-0.812-0.011-1.171,0.876-1.929,0.973c0-0.44,0.006-0.8-0.65-0.537c-0.947,0.381-1.923,0.499-2.971,0.322
			c-0.864-0.146-1.659,0.133-1.896,1.163c-0.08,0.079-0.16,0.159-0.241,0.238c-0.08,0.001-0.159,0.002-0.239,0.002
			c-0.08,0-0.16,0-0.241,0c-0.198-0.003-0.377-0.043-0.483-0.235c0.156-0.585-0.471-0.912-0.476-1.444
			c0.73-0.497,1.552-0.539,2.394-0.482c0.703-0.198,1.306-0.834,2.133-0.484c0.063,0.307,0.2,0.577,0.526,0.283
			c0.971-0.876-0.275-0.99-0.522-1.449c0.075-0.022,0.175-0.021,0.222-0.07c0.112-0.119,0.025-0.183-0.097-0.21
			c-0.548-0.125-1.097-0.247-1.66-0.495c0.928-0.353,2.22,0.404,2.771-0.933c0.159,0.396,0.308,0.798,0.484,1.187
			c0.093,0.206,0.212,0.479,0.497,0.378c0.269-0.095,0.172-0.393,0.199-0.614c0.399,0.226,0.681,0.247,0.967-0.241
			c0.854-1.456,0.506-2.877,0.061-4.346c-0.169-0.558-0.278-1.017-0.983-0.889c-0.727,0.132-0.786,0.648-0.745,1.265
			c0.066,1.01,0.562,1.989,0.23,3.028c-0.238-0.155-0.474-0.165-0.707,0.008c-0.072-1.107,0.081-2.218-0.215-3.327
			c-0.217-0.816,0.093-1.555,0.733-2.157c0.371-0.35,0.396-3.06,0.026-3.372c-0.514-0.434-1.109-0.106-1.538,0.127
			c-1.566,0.852-3.286,1.171-4.973,1.623c-0.716,0.191-1.426,0.095-2.138,0.12c-0.471,0.016-0.749-0.222-0.784-0.708
			c3.298-0.299,6.448-1.133,9.388-2.673c0.633-0.332,1.222-0.505,1.894-0.206c0.49,1.67,0.981,3.341,1.471,5.012
			C136.152,252.55,136.744,254.03,136.564,255.585z"/>
		<path fill-rule="evenodd" clip-rule="evenodd" fill="#5B453C" d="M126.48,260.642c0.005,0.532,0.632,0.859,0.476,1.444
			c-0.644-0.244-1.281-0.546-1.994-0.256c0.033-0.364-0.013-0.766-0.394-0.853c-0.334-0.077-0.506,0.312-0.667,0.565
			c-0.204,0.322-0.511,0.601-0.514,1.026c-0.935,0.94-1.964,0.329-3.165-0.092c0.425,0.64,0.862,0.68,1.175,0.908
			c0.227,0.166,0.745,0.036,0.651,0.526c-0.089,0.463-0.46,0.548-0.907,0.585c-0.67,0.055-1.34-0.059-1.99-0.091
			c-1.582-0.078-3.075,0.896-4.667,0.313c-0.598-0.201-0.26-1.341-1.202-1.195c0.159-0.242,0.318-0.484,0.477-0.727
			c0,0-0.005,0.004-0.004,0.004c0.082-0.082,0.163-0.164,0.245-0.245l-0.005,0.004c0.4,0.001,0.801,0.002,1.201,0.003
			c0.034,0.032,0.067,0.064,0.101,0.096c-0.032-0.034-0.063-0.068-0.095-0.102c0.001-0.076,0-0.152-0.005-0.229
			c0.039-0.326,0.043-0.933,0.518-0.547c0.856,0.697,1.448,0.067,2.137-0.187c1.665-0.151,2.091-0.483,2.13-1.662
			c0.384-0.443,0.734-0.859,1.22-0.057c0.146,0.241,0.618,0.428,0.855,0.165c0.694-0.769,1.497-0.424,2.285-0.337
			c0.041,0.996,0.813,0.858,1.448,0.933c0.159-0.003,0.319-0.007,0.478-0.01C126.34,260.629,126.41,260.634,126.48,260.642z"/>
		<path fill-rule="evenodd" clip-rule="evenodd" fill="#52423A" d="M117.853,261.595c-0.689,0.253-1.281,0.883-2.137,0.187
			c-0.474-0.386-0.479,0.221-0.518,0.547c-0.409,0.034-0.863-0.167-1.202,0.231l0.005-0.004c-0.082,0.082-0.163,0.164-0.245,0.245
			l0.005-0.004c-0.95-0.031-1.872,1.176-2.904,0.09c0.094,0.209,0.188,0.418,0.282,0.627c-0.202,0.011-0.392,0.048-0.499,0.249
			c-0.159-0.08-0.318-0.16-0.477-0.24c-0.034-0.019-0.067-0.037-0.101-0.056c0.034,0.019,0.067,0.037,0.101,0.056
			c-0.174,0.281-0.458,0.23-0.723,0.238c-0.104-0.195-0.284-0.236-0.483-0.238c-0.641-0.083-1.281-0.167-1.922-0.25
			c0.207-0.232,0.414-0.464,0.662-0.741c-0.585-0.478-1.564,0.128-1.991-0.711c0.331-0.293,0.615,0.018,0.906,0.03
			c0.654,0.028,1.181-0.04,1.316-0.824c0.077-0.446,0.228-0.863,0.804-0.862c0.792-0.199,1.381,0.81,2.369,0.494
			c-0.811-0.588-1.521-0.859-2.343-0.724c-0.093-0.092-0.186-0.183-0.279-0.274c0.236-0.151,0.472-0.302,0.708-0.453
			c1.5-0.192,3.004-0.358,4.497-0.594c0.355-0.056,0.62,0.022,0.901,0.159c0.372,0.181,0.793,0.337,1.13,0.083
			c0.379-0.286-0.225-0.616-0.082-0.971c0.375-0.13,0.495,0.339,0.806,0.354c0.369,0.152,0.024,1.195,0.897,0.72
			c0.09,0.092,0.181,0.184,0.271,0.276c-0.022,0.309-0.937,0.614-0.004,0.929l-0.003-0.002c-0.555,0.376-1.048,0.382-1.438-0.239
			c0.107-0.045,0.306,0.054,0.292-0.165c-0.002-0.032-0.19-0.052-0.292-0.077c-0.071-0.088-0.143-0.176-0.214-0.264
			c-0.099-0.168-0.192-0.158-0.28,0.009c-0.15,0.006-0.301,0.013-0.452,0.02c-0.331,0.033-0.705-0.121-0.964,0.223
			c-0.291,0.059-0.669-0.142-0.845,0.234c-0.043,0.092,0.056,0.327,0.158,0.4c0.722,0.514,1.449,1.037,2.447,1.012
			c-0.126-0.505-0.725-0.473-0.796-0.919c0.164-0.001,0.327-0.002,0.491-0.003C116.409,260.813,117.459,260.618,117.853,261.595z"/>
		<path fill-rule="evenodd" clip-rule="evenodd" fill="#6C4C40" d="M107.035,263.272c0.641,0.083,1.281,0.167,1.922,0.25
			c0.051,0.302,0.104,0.603,0.483,0.238c0.265-0.007,0.548,0.043,0.723-0.238l0,0c0.159,0.08,0.318,0.16,0.477,0.24
			c0.611,0.783,1.486,0.903,2.389,0.953c0.145,0.313,0.434,0.664,0.059,0.951c-0.348,0.266-0.791,0.069-1.094-0.119
			c-0.546-0.337-1.046-0.6-1.657-0.199c-0.068-0.035-0.127-0.081-0.177-0.14c-0.335-0.614-0.967-0.632-1.535-0.711
			c-0.553-0.077-1.125-0.035-1.375-0.687c-0.014-0.036-0.028-0.08-0.057-0.102c-0.411-0.326-2.772,0.283-3.047,0.784
			c-0.905,0.11-1.442-0.961-2.381-0.739c-0.384-1.017-1.292-1.445-2.158-1.92c0.53-1.619,0.8-1.733,1.873-0.601
			c0.777,0.819,1.885,0.629,2.778,1.105C105.108,262.792,106.104,262.972,107.035,263.272z"/>
		<path fill-rule="evenodd" clip-rule="evenodd" fill="#852F2E" d="M116.161,259.92c0.39,0.621,0.883,0.615,1.438,0.239
			c0.264-0.131,0.505-0.28,0.556-0.699c-0.413,0.138-0.579,0.345-0.553,0.702c-0.933-0.314-0.018-0.62,0.004-0.929
			c0.972-0.377,1.459,0.893,2.376,0.7c-0.039,1.179-0.466,1.511-2.13,1.662c-0.393-0.977-1.443-0.782-2.147-1.204
			c-0.157-0.318-0.518-0.532-0.49-0.947c0.15-0.007,0.301-0.014,0.452-0.02c0,0,0.028,0.03,0.028,0.03
			C115.689,259.769,115.835,259.934,116.161,259.92L116.161,259.92z M118.491,260.014c0.006,0.03,0.002,0.074,0.02,0.086
			c0.026,0.018,0.067,0.013,0.103,0.018c-0.01-0.049-0.019-0.097-0.028-0.146C118.554,259.985,118.522,260,118.491,260.014z"/>
		<path fill-rule="evenodd" clip-rule="evenodd" fill="#7B6038" d="M98.638,248.869c0.074-0.001,0.149-0.004,0.223-0.008
			c0.531,0.896,0.406-0.371,0.712-0.216c0.272,1.201-0.466,2.245-0.538,3.418c-0.069,1.135-0.203,2.259-0.149,3.414
			c-0.8-1.245-0.777-2.634-0.639-4.028C98.333,250.585,98.505,249.729,98.638,248.869z"/>
		<path fill-rule="evenodd" clip-rule="evenodd" fill="#852F2E" d="M100.766,256.938c0.013,0.408-0.101,0.75-0.542,0.782
			c-0.578,0.041-1.058-0.234-1.451-0.637c-0.038-0.04,0.111-0.374,0.163-0.371c0.812,0.044,0.928-0.436,1.003-1.105
			c0.034-0.305,0.418-0.121,0.501,0.099C100.59,256.105,100.664,256.534,100.766,256.938z"/>
		<path fill-rule="evenodd" clip-rule="evenodd" fill="#852F2E" d="M117.336,258.957c-0.873,0.475-0.528-0.568-0.897-0.72
			c-0.008-0.197-0.026-0.393-0.022-0.589c0.009-0.427-0.061-1.014,0.521-1.008c0.668,0.007,0.375,0.645,0.411,1.02
			C117.391,258.087,117.344,258.524,117.336,258.957z"/>
		<path fill-rule="evenodd" clip-rule="evenodd" fill="#852F2E" d="M131.011,258.509c0.248,0.459,1.494,0.572,0.522,1.449
			c-0.326,0.294-0.463,0.024-0.526-0.283c-0.021-0.642-0.51-0.428-0.86-0.476c-0.246-0.034-0.646,0.112-0.653-0.275
			c-0.008-0.396,0.389-0.422,0.7-0.437C130.465,258.475,130.738,258.5,131.011,258.509z"/>
		<path fill-rule="evenodd" clip-rule="evenodd" fill="#B37747" d="M99.574,248.646c-0.306-0.155-0.181,1.112-0.712,0.216
			c0.276-1.13,0.446-2.311,1.457-3.094C100.451,246.825,99.582,247.624,99.574,248.646z"/>
		<path fill-rule="evenodd" clip-rule="evenodd" fill="#7B6038" d="M126.48,260.642c-0.07-0.008-0.14-0.013-0.211-0.015
			c-0.008-0.144-0.015-0.288-0.023-0.432c0.081-0.089,0.161-0.179,0.242-0.268l0.007,0.007c0.841-0.43,1.693-0.985,2.379,0.225
			C128.032,260.103,127.21,260.145,126.48,260.642z"/>
		<path fill-rule="evenodd" clip-rule="evenodd" fill="#852F2E" d="M132.25,256.579c0.233-0.173,0.469-0.164,0.707-0.008
			c0.069,0.082,0.139,0.164,0.208,0.245c0.042,0.26,0.008,0.546,0.256,0.733c-0.002,0.068,0,0.136,0.005,0.204
			c-0.027,0.221,0.07,0.519-0.199,0.614c-0.285,0.101-0.404-0.172-0.497-0.378c-0.176-0.389-0.325-0.791-0.484-1.187
			C132.25,256.727,132.251,256.653,132.25,256.579z"/>
		<path fill-rule="evenodd" clip-rule="evenodd" fill="#52443E" d="M126.246,260.195c0.008,0.144,0.015,0.288,0.023,0.432
			c-0.159,0.003-0.319,0.006-0.478,0.01c-0.014-0.502-0.611-0.533-0.753-0.931c1.145-0.826,1.324-0.798,1.458,0.228
			c0,0-0.007-0.007-0.007-0.007C126.407,260.016,126.327,260.105,126.246,260.195z"/>
		<path fill-rule="evenodd" clip-rule="evenodd" fill="#852F2E" d="M105.286,257.725c-0.767,0.381-1.151,0.937-1.821,0.573
			c-0.058-0.031-0.096-0.252-0.054-0.293C103.854,257.571,104.365,257.401,105.286,257.725z"/>
		<path fill-rule="evenodd" clip-rule="evenodd" fill="#7B6038" d="M108.758,259.933c0.822-0.135,1.532,0.136,2.343,0.724
			c-0.988,0.316-1.577-0.692-2.369-0.494C108.731,260.085,108.74,260.009,108.758,259.933z"/>
		<path fill-rule="evenodd" clip-rule="evenodd" fill="#7B6038" d="M125.038,259.706c0.143,0.398,0.74,0.428,0.753,0.931
			c-0.635-0.075-1.407,0.062-1.448-0.933C124.575,259.705,124.806,259.706,125.038,259.706z"/>
		<path fill-rule="evenodd" clip-rule="evenodd" fill="#7B6038" d="M109.187,259.206c-0.236,0.151-0.472,0.302-0.708,0.453
			c-0.299-0.146-0.813,0.391-0.892-0.095c-0.093-0.576,0.481-0.634,0.935-0.592C108.749,258.994,108.965,259.124,109.187,259.206z"
			/>
		<path fill-rule="evenodd" clip-rule="evenodd" fill="#52423A" d="M104.243,260.616c0.379,0.219,0.964,0.196,1.001,0.796
			c0.003,0.047-0.188,0.164-0.271,0.148C104.495,261.47,104.256,261.147,104.243,260.616z"/>
		<path fill-rule="evenodd" clip-rule="evenodd" fill="#705040" d="M99.845,259.193c0.301,0.026,0.643-0.046,0.811,0.347
			c-0.429,0.257-0.632-0.024-0.824-0.333L99.845,259.193z"/>
		<path fill-rule="evenodd" clip-rule="evenodd" fill="#705040" d="M99.358,258.723c-0.316-0.033-0.604-0.1-0.641-0.553
			c0.363,0.043,0.503,0.298,0.645,0.549L99.358,258.723z"/>
		<path fill-rule="evenodd" clip-rule="evenodd" fill="#705040" d="M99.362,258.719c0.161,0.158,0.322,0.316,0.483,0.475
			l-0.013,0.015c-0.307-0.016-0.474-0.17-0.474-0.485L99.362,258.719z"/>
		<path fill-rule="evenodd" clip-rule="evenodd" fill="#4E4541" d="M133.426,244.535c0.431,0.655-0.111,0.784-0.526,1.02
			c-2.395,1.365-5.078,1.771-7.708,2.379c-2.291,0.53-4.643,0.896-6.943,0.837c-3.626-0.093-7.287-0.197-10.839-1.228
			c-1.989-0.577-3.976-1.117-5.813-2.099c-1.552-0.829-1.647-2.709-0.199-3.766c0.347-0.253,0.633-0.269,0.963,0
			c0.451,0.366,0.969,0.543,1.556,0.487l-0.001-0.003c1.063,0.824,2.186,1.47,3.612,1.188c0.632,0.091,1.265,0.182,1.897,0.273
			c0.11,0.197,0.295,0.219,0.493,0.208c0.13,0.18,0.311,0.198,0.509,0.16c1.629,0.502,3.314,0.601,4.998,0.708
			c0.576,0.113,1.153,0.149,1.733,0.037c0.221,0.005,0.442,0.01,0.664,0.015c0.17-0.009,0.34-0.019,0.51-0.028
			c0.156-0.02,0.312-0.039,0.468-0.059c0.267,0.141,0.51,0.105,0.732-0.096c1.791,0,3.514-0.484,5.27-0.728
			c0.086,0.118,0.173,0.235,0.26,0.353c-1.396,0.52-2.863,0.69-4.325,0.89c-1.827,0.417-3.661,0.67-5.521,0.21
			c-2.383-0.577-4.874-0.564-7.234-1.363c1.072,0.574,2.09,1.166,3.038,1.885c0.453,0.343,0.999,0.447,1.584,0.435
			c1.353-0.03,2.678,0.339,4.015,0.391c1.139,0.043,2.458,0.61,3.377-0.646c0.084-0.09,0.168-0.18,0.252-0.271
			c1.03-0.077,2.06-0.154,3.09-0.231c0.165,0.012,0.33,0.024,0.495,0.037c-0.027,0.652,0.059,1.049,0.934,0.866
			c1.871-0.39,3.687-0.97,5.42-1.723c0.793-0.345,2.039-0.484,2.05-1.829C132.755,243.322,132.797,244.135,133.426,244.535z"/>
		<path fill-rule="evenodd" clip-rule="evenodd" fill="#C07548" d="M136.116,251.016c-0.49-1.67-0.981-3.341-1.471-5.012
			c0.417,0.057,0.399,0.55,0.714,0.71c-0.018,0.21-0.046,0.426,0.239,0.487c0.267,1.286,0.533,2.572,0.799,3.858
			C136.303,251.045,136.209,251.031,136.116,251.016z"/>
		<path fill-rule="evenodd" clip-rule="evenodd" fill="#925747" d="M131.951,242.564c0.027-0.193,0.012-0.367-0.211-0.441
			c0.504-0.446,0.761-0.106,0.983,0.315c0.349,0.66,0.654,1.336,0.703,2.097c-0.629-0.4-0.671-1.213-1.188-1.691
			C132.142,242.751,132.046,242.658,131.951,242.564z"/>
		<path fill-rule="evenodd" clip-rule="evenodd" fill="#B6624D" d="M110.154,265.983c0.057-0.047,0.122-0.072,0.195-0.074
			c1.167,0.104,2.338,0.167,3.495,0.336c0.41,0.06,0.683,0.082,0.877-0.309c0.16,0.002,0.319,0.004,0.479,0.007
			c0.116,0.188,0.296,0.217,0.495,0.197c0.311,0.002,0.623,0.003,0.935,0.005c0.645-0.064,1.33,0.239,1.931-0.213
			c0.16,0.001,0.319,0.002,0.479,0.003c0.408,0.325,0.809,0.351,1.2-0.028c0.48-0.074,0.96-0.147,1.44-0.221
			c0.167,0.241,0.327,0.234,0.48-0.013c0.234-0.006,0.468-0.012,0.702-0.018c1.276,0.113,2.422-0.438,3.621-0.717
			c0.195,0.004,0.373-0.03,0.477-0.222c0.083-0.078,0.167-0.155,0.25-0.232c0.602,0.261,1.069-0.486,1.671-0.223
			c-0.008,0.245-0.016,0.489-0.024,0.734c-0.64,0.301-1.28,0.603-1.92,0.904c-2.142,0.263-4.288,0.49-6.422,0.798
			c-2.346,0.339-4.678,0.292-6.989-0.187C112.407,266.279,111.192,266.69,110.154,265.983z"/>
		<path fill-rule="evenodd" clip-rule="evenodd" fill="#705040" d="M122.862,265.655c-0.234,0.006-0.468,0.012-0.702,0.019
			c-0.167-0.242-0.327-0.234-0.48,0.013c-0.48,0.074-0.96,0.147-1.44,0.221c-0.408-0.337-0.809-0.358-1.2,0.028
			c-0.16-0.001-0.32-0.002-0.479-0.004c-0.685-0.298-1.373-0.627-1.931,0.213c-0.312-0.001-0.624-0.003-0.935-0.004
			c-0.068-0.309-0.146-0.592-0.495-0.197c-0.16-0.002-0.319-0.005-0.479-0.007c-0.558-0.314-0.344-0.776-0.235-1.219
			c1.591,0.583,3.085-0.391,4.667-0.313c0.65,0.032,1.32,0.146,1.99,0.091c0.447-0.037,0.817-0.123,0.907-0.585
			c0.094-0.49-0.424-0.361-0.651-0.526c-0.313-0.228-0.75-0.268-1.175-0.908c1.2,0.421,2.23,1.032,3.165,0.092
			c0.767,0.271,1.146-0.287,1.574-0.738c0.713-0.291,1.35,0.012,1.994,0.256c0.106,0.192,0.286,0.231,0.483,0.235
			c0.081,0.166,0.161,0.167,0.241,0c0.08,0,0.16-0.001,0.239-0.002c0.081-0.079,0.161-0.159,0.241-0.238
			c0.237-1.03,1.033-1.309,1.896-1.163c1.047,0.177,2.024,0.059,2.971-0.322c0.657-0.264,0.651,0.096,0.65,0.537
			c-0.835,1.06-2.12,1.381-3.267,1.871c-1.259,0.537-2.618,0.842-3.934,1.248c-0.261-0.438-0.616,0.973-0.807-0.032
			c-0.054-0.286,0.027-0.658-0.365-0.497c-0.213,0.087-0.918,0.14-0.505,0.76l-0.001-0.002
			C124.213,264.969,123.062,264.528,122.862,265.655z"/>
		<path fill-rule="evenodd" clip-rule="evenodd" fill="#D17658" d="M128.857,264.996c0.008-0.245,0.016-0.489,0.024-0.734
			c1.242-0.563,2.561-0.935,3.741-1.667c0.876-0.543,0.423,0.355,0.543,0.628c-0.867,0.505-1.733,1.011-2.6,1.517
			C129.996,264.825,129.426,264.91,128.857,264.996z"/>
		<path fill-rule="evenodd" clip-rule="evenodd" fill="#925747" d="M124.801,264.481c-0.413-0.621,0.292-0.673,0.505-0.76
			c0.392-0.161,0.311,0.211,0.365,0.497c0.191,1.005,0.546-0.405,0.807,0.032c0.002,0.23,0.004,0.459,0.005,0.689
			c-1.199,0.278-2.344,0.829-3.621,0.716c0.199-1.128,1.351-0.687,1.938-1.176c0.018-0.032,0.036-0.064,0.054-0.097
			C124.836,264.416,124.818,264.448,124.801,264.481z"/>
		<path fill-rule="evenodd" clip-rule="evenodd" fill="#925747" d="M127.21,264.485c-0.083,0.077-0.167,0.155-0.25,0.232
			C127.043,264.64,127.126,264.562,127.21,264.485z"/>
		<path fill-rule="evenodd" clip-rule="evenodd" fill="#8C5344" d="M136.116,251.016c0.094,0.015,0.187,0.029,0.281,0.043
			c0.527,1.268,0.306,2.631,0.497,3.942c0.032,0.219-0.088,0.462-0.329,0.583C136.744,254.03,136.152,252.55,136.116,251.016z"/>
		<path fill-rule="evenodd" clip-rule="evenodd" fill="#52443E" d="M136.5,256.807c-0.023,0.028-0.046,0.056-0.068,0.084
			c-0.018-0.032-0.051-0.066-0.048-0.096c0.002-0.03,0.041-0.057,0.064-0.085C136.464,256.743,136.482,256.775,136.5,256.807z"/>
		<path fill-rule="evenodd" clip-rule="evenodd" fill="#705040" d="M135.355,258.716c0.106-0.192,0.289-0.229,0.485-0.237
			c0.006,0.08,0.008,0.159,0.007,0.239c-0.161,0.002-0.322,0.005-0.483,0.008L135.355,258.716z"/>
		<path fill-rule="evenodd" clip-rule="evenodd" fill="#8A5A4D" d="M135.596,260.169c0.08-0.083,0.159-0.165,0.239-0.247
			C135.755,260.005,135.676,260.087,135.596,260.169z"/>
		<path fill-rule="evenodd" clip-rule="evenodd" fill="#925747" d="M114.486,264.718c-0.109,0.442-0.323,0.905,0.235,1.219
			c-0.195,0.391-0.468,0.369-0.877,0.309c-1.156-0.169-2.328-0.232-3.495-0.336c-0.004-0.188-0.007-0.375-0.011-0.561
			c0.61-0.4,1.11-0.138,1.656,0.2c0.303,0.188,0.746,0.385,1.094,0.119c0.375-0.287,0.086-0.638-0.059-0.951
			c0.084-0.397,0.168-0.793,0.253-1.19l0.002-0.002C114.226,263.377,113.889,264.518,114.486,264.718z"/>
		<path fill-rule="evenodd" clip-rule="evenodd" fill="#5C514A" d="M133.427,257.753c-0.005-0.068-0.007-0.136-0.005-0.204
			c0.125-0.318,0.449-0.706-0.256-0.733c-0.07-0.082-0.139-0.164-0.208-0.245c0.332-1.039-0.165-2.018-0.23-3.028
			c-0.041-0.617,0.018-1.133,0.745-1.265c0.705-0.128,0.813,0.331,0.983,0.889c0.446,1.469,0.793,2.89-0.061,4.346
			C134.108,258,133.826,257.979,133.427,257.753z"/>
		<path fill-rule="evenodd" clip-rule="evenodd" fill="#705040" d="M134.633,259.675c0.005-0.198,0.049-0.377,0.241-0.482
			l0.013,0.013c-0.006,0.198-0.055,0.375-0.243,0.48L134.633,259.675z"/>
		<path fill-rule="evenodd" clip-rule="evenodd" fill="#705040" d="M134.409,259.927c-0.087,0.06-0.174,0.121-0.265,0.176
			c-0.002,0.001-0.041-0.056-0.063-0.086c0.104-0.036,0.208-0.071,0.312-0.107L134.409,259.927z"/>
		<path fill-rule="evenodd" clip-rule="evenodd" fill="#5B453C" d="M128.16,262.08c-0.08,0.079-0.16,0.159-0.241,0.238
			C128,262.239,128.08,262.159,128.16,262.08z"/>
		<path fill-rule="evenodd" clip-rule="evenodd" fill="#705040" d="M135.364,258.726c-0.08,0.081-0.16,0.161-0.239,0.241
			c0,0-0.011-0.011-0.011-0.011c0.081-0.08,0.161-0.16,0.241-0.239L135.364,258.726z"/>
		<path fill-rule="evenodd" clip-rule="evenodd" fill="#705040" d="M134.875,259.193c0.08-0.079,0.16-0.158,0.24-0.237
			c0,0,0.011,0.01,0.011,0.011c-0.079,0.08-0.158,0.16-0.237,0.24L134.875,259.193z"/>
		<path fill-rule="evenodd" clip-rule="evenodd" fill="#5B453C" d="M127.68,262.32c-0.08,0.167-0.16,0.166-0.241,0
			C127.52,262.32,127.6,262.32,127.68,262.32z"/>
		<path fill-rule="evenodd" clip-rule="evenodd" fill="#705040" d="M134.392,259.91c0.081-0.078,0.161-0.156,0.241-0.235
			l0.011,0.011c-0.079,0.08-0.157,0.161-0.236,0.241L134.392,259.91z"/>
		<path fill-rule="evenodd" clip-rule="evenodd" fill="#B37747" d="M124.962,261.83c-0.429,0.452-0.808,1.009-1.574,0.738
			c0.003-0.425,0.31-0.705,0.514-1.026c0.161-0.252,0.333-0.642,0.667-0.565C124.95,261.064,124.995,261.466,124.962,261.83z"/>
		<path fill-rule="evenodd" clip-rule="evenodd" fill="#7B6038" d="M111.139,263.514c-0.094-0.209-0.188-0.418-0.282-0.627
			c1.033,1.086,1.955-0.121,2.904-0.09c-0.159,0.242-0.318,0.484-0.477,0.727l-0.002,0.002
			C112.568,263.463,111.852,263.712,111.139,263.514z"/>
		<path fill-rule="evenodd" clip-rule="evenodd" fill="#7B6038" d="M113.996,262.56c0.338-0.399,0.793-0.197,1.202-0.231
			c0.005,0.077,0.007,0.153,0.005,0.229l-0.006,0.006C114.797,262.562,114.396,262.562,113.996,262.56z"/>
		<path fill-rule="evenodd" clip-rule="evenodd" fill="#7B6038" d="M115.203,262.558c0.032,0.034,0.063,0.068,0.095,0.102
			c-0.034-0.032-0.067-0.064-0.101-0.096L115.203,262.558z"/>
		<path fill-rule="evenodd" clip-rule="evenodd" fill="#7B6038" d="M113.757,262.801c0.082-0.082,0.163-0.163,0.245-0.245
			C113.92,262.638,113.838,262.72,113.757,262.801z"/>
		<path fill-rule="evenodd" clip-rule="evenodd" fill="#5B453C" d="M111.139,263.514c0.713,0.198,1.429-0.05,2.144,0.012
			c-0.084,0.397-0.169,0.793-0.253,1.19c-0.904-0.05-1.779-0.17-2.39-0.953C110.747,263.562,110.937,263.525,111.139,263.514z"/>
		<path fill-rule="evenodd" clip-rule="evenodd" fill="#852F2E" d="M115.215,260.394c0.071,0.446,0.669,0.414,0.796,0.919
			c-0.999,0.025-1.725-0.498-2.447-1.012c-0.102-0.073-0.201-0.308-0.158-0.4c0.176-0.376,0.555-0.175,0.845-0.234
			C114.705,259.734,115.012,259.996,115.215,260.394z"/>
		<path fill-rule="evenodd" clip-rule="evenodd" fill="#443B38" d="M115.215,260.394c-0.203-0.398-0.51-0.66-0.964-0.727
			c0.259-0.344,0.633-0.19,0.964-0.223c-0.028,0.415,0.333,0.628,0.49,0.947C115.542,260.392,115.378,260.393,115.215,260.394z"/>
		<path fill-rule="evenodd" clip-rule="evenodd" fill="#5B453C" d="M109.44,263.76c-0.379,0.365-0.432,0.064-0.483-0.238
			C109.156,263.524,109.336,263.565,109.44,263.76z"/>
		<path fill-rule="evenodd" clip-rule="evenodd" fill="#852F2E" d="M116.161,259.679c0.102,0.025,0.29,0.045,0.292,0.077
			c0.014,0.218-0.185,0.119-0.292,0.165l-0.001,0c0.008-0.08,0.007-0.159,0-0.239L116.161,259.679z"/>
		<path fill-rule="evenodd" clip-rule="evenodd" fill="#852F2E" d="M115.667,259.424c0.088-0.167,0.181-0.177,0.28-0.009
			l-0.045,0.049c-0.068-0.007-0.137-0.01-0.207-0.009L115.667,259.424z"/>
		<path fill-rule="evenodd" clip-rule="evenodd" fill="#852F2E" d="M115.947,259.415c0.071,0.088,0.143,0.176,0.214,0.264
			l-0.002,0.002c-0.086-0.072-0.172-0.145-0.258-0.217L115.947,259.415z"/>
		<path fill-rule="evenodd" clip-rule="evenodd" fill="#5B453C" d="M110.163,263.522c-0.034-0.019-0.067-0.037-0.101-0.056
			C110.095,263.485,110.129,263.504,110.163,263.522L110.163,263.522z"/>
		<path fill-rule="evenodd" clip-rule="evenodd" fill="#52423A" d="M117.602,260.162c-0.026-0.356,0.14-0.563,0.553-0.702
			c-0.051,0.419-0.292,0.568-0.556,0.699L117.602,260.162z"/>
		<path fill-rule="evenodd" clip-rule="evenodd" fill="#52423A" d="M115.901,259.464c0.086,0.072,0.172,0.145,0.258,0.217
			c0.008,0.08,0.008,0.159,0,0.239c-0.324,0.014-0.47-0.151-0.465-0.466C115.764,259.454,115.833,259.457,115.901,259.464z"/>
		<path fill-rule="evenodd" clip-rule="evenodd" fill="#443B38" d="M118.491,260.014c0.032-0.014,0.063-0.028,0.094-0.042
			c0.009,0.049,0.019,0.097,0.028,0.146c-0.035-0.005-0.077,0-0.103-0.018C118.493,260.087,118.497,260.043,118.491,260.014z"/>
		<path fill-rule="evenodd" clip-rule="evenodd" fill="#443B38" d="M126.246,260.195c0.081-0.089,0.161-0.179,0.242-0.268
			C126.407,260.016,126.327,260.105,126.246,260.195z"/>
		<path fill-rule="evenodd" clip-rule="evenodd" fill="#52443E" d="M133.166,256.815c0.705,0.028,0.38,0.416,0.256,0.733
			C133.174,257.361,133.208,257.075,133.166,256.815z"/>
		<path fill-rule="evenodd" clip-rule="evenodd" fill="#6B5649" d="M131.951,242.564c0.096,0.094,0.191,0.187,0.287,0.28
			c-0.011,1.344-1.256,1.483-2.05,1.828c-1.733,0.752-3.549,1.333-5.42,1.723c-0.875,0.183-0.961-0.214-0.934-0.866
			c0.195-0.111,0.244-0.292,0.241-0.498c1.056-0.028,2.054-0.234,2.886-0.943C128.66,243.697,130.457,243.626,131.951,242.564z"/>
		<path fill-rule="evenodd" clip-rule="evenodd" fill="#925747" d="M116.629,266.146c0.559-0.841,1.247-0.512,1.931-0.213
			C117.959,266.385,117.274,266.082,116.629,266.146z"/>
		<path fill-rule="evenodd" clip-rule="evenodd" fill="#925747" d="M119.04,265.937c0.391-0.387,0.792-0.366,1.2-0.028
			C119.849,266.288,119.448,266.262,119.04,265.937z"/>
		<path fill-rule="evenodd" clip-rule="evenodd" fill="#925747" d="M121.68,265.687c0.153-0.247,0.313-0.255,0.48-0.013
			C122.007,265.921,121.847,265.928,121.68,265.687z"/>
		<path fill-rule="evenodd" clip-rule="evenodd" fill="#925747" d="M115.2,265.944c0.349-0.395,0.427-0.111,0.495,0.197
			C115.496,266.161,115.316,266.132,115.2,265.944z"/>
		<path fill-rule="evenodd" clip-rule="evenodd" fill="#705040" d="M124.801,264.481c0.018-0.033,0.035-0.066,0.053-0.099
			c-0.018,0.033-0.036,0.065-0.054,0.097L124.801,264.481z"/>
	</g>
	<g id="couldronTop">
		<path fill-rule="evenodd" clip-rule="evenodd" fill="#88715E" d="M120.72,238.812c0.803,0.004,1.606,0.009,2.409,0.013
			c0.087,0.069,0.174,0.138,0.261,0.208c0,0-0.022-0.033-0.022-0.033c0.08,0.236,0.269,0.272,0.482,0.262
			c2.269,0.113,4.499,0.489,6.712,0.974c-0.534,0.442-1.115,0.235-1.688,0.12c-1.239-0.248-2.462-0.578-3.745-0.159
			c-0.395,0.129-0.887,0.109-1.3,0.012c-1.652-0.386-3.333-0.279-4.975-0.139c-0.886,0.076-1.979-0.267-2.716,0.624
			c-0.148,0.001-0.296,0.003-0.445,0.005c-0.25-0.279-0.497-0.287-0.741,0.009c-0.798,0.123-1.586,0.347-2.407,0.227
			c0.005-0.154,0.01-0.309,0.015-0.462c0.275-0.331,0.659-0.188,1.002-0.239c1.587-0.233,3.172-0.479,4.758-0.72
			c0.397-0.002,0.794-0.005,1.191-0.008C120.013,239.447,120.76,239.815,120.72,238.812z"/>
		<path fill-rule="evenodd" clip-rule="evenodd" fill="#69605A" d="M116.138,240.695c0.737-0.89,1.83-0.548,2.716-0.624
			c1.641-0.14,3.323-0.247,4.975,0.139c0.414,0.097,0.905,0.117,1.3-0.012c1.283-0.419,2.506-0.089,3.745,0.159
			c0.574,0.115,1.154,0.322,1.688-0.12c0.414-0.003,0.828-0.007,1.241-0.011c0.075-0.011,0.144,0.004,0.206,0.047
			c-0.019,0.067-0.031,0.136-0.037,0.205c-0.456,0.281-0.653,0.998-1.31,0.911c-1.399-0.185-2.789-0.436-4.183-0.66
			C123.033,240.699,119.586,240.36,116.138,240.695z"/>
		<path fill-rule="evenodd" clip-rule="evenodd" fill="#6C6057" d="M118.32,239.515c-1.586,0.241-3.171,0.486-4.758,0.72
			c-0.343,0.05-0.727-0.092-1.002,0.239c-2.194,0.062-4.315,0.434-6.282,1.467c-0.063,0.056-0.125,0.112-0.188,0.168
			c-0.14,0.034-0.279,0.067-0.419,0.101c-0.304-0.415-0.309-1.094-1.274-1.054c0.489-0.217,0.729-0.324,0.969-0.43
			c0.152,0.245,0.399,0.281,0.63,0.21c1.408-0.435,2.891-0.489,4.305-0.831c0.657-0.159,1.561,0.377,1.999-0.559
			c0.704-0.259,1.622,0.45,2.178-0.48c0.315-0.02,0.63-0.04,0.945-0.06c0.323,0.431,0.793,0.217,1.201,0.277
			C117.188,239.366,117.806,239.066,118.32,239.515z"/>
		<path fill-rule="evenodd" clip-rule="evenodd" fill="#443B38" d="M105.366,240.726c-0.24,0.106-0.479,0.212-0.969,0.43
			c0.965-0.04,0.971,0.639,1.274,1.054c-0.019,0.064-0.041,0.127-0.065,0.189c-0.563-0.079-1.126-0.158-1.689-0.237l0.001,0.003
			c-0.478-0.308-0.956-0.617-1.434-0.925c0.973-0.796,2.146-0.934,3.337-1.013c0.071,0.073,0.142,0.146,0.213,0.22
			C105.811,240.541,105.588,240.633,105.366,240.726z"/>
		<path fill-rule="evenodd" clip-rule="evenodd" fill="#5C514A" d="M131.804,240.226c-0.414,0.004-0.827,0.007-1.241,0.011
			c-2.214-0.485-4.444-0.861-6.712-0.974c-0.005-0.061-0.007-0.122-0.006-0.184c2.52-0.195,4.978,0.265,7.434,0.72
			C131.473,239.835,131.629,240.079,131.804,240.226z"/>
		<path fill-rule="evenodd" clip-rule="evenodd" fill="#88715E" d="M105.366,240.726c0.222-0.093,0.445-0.186,0.668-0.278
			c1.347-0.229,2.692-0.469,4.042-0.682c0.303-0.048,0.539-0.106,0.562-0.462c0.084,0,0.168,0.001,0.252,0.002
			c0.411,0.427,0.944,0.136,1.409,0.24c-0.438,0.936-1.341,0.4-1.999,0.559c-1.414,0.342-2.896,0.396-4.305,0.831
			C105.765,241.007,105.518,240.971,105.366,240.726z"/>
		<path fill-rule="evenodd" clip-rule="evenodd" fill="#5C514A" d="M118.32,239.515c-0.514-0.449-1.131-0.149-1.696-0.232
			c-0.408-0.06-0.878,0.154-1.201-0.277c1.508-0.443,3.046-0.129,4.569-0.181c-0.147,0.236-0.507,0.323-0.481,0.682
			C119.114,239.51,118.717,239.513,118.32,239.515z"/>
		<path fill-rule="evenodd" clip-rule="evenodd" fill="#6C6057" d="M110.638,239.304c-0.023,0.356-0.259,0.414-0.562,0.462
			c-1.35,0.213-2.695,0.453-4.042,0.682c-0.071-0.074-0.143-0.147-0.213-0.221c1.062-0.47,2.186-0.654,3.336-0.708
			C109.658,239.495,110.175,239.59,110.638,239.304z"/>
		<path fill-rule="evenodd" clip-rule="evenodd" fill="#5C514A" d="M112.299,239.546c-0.465-0.104-0.999,0.187-1.409-0.24
			c1.196-0.08,2.391-0.16,3.587-0.24C113.921,239.996,113.003,239.287,112.299,239.546z"/>
		<path fill-rule="evenodd" clip-rule="evenodd" fill="#6C6057" d="M119.511,239.507c-0.026-0.359,0.333-0.445,0.481-0.682
			c0.243-0.004,0.485-0.009,0.729-0.013C120.76,239.815,120.013,239.447,119.511,239.507z"/>
		<path fill-rule="evenodd" clip-rule="evenodd" fill="#6C6057" d="M123.844,239.079c-0.001,0.062,0,0.123,0.006,0.184
			c-0.213,0.01-0.402-0.026-0.482-0.262C123.526,239.026,123.686,239.053,123.844,239.079z"/>
		<path fill-rule="evenodd" clip-rule="evenodd" fill="#5C514A" d="M123.39,239.033c-0.087-0.069-0.174-0.138-0.261-0.208
			C123.216,238.895,123.303,238.964,123.39,239.033z"/>
		<path fill-rule="evenodd" clip-rule="evenodd" fill="#C07548" d="M130.673,241.937c-1.197,0.826-2.649,0.922-3.973,1.384
			c-0.267,0.027-0.542,0.032-0.744,0.252c-0.227,0.008-0.453,0.016-0.68,0.024c-0.718-0.91-1.46-0.052-2.191-0.03
			c0.079-0.475,0.091-0.938-0.245-1.337c0.439-0.535,1.11-0.532,1.786-0.667c-0.779-0.393-1.665,0.266-2.267-0.496
			c1.369,0.18,2.744,0.144,4.119,0.099C127.836,241.643,129.364,241.194,130.673,241.937z M126.079,242.319
			c-0.66-0.171-1.127-0.242-1.599-0.034c-0.032,0.014-0.022,0.27,0.021,0.289C124.977,242.774,125.455,242.858,126.079,242.319z"/>
		<path fill-rule="evenodd" clip-rule="evenodd" fill="#5C514A" d="M130.673,241.937c-1.309-0.743-2.837-0.294-4.195-0.771
			c0-0.146,0.001-0.292,0.001-0.437c1.394,0.224,2.784,0.475,4.183,0.66c0.657,0.087,0.854-0.63,1.31-0.911
			C132.397,241.729,131.291,241.615,130.673,241.937z"/>
		<path fill-rule="evenodd" clip-rule="evenodd" fill="#58504C" d="M126.48,240.729c0,0.146-0.001,0.292-0.001,0.437
			c-1.375,0.045-2.75,0.081-4.119-0.099c-0.223-0.016-0.445-0.032-0.668-0.048c-0.086-0.008-0.172-0.015-0.259-0.022
			c-3.454-0.099-6.887,0.147-10.306,0.625c0.003-0.122,0.005-0.244,0.008-0.366c0.409-0.378,0.928-0.269,1.411-0.32
			c0.821,0.12,1.609-0.104,2.407-0.227c0.247-0.003,0.494-0.006,0.741-0.009c0.149-0.001,0.297-0.003,0.445-0.005
			C119.586,240.36,123.033,240.699,126.48,240.729z"/>
		<path fill-rule="evenodd" clip-rule="evenodd" fill="#A98462" d="M112.545,240.936c-0.483,0.051-1.002-0.058-1.411,0.319
			c-0.391-0.058-0.766-0.044-1.166,0.038c-1.223,0.251-2.459,0.437-3.691,0.647c1.966-1.034,4.088-1.405,6.282-1.467
			C112.555,240.627,112.55,240.782,112.545,240.936z"/>
		<path fill-rule="evenodd" clip-rule="evenodd" fill="#69605A" d="M115.693,240.7c-0.247,0.003-0.494,0.006-0.741,0.009
			C115.196,240.413,115.443,240.421,115.693,240.7z"/>
		<path fill-rule="evenodd" clip-rule="evenodd" fill="#6B5649" d="M106.278,241.941c1.231-0.211,2.468-0.396,3.691-0.647
			c0.399-0.082,0.774-0.096,1.166-0.038c-0.003,0.122-0.005,0.244-0.008,0.367c-0.558,0.104-1.115,0.21-1.673,0.315
			c-0.244-0.003-0.488-0.006-0.731-0.009c-0.276-0.032-0.547-0.046-0.744,0.208c-0.312,0.015-0.624,0.03-0.937,0.045
			c-0.099,0.055-0.197,0.11-0.296,0.165c-0.217-0.011-0.434-0.023-0.651-0.034c0.007-0.068,0.005-0.135-0.005-0.203
			C106.153,242.053,106.215,241.997,106.278,241.941z"/>
		<path fill-rule="evenodd" clip-rule="evenodd" fill="#C07548" d="M117.159,244.736c-0.581,0.113-1.158,0.077-1.733-0.036
			c0.001-0.114,0.002-0.229,0.003-0.342c0.588-0.02,0.145-0.597,0.442-0.816c0.238-0.175,0.812-0.215,0.534-0.735
			c-0.241-0.45-0.714-0.438-1.16-0.419c-0.317,0.013-0.634,0.021-0.951,0.031c-0.316-0.034-0.038-0.444-0.317-0.5
			c0.176-0.074,0.352-0.208,0.529-0.21c1.802-0.021,3.604-0.034,5.407-0.016c0.468,0.005,0.933,0.136,1.296,0.482
			c-0.513,0.529-1.484,0.886-0.715,1.898C119.355,244.152,118.167,243.989,117.159,244.736z M117.692,243.784
			c0.196-0.534,0.282-0.976-0.326-1.228c-0.216-0.089-0.395-0.073-0.445,0.196C116.808,243.362,117.182,243.596,117.692,243.784z
			 M119.089,242.948c0.042-0.221-0.107-0.273-0.267-0.25c-0.311,0.045-0.483,0.239-0.464,0.562c0.01,0.176,0.136,0.295,0.303,0.29
			C119.047,243.538,118.991,243.184,119.089,242.948z"/>
		<path fill-rule="evenodd" clip-rule="evenodd" fill="#B37747" d="M110.428,243.991c-0.199,0.039-0.379,0.021-0.509-0.16
			c0.3-0.811,1.134-1.515,1.701-1.241c0.834,0.401,1.553,0.327,2.35,0.274c0.028,0.418,0.308,0.494,0.659,0.52
			c0.755,0.056,0.534,0.501,0.348,0.923c-1.398-0.699-2.943-0.377-4.408-0.613C110.539,243.689,110.476,243.888,110.428,243.991z"/>
		<path fill-rule="evenodd" clip-rule="evenodd" fill="#D5854F" d="M113.969,242.864c-0.796,0.053-1.516,0.127-2.35-0.274
			c-0.567-0.273-1.401,0.43-1.701,1.241c-0.198,0.01-0.383-0.011-0.493-0.208c-0.094-0.611,0.975-0.441,0.792-1.031
			c-0.44-0.492-1.287,0.256-1.494-0.663c0.244,0.003,0.487,0.006,0.731,0.009c1.51,0.465,3.015-0.223,4.523-0.02
			c0.279,0.057,0.001,0.467,0.316,0.5C114.185,242.566,114.077,242.715,113.969,242.864z"/>
		<path fill-rule="evenodd" clip-rule="evenodd" fill="#ECA455" d="M117.159,244.736c1.007-0.747,2.196-0.583,3.335-0.664
			c0.896,0.002,1.757-0.178,2.59-0.504c0.731-0.022,1.473-0.88,2.191,0.03c-0.157,0.081-0.314,0.162-0.472,0.243
			c-1.756,0.244-3.479,0.728-5.27,0.728c-0.244,0.032-0.488,0.064-0.732,0.096c-0.156,0.02-0.312,0.039-0.468,0.059
			c-0.18-0.177-0.351-0.177-0.51,0.027C117.602,244.746,117.38,244.741,117.159,244.736z"/>
		<path fill-rule="evenodd" clip-rule="evenodd" fill="#B37747" d="M108.723,241.928c0.207,0.919,1.054,0.171,1.494,0.663
			c0.183,0.59-0.885,0.42-0.792,1.031c-0.632-0.091-1.265-0.182-1.897-0.273c-0.505-0.211-1.011-0.421-1.517-0.631
			c0.027-0.031,0.055-0.062,0.083-0.093c0.507-0.001,0.993,0.115,1.488,0.208c0.555,0.103,0.855-0.127,0.396-0.697
			C108.175,241.882,108.447,241.896,108.723,241.928z"/>
		<path fill-rule="evenodd" clip-rule="evenodd" fill="#ECA455" d="M113.978,241.917c-1.509-0.203-3.014,0.484-4.523,0.02
			c0.558-0.105,1.115-0.21,1.673-0.315c3.419-0.478,6.852-0.724,10.306-0.625c0.077,0.109,0.163,0.124,0.259,0.023
			c0.223,0.016,0.445,0.032,0.668,0.048c0.602,0.762,1.488,0.104,2.267,0.496c-0.676,0.135-1.347,0.132-1.786,0.667
			c0-0.001-0.01-0.042-0.01-0.042c-0.071-0.081-0.141-0.162-0.211-0.243l-0.001,0.001c-0.162-0.345-0.456-0.248-0.73-0.219
			c-0.055,0.007-0.111,0.01-0.167,0.009c-0.084,0.071-0.169,0.142-0.254,0.212c-0.086,0.075-0.172,0.15-0.258,0.225
			c-0.363-0.346-0.828-0.478-1.296-0.482c-1.802-0.019-3.604-0.005-5.407,0.016C114.33,241.709,114.154,241.844,113.978,241.917z"/>
		<path fill-rule="evenodd" clip-rule="evenodd" fill="#6B5649" d="M121.209,242.174c0.086-0.075,0.172-0.149,0.258-0.225
			c0.084-0.071,0.169-0.142,0.254-0.212c0.056,0.001,0.111-0.002,0.167-0.009c0.199,0.218,0.461,0.229,0.73,0.219l0.001-0.001
			c0.07,0.081,0.141,0.162,0.211,0.243c0,0,0.01,0.041,0.01,0.042c0.335,0.399,0.323,0.862,0.244,1.337
			c-0.833,0.326-1.694,0.506-2.59,0.504C119.725,243.06,120.697,242.703,121.209,242.174z"/>
		<path fill-rule="evenodd" clip-rule="evenodd" fill="#6B5649" d="M126.079,242.319c-0.624,0.539-1.102,0.455-1.577,0.254
			c-0.043-0.019-0.054-0.274-0.021-0.289C124.952,242.078,125.419,242.148,126.079,242.319z"/>
		<path fill-rule="evenodd" clip-rule="evenodd" fill="#C07548" d="M121.692,241.02c-0.096,0.101-0.182,0.086-0.259-0.023
			C121.52,241.004,121.606,241.012,121.692,241.02z"/>
		<path fill-rule="evenodd" clip-rule="evenodd" fill="#7F634E" d="M115.429,244.357c-0.151-0.017-0.302-0.034-0.453-0.05
			c0.186-0.422,0.408-0.867-0.348-0.923c-0.352-0.026-0.631-0.102-0.659-0.52c0.108-0.149,0.216-0.298,0.325-0.447
			c0.317-0.01,0.635-0.018,0.952-0.031c0.446-0.018,0.919-0.031,1.16,0.419c0.277,0.52-0.296,0.56-0.534,0.735
			C115.574,243.761,116.017,244.337,115.429,244.357z"/>
		<path fill-rule="evenodd" clip-rule="evenodd" fill="#ECA455" d="M117.692,243.784c-0.51-0.188-0.884-0.422-0.771-1.031
			c0.051-0.269,0.229-0.286,0.445-0.196C117.974,242.809,117.888,243.25,117.692,243.784z"/>
		<path fill-rule="evenodd" clip-rule="evenodd" fill="#ECA455" d="M119.089,242.95c-0.099,0.234-0.042,0.588-0.428,0.601
			c-0.167,0.005-0.293-0.114-0.303-0.29c-0.019-0.323,0.154-0.517,0.464-0.562C118.982,242.675,119.131,242.728,119.089,242.95z"/>
		<path fill-rule="evenodd" clip-rule="evenodd" fill="#C07548" d="M122.619,241.946c-0.269,0.011-0.531,0-0.73-0.219
			C122.163,241.698,122.457,241.601,122.619,241.946z"/>
		<path fill-rule="evenodd" clip-rule="evenodd" fill="#C07548" d="M121.722,241.737c-0.085,0.071-0.169,0.142-0.254,0.212
			C121.553,241.878,121.637,241.808,121.722,241.737z"/>
		<path fill-rule="evenodd" clip-rule="evenodd" fill="#C07548" d="M122.831,242.188c-0.071-0.081-0.141-0.162-0.211-0.243
			C122.69,242.026,122.76,242.107,122.831,242.188z"/>
	</g>
</g>
</svg>
