<?xml version="1.0" encoding="utf-8"?>
<!-- Generator: Adobe Illustrator 16.0.4, SVG Export Plug-In . SVG Version: 6.00 Build 0)  -->
<!DOCTYPE svg PUBLIC "-//W3C//DTD SVG 1.1//EN" "http://www.w3.org/Graphics/SVG/1.1/DTD/svg11.dtd">
<svg version="1.1" id="Layer_1" xmlns="http://www.w3.org/2000/svg" xmlns:xlink="http://www.w3.org/1999/xlink" x="0px" y="0px"
	 width="267.12px" height="312.24px" viewBox="0 0 267.12 312.24" enable-background="new 0 0 267.12 312.24" xml:space="preserve">
<g>
	<path fill-rule="evenodd" clip-rule="evenodd" fill="#C9A39E" d="M72.469,118.039c-0.718,0.253-1.436,0.506-2.153,0.759
		C70.649,118.013,71.376,117.757,72.469,118.039z"/>
	<path fill-rule="evenodd" clip-rule="evenodd" fill="#544730" d="M72.737,117.909c0.482-0.094,0.964-0.188,1.446-0.282
		c0.014,0.856-0.434,0.745-0.964,0.459c-0.178-0.008-0.356-0.016-0.534-0.023C72.717,118.016,72.735,117.965,72.737,117.909z"/>
	<g id="body">
		<path fill-rule="evenodd" clip-rule="evenodd" fill="#514729" d="M63.07,120.249c0.127-0.321-0.092-0.739,0.276-0.992
			c0.213,0.024,0.384,0.133,0.542,0.268c1.644,1.022,1.766,2.524,1.265,4.18c-0.308,1.018-0.225,2.051-0.261,3.082
			c-0.035,0.982-0.315,1.806-1.335,2.182c-0.548,0.028-1.096,0.079-1.641-0.033c-0.527-0.668-0.104-1.386-0.085-2.076
			c0.025-0.918,0.286-1.808,0.468-2.704c0.045-0.312,0.097-0.622,0.378-0.824c0.123-0.042,0.22-0.027,0.256,0.121
			c-0.314-1.022,0.597-1.924,0.284-2.943C63.159,120.43,63.11,120.342,63.07,120.249z"/>
		<path fill-rule="evenodd" clip-rule="evenodd" fill="#453A34" d="M83.276,128.36c-0.262,0.193-0.552,0.259-0.88,0.27
			c-2.252,0.075-4.507,0.104-6.752,0.269c-2.175,0.16-4.345,0.277-6.525,0.18c-0.059-0.148-0.021-0.264,0.114-0.348
			c1.313-0.591,2.71-0.406,4.083-0.435c0.513-0.011,1.025-0.043,1.537-0.062c0.814,0.124,1.608-0.102,2.413-0.157
			c1.452-0.117,2.911,0.121,4.359-0.107c0.128-0.039,0.258-0.062,0.39-0.08c0.398-0.038,0.796-0.057,1.167,0.139
			C83.311,128.11,83.342,128.222,83.276,128.36z"/>
		<path fill-rule="evenodd" clip-rule="evenodd" fill="#3C3431" d="M69.12,128.882c0,0.065,0,0.131-0.001,0.196
			c-3.824-0.048-7.646,0.295-11.47,0.073c-0.287-0.017-0.945,0.283-0.778-0.516c0.327-0.171,0.678-0.075,1.021-0.092
			c0.938,0.017,1.875-0.06,2.813-0.024c0.433,0.017,0.863,0.038,1.21,0.35c0.563,0,1.127-0.001,1.691-0.001
			C65.445,128.329,67.283,128.214,69.12,128.882z"/>
		<path fill-rule="evenodd" clip-rule="evenodd" fill="#2F2D1E" d="M80.169,118.057c0.795,1.008,1.604,2.005,2.38,3.028
			c0.62,0.818,1.055,1.729,1.196,2.761c-0.048,0.029-0.096,0.059-0.144,0.088c-0.22,0.023-0.403-0.064-0.488-0.258
			c-0.804-1.832-2.101-3.339-3.244-4.949c-0.044-0.107-0.062-0.219-0.054-0.334C79.871,118.215,79.987,118.101,80.169,118.057z"/>
		<path fill-rule="evenodd" clip-rule="evenodd" fill="#F2B147" d="M60.438,123.164c0.541-0.25,0.766-0.762,1.033-1.24
			c0.336-0.019,0.361,0.22,0.384,0.462c-0.37,1.089-1.131,1.856-2.052,2.492c-0.117,0.021-0.227,0-0.329-0.059
			C59.261,123.956,60.239,123.786,60.438,123.164z"/>
		<path fill-rule="evenodd" clip-rule="evenodd" fill="#3F382A" d="M57.61,128.872c-0.247-0.079-0.493-0.158-0.74-0.237
			c0.046-0.912,0.322-1.732,0.965-2.406c0.176,0.042,0.289,0.151,0.337,0.325c0.019,0.555-0.402,0.967-0.483,1.488
			c-0.024,0.193-0.003,0.385,0.025,0.576C57.719,128.719,57.682,128.803,57.61,128.872z"/>
		<path fill-rule="evenodd" clip-rule="evenodd" fill="#252519" d="M80.169,118.057c-0.075,0.087-0.15,0.174-0.226,0.261
			c-0.293,0.021-0.506-0.119-0.681-0.337c-0.099-0.125-0.185-0.259-0.267-0.396c-0.212-0.544-0.828-0.864-0.851-1.515
			c0.124-0.238,0.292-0.332,0.54-0.168C79.18,116.62,79.675,117.339,80.169,118.057z"/>
		<path fill-rule="evenodd" clip-rule="evenodd" fill="#3E3628" d="M63.601,119.522c-0.085-0.088-0.169-0.177-0.254-0.265
			c-0.095-0.548-0.413-1.093-0.022-1.648c0.076-0.079,0.152-0.075,0.229,0c0.33,0.171,0.661,0.342,0.991,0.513
			C64.168,118.547,63.839,119.003,63.601,119.522z"/>
		<path fill-rule="evenodd" clip-rule="evenodd" fill="#BD7F33" d="M61.949,121.203c0.142-0.591,0.697-0.696,1.122-0.954l0.114,0
			c0.092,0.149,0.112,0.31,0.073,0.479c-0.143,0.374-0.321,0.715-0.765,0.804C62.25,121.525,62.084,121.388,61.949,121.203z"/>
		<path fill-rule="evenodd" clip-rule="evenodd" fill="#DA9538" d="M61.949,121.203c0.205,0.011,0.388,0.061,0.479,0.272
			c0.042,0.542-0.101,0.937-0.743,0.936c-0.011-0.189-0.031-0.374-0.214-0.487C61.63,121.684,61.79,121.443,61.949,121.203z"/>
		<path fill-rule="evenodd" clip-rule="evenodd" fill="#423320" d="M60.438,123.164c-0.103,0.679-0.792,0.984-1.012,1.589
			c-0.06,0.083-0.132,0.091-0.215,0.035c-0.029-0.091-0.01-0.171,0.054-0.24C59.382,123.853,59.939,123.532,60.438,123.164z"/>
		<path fill-rule="evenodd" clip-rule="evenodd" fill="#795637" d="M84.008,125.036c0.358,0.261,0.212,0.626,0.201,0.964
			c-0.09,0.083-0.197,0.123-0.32,0.117c-0.118-0.037-0.21-0.106-0.274-0.213c-0.122-0.301-0.115-0.591,0.074-0.865
			C83.793,124.948,83.9,124.947,84.008,125.036z"/>
		<path fill-rule="evenodd" clip-rule="evenodd" fill="#3C3427" d="M59.266,124.547c0.005,0.045,0.007,0.09,0.006,0.136
			c0.261,0.394-0.05,0.603-0.272,0.842c-0.092,0.064-0.194,0.106-0.305,0.125c-0.114-0.003-0.212-0.047-0.295-0.125
			C58.506,125.037,58.907,124.81,59.266,124.547z"/>
		<path fill-rule="evenodd" clip-rule="evenodd" fill="#513421" d="M84.008,125.036c-0.081,0.001-0.161,0.003-0.242,0.005
			c-0.474-0.397-0.583-0.799-0.013-1.207l-0.008,0.012C84.156,124.172,83.913,124.641,84.008,125.036z"/>
		<path fill-rule="evenodd" clip-rule="evenodd" fill="#543623" d="M83.99,125.999c0.073-0.005,0.146-0.005,0.219,0.001
			c-0.004,0.557-0.008,1.115-0.012,1.673c-0.147,0.065-0.261,0.028-0.342-0.111C83.623,127.018,83.609,126.491,83.99,125.999z"/>
		<path fill-rule="evenodd" clip-rule="evenodd" fill="#6C4939" d="M84.003,127.682c0.064-0.005,0.129-0.008,0.194-0.009
			c0.212,0.926-0.405,0.738-0.921,0.687c0.001-0.066,0.002-0.133,0.005-0.199C83.46,127.908,83.719,127.775,84.003,127.682z"/>
		<path fill-rule="evenodd" clip-rule="evenodd" fill="#312E1C" d="M58.399,125.524c0.047,0.005,0.093,0.002,0.139-0.009
			c0.321,0.569-0.004,0.808-0.494,0.962c-0.069-0.083-0.139-0.165-0.209-0.248C58.023,125.994,58.211,125.759,58.399,125.524z"/>
		<path fill-rule="evenodd" clip-rule="evenodd" fill="#5B502E" d="M77.564,116.515c0.223-0.122,0.445-0.244,0.667-0.366
			c0.403,0.423,0.835,0.826,0.998,1.419c-0.135,0.128-0.161,0.278-0.085,0.452c0.013,0.104,0.008,0.204-0.012,0.306
			c-0.505,0.557-0.591,1.372-1.163,1.887c0.715,0.399,0.764,1.235,1.193,1.82c0.791,1.078,0.622,1.754-0.618,2.402
			c-0.989,0.051-1.383,0.729-1.73,1.537c-0.394,0.917-0.603,1.991-1.695,2.431c-0.509,0.306-1.074,0.245-1.625,0.231
			c-1.466-0.036-2.924,0.039-4.375,0.248c-1.838-0.004-3.676-0.009-5.515-0.014c0.995-0.774,1.047-1.859,0.95-2.974
			c-0.089-1.02,0.252-1.956,0.44-2.929c0.223-1.148,0.207-2.325-1.108-2.952c-0.202-0.096-0.266-0.283-0.286-0.49
			c-0.07-0.726-0.108-1.43,0.943-1.4c0.259,0.133,0.518,0.267,0.777,0.401c0.19,0.37,0.61,0.262,0.896,0.431
			c0.455,0.224,0.902,0.474,1.441,0.379c0.731,0.125,1.392,0.575,2.172,0.474c0.001,0.039-0.001,0.079,0.003,0.117
			c0.027,0.23-0.789,0.175-0.201,0.594c-0.175,0.072-0.352,0.131-0.534,0.024c0.285,0.151,0.546,0.018,0.809-0.076
			c0.096-0.028,0.193-0.049,0.29-0.069c0.467-0.12,0.462-0.61,0.708-0.905c0.584-0.736,1.497-0.804,2.285-1.125
			c0.602-0.147,1.211-0.268,1.797-0.472C75.927,117.586,76.528,116.643,77.564,116.515z"/>
		<path fill-rule="evenodd" clip-rule="evenodd" fill="#453A24" d="M69.61,120.464c-0.658-0.464,0.166-0.432,0.22-0.657
			c0.162-0.336,0.323-0.672,0.485-1.008c0.581-0.64,1.354-0.737,2.153-0.759c0.071,0.013,0.144,0.021,0.216,0.023
			c0.158-0.123,0.326-0.134,0.501-0.044c0.071,0.101,0.092,0.21,0.056,0.33c-0.716,0.463-1.682,0.392-2.299,1.071
			c-0.382,0.356-0.245,0.995-0.708,1.307l-0.08-0.011C69.996,120.585,69.746,120.649,69.61,120.464z"/>
		<path fill-rule="evenodd" clip-rule="evenodd" fill="#433829" d="M66.239,119.04c-0.375-0.049-0.867,0.108-0.917-0.518
			c0.443,0.072,0.859,0.21,1.218,0.49C66.451,119.148,66.351,119.157,66.239,119.04z"/>
		<path fill-rule="evenodd" clip-rule="evenodd" fill="#403928" d="M66.239,119.04c0.1-0.009,0.2-0.018,0.3-0.027
			c0.373,0.107,0.746,0.213,1.119,0.32C67.09,119.694,66.676,119.313,66.239,119.04z"/>
		<path fill-rule="evenodd" clip-rule="evenodd" fill="#625533" d="M61.686,122.411c0.248-0.312,0.495-0.624,0.743-0.936
			c0.222-0.264,0.444-0.528,0.666-0.792c0.548,0.941-0.255,1.773-0.216,2.674c-0.277,0.174-0.231,0.457-0.241,0.72
			c-1.09,0.716-1.066,0.719-1.103,1.013c-0.089,0.722-0.79,1.072-1.058,1.696c-0.22,0.514-0.574,0.943-0.973,1.345
			c-0.55,0.553-1.145,0.828-1.914,0.515c-0.208-0.116-0.236-0.306-0.209-0.517c0.596-0.74,0.867-1.676,1.465-2.414
			c0.207-0.383,0.55-0.638,0.863-0.922C60.395,124.022,61.174,123.328,61.686,122.411z"/>
		<path fill-rule="evenodd" clip-rule="evenodd" fill="#5B512F" d="M57.589,128.647c1.033,0.179,1.641-0.524,2.13-1.201
			c0.566-0.783,0.994-1.668,1.729-2.375c-0.458-0.236-0.518,0.395-0.957,0.199c0.57-0.717,1.234-1.159,2.145-1.191
			c-0.241,1.597-0.482,3.194-0.723,4.791c-1.435,0.001-2.869,0.002-4.304,0.002C57.603,128.797,57.596,128.722,57.589,128.647z"/>
		<path fill-rule="evenodd" clip-rule="evenodd" fill="#443D26" d="M62.878,123.358c-0.153-0.91,0.277-1.772,0.216-2.674
			c0.03-0.145,0.061-0.289,0.091-0.434c0.437-0.05,0.486,0.107,0.453,0.547c-0.074,0.997-0.669,1.885-0.543,2.917
			c0.026,0.213-0.142,0.107-0.181-0.002C62.875,123.604,62.888,123.477,62.878,123.358z"/>
		<path fill-rule="evenodd" clip-rule="evenodd" fill="#5E5230" d="M78.47,124.322c0.428-0.627,1.762-1.064,0.389-2.071
			c-0.239-0.175-0.276-0.636-0.386-0.972c-0.157-0.478-0.338-0.916-1.213-0.755c1.042-0.712,0.962-1.841,1.706-2.457
			c0.514-0.054,0.589,0.436,0.857,0.688c0.156,0.247,0.261,0.507,0.216,0.807c-0.384,0.481-0.547,1.057-0.089,1.503
			c1.526,1.485,0.877,3.173,0.538,4.838c-0.063,0.31-0.111,0.613-0.136,0.93c-0.089,1.131,0.997,0.899,1.503,1.335
			c-1.582,0.513-3.208,0.087-4.808,0.229c-0.331-0.498-0.068-0.875,0.251-1.24c0.925-0.656,1.186-1.612,1.201-2.677
			C78.488,124.429,78.479,124.375,78.47,124.322z"/>
		<path fill-rule="evenodd" clip-rule="evenodd" fill="#675935" d="M81.854,128.17c-1.799-0.025-2.108-0.662-1.658-2.413
			c0.382-1.486,1.077-3.109-0.507-4.504c-0.542-0.478-0.775-1.333,0.259-1.794c0.577-0.004,0.783,0.48,1.039,0.846
			c0.652,0.929,1.198,1.922,1.613,2.985c0.259,1.665-0.018,3.273-0.508,4.859C82.012,128.161,81.933,128.167,81.854,128.17z"/>
		<path fill-rule="evenodd" clip-rule="evenodd" fill="#473E23" d="M77.505,127.193c-0.303,0.345-0.372,0.778-0.459,1.205
			c-0.642-0.095-1.283,0.503-1.926,0.004c0.719-0.855,1.183-1.842,1.583-2.881c0.293-0.761,0.655-1.575,1.767-1.2l0.01-0.002
			C78.773,125.487,78.106,126.329,77.505,127.193z"/>
		<path fill-rule="evenodd" clip-rule="evenodd" fill="#9B7139" d="M82.091,128.15c-0.24-1.691,0.556-3.335,0.23-5.031
			c0.855,0.468,0.909,1.343,1.093,2.153c0.104,0.459,0.146,0.922,0.074,1.375c0.105-0.207,0.032-0.521,0.31-0.666
			c0.064,0.006,0.128,0.012,0.192,0.018c0.004,0.561,0.009,1.122,0.013,1.683c-0.028,0.482-0.376,0.479-0.723,0.479
			C82.884,128.157,82.488,128.153,82.091,128.15z"/>
		<path fill-rule="evenodd" clip-rule="evenodd" fill="#D79542" d="M83.798,125.981c-0.033,0.269-0.066,0.537-0.1,0.806
			c-0.635-1.185-0.657-2.551-1.377-3.668c-0.825-1.198-1.297-2.625-2.374-3.659c-0.105-0.207-0.211-0.413-0.317-0.619
			c-0.036-0.27,0.079-0.376,0.346-0.32c1.276,1.558,2.596,3.086,3.323,5.007c0.085,0.225,0.254,0.277,0.455,0.307
			c-0.266,0.405-0.113,0.806,0.013,1.207C83.777,125.354,83.788,125.668,83.798,125.981z"/>
		<path fill-rule="evenodd" clip-rule="evenodd" fill="#B77B37" d="M79.976,118.521c-0.115,0.106-0.23,0.213-0.345,0.32
			c-0.222-0.258-0.444-0.515-0.666-0.773c-0.007-0.076-0.017-0.152-0.028-0.229c0.153-0.132,0.302-0.145,0.441,0.021
			c0.188,0.153,0.377,0.306,0.565,0.458C79.957,118.385,79.967,118.453,79.976,118.521z"/>
		<path fill-rule="evenodd" clip-rule="evenodd" fill="#E8AB42" d="M59.708,124.794c-0.234,0.315-0.468,0.63-0.702,0.946
			c-0.203,0.051-0.325,0.026-0.207-0.222c0.157-0.278,0.314-0.557,0.472-0.835c0.047,0.032,0.099,0.056,0.155,0.07
			C59.52,124.766,59.614,124.78,59.708,124.794z"/>
		<path fill-rule="evenodd" clip-rule="evenodd" fill="#D1903D" d="M58.799,125.518c0.069,0.074,0.138,0.148,0.208,0.222
			c-0.648,0.725-0.669,1.877-1.627,2.39c0.045-0.622,0.463-1.094,0.665-1.653c0.165-0.321,0.33-0.641,0.494-0.962
			C58.625,125.516,58.712,125.516,58.799,125.518z"/>
		<path fill-rule="evenodd" clip-rule="evenodd" fill="#926532" d="M79.378,117.86c-0.147-0.007-0.293-0.014-0.441-0.021
			c-0.103-0.104-0.31-0.278-0.293-0.303c0.196-0.293,0.381,0.061,0.584,0.033C79.279,117.666,79.329,117.763,79.378,117.86z"/>
		<path fill-rule="evenodd" clip-rule="evenodd" fill="#E3B146" d="M76.818,116.405c0.224-0.106,0.447-0.212,0.67-0.318
			c0.025,0.142,0.05,0.285,0.076,0.428c-0.725,0.655-1.508,1.222-2.425,1.582c-0.237,0.137-0.435,0.133-0.556-0.151
			c0.16-0.47,0.636-0.409,0.974-0.581C75.751,116.748,76.594,116.983,76.818,116.405z"/>
		<path fill-rule="evenodd" clip-rule="evenodd" fill="#3D3729" d="M71.763,121.925c-0.376,0.436-0.88,0.509-1.409,0.475
			c-0.539-0.035-0.837,0.178-0.834,0.814c-0.116-1.114-1.377-1.03-1.772-1.827c0.463-0.247,0.576,0.19,0.817,0.328
			c0.297,0.169,0.667,0.343,0.747-0.126c0.137-0.8,0.672-0.613,1.227-0.598c-0.177,0.321-0.789,0.176-0.699,0.689
			c0.279,0.395,0.643,0.215,0.991,0.146c0.323,0.042,0.589-0.249,0.92-0.16l0.012,0.056c0.069,0.045,0.091,0.09,0.068,0.135
			C71.809,121.903,71.786,121.925,71.763,121.925z"/>
		<path fill-rule="evenodd" clip-rule="evenodd" fill="#CA9942" d="M70.767,119.233c0.663-0.685,1.598-0.674,2.422-0.945
			c0.066,0.061,0.092,0.124,0.076,0.19c-0.017,0.068-0.035,0.102-0.056,0.102c-0.671,0.519-1.672,0.389-2.228,1.134
			C70.579,119.702,70.694,119.458,70.767,119.233z"/>
		<path fill-rule="evenodd" clip-rule="evenodd" fill="#BA8D3E" d="M73.209,118.579c-0.006-0.097-0.013-0.194-0.02-0.292
			c0.002-0.068,0.012-0.136,0.03-0.202c0.382-0.024,0.882,0.197,0.963-0.459c0.034-0.046,0.079-0.062,0.134-0.048
			c0.188,0.006,0.293,0.107,0.335,0.285c0.101,0.207,0.301,0.205,0.488,0.233C74.533,118.405,73.888,118.559,73.209,118.579z"/>
		<path fill-rule="evenodd" clip-rule="evenodd" fill="#B08539" d="M70.767,119.233c0.072,0.16,0.144,0.321,0.215,0.481
			c-0.201,0.372-0.043,1.008-0.745,1.013C70.309,120.192,70.371,119.653,70.767,119.233z"/>
		<path fill-rule="evenodd" clip-rule="evenodd" fill="#866633" d="M70.838,121.961c-0.876,0.341-1.027,0.299-0.999-0.28
			c0.25,0.01,0.5,0.021,0.75,0.032C70.675,121.792,70.826,121.808,70.838,121.961z"/>
		<path fill-rule="evenodd" clip-rule="evenodd" fill="#353125" d="M71.763,121.925c-0.001-0.067-0.001-0.135,0-0.202
			c0.178-0.062,0.355-0.125,0.534-0.187c0.026,0.103,0.104,0.23,0.069,0.305C72.22,122.151,71.981,122.006,71.763,121.925z"/>
		<path fill-rule="evenodd" clip-rule="evenodd" fill="#A27D3E" d="M70.838,121.961c-0.083-0.083-0.167-0.167-0.249-0.249
			c0.392,0.106,0.759-0.45,1.162-0.045C71.447,121.766,71.143,121.863,70.838,121.961z"/>
		<path fill-rule="evenodd" clip-rule="evenodd" fill="#896634" d="M69.61,120.464c0.182,0.084,0.363,0.168,0.545,0.252
			c-0.344,0-0.688,0-1.061,0C69.208,120.394,69.442,120.513,69.61,120.464z"/>
		<path fill-rule="evenodd" clip-rule="evenodd" fill="#68543C" d="M74.651,117.864c-0.111-0.095-0.223-0.19-0.334-0.285
			c0.391-0.198,0.763-0.513,1.24-0.214C75.333,117.672,74.975,117.735,74.651,117.864z"/>
		<path fill-rule="evenodd" clip-rule="evenodd" fill="#8B6330" d="M77.505,127.193c0.271-0.976,0.97-1.807,0.974-2.873
			c0.075,0.017,0.192,0.009,0.219,0.055C79.092,125.033,78.296,126.901,77.505,127.193z"/>
	</g>
	<g id="head">
		<path fill-rule="evenodd" clip-rule="evenodd" fill="#C79E98" d="M77.967,104.878c0.157-0.085,0.314-0.17,0.471-0.255
			c0.213,0.041,0.473-0.189,0.643,0.11c0.051,0.151,0.037,0.298-0.035,0.439c-0.245,0.464-0.495,0.923-0.835,1.326
			c-0.082,0.227-0.508,0.453,0.009,0.672c0.288,0.028,0.608-0.106,0.837,0.18c-0.048,1.081-0.982,1.542-1.499,2.195
			c0.086-0.068,0.224-0.239,0.459-0.146c0.154,0.158,0.097,0.351,0.085,0.536c0.161-0.229,0.105-0.515,0.198-0.763
			c0.079-0.156,0.193-0.262,0.378-0.27c0.222,0.106,0.319,0.303,0.381,0.525c0.03,0.29-0.075,0.543-0.207,0.79
			c-0.3,0.443-0.59,0.893-0.953,1.289c-0.389,0.497-0.834,0.96-0.952,1.617c-0.016,0.108-0.046,0.211-0.087,0.312
			c-0.679,0.778-0.176,1.645-0.182,2.473c-0.066,0.16-0.172,0.288-0.303,0.398c-0.974,0.853-2.216,1.168-3.361,1.677
			c-0.083,0.073-0.175,0.132-0.273,0.183c-0.107,0.034-0.217,0.045-0.329,0.042c-0.752,0.029-1.574-0.112-1.959,0.806
			c-0.091,0.41-0.204,0.805-0.661,0.963c-0.76,0.201-1.439-0.108-2.131-0.337c-0.382-0.13-0.761-0.271-1.144-0.401
			c-0.399-0.184-0.802-0.359-1.22-0.499c-0.296-0.129-0.581-0.284-0.878-0.411c-0.322-0.172-0.721-0.224-0.919-0.587
			c-0.024-0.28-0.27-0.423-0.4-0.638c0.016-0.068,0.013-0.135-0.008-0.202c0.024-0.165,0.115-0.288,0.244-0.386
			c0.315-0.161,0.588-0.365,0.705-0.722c0.089-0.192,0.198-0.367,0.409-0.447c0.471-0.098,0.943-0.195,1.363,0.158
			c0.125,0.096,0.236,0.207,0.341,0.323c0.216,0.321,0.549,0.409,0.906,0.449c0.188-0.012,0.475,0.761,0.559-0.073
			c0.084-0.072,0.181-0.106,0.293-0.098c0.32,0.18,0.303,0.648,0.661,0.779c-0.163-0.104-0.268-0.257-0.28-0.469
			c0.033-0.228,0.136-0.42,0.29-0.587c0.327-0.275,0.686-0.367,1.092-0.18c-0.344-0.254-0.902-0.065-1.125-0.559
			c-0.052-0.511,0.367-0.442,0.656-0.534c0.168-0.021,0.332,0,0.489,0.063c0.109,0.049,0.212,0.111,0.302,0.19
			c0.232,0.203,0.398,0.421,0.458-0.146c0.021-0.202,0.494-0.121,0.766-0.045c0.391,0.109,0.67,0.431,1.018,0.519
			c-0.128-0.107-0.363-0.154-0.492-0.347c-0.093-0.178-0.027-0.324,0.09-0.461c0.116-0.123,0.249-0.226,0.393-0.314
			c0.43-0.271,0.838,0.009,1.198,0.007c-0.414-0.185-1.318,0.051-1.058-0.978c0.041-0.308,0.089-0.617-0.067-0.91
			c-0.062-0.083-0.114-0.17-0.163-0.261c-0.038-0.097-0.054-0.198-0.051-0.301c0.019-0.102,0.063-0.192,0.129-0.271
			c0.319-0.164,0.537-0.443,0.781-0.693c0.077-0.072,0.16-0.135,0.246-0.193c0.419-0.243,0.733-0.588,0.984-0.998
			c0.091-0.134,0.194-0.258,0.305-0.376c0.343-0.337,0.671-0.688,0.922-1.102c0.318-0.418,0.742-0.756,0.955-1.255
			c0.408-0.64,0.611-1.416,1.249-1.905C77.781,104.762,77.882,104.798,77.967,104.878z"/>
		<path fill-rule="evenodd" clip-rule="evenodd" fill="#56433E" d="M61.164,107.28c0.078-0.233-0.165-0.308-0.231-0.469
			c0.184-0.248,0.804,0.256,0.745-0.555c-0.055-0.744,0.421-1.499,0.001-2.285c-0.148-0.277,0.115-0.403,0.374-0.442
			c0.257-0.034,0.6,0.189,0.754-0.127c0.129-0.265-0.191-0.388-0.352-0.543c-0.351-0.339-0.977-0.609-0.267-1.186
			c0.542-0.08,1.025,0.103,1.501,0.325c0.356,0.213,0.779,0.155,1.158,0.277c0.347,0.144,0.594,0.36,0.555,0.778
			c0.078,0.194-0.52,0.04-0.189,0.368c0.26,0.259,0.438,0.561,0.466,0.937c-0.072,0.687-0.727,0.762-1.191,1.093
			c1.321-0.133,1.513,0.021,1.581,1.196c0.084,1.459-0.147,2.923,0.063,4.382c0.006,0.118-0.013,0.231-0.055,0.341
			c-0.226,0.299-0.561,0.401-0.897,0.5c-0.508,0.017-0.811,0.626-1.375,0.483c-0.078-0.082-0.136-0.176-0.177-0.281
			c-0.099-0.594-0.308-1.163-0.403-1.758c0.027-0.536-0.306-0.849-0.699-1.124c-0.698-0.326-0.867-1.106-1.377-1.594
			C61.098,107.487,61.107,107.382,61.164,107.28z"/>
		<path fill-rule="evenodd" clip-rule="evenodd" fill="#C8A099" d="M61.211,107.513c0.893,0.092,0.647,1.33,1.484,1.477
			c0.135,0.438,0.708,0.643,0.632,1.192c0.299,0.591,0.568,1.189,0.499,1.878c-0.109,0.215-0.147,0.406,0.159,0.482
			c0.127-0.06,0.255-0.086,0.393-0.039c0.133,0.08,0.224,0.192,0.268,0.343c0.001,0.353-0.235,0.572-0.446,0.808
			c-0.191,0.192-0.385,0.382-0.639,0.494c-0.218,0.073-0.435,0.075-0.648-0.019c-0.158-0.077-0.192-0.264-0.323-0.365
			c-0.064-0.068-0.128-0.136-0.193-0.204c-0.138-0.339-0.304-0.635-0.756-0.495c-0.213-0.097-0.216-0.283-0.203-0.477
			c-0.102-0.131-0.148-0.289-0.213-0.438c-0.252-0.691-0.931-1.048-1.297-1.65c-0.052-0.097-0.083-0.201-0.092-0.311
			c0.003-0.106,0.023-0.21,0.057-0.311c0.2-0.34,0.035-0.678-0.014-1.015c0.075-0.326-0.396-0.623-0.054-0.964
			C60.302,107.82,60.813,107.87,61.211,107.513z"/>
		<path fill-rule="evenodd" clip-rule="evenodd" fill="#413232" d="M62.146,103.687c-0.144,0.027-0.412,0.062-0.269,0.241
			c0.821,1.016,0.083,1.967-0.132,2.906c-0.152,0.662-0.523-0.268-0.812-0.022c-0.143-0.026-0.229-0.094-0.187-0.256
			c-0.007-0.838-0.597-1.446-0.873-2.18c-0.325-0.863-0.614-1.722-0.56-2.658c0.022-0.393,0.197-0.688,0.583-0.817
			c0.338-0.112,0.639-0.002,0.87,0.245c0.678,0.725,1.283,1.528,2.218,1.965c0.173,0.081,0.21,0.239,0.102,0.39
			C62.836,103.846,62.51,103.881,62.146,103.687z"/>
		<path fill-rule="evenodd" clip-rule="evenodd" fill="#423332" d="M78.439,102.242c0.197,0.525-0.175,0.955-0.241,1.437
			c-0.139,0.142-0.307,0.145-0.485,0.103c-1.166-0.202-1.974-1.062-2.945-1.62c-0.479-0.276-0.678-0.745-0.496-1.315
			c0.469-0.534,1.052-0.958,1.491-1.523c0.598-0.506,1.192-0.677,1.771,0.031c0.683,0.979,0.731,2.013,0.359,3.024
			c-0.202,0.173,0.116,0.214-0.007,0.111c-0.015-0.013,0.014-0.029,0.027-0.069C78.012,102.122,78.188,102.076,78.439,102.242z"/>
		<path fill-rule="evenodd" clip-rule="evenodd" fill="#F2E4D1" d="M70.031,95.978c0.105,0.012,0.21,0.024,0.315,0.037
			c0.729,0.563,1.548,0.808,2.468,0.707c0.85,0.045,1.721-0.141,2.541,0.231c0.084,0.145,0.168,0.289,0.253,0.434
			c0.024,0.468,0.292,0.913,0.14,1.399c-0.053,0.099-0.128,0.175-0.228,0.229c-0.22,0.076-0.431,0.061-0.629-0.066
			c-0.235-0.215-0.414-0.485-0.658-0.694c-0.233-0.091,0.333-0.469-0.249-0.531c-0.625-0.067-1.229,0.036-1.842,0.004
			c-0.759-0.102-1.452-0.403-2.145-0.706c-1.155-0.717-2.326-0.476-3.5-0.035c0.096,0.167,0.385,0.23,0.345,0.507
			c-0.07,0.39-0.49,0.246-0.681,0.45c-0.173,0.163-0.222,0.445-0.49,0.517c-0.432-0.131-0.415-0.59-0.644-0.872
			c-0.103-0.208-0.163-0.417,0.014-0.619c0.418-0.329,0.836-0.657,1.253-0.986c0.411-0.326,0.875-0.492,1.402-0.461
			c0.376-0.001,0.751-0.003,1.127,0.003C69.287,95.514,69.673,95.708,70.031,95.978z"/>
		<path fill-rule="evenodd" clip-rule="evenodd" fill="#3D302F" d="M62.146,103.687c0.271-0.022,0.565,0.037,0.804-0.273
			c-0.757-0.686-1.809-1.051-2.315-2.025c-0.141-0.272-0.403-0.396-0.707-0.278c-0.293,0.114-0.393,0.354-0.374,0.67
			c0.074,1.241,0.422,2.396,0.991,3.501c0.194,0.377,0.681,0.767,0.202,1.273c-0.911-1.648-1.847-3.288-1.745-5.271
			c0.103-0.397,0.397-0.629,0.723-0.833c0.153-0.062,0.312-0.072,0.473-0.041c0.208,0.048,0.373,0.182,0.557,0.279
			c0.328,0.143,0.669,0.259,0.972,0.458c0.214,0.162,0.408,0.338,0.431,0.631c-0.353,0.655,0.336,0.651,0.586,0.923
			c0.24,0.26,0.832,0.367,0.5,0.887C62.966,104.021,62.548,104.066,62.146,103.687z"/>
		<path fill-rule="evenodd" clip-rule="evenodd" fill="#F5DEC6" d="M76.779,113.255c0.004-0.068,0.007-0.136,0.01-0.204
			c0.158-0.336,0.444-0.577,0.652-0.877c1.017-0.641,1.832-1.552,2.88-2.152c0.177-0.037,0.336-0.007,0.471,0.119
			c-0.455,1.331-1.483,2.213-2.461,3.134c-0.356,0.105-0.576,0.424-0.903,0.576c-0.164,0.022-0.311-0.027-0.455-0.099
			c-0.094-0.052-0.174-0.121-0.243-0.203C76.692,113.442,76.711,113.344,76.779,113.255z"/>
		<path fill-rule="evenodd" clip-rule="evenodd" fill="#EDCEB7" d="M78.774,109.036c-0.099,0.056-0.197,0.112-0.295,0.168
			c-0.133,0.124-0.198,0.384-0.468,0.233c-0.276,0.19-0.552,0.38-1.031,0.71c0.61-1.195,1.648-1.795,1.974-2.874
			c-0.068-0.089-0.079-0.186-0.032-0.288c0.398-0.4,0.847-0.747,1.233-1.16c0.164-0.334,0.459-0.226,0.725-0.215
			c0.067,0.622-0.344,1.107-0.472,1.673c-0.079,0.199-0.187,0.38-0.322,0.546c-0.282,0.295-0.552,0.6-0.772,0.947
			C79.17,108.938,79.007,109.06,78.774,109.036z"/>
		<path fill-rule="evenodd" clip-rule="evenodd" fill="#F1C7B1" d="M79.929,107.643c0.083-0.131,0.165-0.263,0.248-0.395
			c0.212-0.193,0.273-0.62,0.713-0.462c0.076,0.07,0.151,0.139,0.227,0.209c0.158,0.393-0.161,0.678-0.232,1.018l0.009-0.016
			c-0.34,0.468-0.589,0.998-0.977,1.433c-0.028,0.1-0.057,0.2-0.085,0.3c-0.068,0.392-0.199,0.732-0.661,0.8
			c-0.235-0.03-0.407-0.138-0.47-0.381c0.08-0.241,0.161-0.481,0.241-0.722c-0.124-0.399,0.356-0.509,0.398-0.829
			C79.487,108.249,79.834,108.024,79.929,107.643z"/>
		<path fill-rule="evenodd" clip-rule="evenodd" fill="#504240" d="M62.398,101.048c1.342,0.364,0.898-1.034,1.44-1.459
			c0.387-0.135,0.539,0.45,0.93,0.299c0.186-0.033,0.369-0.073,0.535-0.166c0.27-0.236,0.172-0.683,0.506-0.883
			c0.111-0.031,0.216-0.018,0.317,0.037c0.339,0.278,0.429,0.672,0.506,1.073c0.008,0.184-0.037,0.349-0.17,0.482
			c-0.7,0.42-1.479,0.587-2.272,0.701c-0.287,0.051-0.388,0.341-0.607,0.481c-0.49,0.131-0.899,0.02-1.209-0.395
			C62.383,101.163,62.391,101.105,62.398,101.048z"/>
		<path fill-rule="evenodd" clip-rule="evenodd" fill="#684636" d="M78.439,102.242c-0.357-0.039-0.366,0.351-0.646,0.534
			c-0.019-1.195,0.214-2.387-0.513-3.416c-0.225-0.355-0.094-0.658,0.139-0.946c0.104-0.075,0.207-0.073,0.308,0.005
			C78.121,99.664,78.726,100.87,78.439,102.242z"/>
		<path fill-rule="evenodd" clip-rule="evenodd" fill="#EDE4CA" d="M64.807,100.088c-0.508,0.288-0.508,0.288-0.968-0.499
			c0-0.15,0-0.299,0-0.449c-0.032-0.39,0.108-0.729,0.307-1.052c0.209-0.302,0.398-0.619,0.657-0.885
			c0.08-0.078,0.159-0.156,0.238-0.234c0.007,0.198,0.054,0.377,0.242,0.485C65.175,98.342,64.641,99.152,64.807,100.088z"/>
		<path fill-rule="evenodd" clip-rule="evenodd" fill="#EDBD9C" d="M79.181,110.415c0.217-0.229,0.435-0.458,0.651-0.687
			c0.111,0.062,0.223,0.124,0.335,0.185c0.082-0.089,0.172-0.099,0.27-0.03c0.057,0.104,0.042,0.194-0.055,0.267
			c-0.915,0.777-1.717,1.701-2.859,2.181c-0.257-0.295-0.042-0.506,0.129-0.724c0.085-0.07,0.177-0.131,0.274-0.184
			c0.405-0.18,0.709-0.487,1.003-0.806C79.01,110.546,79.094,110.479,79.181,110.415z"/>
		<path fill-rule="evenodd" clip-rule="evenodd" fill="#4B3633" d="M70.031,95.978c-0.407,0.109-0.725-0.19-1.098-0.237
			c-0.455-0.18-0.91-0.13-1.366-0.006c-0.461-0.107-0.842,0.199-1.273,0.25C67.25,94.941,69.401,94.938,70.031,95.978z"/>
		<path fill-rule="evenodd" clip-rule="evenodd" fill="#5E4842" d="M75.354,96.953c-0.882-0.009-1.765-0.018-2.647-0.026
			c-0.168-0.253-0.722,0.166-0.707-0.406c0.792-0.013,1.584-0.028,2.376-0.037C74.776,96.479,75.184,96.472,75.354,96.953z"/>
		<path fill-rule="evenodd" clip-rule="evenodd" fill="#C59D94" d="M61.651,114.748c-0.408-0.333-0.91-0.205-1.369-0.292
			c-0.479-0.091-0.872,0.384-1.432,0.157c0.933-0.984,2.057-0.495,3.074-0.576c0.073,0.074,0.098,0.162,0.076,0.263
			C61.934,114.487,61.849,114.661,61.651,114.748z"/>
		<path fill-rule="evenodd" clip-rule="evenodd" fill="#F5DCBF" d="M78,106.321c0.401-0.333,0.437-0.939,0.911-1.217
			c0.052-0.047,0.109-0.083,0.174-0.11c0.075-0.004,0.136,0.022,0.185,0.079c-0.039,0.19-0.053,0.374,0.128,0.508
			c0.218,0.752-0.468,0.844-0.845,1.164C78.144,106.898,77.817,106.94,78,106.321z"/>
		<path fill-rule="evenodd" clip-rule="evenodd" fill="#AB8882" d="M59.784,100.578c-0.261,0.235-0.522,0.471-0.784,0.706
			c-0.882,0.008-0.816-0.415-0.445-0.977C58.984,100.31,59.509,99.878,59.784,100.578z"/>
		<path fill-rule="evenodd" clip-rule="evenodd" fill="#E7CAC4" d="M61.211,107.513c-0.245,0.853-0.807,0.722-1.413,0.457
			c-0.09-0.04-0.127-0.089-0.112-0.149c0.018-0.065,0.039-0.098,0.064-0.098c0.026-0.372,0.202-0.482,0.54-0.31
			c0.323,0.165,0.601,0.033,0.874-0.133C61.182,107.357,61.197,107.435,61.211,107.513z"/>
		<path fill-rule="evenodd" clip-rule="evenodd" fill="#E9CAC7" d="M62.876,113.994c0.229,0.007,0.459,0.014,0.688,0.02
			c0.082,0.079,0.108,0.172,0.081,0.282c-0.278,0.296-0.386,0.738-0.794,0.923c-0.168-0.021-0.336-0.042-0.503-0.064
			c-0.13-0.077-0.274-0.138-0.327-0.299c-0.034-0.156-0.016-0.305,0.058-0.447C62.286,114.159,62.602,114.116,62.876,113.994z"/>
		<path fill-rule="evenodd" clip-rule="evenodd" fill="#D1A69F" d="M78.452,106.512c0.315-0.31,0.631-0.621,0.946-0.931
			c0.179,0.094,0.358,0.188,0.537,0.281c-0.041,0.586-0.481,0.823-0.924,1.058c-0.196,0.076-0.371,0.307-0.608,0.086
			C78.331,106.833,78.365,106.669,78.452,106.512z"/>
		<path fill-rule="evenodd" clip-rule="evenodd" fill="#B89186" d="M62.09,114.95c0.086,0.069,0.172,0.138,0.258,0.207
			c-0.805-0.05-1.223,0.886-2.121,0.825c0.333-0.678,1.038-0.694,1.51-1.039C61.857,114.823,61.975,114.827,62.09,114.95z"/>
		<path fill-rule="evenodd" clip-rule="evenodd" fill="#624D46" d="M79.274,103.691c0.187-0.377,0.317-0.814,0.868-0.792
			c-0.096,0.428,0.753,0.839,0.024,1.28c-0.174-0.041-0.345-0.097-0.522-0.131C79.453,104,79.307,103.904,79.274,103.691z"/>
		<path fill-rule="evenodd" clip-rule="evenodd" fill="#42322E" d="M72,96.521c0.235,0.135,0.471,0.271,0.707,0.406
			c-0.944,0.103-1.79-0.048-2.361-0.912C70.954,95.997,71.37,96.61,72,96.521z"/>
		<path fill-rule="evenodd" clip-rule="evenodd" fill="#5E504B" d="M61.434,112.125c0.001,0.154,0.003,0.309,0.004,0.463
			c-0.639-0.582-1.409-1.05-1.691-1.942c0.083-0.084,0.177-0.102,0.285-0.056C60.531,111.073,61.092,111.499,61.434,112.125z"/>
		<path fill-rule="evenodd" clip-rule="evenodd" fill="#6C534D" d="M81.35,108.93c0.223-0.255,0.243-0.667,0.645-0.857
			c0.265,0.792-0.248,1.273-0.585,1.811c-0.177-0.1-0.246-0.261-0.264-0.454C81.147,109.236,81.232,109.076,81.35,108.93z"/>
		<path fill-rule="evenodd" clip-rule="evenodd" fill="#73544D" d="M60.709,100.797c-0.193,0-0.364-0.044-0.467-0.229
			c-0.418-0.39-1.006-0.27-1.48-0.489c0.894-0.583,1.579-0.207,2.196,0.479c0.065,0.091,0.072,0.188,0.028,0.29
			C60.882,100.895,60.789,100.881,60.709,100.797z"/>
		<path fill-rule="evenodd" clip-rule="evenodd" fill="#A4837F" d="M62.607,116.191c-0.453-0.253-0.584,0.476-1.156,0.298
			c0.552-0.366,0.769-0.972,1.424-1.075c0.078,0.065,0.127,0.148,0.149,0.248c0.003,0.101-0.015,0.198-0.055,0.292
			C62.883,116.084,62.77,116.175,62.607,116.191z"/>
		<path fill-rule="evenodd" clip-rule="evenodd" fill="#866962" d="M80.89,106.786c-0.238,0.154-0.476,0.309-0.713,0.463
			c0.234-0.546,0.469-1.093,0.704-1.639c0.222,0.006,0.488-0.05,0.3,0.342C81.054,106.215,80.985,106.507,80.89,106.786z"/>
		<path fill-rule="evenodd" clip-rule="evenodd" fill="#836B65" d="M60.067,109.883c-0.038,0.095-0.075,0.19-0.112,0.286
			c-0.464-0.152-0.897-0.326-0.676-0.96c0.013-0.162,0.026-0.323,0.04-0.484c0.158-0.144,0.324-0.134,0.495-0.024
			C59.929,109.086,60.325,109.415,60.067,109.883z"/>
		<path fill-rule="evenodd" clip-rule="evenodd" fill="#DEB242" d="M78.685,115.902c-0.195,0.001-0.373,0.036-0.454,0.248
			c-0.131,0.307-0.342,0.452-0.682,0.332c-0.087-0.077-0.144-0.172-0.167-0.287c0.01-0.442,0.304-0.704,0.608-0.959
			c0.092-0.062,0.195-0.098,0.304-0.116c0.332,0.067,0.409,0.312,0.42,0.603C78.725,115.786,78.714,115.846,78.685,115.902z"/>
		<path fill-rule="evenodd" clip-rule="evenodd" fill="#624B46" d="M59.279,109.208c0,0.479,0.479,0.621,0.676,0.96
			c0.051,0.099,0.103,0.198,0.154,0.298c0.006,0.103-0.041,0.161-0.143,0.174c-0.073,0-0.147,0.002-0.22,0.006
			C59.281,110.268,58.779,109.9,59.279,109.208z"/>
		<path fill-rule="evenodd" clip-rule="evenodd" fill="#422C17" d="M78.716,115.723c-0.147-0.17-0.295-0.339-0.443-0.509
			c-0.155-0.103-0.186-0.253-0.169-0.424c0.044-0.234,0.215-0.368,0.394-0.495C78.934,114.715,79.224,115.158,78.716,115.723z"/>
		<path fill-rule="evenodd" clip-rule="evenodd" fill="#C8A099" d="M62.917,115.691c-0.014-0.092-0.028-0.184-0.042-0.276
			c0.002-0.066-0.006-0.131-0.025-0.195c0.161-0.387,0.197-0.865,0.718-0.991c0.291,0.149,0.385,0.399,0.36,0.709
			C63.695,115.325,63.426,115.669,62.917,115.691z"/>
		<path fill-rule="evenodd" clip-rule="evenodd" fill="#846862" d="M77.037,97.673c0.289-0.12,0.353-0.751,0.803-0.445
			c0.457,0.312-0.214,0.588-0.122,0.917C77.2,98.408,77.016,98.188,77.037,97.673z"/>
		<path fill-rule="evenodd" clip-rule="evenodd" fill="#C4A7A1" d="M58.761,100.08c0.515,0.098,1.186-0.276,1.48,0.489
			c-0.153,0.003-0.305,0.006-0.458,0.009c-0.325-0.476-0.902,0.193-1.229-0.271C58.624,100.231,58.692,100.156,58.761,100.08z"/>
		<path fill-rule="evenodd" clip-rule="evenodd" fill="#A78982" d="M77.037,97.673c0.119,0.313,0.321,0.507,0.681,0.473
			c0.003,0.091,0.005,0.182,0.008,0.273l-0.112-0.002l-0.109,0.023c-0.249,0.397-0.599,0.381-0.98,0.241
			c-0.229-0.368,0.025-0.574,0.265-0.784C76.872,97.822,76.955,97.748,77.037,97.673z"/>
		<path fill-rule="evenodd" clip-rule="evenodd" fill="#6E5A54" d="M60.956,100.729c0-0.057,0-0.114,0.001-0.17
			c0.666-0.384,1.006,0.193,1.441,0.489l0.012-0.012c-0.138,0.143-0.307,0.205-0.503,0.197
			C61.563,101.117,61.178,101.077,60.956,100.729z"/>
		<path fill-rule="evenodd" clip-rule="evenodd" fill="#8F766E" d="M59.726,108.713c-0.135,0.004-0.271,0.007-0.407,0.011
			c-0.444-0.588,0.292-0.666,0.432-1c0.016,0.083,0.032,0.165,0.048,0.247c-0.045,0.281,0.496,0.407,0.199,0.754
			C59.901,108.864,59.811,108.86,59.726,108.713z"/>
		<path fill-rule="evenodd" clip-rule="evenodd" fill="#5D4F4C" d="M79.274,103.691c0.135,0.076,0.27,0.152,0.405,0.229
			c0.083,0.158,0.007,0.274-0.099,0.384c-0.192,0.15-0.379,0.313-0.647,0.3c-0.165,0.01-0.32,0.28-0.495,0.019
			C78.717,104.312,78.996,104.001,79.274,103.691z"/>
		<path fill-rule="evenodd" clip-rule="evenodd" fill="#3D2928" d="M75.635,98.895c-0.023-0.502-0.305-1-0.028-1.508
			c0.352,0.154,0.201,0.479,0.251,0.736c0.163,0.203,0.444,0.349,0.329,0.686c-0.055,0.1-0.139,0.164-0.25,0.191
			C75.824,99.001,75.724,98.964,75.635,98.895z"/>
		<path fill-rule="evenodd" clip-rule="evenodd" fill="#40322F" d="M64.275,98.153c-0.215,0.298-0.092,0.747-0.437,0.987
			c-0.585-0.538,0.079-0.848,0.228-1.251C64.216,97.914,64.229,98.046,64.275,98.153z"/>
		<path fill-rule="evenodd" clip-rule="evenodd" fill="#604842" d="M81.35,108.93c-0.006,0.194-0.012,0.389-0.018,0.584
			c-0.285,0.201-0.512,0.515-0.921,0.474c-0.081-0.024-0.163-0.049-0.244-0.074C80.51,109.524,80.697,108.947,81.35,108.93z"/>
		<path fill-rule="evenodd" clip-rule="evenodd" fill="#66524D" d="M78.966,106.832c0.323-0.324,0.646-0.646,0.969-0.97
			c0.073-0.018,0.146-0.03,0.22-0.038c-0.092,0.701-0.589,1.026-1.174,1.271c-0.074-0.055-0.101-0.112-0.081-0.172
			C78.921,106.863,78.942,106.832,78.966,106.832z"/>
		<path fill-rule="evenodd" clip-rule="evenodd" fill="#9A6950" d="M79.917,109.429c0.19-0.57,0.434-1.104,0.977-1.433
			C80.75,108.599,80.547,109.16,79.917,109.429z"/>
		<path fill-rule="evenodd" clip-rule="evenodd" fill="#6E5752" d="M62.607,116.191c0.103-0.105,0.205-0.21,0.308-0.315
			c0.475,0.065,0.451,0.419,0.442,0.764c-0.088,0.087-0.176,0.174-0.264,0.261C62.811,116.748,62.588,116.552,62.607,116.191z"/>
		<path fill-rule="evenodd" clip-rule="evenodd" fill="#E1D2BD" d="M80.411,109.987c0.339-0.095,0.398-0.736,0.921-0.474
			c0.026,0.124,0.052,0.247,0.077,0.37c-0.205,0.086-0.41,0.172-0.617,0.258c-0.137,0.003-0.273,0.006-0.41,0.009
			C80.398,110.097,80.408,110.043,80.411,109.987z"/>
		<path fill-rule="evenodd" clip-rule="evenodd" fill="#67514B" d="M61.641,113.065c0.146-0.288,0.508-0.408,0.663-0.279
			c0.145,0.122,0.07,0.505,0.093,0.774C62.145,113.396,61.893,113.23,61.641,113.065z"/>
		<path fill-rule="evenodd" clip-rule="evenodd" fill="#6F4D43" d="M77.76,103.646c0.146,0.011,0.292,0.021,0.438,0.032
			c0.167,0.447-0.284,0.775-0.231,1.2l-0.112-0.007l-0.111,0.012c-0.305-0.336-0.299-0.707-0.123-1.096
			C77.667,103.74,77.714,103.693,77.76,103.646z"/>
		<path fill-rule="evenodd" clip-rule="evenodd" fill="#9D7263" d="M77.472,114.285c0.093,0.054,0.185,0.107,0.277,0.161
			c0.088,0.095,0.127,0.207,0.115,0.336c-0.277,0.516-0.649,0.477-1.065,0.184c-0.103-0.181-0.047-0.342,0.062-0.496
			C77.032,114.302,77.209,114.151,77.472,114.285z"/>
		<path fill-rule="evenodd" clip-rule="evenodd" fill="#5E4746" d="M79.448,104.159c0.077-0.08,0.154-0.16,0.231-0.239
			c0.402-0.365,0.433-0.03,0.488,0.259c-0.016,0.193,0.008,0.405-0.227,0.499c-0.222-0.002-0.412-0.077-0.561-0.246
			C79.335,104.324,79.361,104.234,79.448,104.159z"/>
		<path fill-rule="evenodd" clip-rule="evenodd" fill="#63534C" d="M76.061,98.886c-0.068-0.254-0.135-0.509-0.203-0.763
			c0.367,0.155,0.579-0.324,0.932-0.226c-0.072,0.243-0.145,0.486-0.217,0.729C76.459,98.825,76.339,99.011,76.061,98.886z"/>
		<path fill-rule="evenodd" clip-rule="evenodd" fill="#362B28" d="M64.275,98.153c-0.07-0.088-0.139-0.176-0.209-0.264
			c0.192-0.286,0.273-0.69,0.736-0.685C64.772,97.601,64.458,97.841,64.275,98.153z"/>
		<path fill-rule="evenodd" clip-rule="evenodd" fill="#50413C" d="M79.482,104.402c0.204,0.006,0.372,0.072,0.458,0.275
			c-0.012,0.492-0.318,0.483-0.671,0.395l0.016-0.008C79.081,104.763,79.241,104.571,79.482,104.402z"/>
		<path fill-rule="evenodd" clip-rule="evenodd" fill="#A38B85" d="M62.876,113.994c-0.15,0.286-0.442,0.37-0.706,0.493
			c-0.151-0.034-0.245-0.123-0.26-0.282c0.003-0.057,0.008-0.113,0.014-0.169c0.224-0.086,0.559,0.101,0.666-0.271
			C62.686,113.841,62.781,113.917,62.876,113.994z"/>
		<path fill-rule="evenodd" clip-rule="evenodd" fill="#50483F" d="M61.91,114.205c0.086,0.094,0.173,0.188,0.26,0.282
			c-0.027,0.154-0.053,0.308-0.08,0.462c-0.118-0.002-0.235-0.004-0.353-0.007c-0.013-0.072-0.042-0.138-0.086-0.196
			C61.64,114.52,61.677,114.316,61.91,114.205z"/>
		<path fill-rule="evenodd" clip-rule="evenodd" fill="#A98B86" d="M77.281,113.763c0.356-0.148,0.578-0.586,1.049-0.488
			c-0.263,0.249-0.526,0.498-0.789,0.747C77.295,114.096,77.243,113.974,77.281,113.763z"/>
		<path fill-rule="evenodd" clip-rule="evenodd" fill="#593F3E" d="M63.553,117.609l-0.114,0.003l-0.114-0.003
			c-0.227-0.101-0.437-0.209-0.222-0.505C63.45,117.096,63.599,117.266,63.553,117.609z"/>
		<path fill-rule="evenodd" clip-rule="evenodd" fill="#926D61" d="M80.884,108.013c-0.118-0.384,0.059-0.7,0.232-1.018
			C81.598,107.462,81.109,107.707,80.884,108.013z"/>
		<path fill-rule="evenodd" clip-rule="evenodd" fill="#7F6452" d="M77.771,114.79c-0.007-0.115-0.015-0.229-0.022-0.343
			c0.188-0.355,0.491-0.141,0.749-0.152c0.004,0.192-0.069,0.341-0.241,0.436C78.097,114.765,77.941,114.836,77.771,114.79z"/>
		<path fill-rule="evenodd" clip-rule="evenodd" fill="#D8B0A5" d="M77.281,113.763c0.086,0.086,0.173,0.172,0.26,0.259
			c-0.023,0.088-0.046,0.176-0.069,0.264c-0.144,0.066-0.288,0.133-0.432,0.199c-0.274-0.292-0.284-0.598-0.052-0.918
			C77.086,113.632,77.184,113.697,77.281,113.763z"/>
		<path fill-rule="evenodd" clip-rule="evenodd" fill="#56433F" d="M74.442,100.793c-0.065,0.662,0.255,0.974,0.809,1.374
			c0.801,0.578,1.728,0.899,2.509,1.479c0,0-0.02,0.083-0.02,0.083c-0.256,1.106-0.788,2.093-1.324,3.079
			c-0.217,0.453-0.643,0.778-0.786,1.276c-0.104,0.574-0.512,0.875-0.996,1.107c-0.539,0.07-0.688,0.625-1.083,0.874
			c-0.503,0.457-1.308,0.647-1.336,1.522c0.022,0.08,0.044,0.159,0.066,0.239c0.043,0.051,0.062,0.104,0.057,0.161
			c-0.005,0.058-0.014,0.087-0.025,0.087c-0.063,0.066-0.137,0.118-0.216,0.162c-0.198,0.194-0.153,0.567-0.483,0.663
			c-0.317,0.034-0.554-0.199-0.847-0.25c-0.236-0.112-0.442-0.267-0.646-0.43c-0.126-0.109-0.228-0.238-0.317-0.378
			c-0.254-0.393-0.536-0.776-0.39-1.291c0.035-0.118,0.091-0.224,0.166-0.322c0.769-1.168,0.542-2.567,0.882-3.835
			c0.111-0.414,0.114-0.856,0.388-1.215c0.363-0.411,0.848-0.26,1.333-0.239c-0.219-0.337-0.619-0.415-0.768-0.751
			c-0.166-0.492,0.105-0.864,0.338-1.247c0.229-0.375,0.58-0.711,0.379-1.222c-0.027-0.104-0.033-0.208-0.019-0.314
			c0.034-0.107,0.098-0.191,0.187-0.258c0.629-0.189,1.214-0.502,1.851-0.675C74.341,100.494,74.46,100.583,74.442,100.793z"/>
		<path fill-rule="evenodd" clip-rule="evenodd" fill="#D2ADA5" d="M70.298,112.139c0.188,0.139,0.376,0.279,0.564,0.418
			c0.293,0.216,0.478,0.516,0.638,0.834c0.089,0.182,0.168,0.367,0.214,0.565c0.085,0.245-0.072,0.491,0.005,0.736
			c0.451,0.231,0.902,0.462,1.353,0.693c-0.931,0.077-1.608-0.658-2.523-0.607c0.024,0.37,0.604,0.358,0.517,0.921
			c-0.432-0.489-1.142-0.363-1.458-0.951c-0.092-0.404,0.35-0.769,0.081-1.185c-0.301-0.347,0.15-0.673,0.023-1.015
			C69.767,112.212,70.027,112.168,70.298,112.139z"/>
		<path fill-rule="evenodd" clip-rule="evenodd" fill="#D6BBB4" d="M65.766,115.672c-0.35-0.375-0.829-0.072-1.219-0.231
			c-0.342-0.123-0.459-0.432-0.599-0.722c-0.266-0.385-0.141-0.718,0.134-1.032c0.586-0.248,0.88,0.315,1.322,0.471
			c0.292,0.129,0.6,0.23,0.831,0.467c0.191,0.359-0.124,0.571-0.244,0.841C65.931,115.551,65.856,115.621,65.766,115.672z"/>
		<path fill-rule="evenodd" clip-rule="evenodd" fill="#EED2CB" d="M69.138,114.704c-0.19,0.086-0.38,0.172-0.571,0.259
			c-0.012,0.116-0.061,0.214-0.146,0.293c-0.398,0.12-0.782-0.012-1.17-0.067c-0.109-0.033-0.208-0.086-0.297-0.156
			c-0.061-0.098-0.082-0.203-0.058-0.317c0.23-0.325,0.588-0.491,0.894-0.724c0.378-0.231,0.672-0.611,1.155-0.662
			c0.399,0.006,0.679,0.176,0.791,0.577C69.762,114.341,69.44,114.514,69.138,114.704z"/>
		<path fill-rule="evenodd" clip-rule="evenodd" fill="#F2C7AD" d="M77.771,114.79c0.165,0,0.282-0.388,0.486-0.06
			c0.005,0.161,0.01,0.322,0.016,0.484l-0.115,0.015c-0.543,0.209-0.865,0.93-1.602,0.689c-0.303-0.919-0.826-1.857,0.224-2.663
			c0.012,0.115,0.024,0.231,0.037,0.347c-0.084,0.373,0.207,0.745,0.001,1.118C77.108,115.114,77.428,115.112,77.771,114.79z"/>
		<path fill-rule="evenodd" clip-rule="evenodd" fill="#E3C0B8" d="M72.737,117.909c1.186-0.589,2.371-1.178,3.557-1.766
			c0.225,0.024,0.444,0.059,0.567,0.284c-0.056,0.711-0.756,0.683-1.152,1.003c-0.454,0.089-0.916,0.149-1.337,0.366
			c-0.1,0.044-0.203,0.079-0.308,0.11C73.622,118.087,73.18,117.987,72.737,117.909z"/>
		<path fill-rule="evenodd" clip-rule="evenodd" fill="#B76F49" d="M76.233,106.795c0.502-1.022,1.005-2.044,1.507-3.065
			c0.001,0.384,0.003,0.769,0.004,1.153c-0.398,0.644-0.797,1.288-1.195,1.932C76.439,106.882,76.334,106.875,76.233,106.795z"/>
		<path fill-rule="evenodd" clip-rule="evenodd" fill="#DFBEB6" d="M63.358,116.64c-0.147-0.254-0.295-0.509-0.442-0.764
			c-0.011-0.062-0.011-0.124,0.001-0.185c0.244-0.344,0.553-0.606,0.952-0.755c0.103-0.063,0.192-0.044,0.268,0.046
			c0.004,0.327-0.354,0.724,0.18,0.952C64.123,116.34,63.921,116.736,63.358,116.64z"/>
		<path fill-rule="evenodd" clip-rule="evenodd" fill="#E4C1BA" d="M68.398,115.205c0.057-0.081,0.114-0.162,0.17-0.242
			c0.38,0.383,1.073,0.226,1.434,0.936c-0.536-0.236-0.953-0.062-1.381,0.041c-0.209,0.164-0.43,0.214-0.67,0.067
			c-0.155-0.129-0.185-0.295-0.141-0.483C67.913,115.246,68.207,115.321,68.398,115.205z"/>
		<path fill-rule="evenodd" clip-rule="evenodd" fill="#E5CDC9" d="M66.956,114.959c0.057-0.009,0.114-0.015,0.171-0.017
			c0.183,0.092,0.251,0.251,0.263,0.445c-0.004,0.126-0.036,0.245-0.092,0.357c-0.106,0.161-0.248,0.279-0.428,0.35
			c-0.324,0.098-0.613,0.019-0.878-0.177c-0.076-0.082-0.151-0.163-0.227-0.245c0.003-0.094,0.007-0.189,0.01-0.283
			C66.137,115.157,66.389,114.626,66.956,114.959z"/>
		<path fill-rule="evenodd" clip-rule="evenodd" fill="#F1E5D3" d="M76.818,116.405c-0.205-0.026-0.418-0.036-0.523-0.262
			c0.087-0.075,0.174-0.15,0.262-0.226c0.57-0.144,0.927-0.787,1.602-0.689c-0.037,0.431-0.47,0.553-0.669,0.857
			C77.351,116.374,77.151,116.531,76.818,116.405z"/>
		<path fill-rule="evenodd" clip-rule="evenodd" fill="#D3ABA4" d="M72.717,113.04c-0.156,0.346-0.324,0.695,0.299,0.719
			c0.48,0.018,0.92,0.126,1.261,0.595c-0.725,0.095-1.37-0.539-2.054-0.11c-0.195-0.171-0.233-0.4-0.24-0.642
			c0.003-0.18,0.043-0.351,0.132-0.509c0.075-0.094,0.171-0.155,0.29-0.181C72.524,112.916,72.629,112.957,72.717,113.04z"/>
		<path fill-rule="evenodd" clip-rule="evenodd" fill="#D8B7AF" d="M66.938,116c0.091-0.111,0.183-0.222,0.274-0.333
			c0.206,0.036,0.348,0.162,0.458,0.33c0.016,0.045,0.031,0.092,0.047,0.138c-0.157,0.415,0.154,0.727,0.277,1.122
			c-0.623-0.001-0.662-0.63-1.034-0.856C66.816,116.274,66.827,116.14,66.938,116z"/>
		<path fill-rule="evenodd" clip-rule="evenodd" fill="#F2C7AD" d="M77.76,111.616c-0.079,0.238-0.158,0.476-0.237,0.715
			c-0.025,0.464-0.426,0.545-0.734,0.72c-0.102-0.807,0.537-1.196,0.963-1.705c0.067,0.058,0.09,0.118,0.07,0.178
			C77.802,111.585,77.782,111.616,77.76,111.616z"/>
		<path fill-rule="evenodd" clip-rule="evenodd" fill="#BA9891" d="M64.316,115.934c-0.23-0.129-0.527,0.284-0.725-0.084
			c-0.291-0.542,0.52-0.493,0.488-0.898c-0.071-0.064-0.089-0.122-0.057-0.173c0.03-0.048,0.059-0.073,0.087-0.073
			c0.146,0.246,0.292,0.491,0.437,0.736C64.358,115.554,64.321,115.736,64.316,115.934z"/>
		<path fill-rule="evenodd" clip-rule="evenodd" fill="#F8DDC1" d="M77.76,111.616c-0.002-0.09-0.005-0.18-0.008-0.271
			c0.316-0.399,0.632-0.799,0.948-1.198c0.16,0.089,0.321,0.178,0.481,0.268c0.005,0.074,0.011,0.146,0.018,0.22
			c-0.438,0.27-0.761,0.68-1.187,0.965C77.929,111.605,77.845,111.61,77.76,111.616z"/>
		<path fill-rule="evenodd" clip-rule="evenodd" fill="#382C2A" d="M72.216,111.587c-0.412-1.159,0.6-1.249,1.224-1.63
			c0.073,0.072,0.114,0.16,0.123,0.263c-0.046,0.225-0.21,0.324-0.41,0.384l0.014-0.022c-0.264,0.293-0.571,0.537-0.878,0.781
			C72.267,111.438,72.243,111.513,72.216,111.587z"/>
		<path fill-rule="evenodd" clip-rule="evenodd" fill="#DAAB98" d="M78.452,106.512c0.01,0.178,0.02,0.355,0.03,0.533
			c0.06,0.218,0.004,0.321-0.237,0.24c-0.145,0.081-0.289,0.162-0.434,0.243c-0.164-0.438-0.297-0.871,0.189-1.207
			C78,106.74,78.194,106.701,78.452,106.512z"/>
		<path fill-rule="evenodd" clip-rule="evenodd" fill="#DDB8B1" d="M68.396,116.408c0.272,0.334,0.544,0.669,0.816,1.003
			c-0.596-0.238-1.162-0.503-1.28-1.225C68.195,116.034,68.309,116.193,68.396,116.408z"/>
		<path fill-rule="evenodd" clip-rule="evenodd" fill="#A05E3C" d="M76.233,106.795c0.105,0.007,0.211,0.013,0.316,0.02
			c0.014,0.654-0.549,0.891-0.919,1.269C75.611,107.551,75.845,107.137,76.233,106.795z"/>
		<path fill-rule="evenodd" clip-rule="evenodd" fill="#7B6963" d="M69.138,114.704c0.173-0.217,0.346-0.435,0.519-0.652
			c0.06-0.179-0.012-0.402,0.18-0.538c0.188,0.037,0.567-0.1,0.323,0.337c-0.172,0.307-0.368,0.599-0.553,0.898
			C69.451,114.734,69.294,114.719,69.138,114.704z"/>
		<path fill-rule="evenodd" clip-rule="evenodd" fill="#E9C2B9" d="M78.011,109.437c0.156-0.077,0.312-0.155,0.468-0.233
			c0.067,0.638-0.311,0.99-0.832,1.307C77.528,110.039,78.089,109.845,78.011,109.437z"/>
		<path fill-rule="evenodd" clip-rule="evenodd" fill="#3A2C29" d="M73.431,110.12c0.003-0.054,0.007-0.109,0.009-0.163
			c0.35-0.33,0.401-1.127,1.195-0.765c-0.083,0.104-0.165,0.208-0.248,0.312C74.084,109.733,73.987,110.283,73.431,110.12z"/>
		<path fill-rule="evenodd" clip-rule="evenodd" fill="#6E5A52" d="M66.938,116c0.007,0.133,0.015,0.267,0.023,0.4
			c-0.633,0.462-0.763-0.086-0.968-0.482C66.307,115.944,66.622,115.972,66.938,116z"/>
		<path fill-rule="evenodd" clip-rule="evenodd" fill="#E5B9A8" d="M73.431,110.12c0.319-0.206,0.638-0.411,0.957-0.617
			c-0.156,0.654-0.53,1.062-1.234,1.101C73.245,110.442,73.338,110.281,73.431,110.12z"/>
		<path fill-rule="evenodd" clip-rule="evenodd" fill="#886F6A" d="M72.201,113.49c0.008,0.251,0.015,0.502,0.022,0.753
			c-0.096,0.055-0.191,0.11-0.287,0.165c-0.152-0.118-0.269-0.271-0.409-0.401c-0.077-0.167-0.154-0.333-0.23-0.5
			c0.063-0.074,0.14-0.13,0.231-0.165c0.095-0.023,0.19-0.032,0.288-0.029C71.964,113.327,72.091,113.391,72.201,113.49z"/>
		<path fill-rule="evenodd" clip-rule="evenodd" fill="#D8ADA5" d="M72.288,111.362c0.138-0.435,0.466-0.654,0.878-0.78
			C72.906,110.879,73,111.574,72.288,111.362z"/>
		<path fill-rule="evenodd" clip-rule="evenodd" fill="#F5E4CC" d="M79.482,104.402c-0.066,0.221-0.131,0.441-0.197,0.662
			c-0.124,0.013-0.249,0.026-0.374,0.04c0.007-0.167,0.015-0.333,0.022-0.5c0.15-0.174,0.232-0.425,0.515-0.446
			C79.459,104.24,79.471,104.321,79.482,104.402z"/>
		<path fill-rule="evenodd" clip-rule="evenodd" fill="#9B7A76" d="M68.396,116.408c-0.155-0.074-0.309-0.148-0.464-0.222
			c-0.073-0.013-0.145-0.03-0.215-0.051c0,0-0.05,0.023-0.05,0.023c-0.077-0.216,0.046-0.283,0.228-0.306
			c0.242,0.029,0.483,0.058,0.725,0.087C68.629,116.135,68.589,116.308,68.396,116.408z"/>
		<path fill-rule="evenodd" clip-rule="evenodd" fill="#A8745A" d="M79.338,108.694c0.059,0.347-0.282,0.479-0.396,0.731
			c-0.188-0.073-0.191-0.227-0.168-0.391c0.159-0.104,0.317-0.209,0.475-0.314L79.338,108.694z"/>
		<path fill-rule="evenodd" clip-rule="evenodd" fill="#A28881" d="M72.476,113.039c-0.061,0.007-0.123,0.014-0.184,0.022
			c-0.366-0.294-0.292-0.628-0.087-0.973c0.025-0.087,0.051-0.174,0.076-0.262c0.064,0.008,0.127,0.012,0.192,0.014
			C72.665,112.239,72.662,112.639,72.476,113.039z"/>
		<path fill-rule="evenodd" clip-rule="evenodd" fill="#D8ADA5" d="M72.476,113.039c-0.001-0.4-0.002-0.8-0.003-1.199
			c0.411,0.333,0.192,0.794,0.244,1.2C72.637,113.04,72.557,113.039,72.476,113.039z"/>
		<path fill-rule="evenodd" clip-rule="evenodd" fill="#735858" d="M78.245,107.285c0.079-0.08,0.158-0.16,0.237-0.24
			c0.161-0.071,0.322-0.142,0.484-0.213c0.005,0.088,0.01,0.176,0.015,0.264c0.003,0.061-0.006,0.12-0.027,0.177
			C78.717,107.254,78.489,107.744,78.245,107.285z"/>
		<path fill-rule="evenodd" clip-rule="evenodd" fill="#322928" d="M71.527,114.007c0.32-0.053,0.488,0.049,0.409,0.401
			c-0.073,0.095-0.145,0.189-0.218,0.284C71.392,114.537,71.488,114.264,71.527,114.007z"/>
		<path fill-rule="evenodd" clip-rule="evenodd" fill="#DFBAB3" d="M69.617,110.4c-0.046,0.069-0.055,0.143-0.024,0.221
			c-0.223,0.28,0.015,0.796-0.477,0.94c-0.472,0.153-0.95,0.124-1.428,0.05c-0.474-0.083-0.955-0.443-1.42,0.035
			c-0.105,0.034-0.207,0.027-0.305-0.024c-0.062-0.102-0.05-0.195,0.033-0.279c0.007-0.075,0.005-0.151-0.004-0.226
			c-0.341-0.882,0.054-1.755,0.027-2.632c0.504-1.326,1.605-0.883,2.592-0.834c0.084,0.085,0.067-0.275,0.015-0.124
			c-0.019,0.054-0.037,0.045-0.082,0.019c-0.689-0.416-0.262-0.96-0.176-1.466c0.041-0.105,0.096-0.202,0.162-0.293
			c0.455-0.499,1.404,0.244,1.718-0.681c0.025-0.074,0.207,0.16,0.285,0.287c0.163,1.524-0.385,2.968-0.5,4.46
			C70.013,110.105,69.815,110.261,69.617,110.4z"/>
		<path fill-rule="evenodd" clip-rule="evenodd" fill="#372E2C" d="M66.256,108.238c-0.088,0.96-0.176,1.919-0.264,2.879
			c-0.542-0.492-0.229-1.104-0.232-1.67c-0.004-0.794,0.001-1.588-0.001-2.382c-0.005-1.538-0.007-1.54-1.424-1.116
			c-0.223,0.066-0.485,0.22-0.609-0.076c-0.111-0.263,0.176-0.4,0.323-0.578c0.406-0.489,1.443-0.192,1.456-1.168
			c-0.025-0.251,0.124-0.278,0.319-0.249c0.329,0.189,0.487,0.495,0.58,0.846c0.025,0.566-0.187,1.142,0.066,1.701
			c0.075,0.365,0.109,0.731,0.018,1.099C66.373,107.75,66.392,108.02,66.256,108.238z"/>
		<path fill-rule="evenodd" clip-rule="evenodd" fill="#CEB3A1" d="M61.903,101.069c0.169-0.011,0.338-0.022,0.507-0.033
			c0.341,0.318,0.772,0.371,1.208,0.409c0.248,0.063,0.473,0.082,0.508-0.266c0.164-0.064,0.322-0.052,0.479,0.024
			c0.239,0.178,0.438,0.388,0.536,0.677c0.021,0.296-0.109,0.46-0.412,0.475c-0.37-0.025-0.748,0.073-1.108-0.08
			c-0.489-0.166-0.978-0.331-1.466-0.497c-0.186-0.143-0.372-0.286-0.557-0.429C61.62,101.169,61.796,101.157,61.903,101.069z"/>
		<path fill-rule="evenodd" clip-rule="evenodd" fill="#EDD2CC" d="M65.996,111.343c0.003,0.089,0.007,0.178,0.01,0.266
			c0.116,0.242-0.023,0.399-0.183,0.548c-0.18,0.11-0.479,0.076-0.483,0.403c-0.115,0.165-0.28,0.254-0.463,0.319
			c-0.098,0.023-0.19,0.007-0.277-0.042c-0.1-0.097-0.199-0.194-0.299-0.291c0.01-0.558,0.423-0.749,0.847-0.93
			C65.431,111.525,65.714,111.434,65.996,111.343z"/>
		<path fill-rule="evenodd" clip-rule="evenodd" fill="#21201E" d="M64.044,108.791c0.462,0.276,0.887,0.502,1.457-0.096
			c-0.11,0.666-0.393,0.923-0.794,0.948C64.223,109.673,64.1,109.268,64.044,108.791z"/>
		<path fill-rule="evenodd" clip-rule="evenodd" fill="#463837" d="M64.797,102.257c0.2-0.113,0.289-0.28,0.25-0.511
			c0.055-0.013,0.11-0.026,0.165-0.039c0.526,0.166,0.571,0.66,0.735,1.075c0.057,0.235,0.063,0.467-0.026,0.696
			c-0.396,0.395-0.6,0.27-0.658-0.245c0.021-0.367-0.137-0.623-0.475-0.768c-0.072-0.05-0.094-0.098-0.067-0.143
			C64.746,102.279,64.771,102.257,64.797,102.257z"/>
		<path fill-rule="evenodd" clip-rule="evenodd" fill="#947F79" d="M65.262,103.234c0.16,0.129,0.217,0.574,0.548,0.179
			c0.167,0.036,0.285,0.115,0.262,0.31c-0.024,0.2-0.149,0.243-0.325,0.2c-0.081,0.068-0.162,0.137-0.243,0.206
			c-0.191-0.247-0.392-0.486-0.566-0.743c-0.044-0.065-0.003-0.187-0.001-0.282C65.045,103.146,65.153,103.19,65.262,103.234z"/>
		<path fill-rule="evenodd" clip-rule="evenodd" fill="#281D1A" d="M65.148,111.616c-0.282,0.31-0.564,0.62-0.847,0.929
			c-0.076,0.083-0.151,0.167-0.227,0.25c-0.395,0.002-0.434-0.157-0.199-0.44C64.288,112.088,64.533,111.532,65.148,111.616z"/>
		<path fill-rule="evenodd" clip-rule="evenodd" fill="#352A2A" d="M63.328,110.183c-0.232-0.386-0.607-0.697-0.632-1.192
			C62.995,109.341,63.788,109.43,63.328,110.183z"/>
		<path fill-rule="evenodd" clip-rule="evenodd" fill="#6F5852" d="M63.876,112.354c-0.004,0.179-0.062,0.382,0.199,0.44
			c-0.037,0.165-0.214,0.35-0.292,0.273c-0.329-0.325-0.148-0.677,0.043-1.008C63.843,112.159,63.859,112.256,63.876,112.354z"/>
		<path fill-rule="evenodd" clip-rule="evenodd" fill="#362521" d="M64.797,102.257c0,0.07-0.003,0.14-0.01,0.21
			c-0.393-0.037-0.824,0.154-1.166-0.192C64.013,102.269,64.405,102.263,64.797,102.257z"/>
		<path fill-rule="evenodd" clip-rule="evenodd" fill="#271C1A" d="M64.601,112.837c0.063-0.02,0.128-0.034,0.195-0.041
			c0.211-0.154,0.395-0.142,0.54,0.091c0.011,0.107-0.013,0.207-0.068,0.297c-0.235,0.317,0.038,0.556,0.131,0.822
			c0.036,0.167,0.014,0.318-0.126,0.433c-0.456-0.098-0.606-0.77-1.188-0.633c-0.114-0.093-0.121-0.192-0.02-0.298
			C64.243,113.284,64.422,113.061,64.601,112.837z"/>
		<path fill-rule="evenodd" clip-rule="evenodd" fill="#EBC8C3" d="M59.967,110.64c0.052-0.055,0.099-0.113,0.143-0.174
			c0.496,0.51,1.201,0.853,1.324,1.659C60.84,111.733,60.426,111.165,59.967,110.64z"/>
		<path fill-rule="evenodd" clip-rule="evenodd" fill="#74605C" d="M64.064,113.508c0.007,0.099,0.013,0.199,0.02,0.298
			c0.006,0.3-0.404,0.611,0.025,0.899c-0.01,0.082-0.02,0.164-0.03,0.246c-0.07-0.005-0.14-0.01-0.21-0.015
			c-0.1-0.236-0.2-0.472-0.3-0.708c0.005-0.071,0.003-0.143-0.005-0.214C63.731,113.846,63.898,113.677,64.064,113.508z"/>
		<path fill-rule="evenodd" clip-rule="evenodd" fill="#ECCBC3" d="M59.726,108.713c0.091,0.004,0.181,0.008,0.271,0.011
			c0.03,0.386,0.857,0.724,0.07,1.159C59.954,109.493,59.84,109.103,59.726,108.713z"/>
		<path fill-rule="evenodd" clip-rule="evenodd" fill="#57311A" d="M74.442,100.793c-0.085-0.08-0.17-0.16-0.256-0.24
			c-0.086-0.075-0.129-0.171-0.134-0.285c0.082-0.367,0.408-0.489,0.673-0.672c0.298-0.214,0.601-0.424,0.799-0.745l0.071-0.02
			l0.04,0.062c0.068-0.007,0.136-0.012,0.205-0.013c0.138,0.144,0.154,0.3,0.042,0.467
			C75.634,100.061,75.185,100.573,74.442,100.793z"/>
		<path fill-rule="evenodd" clip-rule="evenodd" fill="#362A28" d="M75.883,99.349c-0.014-0.156-0.028-0.312-0.042-0.467
			c0.074-0.001,0.147,0,0.221,0.004c0.17-0.087,0.341-0.174,0.511-0.261c0.311-0.062,0.622-0.124,0.933-0.185
			c-0.075,0.307-0.15,0.613-0.225,0.92C76.82,98.596,76.347,99.535,75.883,99.349z"/>
		<path fill-rule="evenodd" clip-rule="evenodd" fill="#594341" d="M76.335,101.137c0.477,0.377,0.483,0.731,0.189,1.099
			c-0.035,0.043-0.245,0.025-0.287-0.03C75.988,101.875,76.055,101.548,76.335,101.137z"/>
		<path fill-rule="evenodd" clip-rule="evenodd" fill="#D6B3AD" d="M70.066,96.74c0.726,0.222,1.379,0.666,2.164,0.709
			c1.119,0.338,1.175,0.652,0.282,1.567c-0.49,0.018-0.973,0.081-1.438,0.252c-0.16,0.034-0.318,0.029-0.474-0.021
			c-0.1-0.041-0.192-0.094-0.282-0.152c-0.411-0.223-0.816-0.219-1.218,0.021c-0.088,0.063-0.184,0.114-0.283,0.157
			c-0.213,0.074-0.429,0.071-0.646,0.026c-0.673-0.065-1.373-0.087-1.551-0.956c-0.06-0.156-0.051-0.308,0.025-0.456
			c0.195-0.699,0.57-0.957,1.355-0.823C68.68,97.182,69.355,96.739,70.066,96.74z"/>
		<path fill-rule="evenodd" clip-rule="evenodd" fill="#E2C4C0" d="M70.066,96.74c-0.551,0.684-1.66,0.831-2.08,0.67
			c-0.804-0.308-0.917,0.133-1.235,0.505c-0.062-0.035-0.09-0.077-0.082-0.127c0.009-0.053,0.022-0.08,0.039-0.08
			c-0.797-0.874-0.183-1.101,0.577-1.28C68.252,96.2,69.199,96.105,70.066,96.74z"/>
		<path fill-rule="evenodd" clip-rule="evenodd" fill="#F0D5C2" d="M72.244,98.853c0.97-0.477,0.832-0.944-0.014-1.404
			c0.914-0.26,1.787,0.015,2.706,0.218c-0.028,0.397-0.428,0.157-0.575,0.319c-0.02,0.021-0.014,0.079,0,0.112
			s0.05,0.059,0.076,0.087c-0.031,0.529-0.6,0.503-0.839,0.818c-0.203,0.174-0.386,0.37-0.606,0.525
			c-0.353,0.208-0.648,0.172-0.864-0.203C72.082,99.147,72.106,98.986,72.244,98.853z"/>
		<path fill-rule="evenodd" clip-rule="evenodd" fill="#FBE2B6" d="M64.807,100.088c-0.744-1.04-0.048-1.821,0.475-2.633
			c0.391,0.201,0.104,0.708,0.425,0.941c0.097,0.069,0.135,0.164,0.123,0.28c-0.458,0.37-0.088,0.941-0.33,1.364
			C65.269,100.056,65.038,100.072,64.807,100.088z"/>
		<path fill-rule="evenodd" clip-rule="evenodd" fill="#43362E" d="M73.337,98.848c0.23-0.447,0.76-0.398,1.1-0.663
			c0.503,0.002,0.376,0.42,0.459,0.699c-0.036,0.038-0.072,0.075-0.108,0.113c-0.14,0.078-0.292,0.113-0.449,0.127
			c-0.263,0.017-0.524,0.015-0.778-0.067C73.463,99.013,73.387,98.944,73.337,98.848z"/>
		<path fill-rule="evenodd" clip-rule="evenodd" fill="#846F6F" d="M65.752,98.64c-0.015-0.081-0.03-0.162-0.045-0.243
			c0.091-0.245,0-0.56,0.278-0.734c0.597,0.149,0.709,0.566,0.609,1.102c-0.133,0.244-0.338,0.268-0.576,0.192l-0.031-0.109
			C65.879,98.812,65.802,98.741,65.752,98.64z"/>
		<path fill-rule="evenodd" clip-rule="evenodd" fill="#372B2A" d="M66.531,98.633c0.152-0.511-0.544-0.546-0.546-0.971
			c0.274-0.508,0.486-0.026,0.724,0.046c-0.006,0.073,0.009,0.142,0.043,0.207c0.002,0.161,0.005,0.321,0.008,0.481
			c0.046,0.054,0.065,0.111,0.057,0.17c-0.008,0.06-0.019,0.09-0.032,0.09C66.693,98.713,66.609,98.702,66.531,98.633z"/>
		<path fill-rule="evenodd" clip-rule="evenodd" fill="#D0C0BB" d="M75.524,98.852c0.357,0.672-0.352,0.659-0.604,0.938
			c-0.291-0.286-0.104-0.626-0.107-0.945l0.084,0.039C75.106,98.874,75.315,98.863,75.524,98.852z"/>
		<path fill-rule="evenodd" clip-rule="evenodd" fill="#EDE4CA" d="M67.566,95.734c0.457-0.214,0.912-0.23,1.366,0.006
			C68.477,95.738,68.022,95.736,67.566,95.734z"/>
		<path fill-rule="evenodd" clip-rule="evenodd" fill="#F1D1C4" d="M61.903,101.069c-0.102,0.093-0.204,0.187-0.305,0.28
			c-0.31-0.163-0.706-0.186-0.889-0.552c0.083-0.022,0.165-0.045,0.247-0.068C61.272,100.843,61.587,100.956,61.903,101.069z"/>
		<path fill-rule="evenodd" clip-rule="evenodd" fill="#836960" d="M76.817,114.72c-0.1-0.373-0.275-0.745-0.001-1.118
			c0.054-0.03,0.111-0.042,0.172-0.036c0.017,0.306,0.034,0.612,0.051,0.918C76.966,114.563,76.892,114.641,76.817,114.72z"/>
		<path fill-rule="evenodd" clip-rule="evenodd" fill="#825F49" d="M79.338,108.694c0,0-0.09,0.026-0.089,0.026
			c0.06-0.464,0.34-0.79,0.68-1.077C80.014,108.152,79.685,108.429,79.338,108.694z"/>
		<path fill-rule="evenodd" clip-rule="evenodd" fill="#E0C3BD" d="M66.449,100.253c-0.012-0.148-0.024-0.297-0.037-0.446
			c0.042-0.031,0.085-0.062,0.127-0.094c0.154-0.053,0.311-0.05,0.468-0.017c0.255,0.065,0.512,0.124,0.773,0.164
			c0.474,0.187,1.187-0.21,1.417,0.577c-0.158,0.588-0.684,0.661-1.146,0.823c-0.436,0.046-0.896,0.161-1.146-0.367
			c0.129-0.271,0.331-0.209,0.535-0.154C67.211,100.417,66.415,101.121,66.449,100.253z"/>
		<path fill-rule="evenodd" clip-rule="evenodd" fill="#E6C7BC" d="M66.449,100.253c0.275,0.508,0.865,0.16,1.347,0.473
			c-0.388,0.051-0.655,0.086-0.922,0.121c-0.303,0.459-0.795,0.446-1.259,0.505c-0.334-0.004-0.678,0.196-1.004-0.038
			c-0.164-0.014-0.328-0.027-0.491-0.041c-0.245-0.069-0.402-0.188-0.268-0.472C64.776,100.892,65.566,100.353,66.449,100.253z"/>
		<path fill-rule="evenodd" clip-rule="evenodd" fill="#D9B4A9" d="M65.752,98.64c0.078,0.069,0.157,0.138,0.235,0.207
			c-0.509,0.256,0.044,0.946-0.487,1.194C65.376,99.536,65.189,99.021,65.752,98.64z"/>
		<path fill-rule="evenodd" clip-rule="evenodd" fill="#45382F" d="M66.531,98.633c0.044,0,0.089,0.001,0.134,0.003
			c0.366,0.466,0.101,0.837-0.181,1.206l-0.072-0.035c-0.131-0.284-0.263-0.568-0.395-0.852
			C66.189,98.849,66.36,98.741,66.531,98.633z"/>
		<path fill-rule="evenodd" clip-rule="evenodd" fill="#29201F" d="M63.853,100.802c0.089,0.157,0.179,0.314,0.268,0.472
			c-0.013,0.51-0.277,0.283-0.502,0.171C63.612,101.2,63.56,100.938,63.853,100.802z"/>
		<path fill-rule="evenodd" clip-rule="evenodd" fill="#C1938C" d="M78.013,111.6c0.315-0.421,0.542-0.949,1.187-0.964
			C78.897,111.072,78.604,111.519,78.013,111.6z"/>
		<path fill-rule="evenodd" clip-rule="evenodd" fill="#E6C3BD" d="M65.278,112.525c-0.27-0.605,0.217-0.402,0.475-0.445
			c0.408-0.21,0.998,0.074,1.279-0.476c0.108-0.129,0.237-0.225,0.41-0.246c0.558,0,1.115,0,1.673,0
			c0.33,0.15,0.739,0.153,0.957,0.513c0.076,0.089,0.151,0.177,0.228,0.266c-0.153,0.14-0.306,0.28-0.459,0.421
			c-0.157,0.303-0.409,0.461-0.748,0.487c-0.191,0.01-0.378-0.013-0.564-0.056c-0.561-0.171-1.137-0.086-1.708-0.1
			C66.285,112.853,65.705,113.007,65.278,112.525z"/>
		<path fill-rule="evenodd" clip-rule="evenodd" fill="#5D4235" d="M69.617,110.4c0.478-1.726,0.82-3.47,0.692-5.276
			c-0.178-0.365-0.01-0.693,0.109-1.026c0.313-0.286,0.227-1.003,0.932-0.869c0.201,0.286,0.003,0.597,0.056,0.893
			c0.135,0.422-0.064,0.723-0.359,0.989c-0.242,1.424-0.51,2.845-0.712,4.274C70.264,109.884,70.26,110.343,69.617,110.4z"/>
		<path fill-rule="evenodd" clip-rule="evenodd" fill="#CF9987" d="M72.249,101.507c-0.01,0.081-0.02,0.162-0.03,0.244
			c-0.019,0.048-0.038,0.096-0.056,0.145c-0.184,0.271-0.412,0.48-0.755,0.524c-0.563-0.019-1.078,0.178-1.601,0.348
			c-0.422,0.137-0.848,0.183-1.242-0.098c-0.344-0.189-0.509-0.548-0.762-0.823c-0.303-0.331-0.005-0.438,0.247-0.546
			c0.343-0.089,0.685-0.077,1.026,0c0.431,0.15,0.879,0.151,1.327,0.153c0.485,0.047,0.922-0.047,1.26-0.435
			c0.096-0.05,0.198-0.066,0.306-0.045C72.189,101.084,72.062,101.377,72.249,101.507z"/>
		<path fill-rule="evenodd" clip-rule="evenodd" fill="#272422" d="M70.81,107.886c0.793,1.082,1.31,0.613,1.894,0.002
			c0.083,0.642-0.14,1.144-0.756,1.269C71.24,109.299,70.873,108.885,70.81,107.886z"/>
		<path fill-rule="evenodd" clip-rule="evenodd" fill="#292526" d="M71.046,105.109c0.078-0.312,0.156-0.625,0.234-0.938
			c0.059-0.117,0.132-0.126,0.219-0.028c0.434,0.354,1.493,0.409,1.261,0.979C72.49,105.789,71.65,104.893,71.046,105.109z"/>
		<path fill-rule="evenodd" clip-rule="evenodd" fill="#D1B6AD" d="M74.104,100.358c0.022,0.067,0.05,0.132,0.083,0.195
			c-0.573,0.458-1.205,0.776-1.954,0.811c-0.108-0.899,0.675-0.918,1.188-1.206C73.682,100.109,73.93,100.109,74.104,100.358z"/>
		<path fill-rule="evenodd" clip-rule="evenodd" fill="#826251" d="M73.437,100.316c-0.329,0.433-1.093,0.365-1.204,1.048
			c0.028,0.045,0.034,0.092,0.017,0.143c-0.104-0.161-0.208-0.321-0.312-0.482c-0.058-0.24,0.066-0.417,0.2-0.593
			c0.186-0.209,0.385-0.402,0.652-0.508c0.231-0.064,0.453-0.056,0.656,0.091C73.521,100.117,73.515,100.218,73.437,100.316z"/>
		<path fill-rule="evenodd" clip-rule="evenodd" fill="#A76547" d="M71.499,104.144c-0.073,0.009-0.146,0.018-0.219,0.028
			c-0.006-0.295-0.011-0.59-0.017-0.885c-0.019-0.171,0.053-0.308,0.161-0.433c0.118-0.116,0.253-0.2,0.424-0.211
			c0.165,0.056,0.304,0.125,0.16,0.33C71.839,103.363,71.669,103.753,71.499,104.144z"/>
		<path fill-rule="evenodd" clip-rule="evenodd" fill="#825446" d="M71.748,113.529l-0.114,0.003l-0.113-0.006
			c-0.17-0.244-0.217-0.485,0.014-0.721c0.416-0.068-0.074-0.745,0.482-0.719C72.141,112.606,72.314,113.137,71.748,113.529z"/>
		<path fill-rule="evenodd" clip-rule="evenodd" fill="#493B3A" d="M70.07,111.873c-0.357-0.1-0.784-0.069-0.957-0.513
			c0.16-0.246,0.32-0.492,0.479-0.738C69.43,111.161,70.086,111.389,70.07,111.873z"/>
		<path fill-rule="evenodd" clip-rule="evenodd" fill="#3D3332" d="M71.535,112.805c-0.005,0.24-0.01,0.481-0.014,0.721
			c-0.076,0.003-0.15-0.003-0.224-0.02c-0.145-0.316-0.29-0.633-0.435-0.949C71.228,112.255,71.308,112.73,71.535,112.805z"/>
		<path fill-rule="evenodd" clip-rule="evenodd" fill="#9D6246" d="M72.009,102.972c-0.07-0.083-0.14-0.166-0.21-0.248
			c-0.177-0.473,0.269-0.666,0.44-0.982l-0.021,0.008C73.066,102.315,72.112,102.571,72.009,102.972z"/>
		<path fill-rule="evenodd" clip-rule="evenodd" fill="#472F28" d="M71.748,113.529c0.294-0.443,0.242-0.951,0.27-1.443
			c0.063-0.002,0.125-0.001,0.188,0.002c0.029,0.325,0.058,0.648,0.086,0.973c-0.03,0.143-0.06,0.286-0.091,0.429
			C72.05,113.503,71.899,113.516,71.748,113.529z"/>
		<path fill-rule="evenodd" clip-rule="evenodd" fill="#D9B2AC" d="M69.085,112.817c0.251-0.086,0.503-0.172,0.754-0.257
			c0.301,0.318-0.292,0.635-0.002,0.955c-0.003,0.198,0.016,0.403-0.18,0.537c-0.16-0.314-0.398-0.515-0.767-0.525
			C68.685,113.215,68.924,113.027,69.085,112.817z"/>
		<path fill-rule="evenodd" clip-rule="evenodd" fill="#373038" d="M65.272,114.44c0-0.153,0-0.307,0-0.46
			c-0.057-0.064-0.073-0.125-0.047-0.182c0.025-0.055,0.049-0.083,0.07-0.083c0.466,0.042,0.835,0.432,1.33,0.367
			c0.441,0.125,0.8-0.386,1.252-0.167c0.068,0.049,0.097,0.106,0.088,0.169c-0.009,0.067-0.023,0.101-0.042,0.101
			c-0.299,0.176-0.446,0.593-0.88,0.553c-0.312,0.136-0.623,0.165-0.933-0.004C65.831,114.636,65.551,114.538,65.272,114.44z"/>
		<path fill-rule="evenodd" clip-rule="evenodd" fill="#160E0B" d="M66.11,114.734c0.311,0.001,0.622,0.003,0.933,0.004
			c-0.03,0.073-0.059,0.146-0.087,0.22c-0.424,0.059-0.823,0.188-1.18,0.43C65.679,115.064,66.165,115.038,66.11,114.734z"/>
		<path fill-rule="evenodd" clip-rule="evenodd" fill="#2F2526" d="M67.923,114.186c-0.002-0.065-0.007-0.13-0.014-0.195
			c-0.131-0.185-0.036-0.36,0.02-0.539c0.032-0.089,0.073-0.175,0.116-0.26c0.09-0.169,0.178-0.34,0.34-0.456
			c0.095-0.033,0.186-0.024,0.271,0.031c0.143,0.017,0.286,0.034,0.428,0.051c0.085,0.277-0.032,0.5-0.194,0.709
			C68.499,113.644,68.393,114.181,67.923,114.186z"/>
		<path fill-rule="evenodd" clip-rule="evenodd" fill="#856D6A" d="M67.197,115.461c-0.023-0.173-0.045-0.346-0.069-0.519
			c0.433,0.04,0.883-0.005,1.27,0.263c-0.164,0.091-0.329,0.182-0.493,0.273C67.665,115.648,67.429,115.63,67.197,115.461z"/>
		<path fill-rule="evenodd" clip-rule="evenodd" fill="#FBE5DC" d="M67.197,115.461c0.236,0.005,0.472,0.011,0.708,0.016
			c-0.003,0.125-0.006,0.25-0.01,0.375c-0.076,0.102-0.152,0.204-0.228,0.306c-0.231-0.09-0.381-0.255-0.456-0.491
			C67.214,115.598,67.209,115.529,67.197,115.461z"/>
		<path fill-rule="evenodd" clip-rule="evenodd" fill="#D8B2AB" d="M66.256,108.238c0.002-0.242,0.005-0.483,0.008-0.725
			c0.075-0.097,0.11-0.211,0.096-0.329c-0.088-0.751,0.076-1.175,1.094-0.635c-0.782-0.889-0.298-1.9-0.695-2.735
			c-0.397-0.682-0.233-1.157,0.521-1.415c0.116,0.005,0.211,0.054,0.285,0.144c0.056,0.149,0.001-0.046,0.058,0.104
			c0.126,0.332,0.304,0.668,0.343,1.004c0.072,0.618,0.428-0.427,0.539,0.129c0.061,0.304,0.181,0.595,0.133,0.912
			c-0.069,0.461-0.234,0.919-0.003,1.379c-0.049,0.189-0.085,0.383-0.15,0.567c-0.304,0.867,0.156,0.677,0.65,0.338
			c0.101,1.271-1.292,0.549-1.474,1.339c-0.414-0.154-0.055-0.733-0.594-0.857C67.103,108.017,66.741,108.201,66.256,108.238z"/>
		<path fill-rule="evenodd" clip-rule="evenodd" fill="#CAA39C" d="M68.635,106.071c-0.343-0.342-0.849-0.612-0.313-1.227
			c0.103-0.118,0.451-0.687-0.365-0.806c-0.414-0.061-0.63-0.916-0.527-1.542c0.399-0.372,0.806-0.178,1.211-0.014
			c0.547,0.35,1.085,0.074,1.544-0.139c0.5-0.232,0.943-0.228,1.43-0.085c0.061,0.167,0.029,0.326-0.044,0.48
			c-0.333,0.222-0.649,0.442-0.78,0.864c-0.143,0.461-0.431,0.324-0.707,0.119c-0.088,0.473-0.36,0.728-0.832,0.75
			c-0.069-0.028-0.13-0.076-0.178-0.141c0.025,0.109,0.17,0.122,0.193,0.24c0.19,0.625-0.396,0.859-0.629,1.27
			C68.637,105.917,68.636,105.994,68.635,106.071z"/>
		<path fill-rule="evenodd" clip-rule="evenodd" fill="#D8B2AB" d="M68.639,105.84c0.009-0.532,0.624-0.86,0.482-1.441l-0.002,0.003
			c0.518-0.124,0.693-0.588,0.958-0.963c0.123,0.29,0.221,0.598,0.536,0.75c-0.101,0.312-0.202,0.624-0.304,0.935
			C70.126,106.234,69.285,105.81,68.639,105.84z"/>
		<path fill-rule="evenodd" clip-rule="evenodd" fill="#B29892" d="M67.227,111.585c-0.135,1.226-0.862,0.689-1.474,0.496
			c0.084-0.157,0.169-0.314,0.253-0.472c0.081-0.008,0.161-0.017,0.242-0.025C66.575,111.444,66.901,110.881,67.227,111.585z"/>
		<path fill-rule="evenodd" clip-rule="evenodd" fill="#EDD2CC" d="M67.227,111.585c-0.326-0.423-0.653,0.15-0.979-0.001
			c0.201-1.12,0.767-0.303,1.193-0.225C67.37,111.435,67.298,111.51,67.227,111.585z"/>
		<path fill-rule="evenodd" clip-rule="evenodd" fill="#D9B4AE" d="M66.957,103.68c0.188,0.437,0.796,0.78,0.163,1.376
			c-0.285,0.269,0.214,0.409,0.359,0.609c0.275,0.382,0.381,0.866,0.036,1.172c-0.297,0.264-0.746,0.202-0.921-0.331
			c-0.228,0.33,0.028,0.767-0.329,1.007c-0.017-0.367-0.033-0.735-0.049-1.102c-0.128-0.424-0.167-0.842,0.089-1.239
			c0.252-0.323,0.104-0.709,0.167-1.062C66.556,103.879,66.605,103.607,66.957,103.68z"/>
		<path fill-rule="evenodd" clip-rule="evenodd" fill="#ECCAC1" d="M66.715,104.159c-0.03,0.329,0.123,0.701-0.229,0.953
			c-0.179-0.103-0.086-0.36-0.263-0.464c-0.28-0.163-0.382-0.442-0.478-0.726c0.351-0.129,0.223-0.317,0.063-0.509
			c-0.029-0.211-0.058-0.422-0.087-0.633c0.375-0.311,0.487-0.304,0.698,0.052C66.663,103.241,66.537,103.734,66.715,104.159z"/>
		<path fill-rule="evenodd" clip-rule="evenodd" fill="#D8B2AB" d="M66.224,104.647c0.201,0.091,0.25,0.267,0.263,0.464
			c-0.257,0.398-0.252,0.851-0.272,1.299C65.896,105.821,66.139,105.235,66.224,104.647z"/>
		<path fill-rule="evenodd" clip-rule="evenodd" fill="#493A35" d="M64.612,101.314c0.31-0.069,0.62-0.139,0.929-0.208
			c0.107,0.028,0.201,0.08,0.282,0.156c0.027,0.109,0.012,0.213-0.043,0.311c-0.206,0.237-0.531,0.006-0.751,0.19l0.019-0.018
			C64.759,101.747,64.434,101.784,64.612,101.314z"/>
		<path fill-rule="evenodd" clip-rule="evenodd" fill="#775A52" d="M65.278,112.525c0.557,0.022,1.115,0.045,1.672,0.067
			c0.069,0.107,0.06,0.208-0.027,0.301c-0.097,0.066-0.202,0.113-0.313,0.145c-0.443,0.01-0.898,0.253-1.329-0.054
			c-0.162-0.063-0.324-0.126-0.486-0.188C64.956,112.706,65.117,112.616,65.278,112.525z"/>
		<path fill-rule="evenodd" clip-rule="evenodd" fill="#F4C5AD" d="M65.028,101.764c0.131-0.325,0.447-0.203,0.68-0.28
			c0.596-0.12,0.759,0.674,1.323,0.625c0.145,0.085,0.264,0.184,0.174,0.377c-0.117,0.391-0.755,0.672-0.249,1.193
			c-0.189,0.105-0.23,0.285-0.243,0.479c-0.166-0.414-0.319-0.835-0.504-1.241c-0.093-0.203-0.229-0.436-0.488-0.139
			C65.506,102.431,65.446,101.975,65.028,101.764z"/>
		<path fill-rule="evenodd" clip-rule="evenodd" fill="#CD7F36" d="M65.281,112.984c0.47-0.173,0.95-0.247,1.449-0.162
			c0.134,0.158,0.129,0.326,0.035,0.5c-0.354,0.29-0.79,0.262-1.206,0.317c-0.121,0.001-0.241-0.004-0.361-0.014
			c-0.263-0.133-0.366-0.306-0.143-0.562C65.131,113.038,65.207,113.012,65.281,112.984z"/>
		<path fill-rule="evenodd" clip-rule="evenodd" fill="#56413F" d="M65.055,113.063c0.073,0.151,0.146,0.303,0.219,0.454
			c0.087,0.051,0.117,0.104,0.091,0.159c-0.026,0.057-0.053,0.085-0.081,0.085c-0.003,0.073-0.007,0.146-0.012,0.218
			C65.041,113.712,64.188,113.591,65.055,113.063z"/>
		<path fill-rule="evenodd" clip-rule="evenodd" fill="#876F69" d="M73.437,100.316c-0.029-0.098-0.059-0.196-0.088-0.294
			c-0.017-0.1-0.003-0.195,0.04-0.288c0.075-0.13,0.171-0.244,0.276-0.35c0.193-0.24,0.507-0.304,0.731-0.5
			c0.139-0.013,0.278-0.026,0.418-0.039c0.316,0.283,0.062,0.631,0.107,0.945c-0.272,0.189-0.544,0.378-0.816,0.567
			C73.882,100.344,73.659,100.331,73.437,100.316z"/>
		<path fill-rule="evenodd" clip-rule="evenodd" fill="#DEBEB8" d="M66.484,99.842c0.06-0.402,0.121-0.804,0.181-1.206
			c0.031-0.08,0.062-0.16,0.094-0.24c0.372,0.418,0.877,0.557,1.396,0.669c-0.106,0.301-0.425,0.395-0.606,0.624
			c-0.162,0.126-0.332,0.229-0.551,0.165C66.827,99.85,66.655,99.846,66.484,99.842z"/>
		<path fill-rule="evenodd" clip-rule="evenodd" fill="#745744" d="M67.454,99.587c-0.019-0.514,0.377-0.47,0.702-0.521
			c0.218,0.005,0.436,0.011,0.654,0.017c0.395-0.187,0.782-0.331,1.076,0.159c-0.095,0.313-0.367,0.352-0.628,0.408
			c-0.432,0.041-0.872,0.015-1.3,0.113C67.765,99.775,67.59,99.737,67.454,99.587z"/>
		<path fill-rule="evenodd" clip-rule="evenodd" fill="#E9C8C1" d="M72.244,98.853c0,0.161-0.001,0.323-0.001,0.484
			c-0.119,0.16-0.286,0.209-0.474,0.21c-0.315-0.042-0.585-0.153-0.722-0.47C71.432,98.927,71.766,98.504,72.244,98.853z"/>
		<path fill-rule="evenodd" clip-rule="evenodd" fill="#4F3B39" d="M71.047,99.077c0.238,0.099,0.476,0.198,0.713,0.296
			c0.074,0.134,0.048,0.244-0.078,0.332c-0.619,0.192-1.166,0.062-1.646-0.365c0.063-0.374,0.294-0.38,0.581-0.267
			C70.76,99.074,70.904,99.076,71.047,99.077z"/>
		<path fill-rule="evenodd" clip-rule="evenodd" fill="#785C58" d="M70.617,99.073c-0.176,0.082-0.352,0.164-0.527,0.246
			c-0.085,0.088-0.171,0.084-0.256,0c-0.288-0.312-0.684-0.154-1.024-0.237c0.042-0.048,0.066-0.104,0.072-0.168
			c0.558-0.238,1.117-0.216,1.677-0.011C70.567,98.964,70.586,99.021,70.617,99.073z"/>
		<path fill-rule="evenodd" clip-rule="evenodd" fill="#EFCEC9" d="M70.559,98.903c-0.559,0.004-1.118,0.008-1.677,0.011
			C69.438,98.477,69.997,98.494,70.559,98.903z"/>
		<path fill-rule="evenodd" clip-rule="evenodd" fill="#684A3D" d="M71.745,99.634c0.005-0.087,0.01-0.174,0.016-0.261
			c0.161-0.012,0.322-0.024,0.483-0.037c0.232,0.188,0.467,0.275,0.711,0.019c0.278,0.059,0.431,0.227,0.447,0.514
			c-0.016,0.052-0.033,0.104-0.052,0.154c-0.214,0.021-0.428,0.043-0.643,0.065C72.21,100.308,71.868,100.203,71.745,99.634z"/>
		<path fill-rule="evenodd" clip-rule="evenodd" fill="#8A7171" d="M73.401,99.869c-0.149-0.171-0.298-0.342-0.447-0.514
			c0.128-0.169,0.256-0.338,0.383-0.507c0.082,0.021,0.123,0.074,0.122,0.159c0.196,0.126,0.305,0.291,0.236,0.534
			C73.597,99.649,73.499,99.759,73.401,99.869z"/>
		<path fill-rule="evenodd" clip-rule="evenodd" fill="#D8B7B3" d="M73.695,99.54c-0.111-0.164-0.313-0.287-0.236-0.534
			c0.312-0.04,0.623-0.081,0.935-0.121C74.27,99.219,74.054,99.456,73.695,99.54z"/>
		<path fill-rule="evenodd" clip-rule="evenodd" fill="#E6C7BC" d="M72.251,100.574c-0.105,0.15-0.21,0.3-0.315,0.451
			c-0.08,0.033-0.16,0.066-0.239,0.099c-0.136,0.208-0.308,0.309-0.556,0.192c-0.598-0.485-1.368-0.623-2.022-0.995
			c-0.428-0.398-1.017,0.157-1.444-0.244c0.172-0.645,0.72-0.396,1.129-0.474c0.984-0.02,1.922,0.311,2.894,0.398
			C72.018,100.031,72.329,100.13,72.251,100.574z"/>
		<path fill-rule="evenodd" clip-rule="evenodd" fill="#E7C5BF" d="M69.119,100.321c0.872-0.061,1.625,0.165,2.161,0.905
			c-1.003,0.648-1.983,0.156-2.968-0.063c-0.047-0.051-0.093-0.103-0.14-0.154C68.43,100.7,68.995,100.814,69.119,100.321z"/>
		<path fill-rule="evenodd" clip-rule="evenodd" fill="#2D2322" d="M65.797,101.302c-0.085-0.065-0.171-0.13-0.256-0.196
			c0.444-0.086,0.889-0.172,1.333-0.259c0.433,0.054,0.865,0.108,1.297,0.162c0,0-0.035,0.069-0.035,0.069
			c0.055,0.27-0.132,0.3-0.323,0.328c-0.422,0.167-0.86,0.216-1.31,0.174C66.242,101.554,66.018,101.433,65.797,101.302z"/>
		<path fill-rule="evenodd" clip-rule="evenodd" fill="#F9EADE" d="M68.877,99.826c-0.403,0.073-0.864-0.127-1.203,0.251
			c-0.243-0.023-0.528,0.082-0.678-0.224c0.152-0.088,0.305-0.177,0.457-0.266c0.149-0.001,0.299-0.003,0.448-0.005
			c0.295-0.166,0.609-0.091,0.918-0.071C68.943,99.598,68.962,99.703,68.877,99.826z"/>
		<path fill-rule="evenodd" clip-rule="evenodd" fill="#976D60" d="M66.957,112.759c0.003-0.056,0-0.112-0.007-0.167
			c0.577-0.028,1.162-0.123,1.707,0.173c-0.047,0.06-0.107,0.083-0.182,0.068C67.955,113.096,67.439,113.275,66.957,112.759z"/>
		<path fill-rule="evenodd" clip-rule="evenodd" fill="#E4C2BD" d="M70.613,104.188c-0.475-0.039-0.552-0.361-0.536-0.75
			c0.572-0.519-0.042,0.482,0.392,0.198c0.36-0.187,0.333-0.954,1.014-0.909c0.09,0.028,0.129,0.071,0.118,0.127
			c-0.013,0.063-0.032,0.096-0.057,0.096c-0.093,0.112-0.187,0.225-0.28,0.337C70.86,103.452,71.049,104.046,70.613,104.188z"/>
		<path fill-rule="evenodd" clip-rule="evenodd" fill="#C09083" d="M66.481,101.317c0.466-0.001,0.931-0.002,1.396-0.003
			c0.093,0.007,0.136,0.037,0.13,0.089c-0.007,0.063-0.022,0.095-0.046,0.095c0.058,0.444,0.489,0.63,0.679,0.983
			c-0.404,0.004-0.808,0.009-1.211,0.014c-0.074-0.008-0.149-0.011-0.224-0.009c-0.078-0.085-0.155-0.17-0.233-0.255
			C66.678,101.997,66.369,101.771,66.481,101.317z"/>
		<path fill-rule="evenodd" clip-rule="evenodd" fill="#4D3F3C" d="M67.962,101.498c-0.027-0.062-0.056-0.123-0.084-0.184
			c0.086-0.079,0.173-0.158,0.259-0.237c1.048,0.044,2.083,0.362,3.143,0.148c0.139-0.034,0.278-0.069,0.417-0.103
			c-0.023,0.802-0.653,0.529-1.083,0.612c-0.476-0.228-1.004,0.015-1.485-0.167C68.74,101.545,68.351,101.521,67.962,101.498z"/>
		<path fill-rule="evenodd" clip-rule="evenodd" fill="#48393C" d="M71.544,102.949c-0.018-0.075-0.038-0.149-0.061-0.223
			c0.044-0.157,0.088-0.313,0.132-0.47c0.137-0.259,0.256-0.538,0.625-0.515c0.039,0.411-0.354,0.628-0.44,0.982
			C71.714,102.799,71.629,102.874,71.544,102.949z"/>
		<path fill-rule="evenodd" clip-rule="evenodd" fill="#C09083" d="M69.129,101.568c0.498,0.034,1.016-0.124,1.485,0.167
			C70.115,101.72,69.592,101.917,69.129,101.568z"/>
		<path fill-rule="evenodd" clip-rule="evenodd" fill="#F8F3CD" d="M68.877,99.826c0.001-0.072,0.001-0.143,0.001-0.215
			c0.051-0.106,0.134-0.176,0.247-0.208c0.236-0.028,0.473-0.056,0.709-0.084c0.085,0,0.17,0,0.256,0
			c0.551,0.105,1.103,0.209,1.654,0.314c0.289,0.219,0.562,0.47,0.961,0.454c-0.044,0.262-0.25,0.373-0.455,0.486
			c-0.316-0.755-0.966-0.12-1.451-0.337C70.215,99.975,69.523,99.952,68.877,99.826z"/>
		<path fill-rule="evenodd" clip-rule="evenodd" fill="#3A2D2E" d="M65.284,113.762c-0.003-0.082-0.006-0.163-0.009-0.244
			c0.066-0.021,0.135-0.035,0.205-0.04c0.673-0.054,1.341-0.201,2.022-0.135c0.186,0.5,0.186,0.5-0.786,0.897
			C66.107,114.473,65.647,114.262,65.284,113.762z"/>
		<path fill-rule="evenodd" clip-rule="evenodd" fill="#443C4E" d="M66.715,114.24c0.324-0.236,0.647-0.473,0.971-0.709
			c0.133-0.135,0.279-0.16,0.441-0.054c-0.073,0.171-0.146,0.343-0.219,0.514C67.48,113.925,67.19,114.523,66.715,114.24z"/>
		<path fill-rule="evenodd" clip-rule="evenodd" fill="#E0923A" d="M66.957,112.759c0.506,0.024,1.012,0.049,1.518,0.074
			c-0.108,0.145-0.215,0.289-0.323,0.434c-0.479,0.187-0.955,0.247-1.422-0.038c0-0.135,0-0.271,0-0.407
			C66.806,112.803,66.882,112.782,66.957,112.759z"/>
		<path fill-rule="evenodd" clip-rule="evenodd" fill="#704534" d="M66.73,113.229c0.474,0.013,0.948,0.025,1.422,0.038
			c-0.003,0.071-0.011,0.141-0.024,0.21c-0.147,0.018-0.294,0.036-0.441,0.054c-0.735-0.018-1.471-0.035-2.207-0.053
			C65.846,113.141,66.318,113.335,66.73,113.229z"/>
		<path fill-rule="evenodd" clip-rule="evenodd" fill="#D8B2AB" d="M69.121,104.398c-0.177,0.013-0.227,0.412-0.436,0.198
			c-0.119-0.122-0.096-0.438,0.102-0.527c0.275-0.124,0.293,0.143,0.332,0.331C69.119,104.401,69.121,104.398,69.121,104.398z"/>
		<path fill-rule="evenodd" clip-rule="evenodd" fill="#E7A88A" d="M66.481,101.317c0.17,0.301,0.499,0.517,0.492,0.914
			c-0.813,0.414-0.81-0.555-1.265-0.747c0.027-0.062,0.057-0.123,0.088-0.182C66.025,101.307,66.253,101.312,66.481,101.317z"/>
		<path fill-rule="evenodd" clip-rule="evenodd" fill="#E6C7BC" d="M69.125,99.403c-0.083,0.069-0.165,0.139-0.247,0.208
			c-0.326-0.009-0.651-0.019-0.977-0.029C68.283,99.339,68.703,99.361,69.125,99.403z"/>
	</g>
</g>
</svg>
